<?xml version="1.0" encoding="UTF-8" standalone="no"?><svg xmlns="http://www.w3.org/2000/svg" xmlns:xlink="http://www.w3.org/1999/xlink" clip-rule="evenodd" stroke-miterlimit="4.00" viewBox="0 0 1110 695"><desc>SVG generated by Keynote</desc><defs></defs><g transform="matrix(1.00, 0.00, -0.00, -1.00, 0.0, 695.0)"><image xlink:href="../../603F3FAD-72DD-4F10-90E4-1FDD0E7ADA3A/assets/7DEA467A9BECC50EE4CDF35206B2F5F5.png" width="15.00" height="16.00" transform="matrix(1.00, 0.00, -0.00, -1.00, 4.0, 685.0)"></image><g><clipPath id="clip-1105"><path d="M 4.0 669.3 L 18.6 669.3 L 18.6 684.0 L 4.0 684.0 Z M 4.0 669.3 "></path></clipPath><g clip-path="url(#clip-1105)"><g><g><clipPath id="clip-1106"><path d="M 4.0 684.0 L 18.6 684.0 L 18.6 669.3 L 4.0 669.3 Z M 4.0 684.0 "></path></clipPath><g clip-path="url(#clip-1106)"><g><clipPath id="clip-1107"><path d="M 0.0 662.0 L 23.0 662.0 L 23.0 692.0 L 0.0 692.0 Z M 0.0 662.0 "></path></clipPath><g clip-path="url(#clip-1107)"><path d="M 18.6 681.1 C 18.6 681.7 18.3 682.4 17.7 683.0 C 17.1 683.7 16.4 684.0 15.7 684.0 C 15.4 684.0 14.9 683.9 14.1 683.5 C 13.0 683.0 12.1 682.7 11.3 682.7 C 10.4 682.7 9.5 683.0 8.4 683.5 C 7.7 683.9 7.2 684.0 6.9 684.0 C 6.2 684.0 5.5 683.7 4.9 683.1 C 4.3 682.4 4.0 681.8 4.0 681.1 C 4.0 680.8 4.2 680.2 4.5 679.5 C 5.0 678.4 5.2 677.5 5.2 676.7 C 5.2 675.9 5.0 674.9 4.5 673.8 C 4.2 673.1 4.0 672.6 4.0 672.3 C 4.0 671.6 4.3 670.9 4.9 670.3 C 5.5 669.7 6.2 669.3 6.9 669.3 C 7.2 669.3 7.7 669.5 8.4 669.9 C 9.5 670.4 10.4 670.7 11.3 670.7 C 12.1 670.7 13.0 670.4 14.1 669.9 C 14.9 669.5 15.4 669.3 15.7 669.3 C 16.4 669.3 17.1 669.7 17.7 670.3 C 18.3 670.9 18.6 671.6 18.6 672.3 C 18.6 672.6 18.4 673.1 18.1 673.8 C 17.6 674.9 17.3 675.9 17.3 676.7 C 17.3 677.5 17.6 678.4 18.1 679.5 C 18.4 680.2 18.6 680.8 18.6 681.1 " fill="#FFFFFF"></path></g></g></g></g></g></g></g><image xlink:href="../../603F3FAD-72DD-4F10-90E4-1FDD0E7ADA3A/assets/B5F4CABC1DE6B48230AB6788CD5179A6.png" width="205.00" height="46.00" transform="matrix(1.00, 0.00, -0.00, -1.00, 44.0, 694.0)"></image><text xml:space="preserve" font-family="HelveticaNeue-Light" font-size="41.5" fill="#FEFFFE" transform="matrix(1.00, 0.00, -0.00, -1.00, 46.0, 663.0)">U</text><text xml:space="preserve" font-family="HelveticaNeue-Light" font-size="41.5" fill="#FEFFFE" transform="matrix(1.00, 0.00, -0.00, -1.00, 74.4, 663.0)">s</text><text xml:space="preserve" font-family="HelveticaNeue-Light" font-size="41.5" fill="#FEFFFE" transform="matrix(1.00, 0.00, -0.00, -1.00, 94.4, 663.0)">e</text><text xml:space="preserve" font-family="HelveticaNeue-Light" font-size="41.5" fill="#FEFFFE" transform="matrix(1.00, 0.00, -0.00, -1.00, 115.9, 663.0)"> </text><text xml:space="preserve" font-family="HelveticaNeue-Light" font-size="41.5" fill="#FEFFFE" transform="matrix(1.00, 0.00, -0.00, -1.00, 127.5, 663.0)">s</text><text xml:space="preserve" font-family="HelveticaNeue-Light" font-size="41.5" fill="#FEFFFE" transform="matrix(1.00, 0.00, -0.00, -1.00, 147.4, 663.0)">c</text><text xml:space="preserve" font-family="HelveticaNeue-Light" font-size="41.5" fill="#FEFFFE" transform="matrix(1.00, 0.00, -0.00, -1.00, 169.0, 663.0)">r</text><text xml:space="preserve" font-family="HelveticaNeue-Light" font-size="41.5" fill="#FEFFFE" transform="matrix(1.00, 0.00, -0.00, -1.00, 182.0, 663.0)">i</text><text xml:space="preserve" font-family="HelveticaNeue-Light" font-size="41.5" fill="#FEFFFE" transform="matrix(1.00, 0.00, -0.00, -1.00, 189.7, 663.0)">p</text><text xml:space="preserve" font-family="HelveticaNeue-Light" font-size="41.5" fill="#FEFFFE" transform="matrix(1.00, 0.00, -0.00, -1.00, 213.5, 663.0)">t</text><text xml:space="preserve" font-family="HelveticaNeue-Light" font-size="41.5" fill="#FEFFFE" transform="matrix(1.00, 0.00, -0.00, -1.00, 225.8, 663.0)">s</text><text xml:space="preserve" font-family="HelveticaNeue-Light" font-size="41.5" fill="#FEFFFE" transform="matrix(1.00, 0.00, -0.00, -1.00, 245.8, 663.0)"> </text><image xlink:href="../../603F3FAD-72DD-4F10-90E4-1FDD0E7ADA3A/assets/AE54BD6725326337033F0513BE4667FF.png" width="15.00" height="15.00" transform="matrix(1.00, 0.00, -0.00, -1.00, 54.0, 592.0)"></image><g><clipPath id="clip-1108"><path d="M 54.0 577.0 L 68.6 577.0 L 68.6 591.7 L 54.0 591.7 Z M 54.0 577.0 "></path></clipPath><g clip-path="url(#clip-1108)"><g><g><clipPath id="clip-1109"><path d="M 54.0 591.7 L 68.6 591.7 L 68.6 577.0 L 54.0 577.0 Z M 54.0 591.7 "></path></clipPath><g clip-path="url(#clip-1109)"><g><clipPath id="clip-1110"><path d="M 50.0 570.0 L 73.0 570.0 L 73.0 599.0 L 50.0 599.0 Z M 50.0 570.0 "></path></clipPath><g clip-path="url(#clip-1110)"><path d="M 68.6 588.8 C 68.6 589.4 68.3 590.1 67.7 590.7 C 67.1 591.4 66.4 591.7 65.7 591.7 C 65.4 591.7 64.9 591.5 64.1 591.2 C 63.0 590.6 62.1 590.4 61.3 590.4 C 60.4 590.4 59.5 590.6 58.4 591.2 C 57.7 591.5 57.2 591.7 56.9 591.7 C 56.2 591.7 55.5 591.4 54.9 590.7 C 54.3 590.1 54.0 589.5 54.0 588.8 C 54.0 588.4 54.2 587.9 54.5 587.1 C 55.0 586.1 55.2 585.1 55.2 584.4 C 55.2 583.6 55.0 582.6 54.5 581.5 C 54.2 580.8 54.0 580.3 54.0 580.0 C 54.0 579.3 54.3 578.6 54.9 578.0 C 55.5 577.3 56.2 577.0 56.9 577.0 C 57.2 577.0 57.7 577.2 58.4 577.5 C 59.5 578.1 60.4 578.3 61.3 578.3 C 62.1 578.3 63.0 578.1 64.1 577.5 C 64.9 577.2 65.4 577.0 65.7 577.0 C 66.4 577.0 67.1 577.3 67.7 578.0 C 68.3 578.6 68.6 579.3 68.6 580.0 C 68.6 580.3 68.4 580.8 68.1 581.5 C 67.6 582.6 67.3 583.6 67.3 584.4 C 67.3 585.1 67.6 586.1 68.1 587.1 C 68.4 587.9 68.6 588.4 68.6 588.8 " fill="#FFFFFF"></path></g></g></g></g></g></g></g><image xlink:href="../../603F3FAD-72DD-4F10-90E4-1FDD0E7ADA3A/assets/4104EC4DA9A463331D6C320BFBB3D43C.png" width="621.00" height="46.00" transform="matrix(1.00, 0.00, -0.00, -1.00, 94.0, 602.0)"></image><text xml:space="preserve" font-family="HelveticaNeue-Light" font-size="41.5" fill="#FEFFFE" transform="matrix(1.00, 0.00, -0.00, -1.00, 96.0, 571.0)">B</text><text xml:space="preserve" font-family="HelveticaNeue-Light" font-size="41.5" fill="#FEFFFE" transform="matrix(1.00, 0.00, -0.00, -1.00, 123.7, 571.0)">e</text><text xml:space="preserve" font-family="HelveticaNeue-Light" font-size="41.5" fill="#FEFFFE" transform="matrix(1.00, 0.00, -0.00, -1.00, 145.2, 571.0)"> </text><text xml:space="preserve" font-family="HelveticaNeue-Light" font-size="41.5" fill="#FEFFFE" transform="matrix(1.00, 0.00, -0.00, -1.00, 156.8, 571.0)">e</text><text xml:space="preserve" font-family="HelveticaNeue-Light" font-size="41.5" fill="#FEFFFE" transform="matrix(1.00, 0.00, -0.00, -1.00, 178.3, 571.0)">x</text><text xml:space="preserve" font-family="HelveticaNeue-Light" font-size="41.5" fill="#FEFFFE" transform="matrix(1.00, 0.00, -0.00, -1.00, 198.3, 571.0)">p</text><text xml:space="preserve" font-family="HelveticaNeue-Light" font-size="41.5" fill="#FEFFFE" transform="matrix(1.00, 0.00, -0.00, -1.00, 222.1, 571.0)">l</text><text xml:space="preserve" font-family="HelveticaNeue-Light" font-size="41.5" fill="#FEFFFE" transform="matrix(1.00, 0.00, -0.00, -1.00, 229.8, 571.0)">i</text><text xml:space="preserve" font-family="HelveticaNeue-Light" font-size="41.5" fill="#FEFFFE" transform="matrix(1.00, 0.00, -0.00, -1.00, 237.4, 571.0)">c</text><text xml:space="preserve" font-family="HelveticaNeue-Light" font-size="41.5" fill="#FEFFFE" transform="matrix(1.00, 0.00, -0.00, -1.00, 259.0, 571.0)">i</text><text xml:space="preserve" font-family="HelveticaNeue-Light" font-size="41.5" fill="#FEFFFE" transform="matrix(1.00, 0.00, -0.00, -1.00, 266.6, 571.0)">t</text><text xml:space="preserve" font-family="HelveticaNeue-Light" font-size="41.5" fill="#FEFFFE" transform="matrix(1.00, 0.00, -0.00, -1.00, 278.9, 571.0)"> </text><text xml:space="preserve" font-family="HelveticaNeue-Light" font-size="41.5" fill="#FEFFFE" transform="matrix(1.00, 0.00, -0.00, -1.00, 290.5, 571.0)">a</text><text xml:space="preserve" font-family="HelveticaNeue-Light" font-size="41.5" fill="#FEFFFE" transform="matrix(1.00, 0.00, -0.00, -1.00, 312.0, 571.0)">b</text><text xml:space="preserve" font-family="HelveticaNeue-Light" font-size="41.5" fill="#FEFFFE" transform="matrix(1.00, 0.00, -0.00, -1.00, 335.8, 571.0)">o</text><text xml:space="preserve" font-family="HelveticaNeue-Light" font-size="41.5" fill="#FEFFFE" transform="matrix(1.00, 0.00, -0.00, -1.00, 358.9, 571.0)">u</text><text xml:space="preserve" font-family="HelveticaNeue-Light" font-size="41.5" fill="#FEFFFE" transform="matrix(1.00, 0.00, -0.00, -1.00, 381.2, 571.0)">t</text><text xml:space="preserve" font-family="HelveticaNeue-Light" font-size="41.5" fill="#FEFFFE" transform="matrix(1.00, 0.00, -0.00, -1.00, 393.5, 571.0)"> </text><text xml:space="preserve" font-family="HelveticaNeue-Light" font-size="41.5" fill="#FEFFFE" transform="matrix(1.00, 0.00, -0.00, -1.00, 405.0, 571.0)">o</text><text xml:space="preserve" font-family="HelveticaNeue-Light" font-size="41.5" fill="#FEFFFE" transform="matrix(1.00, 0.00, -0.00, -1.00, 428.1, 571.0)">p</text><text xml:space="preserve" font-family="HelveticaNeue-Light" font-size="41.5" fill="#FEFFFE" transform="matrix(1.00, 0.00, -0.00, -1.00, 451.9, 571.0)">t</text><text xml:space="preserve" font-family="HelveticaNeue-Light" font-size="41.5" fill="#FEFFFE" transform="matrix(1.00, 0.00, -0.00, -1.00, 464.2, 571.0)">i</text><text xml:space="preserve" font-family="HelveticaNeue-Light" font-size="41.5" fill="#FEFFFE" transform="matrix(1.00, 0.00, -0.00, -1.00, 471.9, 571.0)">o</text><text xml:space="preserve" font-family="HelveticaNeue-Light" font-size="41.5" fill="#FEFFFE" transform="matrix(1.00, 0.00, -0.00, -1.00, 494.9, 571.0)">n</text><text xml:space="preserve" font-family="HelveticaNeue-Light" font-size="41.5" fill="#FEFFFE" transform="matrix(1.00, 0.00, -0.00, -1.00, 517.2, 571.0)">s</text><text xml:space="preserve" font-family="HelveticaNeue-Light" font-size="41.5" fill="#FEFFFE" transform="matrix(1.00, 0.00, -0.00, -1.00, 537.2, 571.0)"> </text><text xml:space="preserve" font-family="HelveticaNeue-Light" font-size="41.5" fill="#FEFFFE" transform="matrix(1.00, 0.00, -0.00, -1.00, 548.7, 571.0)">i</text><text xml:space="preserve" font-family="HelveticaNeue-Light" font-size="41.5" fill="#FEFFFE" transform="matrix(1.00, 0.00, -0.00, -1.00, 556.4, 571.0)">f</text><text xml:space="preserve" font-family="HelveticaNeue-Light" font-size="41.5" fill="#FEFFFE" transform="matrix(1.00, 0.00, -0.00, -1.00, 567.1, 571.0)"> </text><text xml:space="preserve" font-family="HelveticaNeue-Light" font-size="41.5" fill="#FEFFFE" transform="matrix(1.00, 0.00, -0.00, -1.00, 578.7, 571.0)">n</text><text xml:space="preserve" font-family="HelveticaNeue-Light" font-size="41.5" fill="#FEFFFE" transform="matrix(1.00, 0.00, -0.00, -1.00, 601.0, 571.0)">e</text><text xml:space="preserve" font-family="HelveticaNeue-Light" font-size="41.5" fill="#FEFFFE" transform="matrix(1.00, 0.00, -0.00, -1.00, 622.5, 571.0)">e</text><text xml:space="preserve" font-family="HelveticaNeue-Light" font-size="41.5" fill="#FEFFFE" transform="matrix(1.00, 0.00, -0.00, -1.00, 644.0, 571.0)">d</text><text xml:space="preserve" font-family="HelveticaNeue-Light" font-size="41.5" fill="#FEFFFE" transform="matrix(1.00, 0.00, -0.00, -1.00, 667.9, 571.0)">e</text><text xml:space="preserve" font-family="HelveticaNeue-Light" font-size="41.5" fill="#FEFFFE" transform="matrix(1.00, 0.00, -0.00, -1.00, 689.4, 571.0)">d</text><text xml:space="preserve" font-family="HelveticaNeue-Light" font-size="41.5" fill="#FEFFFE" transform="matrix(1.00, 0.00, -0.00, -1.00, 713.2, 571.0)"> </text><image xlink:href="../../603F3FAD-72DD-4F10-90E4-1FDD0E7ADA3A/assets/22E0B54E36C0B73F71FFD29D4BE71AE6.png" width="15.00" height="16.00" transform="matrix(1.00, 0.00, -0.00, -1.00, 4.0, 500.0)"></image><g><clipPath id="clip-1111"><path d="M 4.0 484.7 L 18.6 484.7 L 18.6 499.4 L 4.0 499.4 Z M 4.0 484.7 "></path></clipPath><g clip-path="url(#clip-1111)"><g><g><clipPath id="clip-1112"><path d="M 4.0 499.4 L 18.6 499.4 L 18.6 484.7 L 4.0 484.7 Z M 4.0 499.4 "></path></clipPath><g clip-path="url(#clip-1112)"><g><clipPath id="clip-1113"><path d="M 0.0 477.0 L 23.0 477.0 L 23.0 507.0 L 0.0 507.0 Z M 0.0 477.0 "></path></clipPath><g clip-path="url(#clip-1113)"><path d="M 18.6 496.4 C 18.6 497.1 18.3 497.7 17.7 498.4 C 17.1 499.0 16.4 499.4 15.7 499.4 C 15.4 499.4 14.9 499.2 14.1 498.9 C 13.0 498.3 12.1 498.1 11.3 498.1 C 10.4 498.1 9.5 498.3 8.4 498.9 C 7.7 499.2 7.2 499.4 6.9 499.4 C 6.2 499.4 5.5 499.1 4.9 498.4 C 4.3 497.8 4.0 497.1 4.0 496.4 C 4.0 496.1 4.2 495.6 4.5 494.8 C 5.0 493.7 5.2 492.8 5.2 492.0 C 5.2 491.2 5.0 490.3 4.5 489.2 C 4.2 488.5 4.0 488.0 4.0 487.6 C 4.0 486.9 4.3 486.3 4.9 485.6 C 5.5 485.0 6.2 484.7 6.9 484.7 C 7.2 484.7 7.7 484.9 8.4 485.2 C 9.5 485.7 10.4 486.0 11.3 486.0 C 12.1 486.0 13.0 485.7 14.1 485.2 C 14.9 484.9 15.4 484.7 15.7 484.7 C 16.4 484.7 17.1 485.0 17.7 485.6 C 18.3 486.3 18.6 486.9 18.6 487.6 C 18.6 488.0 18.4 488.5 18.1 489.2 C 17.6 490.3 17.3 491.2 17.3 492.0 C 17.3 492.8 17.6 493.7 18.1 494.8 C 18.4 495.6 18.6 496.1 18.6 496.4 " fill="#FFFFFF"></path></g></g></g></g></g></g></g><image xlink:href="../../603F3FAD-72DD-4F10-90E4-1FDD0E7ADA3A/assets/63E62263A9BEF68B6414DD05875C9B44.png" width="1061.00" height="47.00" transform="matrix(1.00, 0.00, -0.00, -1.00, 44.0, 510.0)"></image><text xml:space="preserve" font-family="HelveticaNeue-Light" font-size="41.5" fill="#FEFFFE" transform="matrix(1.00, 0.00, -0.00, -1.00, 46.0, 478.0)">R</text><text xml:space="preserve" font-family="HelveticaNeue-Light" font-size="41.5" fill="#FEFFFE" transform="matrix(1.00, 0.00, -0.00, -1.00, 73.7, 478.0)">,</text><text xml:space="preserve" font-family="HelveticaNeue-Light" font-size="41.5" fill="#FEFFFE" transform="matrix(1.00, 0.00, -0.00, -1.00, 85.2, 478.0)"> </text><text xml:space="preserve" font-family="HelveticaNeue-Light" font-size="41.5" fill="#FEFFFE" transform="matrix(1.00, 0.00, -0.00, -1.00, 96.8, 478.0)">P</text><text xml:space="preserve" font-family="HelveticaNeue-Light" font-size="41.5" fill="#FEFFFE" transform="matrix(1.00, 0.00, -0.00, -1.00, 122.9, 478.0)">y</text><text xml:space="preserve" font-family="HelveticaNeue-Light" font-size="41.5" fill="#FEFFFE" transform="matrix(1.00, 0.00, -0.00, -1.00, 142.1, 478.0)">t</text><text xml:space="preserve" font-family="HelveticaNeue-Light" font-size="41.5" fill="#FEFFFE" transform="matrix(1.00, 0.00, -0.00, -1.00, 154.4, 478.0)">h</text><text xml:space="preserve" font-family="HelveticaNeue-Light" font-size="41.5" fill="#FEFFFE" transform="matrix(1.00, 0.00, -0.00, -1.00, 176.7, 478.0)">o</text><text xml:space="preserve" font-family="HelveticaNeue-Light" font-size="41.5" fill="#FEFFFE" transform="matrix(1.00, 0.00, -0.00, -1.00, 199.8, 478.0)">n</text><text xml:space="preserve" font-family="HelveticaNeue-Light" font-size="41.5" fill="#FEFFFE" transform="matrix(1.00, 0.00, -0.00, -1.00, 222.0, 478.0)"> </text><text xml:space="preserve" font-family="HelveticaNeue-Light" font-size="41.5" fill="#FEFFFE" transform="matrix(1.00, 0.00, -0.00, -1.00, 233.6, 478.0)">,</text><text xml:space="preserve" font-family="HelveticaNeue-Light" font-size="41.5" fill="#FEFFFE" transform="matrix(1.00, 0.00, -0.00, -1.00, 245.1, 478.0)"> </text><text xml:space="preserve" font-family="HelveticaNeue-Light" font-size="41.5" fill="#FEFFFE" transform="matrix(1.00, 0.00, -0.00, -1.00, 256.7, 478.0)">S</text><text xml:space="preserve" font-family="HelveticaNeue-Light" font-size="41.5" fill="#FEFFFE" transform="matrix(1.00, 0.00, -0.00, -1.00, 282.8, 478.0)">A</text><text xml:space="preserve" font-family="HelveticaNeue-Light" font-size="41.5" fill="#FEFFFE" transform="matrix(1.00, 0.00, -0.00, -1.00, 308.9, 478.0)">S</text><text xml:space="preserve" font-family="HelveticaNeue-Light" font-size="41.5" fill="#FEFFFE" transform="matrix(1.00, 0.00, -0.00, -1.00, 335.1, 478.0)">,</text><text xml:space="preserve" font-family="HelveticaNeue-Light" font-size="41.5" fill="#FEFFFE" transform="matrix(1.00, 0.00, -0.00, -1.00, 346.6, 478.0)"> </text><text xml:space="preserve" font-family="HelveticaNeue-Light" font-size="41.5" fill="#FEFFFE" transform="matrix(1.00, 0.00, -0.00, -1.00, 358.2, 478.0)">M</text><text xml:space="preserve" font-family="HelveticaNeue-Light" font-size="41.5" fill="#FEFFFE" transform="matrix(1.00, 0.00, -0.00, -1.00, 392.2, 478.0)">a</text><text xml:space="preserve" font-family="HelveticaNeue-Light" font-size="41.5" fill="#FEFFFE" transform="matrix(1.00, 0.00, -0.00, -1.00, 413.8, 478.0)">t</text><text xml:space="preserve" font-family="HelveticaNeue-Light" font-size="41.5" fill="#FEFFFE" transform="matrix(1.00, 0.00, -0.00, -1.00, 426.1, 478.0)">l</text><text xml:space="preserve" font-family="HelveticaNeue-Light" font-size="41.5" fill="#FEFFFE" transform="matrix(1.00, 0.00, -0.00, -1.00, 433.7, 478.0)">a</text><text xml:space="preserve" font-family="HelveticaNeue-Light" font-size="41.5" fill="#FEFFFE" transform="matrix(1.00, 0.00, -0.00, -1.00, 455.3, 478.0)">b</text><text xml:space="preserve" font-family="HelveticaNeue-Light" font-size="41.5" fill="#FEFFFE" transform="matrix(1.00, 0.00, -0.00, -1.00, 479.1, 478.0)">,</text><text xml:space="preserve" font-family="HelveticaNeue-Light" font-size="41.5" fill="#FEFFFE" transform="matrix(1.00, 0.00, -0.00, -1.00, 490.6, 478.0)"> </text><text xml:space="preserve" font-family="HelveticaNeue-Light" font-size="41.5" fill="#FEFFFE" transform="matrix(1.00, 0.00, -0.00, -1.00, 502.2, 478.0)">S</text><text xml:space="preserve" font-family="HelveticaNeue-Light" font-size="41.5" fill="#FEFFFE" transform="matrix(1.00, 0.00, -0.00, -1.00, 528.3, 478.0)">t</text><text xml:space="preserve" font-family="HelveticaNeue-Light" font-size="41.5" fill="#FEFFFE" transform="matrix(1.00, 0.00, -0.00, -1.00, 540.6, 478.0)">a</text><text xml:space="preserve" font-family="HelveticaNeue-Light" font-size="41.5" fill="#FEFFFE" transform="matrix(1.00, 0.00, -0.00, -1.00, 562.1, 478.0)">t</text><text xml:space="preserve" font-family="HelveticaNeue-Light" font-size="41.5" fill="#FEFFFE" transform="matrix(1.00, 0.00, -0.00, -1.00, 574.4, 478.0)">a</text><text xml:space="preserve" font-family="HelveticaNeue-Light" font-size="41.5" fill="#FEFFFE" transform="matrix(1.00, 0.00, -0.00, -1.00, 596.0, 478.0)">,</text><text xml:space="preserve" font-family="HelveticaNeue-Light" font-size="41.5" fill="#FEFFFE" transform="matrix(1.00, 0.00, -0.00, -1.00, 607.5, 478.0)"> </text><text xml:space="preserve" font-family="HelveticaNeue-Light" font-size="41.5" fill="#FEFFFE" transform="matrix(1.00, 0.00, -0.00, -1.00, 619.0, 478.0)">s</text><text xml:space="preserve" font-family="HelveticaNeue-Light" font-size="41.5" fill="#FEFFFE" transform="matrix(1.00, 0.00, -0.00, -1.00, 639.0, 478.0)">h</text><text xml:space="preserve" font-family="HelveticaNeue-Light" font-size="41.5" fill="#FEFFFE" transform="matrix(1.00, 0.00, -0.00, -1.00, 661.3, 478.0)">e</text><text xml:space="preserve" font-family="HelveticaNeue-Light" font-size="41.5" fill="#FEFFFE" transform="matrix(1.00, 0.00, -0.00, -1.00, 682.8, 478.0)">l</text><text xml:space="preserve" font-family="HelveticaNeue-Light" font-size="41.5" fill="#FEFFFE" transform="matrix(1.00, 0.00, -0.00, -1.00, 690.5, 478.0)">l</text><text xml:space="preserve" font-family="HelveticaNeue-Light" font-size="41.5" fill="#FEFFFE" transform="matrix(1.00, 0.00, -0.00, -1.00, 698.2, 478.0)">,</text><text xml:space="preserve" font-family="HelveticaNeue-Light" font-size="41.5" fill="#FEFFFE" transform="matrix(1.00, 0.00, -0.00, -1.00, 709.7, 478.0)"> </text><text xml:space="preserve" font-family="HelveticaNeue-Light" font-size="41.5" fill="#FEFFFE" transform="matrix(1.00, 0.00, -0.00, -1.00, 721.2, 478.0)">P</text><text xml:space="preserve" font-family="HelveticaNeue-Light" font-size="41.5" fill="#FEFFFE" transform="matrix(1.00, 0.00, -0.00, -1.00, 747.4, 478.0)">e</text><text xml:space="preserve" font-family="HelveticaNeue-Light" font-size="41.5" fill="#FEFFFE" transform="matrix(1.00, 0.00, -0.00, -1.00, 768.9, 478.0)">r</text><text xml:space="preserve" font-family="HelveticaNeue-Light" font-size="41.5" fill="#FEFFFE" transform="matrix(1.00, 0.00, -0.00, -1.00, 782.0, 478.0)">l</text><text xml:space="preserve" font-family="HelveticaNeue-Light" font-size="41.5" fill="#FEFFFE" transform="matrix(1.00, 0.00, -0.00, -1.00, 789.7, 478.0)">,</text><text xml:space="preserve" font-family="HelveticaNeue-Light" font-size="41.5" fill="#FEFFFE" transform="matrix(1.00, 0.00, -0.00, -1.00, 801.2, 478.0)"> </text><text xml:space="preserve" font-family="HelveticaNeue-Light" font-size="41.5" fill="#FEFFFE" transform="matrix(1.00, 0.00, -0.00, -1.00, 812.8, 478.0)">C</text><text xml:space="preserve" font-family="HelveticaNeue-Light" font-size="41.5" fill="#FEFFFE" transform="matrix(1.00, 0.00, -0.00, -1.00, 842.0, 478.0)">/</text><text xml:space="preserve" font-family="HelveticaNeue-Light" font-size="41.5" fill="#FEFFFE" transform="matrix(1.00, 0.00, -0.00, -1.00, 855.8, 478.0)">C</text><text xml:space="preserve" font-family="HelveticaNeue-Light" font-size="41.5" fill="#FEFFFE" transform="matrix(1.00, 0.00, -0.00, -1.00, 885.0, 478.0)">+</text><text xml:space="preserve" font-family="HelveticaNeue-Light" font-size="41.5" fill="#FEFFFE" transform="matrix(1.00, 0.00, -0.00, -1.00, 909.9, 478.0)">+</text><text xml:space="preserve" font-family="HelveticaNeue-Light" font-size="41.5" fill="#FEFFFE" transform="matrix(1.00, 0.00, -0.00, -1.00, 934.8, 478.0)">,</text><text xml:space="preserve" font-family="HelveticaNeue-Light" font-size="41.5" fill="#FEFFFE" transform="matrix(1.00, 0.00, -0.00, -1.00, 946.3, 478.0)"> </text><text xml:space="preserve" font-family="HelveticaNeue-Light" font-size="41.5" fill="#FEFFFE" transform="matrix(1.00, 0.00, -0.00, -1.00, 957.9, 478.0)">J</text><text xml:space="preserve" font-family="HelveticaNeue-Light" font-size="41.5" fill="#FEFFFE" transform="matrix(1.00, 0.00, -0.00, -1.00, 978.6, 478.0)">a</text><text xml:space="preserve" font-family="HelveticaNeue-Light" font-size="41.5" fill="#FEFFFE" transform="matrix(1.00, 0.00, -0.00, -1.00, 1000.2, 478.0)">v</text><text xml:space="preserve" font-family="HelveticaNeue-Light" font-size="41.5" fill="#FEFFFE" transform="matrix(1.00, 0.00, -0.00, -1.00, 1019.4, 478.0)">a</text><text xml:space="preserve" font-family="HelveticaNeue-Light" font-size="41.5" fill="#FEFFFE" transform="matrix(1.00, 0.00, -0.00, -1.00, 1040.9, 478.0)">,</text><text xml:space="preserve" font-family="HelveticaNeue-Light" font-size="41.5" fill="#FEFFFE" transform="matrix(1.00, 0.00, -0.00, -1.00, 1052.5, 478.0)"> </text><text xml:space="preserve" font-family="HelveticaNeue-Light" font-size="41.5" fill="#FEFFFE" transform="matrix(1.00, 0.00, -0.00, -1.00, 1064.0, 478.0)">…</text><text xml:space="preserve" font-family="HelveticaNeue-Light" font-size="41.5" fill="#FEFFFE" transform="matrix(1.00, 0.00, -0.00, -1.00, 1105.5, 478.0)"> </text><image xlink:href="../../603F3FAD-72DD-4F10-90E4-1FDD0E7ADA3A/assets/3EF382C696402BA1F3CA1B659A13AE42.png" width="15.00" height="16.00" transform="matrix(1.00, 0.00, -0.00, -1.00, 4.0, 408.0)"></image><g><clipPath id="clip-1114"><path d="M 4.0 392.4 L 18.6 392.4 L 18.6 407.0 L 4.0 407.0 Z M 4.0 392.4 "></path></clipPath><g clip-path="url(#clip-1114)"><g><g><clipPath id="clip-1115"><path d="M 4.0 407.0 L 18.6 407.0 L 18.6 392.4 L 4.0 392.4 Z M 4.0 407.0 "></path></clipPath><g clip-path="url(#clip-1115)"><g><clipPath id="clip-1116"><path d="M 0.0 385.0 L 23.0 385.0 L 23.0 415.0 L 0.0 415.0 Z M 0.0 385.0 "></path></clipPath><g clip-path="url(#clip-1116)"><path d="M 18.6 404.1 C 18.6 404.7 18.3 405.4 17.7 406.1 C 17.1 406.7 16.4 407.0 15.7 407.0 C 15.4 407.0 14.9 406.9 14.1 406.5 C 13.0 406.0 12.1 405.7 11.3 405.7 C 10.4 405.7 9.5 406.0 8.4 406.5 C 7.7 406.9 7.2 407.0 6.9 407.0 C 6.2 407.0 5.5 406.7 4.9 406.1 C 4.3 405.5 4.0 404.8 4.0 404.1 C 4.0 403.8 4.2 403.2 4.5 402.5 C 5.0 401.4 5.2 400.5 5.2 399.7 C 5.2 398.9 5.0 398.0 4.5 396.8 C 4.2 396.1 4.0 395.6 4.0 395.3 C 4.0 394.6 4.3 393.9 4.9 393.3 C 5.5 392.7 6.2 392.4 6.9 392.4 C 7.2 392.4 7.7 392.5 8.4 392.9 C 9.5 393.4 10.4 393.7 11.3 393.7 C 12.1 393.7 13.0 393.4 14.1 392.9 C 14.9 392.5 15.4 392.4 15.7 392.4 C 16.4 392.4 17.1 392.7 17.7 393.3 C 18.3 393.9 18.6 394.6 18.6 395.3 C 18.6 395.6 18.4 396.1 18.1 396.8 C 17.6 398.0 17.3 398.9 17.3 399.7 C 17.3 400.5 17.6 401.4 18.1 402.5 C 18.4 403.2 18.6 403.8 18.6 404.1 " fill="#FFFFFF"></path></g></g></g></g></g></g></g><image xlink:href="../../603F3FAD-72DD-4F10-90E4-1FDD0E7ADA3A/assets/E6602449F18C10B9AB4886BB6C64CF5D.png" width="104.00" height="46.00" transform="matrix(1.00, 0.00, -0.00, -1.00, 41.0, 417.0)"></image><text xml:space="preserve" font-family="HelveticaNeue-Light" font-size="41.5" fill="#FEFFFE" transform="matrix(1.00, 0.00, -0.00, -1.00, 46.0, 386.0)">V</text><text xml:space="preserve" font-family="HelveticaNeue-Light" font-size="41.5" fill="#FEFFFE" transform="matrix(1.00, 0.00, -0.00, -1.00, 68.3, 386.0)">e</text><text xml:space="preserve" font-family="HelveticaNeue-Light" font-size="41.5" fill="#FEFFFE" transform="matrix(1.00, 0.00, -0.00, -1.00, 89.9, 386.0)">r</text><text xml:space="preserve" font-family="HelveticaNeue-Light" font-size="41.5" fill="#FEFFFE" transform="matrix(1.00, 0.00, -0.00, -1.00, 102.9, 386.0)">i</text><text xml:space="preserve" font-family="HelveticaNeue-Light" font-size="41.5" fill="#FEFFFE" transform="matrix(1.00, 0.00, -0.00, -1.00, 110.6, 386.0)">f</text><text xml:space="preserve" font-family="HelveticaNeue-Light" font-size="41.5" fill="#FEFFFE" transform="matrix(1.00, 0.00, -0.00, -1.00, 121.4, 386.0)">y</text><text xml:space="preserve" font-family="HelveticaNeue-Light" font-size="41.5" fill="#FEFFFE" transform="matrix(1.00, 0.00, -0.00, -1.00, 140.6, 386.0)"> </text><image xlink:href="../../603F3FAD-72DD-4F10-90E4-1FDD0E7ADA3A/assets/AAED8604D5322758062C61073D1F7A68.png" width="15.00" height="15.00" transform="matrix(1.00, 0.00, -0.00, -1.00, 54.0, 315.0)"></image><g><clipPath id="clip-1117"><path d="M 54.0 300.0 L 68.6 300.0 L 68.6 314.7 L 54.0 314.7 Z M 54.0 300.0 "></path></clipPath><g clip-path="url(#clip-1117)"><g><g><clipPath id="clip-1118"><path d="M 54.0 314.7 L 68.6 314.7 L 68.6 300.0 L 54.0 300.0 Z M 54.0 314.7 "></path></clipPath><g clip-path="url(#clip-1118)"><g><clipPath id="clip-1119"><path d="M 50.0 293.0 L 73.0 293.0 L 73.0 322.0 L 50.0 322.0 Z M 50.0 293.0 "></path></clipPath><g clip-path="url(#clip-1119)"><path d="M 68.6 311.8 C 68.6 312.4 68.3 313.1 67.7 313.7 C 67.1 314.4 66.4 314.7 65.7 314.7 C 65.4 314.7 64.9 314.5 64.1 314.2 C 63.0 313.7 62.1 313.4 61.3 313.4 C 60.4 313.4 59.5 313.7 58.4 314.2 C 57.7 314.5 57.2 314.7 56.9 314.7 C 56.2 314.7 55.5 314.4 54.9 313.8 C 54.3 313.1 54.0 312.5 54.0 311.8 C 54.0 311.4 54.2 310.9 54.5 310.2 C 55.0 309.1 55.2 308.2 55.2 307.4 C 55.2 306.6 55.0 305.6 54.5 304.5 C 54.2 303.8 54.0 303.3 54.0 303.0 C 54.0 302.3 54.3 301.6 54.9 301.0 C 55.5 300.3 56.2 300.0 56.9 300.0 C 57.2 300.0 57.7 300.2 58.4 300.5 C 59.5 301.1 60.4 301.3 61.3 301.3 C 62.1 301.3 63.0 301.1 64.1 300.5 C 64.9 300.2 65.4 300.0 65.7 300.0 C 66.4 300.0 67.1 300.3 67.7 301.0 C 68.3 301.6 68.6 302.3 68.6 303.0 C 68.6 303.3 68.4 303.8 68.1 304.5 C 67.6 305.6 67.3 306.6 67.3 307.4 C 67.3 308.2 67.6 309.1 68.1 310.2 C 68.4 310.9 68.6 311.4 68.6 311.8 " fill="#FFFFFF"></path></g></g></g></g></g></g></g><image xlink:href="../../603F3FAD-72DD-4F10-90E4-1FDD0E7ADA3A/assets/34AE9BB073689CC1C1803042206B65FD.png" width="212.00" height="39.00" transform="matrix(1.00, 0.00, -0.00, -1.00, 93.0, 325.0)"></image><text xml:space="preserve" font-family="HelveticaNeue-Light" font-size="41.5" fill="#FEFFFE" transform="matrix(1.00, 0.00, -0.00, -1.00, 96.0, 294.0)">s</text><text xml:space="preserve" font-family="HelveticaNeue-Light" font-size="41.5" fill="#FEFFFE" transform="matrix(1.00, 0.00, -0.00, -1.00, 116.0, 294.0)">i</text><text xml:space="preserve" font-family="HelveticaNeue-Light" font-size="41.5" fill="#FEFFFE" transform="matrix(1.00, 0.00, -0.00, -1.00, 123.6, 294.0)">z</text><text xml:space="preserve" font-family="HelveticaNeue-Light" font-size="41.5" fill="#FEFFFE" transform="matrix(1.00, 0.00, -0.00, -1.00, 142.9, 294.0)">e</text><text xml:space="preserve" font-family="HelveticaNeue-Light" font-size="41.5" fill="#FEFFFE" transform="matrix(1.00, 0.00, -0.00, -1.00, 164.4, 294.0)"> </text><text xml:space="preserve" font-family="HelveticaNeue-Light" font-size="41.5" fill="#FEFFFE" transform="matrix(1.00, 0.00, -0.00, -1.00, 175.9, 294.0)">o</text><text xml:space="preserve" font-family="HelveticaNeue-Light" font-size="41.5" fill="#FEFFFE" transform="matrix(1.00, 0.00, -0.00, -1.00, 199.0, 294.0)">f</text><text xml:space="preserve" font-family="HelveticaNeue-Light" font-size="41.5" fill="#FEFFFE" transform="matrix(1.00, 0.00, -0.00, -1.00, 209.8, 294.0)"> </text><text xml:space="preserve" font-family="HelveticaNeue-Light" font-size="41.5" fill="#FEFFFE" transform="matrix(1.00, 0.00, -0.00, -1.00, 221.3, 294.0)">d</text><text xml:space="preserve" font-family="HelveticaNeue-Light" font-size="41.5" fill="#FEFFFE" transform="matrix(1.00, 0.00, -0.00, -1.00, 245.1, 294.0)">a</text><text xml:space="preserve" font-family="HelveticaNeue-Light" font-size="41.5" fill="#FEFFFE" transform="matrix(1.00, 0.00, -0.00, -1.00, 266.6, 294.0)">t</text><text xml:space="preserve" font-family="HelveticaNeue-Light" font-size="41.5" fill="#FEFFFE" transform="matrix(1.00, 0.00, -0.00, -1.00, 278.9, 294.0)">a</text><text xml:space="preserve" font-family="HelveticaNeue-Light" font-size="41.5" fill="#FEFFFE" transform="matrix(1.00, 0.00, -0.00, -1.00, 300.5, 294.0)"> </text><image xlink:href="../../603F3FAD-72DD-4F10-90E4-1FDD0E7ADA3A/assets/85E72FA7032AFC7BD98A209C8634DB67.png" width="15.00" height="16.00" transform="matrix(1.00, 0.00, -0.00, -1.00, 54.0, 223.0)"></image><g><clipPath id="clip-1120"><path d="M 54.0 207.7 L 68.6 207.7 L 68.6 222.4 L 54.0 222.4 Z M 54.0 207.7 "></path></clipPath><g clip-path="url(#clip-1120)"><g><g><clipPath id="clip-1121"><path d="M 54.0 222.4 L 68.6 222.4 L 68.6 207.7 L 54.0 207.7 Z M 54.0 222.4 "></path></clipPath><g clip-path="url(#clip-1121)"><g><clipPath id="clip-1122"><path d="M 50.0 200.0 L 73.0 200.0 L 73.0 230.0 L 50.0 230.0 Z M 50.0 200.0 "></path></clipPath><g clip-path="url(#clip-1122)"><path d="M 68.6 219.4 C 68.6 220.1 68.3 220.7 67.7 221.4 C 67.1 222.1 66.4 222.4 65.7 222.4 C 65.4 222.4 64.9 222.2 64.1 221.9 C 63.0 221.3 62.1 221.1 61.3 221.1 C 60.4 221.1 59.5 221.3 58.4 221.9 C 57.7 222.2 57.2 222.4 56.9 222.4 C 56.2 222.4 55.5 222.1 54.9 221.4 C 54.3 220.8 54.0 220.1 54.0 219.4 C 54.0 219.1 54.2 218.6 54.5 217.8 C 55.0 216.8 55.2 215.8 55.2 215.0 C 55.2 214.3 55.0 213.3 54.5 212.2 C 54.2 211.5 54.0 211.0 54.0 210.6 C 54.0 209.9 54.3 209.3 54.9 208.6 C 55.5 208.0 56.2 207.7 56.9 207.7 C 57.2 207.7 57.7 207.9 58.4 208.2 C 59.5 208.7 60.4 209.0 61.3 209.0 C 62.1 209.0 63.0 208.7 64.1 208.2 C 64.9 207.9 65.4 207.7 65.7 207.7 C 66.4 207.7 67.1 208.0 67.7 208.6 C 68.3 209.3 68.6 209.9 68.6 210.6 C 68.6 211.0 68.4 211.5 68.1 212.2 C 67.6 213.3 67.3 214.3 67.3 215.0 C 67.3 215.8 67.6 216.8 68.1 217.8 C 68.4 218.6 68.6 219.1 68.6 219.4 " fill="#FFFFFF"></path></g></g></g></g></g></g></g><image xlink:href="../../603F3FAD-72DD-4F10-90E4-1FDD0E7ADA3A/assets/468D34655B0BAB8CC1CBD1BA9AB211C4.png" width="317.00" height="46.00" transform="matrix(1.00, 0.00, -0.00, -1.00, 92.0, 232.0)"></image><text xml:space="preserve" font-family="HelveticaNeue-Light" font-size="41.5" fill="#FEFFFE" transform="matrix(1.00, 0.00, -0.00, -1.00, 96.0, 201.0)">t</text><text xml:space="preserve" font-family="HelveticaNeue-Light" font-size="41.5" fill="#FEFFFE" transform="matrix(1.00, 0.00, -0.00, -1.00, 108.3, 201.0)">y</text><text xml:space="preserve" font-family="HelveticaNeue-Light" font-size="41.5" fill="#FEFFFE" transform="matrix(1.00, 0.00, -0.00, -1.00, 127.5, 201.0)">p</text><text xml:space="preserve" font-family="HelveticaNeue-Light" font-size="41.5" fill="#FEFFFE" transform="matrix(1.00, 0.00, -0.00, -1.00, 151.3, 201.0)">e</text><text xml:space="preserve" font-family="HelveticaNeue-Light" font-size="41.5" fill="#FEFFFE" transform="matrix(1.00, 0.00, -0.00, -1.00, 172.9, 201.0)">s</text><text xml:space="preserve" font-family="HelveticaNeue-Light" font-size="41.5" fill="#FEFFFE" transform="matrix(1.00, 0.00, -0.00, -1.00, 192.8, 201.0)"> </text><text xml:space="preserve" font-family="HelveticaNeue-Light" font-size="41.5" fill="#FEFFFE" transform="matrix(1.00, 0.00, -0.00, -1.00, 204.4, 201.0)">o</text><text xml:space="preserve" font-family="HelveticaNeue-Light" font-size="41.5" fill="#FEFFFE" transform="matrix(1.00, 0.00, -0.00, -1.00, 227.4, 201.0)">f</text><text xml:space="preserve" font-family="HelveticaNeue-Light" font-size="41.5" fill="#FEFFFE" transform="matrix(1.00, 0.00, -0.00, -1.00, 238.2, 201.0)"> </text><text xml:space="preserve" font-family="HelveticaNeue-Light" font-size="41.5" fill="#FEFFFE" transform="matrix(1.00, 0.00, -0.00, -1.00, 249.7, 201.0)">v</text><text xml:space="preserve" font-family="HelveticaNeue-Light" font-size="41.5" fill="#FEFFFE" transform="matrix(1.00, 0.00, -0.00, -1.00, 268.9, 201.0)">a</text><text xml:space="preserve" font-family="HelveticaNeue-Light" font-size="41.5" fill="#FEFFFE" transform="matrix(1.00, 0.00, -0.00, -1.00, 290.5, 201.0)">r</text><text xml:space="preserve" font-family="HelveticaNeue-Light" font-size="41.5" fill="#FEFFFE" transform="matrix(1.00, 0.00, -0.00, -1.00, 303.5, 201.0)">i</text><text xml:space="preserve" font-family="HelveticaNeue-Light" font-size="41.5" fill="#FEFFFE" transform="matrix(1.00, 0.00, -0.00, -1.00, 311.2, 201.0)">a</text><text xml:space="preserve" font-family="HelveticaNeue-Light" font-size="41.5" fill="#FEFFFE" transform="matrix(1.00, 0.00, -0.00, -1.00, 332.8, 201.0)">b</text><text xml:space="preserve" font-family="HelveticaNeue-Light" font-size="41.5" fill="#FEFFFE" transform="matrix(1.00, 0.00, -0.00, -1.00, 356.6, 201.0)">l</text><text xml:space="preserve" font-family="HelveticaNeue-Light" font-size="41.5" fill="#FEFFFE" transform="matrix(1.00, 0.00, -0.00, -1.00, 364.3, 201.0)">e</text><text xml:space="preserve" font-family="HelveticaNeue-Light" font-size="41.5" fill="#FEFFFE" transform="matrix(1.00, 0.00, -0.00, -1.00, 385.8, 201.0)">s</text><text xml:space="preserve" font-family="HelveticaNeue-Light" font-size="41.5" fill="#FEFFFE" transform="matrix(1.00, 0.00, -0.00, -1.00, 405.8, 201.0)"> </text><image xlink:href="../../603F3FAD-72DD-4F10-90E4-1FDD0E7ADA3A/assets/DC29709E863B3D3524677CFCB2A555FD.png" width="15.00" height="16.00" transform="matrix(1.00, 0.00, -0.00, -1.00, 4.0, 131.0)"></image><g><clipPath id="clip-1123"><path d="M 4.0 115.4 L 18.6 115.4 L 18.6 130.1 L 4.0 130.1 Z M 4.0 115.4 "></path></clipPath><g clip-path="url(#clip-1123)"><g><g><clipPath id="clip-1124"><path d="M 4.0 130.1 L 18.6 130.1 L 18.6 115.4 L 4.0 115.4 Z M 4.0 130.1 "></path></clipPath><g clip-path="url(#clip-1124)"><g><clipPath id="clip-1125"><path d="M 0.0 108.0 L 23.0 108.0 L 23.0 138.0 L 0.0 138.0 Z M 0.0 108.0 "></path></clipPath><g clip-path="url(#clip-1125)"><path d="M 18.6 127.1 C 18.6 127.8 18.3 128.4 17.7 129.1 C 17.1 129.7 16.4 130.1 15.7 130.1 C 15.4 130.1 14.9 129.9 14.1 129.5 C 13.0 129.0 12.1 128.7 11.3 128.7 C 10.4 128.7 9.5 129.0 8.4 129.5 C 7.7 129.9 7.2 130.1 6.9 130.1 C 6.2 130.1 5.5 129.7 4.9 129.1 C 4.3 128.5 4.0 127.8 4.0 127.1 C 4.0 126.8 4.2 126.2 4.5 125.5 C 5.0 124.4 5.2 123.5 5.2 122.7 C 5.2 121.9 5.0 121.0 4.5 119.8 C 4.2 119.2 4.0 118.6 4.0 118.3 C 4.0 117.6 4.3 117.0 4.9 116.3 C 5.5 115.7 6.2 115.4 6.9 115.4 C 7.2 115.4 7.7 115.5 8.4 115.9 C 9.5 116.4 10.4 116.7 11.3 116.7 C 12.1 116.7 13.0 116.4 14.1 115.9 C 14.9 115.5 15.4 115.4 15.7 115.4 C 16.4 115.4 17.1 115.7 17.7 116.3 C 18.3 117.0 18.6 117.6 18.6 118.3 C 18.6 118.6 18.4 119.2 18.1 119.8 C 17.6 121.0 17.3 121.9 17.3 122.7 C 17.3 123.5 17.6 124.4 18.1 125.5 C 18.4 126.2 18.6 126.8 18.6 127.1 " fill="#FFFFFF"></path></g></g></g></g></g></g></g><image xlink:href="../../603F3FAD-72DD-4F10-90E4-1FDD0E7ADA3A/assets/D8E16463BF26B921BF02D5C04A949476.png" width="785.00" height="48.00" transform="matrix(1.00, 0.00, -0.00, -1.00, 43.0, 141.0)"></image><text xml:space="preserve" font-family="HelveticaNeue-Light" font-size="41.5" fill="#FEFFFE" transform="matrix(1.00, 0.00, -0.00, -1.00, 46.0, 109.0)">C</text><text xml:space="preserve" font-family="HelveticaNeue-Light" font-size="41.5" fill="#FEFFFE" transform="matrix(1.00, 0.00, -0.00, -1.00, 75.2, 109.0)">r</text><text xml:space="preserve" font-family="HelveticaNeue-Light" font-size="41.5" fill="#FEFFFE" transform="matrix(1.00, 0.00, -0.00, -1.00, 87.5, 109.0)">e</text><text xml:space="preserve" font-family="HelveticaNeue-Light" font-size="41.5" fill="#FEFFFE" transform="matrix(1.00, 0.00, -0.00, -1.00, 109.1, 109.0)">a</text><text xml:space="preserve" font-family="HelveticaNeue-Light" font-size="41.5" fill="#FEFFFE" transform="matrix(1.00, 0.00, -0.00, -1.00, 130.6, 109.0)">t</text><text xml:space="preserve" font-family="HelveticaNeue-Light" font-size="41.5" fill="#FEFFFE" transform="matrix(1.00, 0.00, -0.00, -1.00, 142.9, 109.0)">e</text><text xml:space="preserve" font-family="HelveticaNeue-Light" font-size="41.5" fill="#FEFFFE" transform="matrix(1.00, 0.00, -0.00, -1.00, 164.4, 109.0)"> </text><text xml:space="preserve" font-family="HelveticaNeue-Light" font-size="41.5" fill="#FEFFFE" transform="matrix(1.00, 0.00, -0.00, -1.00, 176.0, 109.0)">a</text><text xml:space="preserve" font-family="HelveticaNeue-Light" font-size="41.5" fill="#FEFFFE" transform="matrix(1.00, 0.00, -0.00, -1.00, 197.5, 109.0)"> </text><text xml:space="preserve" font-family="HelveticaNeue-Light" font-size="41.5" fill="#FEFFFE" transform="matrix(1.00, 0.00, -0.00, -1.00, 209.1, 109.0)">h</text><text xml:space="preserve" font-family="HelveticaNeue-Light" font-size="41.5" fill="#FEFFFE" transform="matrix(1.00, 0.00, -0.00, -1.00, 231.3, 109.0)">a</text><text xml:space="preserve" font-family="HelveticaNeue-Light" font-size="41.5" fill="#FEFFFE" transform="matrix(1.00, 0.00, -0.00, -1.00, 252.9, 109.0)">s</text><text xml:space="preserve" font-family="HelveticaNeue-Light" font-size="41.5" fill="#FEFFFE" transform="matrix(1.00, 0.00, -0.00, -1.00, 272.8, 109.0)">h</text><text xml:space="preserve" font-family="HelveticaNeue-Light" font-size="41.5" fill="#FEFFFE" transform="matrix(1.00, 0.00, -0.00, -1.00, 295.1, 109.0)"> </text><text xml:space="preserve" font-family="HelveticaNeue-Light" font-size="41.5" fill="#FEFFFE" transform="matrix(1.00, 0.00, -0.00, -1.00, 306.7, 109.0)">f</text><text xml:space="preserve" font-family="HelveticaNeue-Light" font-size="41.5" fill="#FEFFFE" transform="matrix(1.00, 0.00, -0.00, -1.00, 317.4, 109.0)">o</text><text xml:space="preserve" font-family="HelveticaNeue-Light" font-size="41.5" fill="#FEFFFE" transform="matrix(1.00, 0.00, -0.00, -1.00, 340.5, 109.0)">r</text><text xml:space="preserve" font-family="HelveticaNeue-Light" font-size="41.5" fill="#FEFFFE" transform="matrix(1.00, 0.00, -0.00, -1.00, 353.6, 109.0)"> </text><text xml:space="preserve" font-family="HelveticaNeue-Light" font-size="41.5" fill="#FEFFFE" transform="matrix(1.00, 0.00, -0.00, -1.00, 365.1, 109.0)">t</text><text xml:space="preserve" font-family="HelveticaNeue-Light" font-size="41.5" fill="#FEFFFE" transform="matrix(1.00, 0.00, -0.00, -1.00, 377.4, 109.0)">h</text><text xml:space="preserve" font-family="HelveticaNeue-Light" font-size="41.5" fill="#FEFFFE" transform="matrix(1.00, 0.00, -0.00, -1.00, 399.7, 109.0)">e</text><text xml:space="preserve" font-family="HelveticaNeue-Light" font-size="41.5" fill="#FEFFFE" transform="matrix(1.00, 0.00, -0.00, -1.00, 421.2, 109.0)"> </text><text xml:space="preserve" font-family="HelveticaNeue-Light" font-size="41.5" fill="#FEFFFE" transform="matrix(1.00, 0.00, -0.00, -1.00, 432.7, 109.0)">ﬁ</text><text xml:space="preserve" font-family="HelveticaNeue-Light" font-size="41.5" fill="#FEFFFE" transform="matrix(1.00, 0.00, -0.00, -1.00, 451.2, 109.0)">l</text><text xml:space="preserve" font-family="HelveticaNeue-Light" font-size="41.5" fill="#FEFFFE" transform="matrix(1.00, 0.00, -0.00, -1.00, 458.8, 109.0)">e</text><text xml:space="preserve" font-family="HelveticaNeue-Light" font-size="41.5" fill="#FEFFFE" transform="matrix(1.00, 0.00, -0.00, -1.00, 480.4, 109.0)"> </text><text xml:space="preserve" font-family="HelveticaNeue-Light" font-size="41.5" fill="#FEFFFE" transform="matrix(1.00, 0.00, -0.00, -1.00, 491.9, 109.0)">u</text><text xml:space="preserve" font-family="HelveticaNeue-Light" font-size="41.5" fill="#FEFFFE" transform="matrix(1.00, 0.00, -0.00, -1.00, 514.2, 109.0)">s</text><text xml:space="preserve" font-family="HelveticaNeue-Light" font-size="41.5" fill="#FEFFFE" transform="matrix(1.00, 0.00, -0.00, -1.00, 534.2, 109.0)">i</text><text xml:space="preserve" font-family="HelveticaNeue-Light" font-size="41.5" fill="#FEFFFE" transform="matrix(1.00, 0.00, -0.00, -1.00, 541.8, 109.0)">n</text><text xml:space="preserve" font-family="HelveticaNeue-Light" font-size="41.5" fill="#FEFFFE" transform="matrix(1.00, 0.00, -0.00, -1.00, 564.1, 109.0)">g</text><text xml:space="preserve" font-family="HelveticaNeue-Light" font-size="41.5" fill="#FEFFFE" transform="matrix(1.00, 0.00, -0.00, -1.00, 587.2, 109.0)"> </text><text xml:space="preserve" font-family="HelveticaNeue-Light" font-size="41.5" fill="#FEFFFE" transform="matrix(1.00, 0.00, -0.00, -1.00, 598.7, 109.0)">S</text><text xml:space="preserve" font-family="HelveticaNeue-Light" font-size="41.5" fill="#FEFFFE" transform="matrix(1.00, 0.00, -0.00, -1.00, 624.9, 109.0)">H</text><text xml:space="preserve" font-family="HelveticaNeue-Light" font-size="41.5" fill="#FEFFFE" transform="matrix(1.00, 0.00, -0.00, -1.00, 654.1, 109.0)">A</text><text xml:space="preserve" font-family="HelveticaNeue-Light" font-size="41.5" fill="#FEFFFE" transform="matrix(1.00, 0.00, -0.00, -1.00, 680.2, 109.0)"> </text><text xml:space="preserve" font-family="HelveticaNeue-Light" font-size="41.5" fill="#FEFFFE" transform="matrix(1.00, 0.00, -0.00, -1.00, 691.8, 109.0)">o</text><text xml:space="preserve" font-family="HelveticaNeue-Light" font-size="41.5" fill="#FEFFFE" transform="matrix(1.00, 0.00, -0.00, -1.00, 714.9, 109.0)">r</text><text xml:space="preserve" font-family="HelveticaNeue-Light" font-size="41.5" fill="#FEFFFE" transform="matrix(1.00, 0.00, -0.00, -1.00, 727.9, 109.0)"> </text><text xml:space="preserve" font-family="HelveticaNeue-Light" font-size="41.5" fill="#FEFFFE" transform="matrix(1.00, 0.00, -0.00, -1.00, 739.5, 109.0)">M</text><text xml:space="preserve" font-family="HelveticaNeue-Light" font-size="41.5" fill="#FEFFFE" transform="matrix(1.00, 0.00, -0.00, -1.00, 773.5, 109.0)">D</text><text xml:space="preserve" font-family="HelveticaNeue-Light" font-size="41.5" fill="#FEFFFE" transform="matrix(1.00, 0.00, -0.00, -1.00, 802.0, 109.0)">5</text><text xml:space="preserve" font-family="HelveticaNeue-Light" font-size="41.5" fill="#FEFFFE" transform="matrix(1.00, 0.00, -0.00, -1.00, 825.0, 109.0)"> </text><text xml:space="preserve" font-family="HelveticaNeue-Light" font-size="41.5" fill="#FEFFFE" transform="matrix(1.00, 0.00, -0.00, -1.00, 836.6, 109.0)"> </text><image xlink:href="../../603F3FAD-72DD-4F10-90E4-1FDD0E7ADA3A/assets/D21282A728B9047D5C966AD63E1922DE.png" width="15.00" height="15.00" transform="matrix(1.00, 0.00, -0.00, -1.00, 54.0, 38.0)"></image><g><clipPath id="clip-1126"><path d="M 54.0 23.0 L 68.6 23.0 L 68.6 37.7 L 54.0 37.7 Z M 54.0 23.0 "></path></clipPath><g clip-path="url(#clip-1126)"><g><g><clipPath id="clip-1127"><path d="M 54.0 37.7 L 68.6 37.7 L 68.6 23.0 L 54.0 23.0 Z M 54.0 37.7 "></path></clipPath><g clip-path="url(#clip-1127)"><g><clipPath id="clip-1128"><path d="M 50.0 16.0 L 73.0 16.0 L 73.0 45.0 L 50.0 45.0 Z M 50.0 16.0 "></path></clipPath><g clip-path="url(#clip-1128)"><path d="M 68.6 34.8 C 68.6 35.4 68.3 36.1 67.7 36.7 C 67.1 37.4 66.4 37.7 65.7 37.7 C 65.4 37.7 64.9 37.6 64.1 37.2 C 63.0 36.7 62.1 36.4 61.3 36.4 C 60.4 36.4 59.5 36.7 58.4 37.2 C 57.7 37.6 57.2 37.7 56.9 37.7 C 56.2 37.7 55.5 37.4 54.9 36.8 C 54.3 36.1 54.0 35.5 54.0 34.8 C 54.0 34.4 54.2 33.9 54.5 33.2 C 55.0 32.1 55.2 31.2 55.2 30.4 C 55.2 29.6 55.0 28.6 54.5 27.5 C 54.2 26.8 54.0 26.3 54.0 26.0 C 54.0 25.3 54.3 24.6 54.9 24.0 C 55.5 23.4 56.2 23.0 56.9 23.0 C 57.2 23.0 57.7 23.2 58.4 23.5 C 59.5 24.1 60.4 24.4 61.3 24.4 C 62.1 24.4 63.0 24.1 64.1 23.5 C 64.9 23.2 65.4 23.0 65.7 23.0 C 66.4 23.0 67.1 23.4 67.7 24.0 C 68.3 24.6 68.6 25.3 68.6 26.0 C 68.6 26.3 68.4 26.8 68.1 27.5 C 67.6 28.6 67.3 29.6 67.3 30.4 C 67.3 31.2 67.6 32.1 68.1 33.2 C 68.4 33.9 68.6 34.4 68.6 34.8 " fill="#FFFFFF"></path></g></g></g></g></g></g></g><image xlink:href="../../603F3FAD-72DD-4F10-90E4-1FDD0E7ADA3A/assets/5C92A5DE2E931F1B55C399348836C8FA.png" width="545.00" height="47.00" transform="matrix(1.00, 0.00, -0.00, -1.00, 94.0, 48.0)"></image><text xml:space="preserve" font-family="HelveticaNeue-Light" font-size="41.5" fill="#FEFFFE" transform="matrix(1.00, 0.00, -0.00, -1.00, 96.0, 17.0)">U</text><text xml:space="preserve" font-family="HelveticaNeue-Light" font-size="41.5" fill="#FEFFFE" transform="matrix(1.00, 0.00, -0.00, -1.00, 124.4, 17.0)">s</text><text xml:space="preserve" font-family="HelveticaNeue-Light" font-size="41.5" fill="#FEFFFE" transform="matrix(1.00, 0.00, -0.00, -1.00, 144.4, 17.0)">e</text><text xml:space="preserve" font-family="HelveticaNeue-Light" font-size="41.5" fill="#FEFFFE" transform="matrix(1.00, 0.00, -0.00, -1.00, 165.9, 17.0)"> </text><text xml:space="preserve" font-family="HelveticaNeue-Light" font-size="41.5" fill="#FEFFFE" transform="matrix(1.00, 0.00, -0.00, -1.00, 177.5, 17.0)">t</text><text xml:space="preserve" font-family="HelveticaNeue-Light" font-size="41.5" fill="#FEFFFE" transform="matrix(1.00, 0.00, -0.00, -1.00, 189.7, 17.0)">o</text><text xml:space="preserve" font-family="HelveticaNeue-Light" font-size="41.5" fill="#FEFFFE" transform="matrix(1.00, 0.00, -0.00, -1.00, 212.8, 17.0)"> </text><text xml:space="preserve" font-family="HelveticaNeue-Light" font-size="41.5" fill="#FEFFFE" transform="matrix(1.00, 0.00, -0.00, -1.00, 224.4, 17.0)">v</text><text xml:space="preserve" font-family="HelveticaNeue-Light" font-size="41.5" fill="#FEFFFE" transform="matrix(1.00, 0.00, -0.00, -1.00, 243.6, 17.0)">e</text><text xml:space="preserve" font-family="HelveticaNeue-Light" font-size="41.5" fill="#FEFFFE" transform="matrix(1.00, 0.00, -0.00, -1.00, 265.1, 17.0)">r</text><text xml:space="preserve" font-family="HelveticaNeue-Light" font-size="41.5" fill="#FEFFFE" transform="matrix(1.00, 0.00, -0.00, -1.00, 278.2, 17.0)">i</text><text xml:space="preserve" font-family="HelveticaNeue-Light" font-size="41.5" fill="#FEFFFE" transform="matrix(1.00, 0.00, -0.00, -1.00, 285.9, 17.0)">f</text><text xml:space="preserve" font-family="HelveticaNeue-Light" font-size="41.5" fill="#FEFFFE" transform="matrix(1.00, 0.00, -0.00, -1.00, 296.6, 17.0)">y</text><text xml:space="preserve" font-family="HelveticaNeue-Light" font-size="41.5" fill="#FEFFFE" transform="matrix(1.00, 0.00, -0.00, -1.00, 315.8, 17.0)"> </text><text xml:space="preserve" font-family="HelveticaNeue-Light" font-size="41.5" fill="#FEFFFE" transform="matrix(1.00, 0.00, -0.00, -1.00, 327.4, 17.0)">r</text><text xml:space="preserve" font-family="HelveticaNeue-Light" font-size="41.5" fill="#FEFFFE" transform="matrix(1.00, 0.00, -0.00, -1.00, 340.4, 17.0)">a</text><text xml:space="preserve" font-family="HelveticaNeue-Light" font-size="41.5" fill="#FEFFFE" transform="matrix(1.00, 0.00, -0.00, -1.00, 362.0, 17.0)">w</text><text xml:space="preserve" font-family="HelveticaNeue-Light" font-size="41.5" fill="#FEFFFE" transform="matrix(1.00, 0.00, -0.00, -1.00, 392.7, 17.0)"> </text><text xml:space="preserve" font-family="HelveticaNeue-Light" font-size="41.5" fill="#FEFFFE" transform="matrix(1.00, 0.00, -0.00, -1.00, 404.3, 17.0)">d</text><text xml:space="preserve" font-family="HelveticaNeue-Light" font-size="41.5" fill="#FEFFFE" transform="matrix(1.00, 0.00, -0.00, -1.00, 428.1, 17.0)">a</text><text xml:space="preserve" font-family="HelveticaNeue-Light" font-size="41.5" fill="#FEFFFE" transform="matrix(1.00, 0.00, -0.00, -1.00, 449.6, 17.0)">t</text><text xml:space="preserve" font-family="HelveticaNeue-Light" font-size="41.5" fill="#FEFFFE" transform="matrix(1.00, 0.00, -0.00, -1.00, 461.9, 17.0)">a</text><text xml:space="preserve" font-family="HelveticaNeue-Light" font-size="41.5" fill="#FEFFFE" transform="matrix(1.00, 0.00, -0.00, -1.00, 483.4, 17.0)"> </text><text xml:space="preserve" font-family="HelveticaNeue-Light" font-size="41.5" fill="#FEFFFE" transform="matrix(1.00, 0.00, -0.00, -1.00, 495.0, 17.0)">i</text><text xml:space="preserve" font-family="HelveticaNeue-Light" font-size="41.5" fill="#FEFFFE" transform="matrix(1.00, 0.00, -0.00, -1.00, 502.7, 17.0)">n</text><text xml:space="preserve" font-family="HelveticaNeue-Light" font-size="41.5" fill="#FEFFFE" transform="matrix(1.00, 0.00, -0.00, -1.00, 524.9, 17.0)">t</text><text xml:space="preserve" font-family="HelveticaNeue-Light" font-size="41.5" fill="#FEFFFE" transform="matrix(1.00, 0.00, -0.00, -1.00, 537.2, 17.0)">e</text><text xml:space="preserve" font-family="HelveticaNeue-Light" font-size="41.5" fill="#FEFFFE" transform="matrix(1.00, 0.00, -0.00, -1.00, 558.8, 17.0)">g</text><text xml:space="preserve" font-family="HelveticaNeue-Light" font-size="41.5" fill="#FEFFFE" transform="matrix(1.00, 0.00, -0.00, -1.00, 581.8, 17.0)">r</text><text xml:space="preserve" font-family="HelveticaNeue-Light" font-size="41.5" fill="#FEFFFE" transform="matrix(1.00, 0.00, -0.00, -1.00, 594.9, 17.0)">i</text><text xml:space="preserve" font-family="HelveticaNeue-Light" font-size="41.5" fill="#FEFFFE" transform="matrix(1.00, 0.00, -0.00, -1.00, 602.6, 17.0)">t</text><text xml:space="preserve" font-family="HelveticaNeue-Light" font-size="41.5" fill="#FEFFFE" transform="matrix(1.00, 0.00, -0.00, -1.00, 614.9, 17.0)">y</text></g></svg>