<?xml version="1.0" encoding="UTF-8" standalone="no"?><svg xmlns="http://www.w3.org/2000/svg" xmlns:xlink="http://www.w3.org/1999/xlink" clip-rule="evenodd" stroke-miterlimit="4.00" viewBox="0 0 551 99"><desc>SVG generated by Keynote</desc><defs><pattern id="1AE7C7DD-B3E8-4026-B997-D116F1D0129C" patternUnits="userSpaceOnUse" width="549" height="549" viewBox="0 0 549 549" patternTransform="matrix(0.579235, 0.000000, 0.000000, -0.579235, 1.491920, 97.912240)"><image xlink:href="304857A7051A24C36CADDA29EB4F9999.jpeg" width="549.00" height="549.00"></image></pattern></defs><g transform="matrix(1.00, 0.00, -0.00, -1.00, 0.0, 99.0)"><g><clipPath id="clip-2578"><path d="M 1.5 97.9 L 549.5 97.9 L 549.5 1.1 L 1.5 1.1 Z M 1.5 97.9 "></path></clipPath><g clip-path="url(#clip-2578)"><path d="M 1.5 1.1 L 549.5 1.1 L 549.5 97.9 L 1.5 97.9 Z M 1.5 1.1 " fill="url(#1AE7C7DD-B3E8-4026-B997-D116F1D0129C)"></path><path d="M 1.5 97.9 L 549.5 97.9 L 549.5 1.1 L 1.5 1.1 Z M 1.5 97.9 " fill="#FFB200" fill-opacity="0.70"></path></g></g><image xlink:href="8585302D60C4EF71BAB57241DE933624.png" width="544.00" height="65.00" transform="matrix(1.00, 0.00, -0.00, -1.00, 1.0, 77.0)"></image><g><clipPath id="clip-2579"><path d="M -20.6 -24.0 L 571.6 -24.0 L 571.6 117.0 L -20.6 117.0 Z M -20.6 -24.0 "></path></clipPath><g clip-path="url(#clip-2579)"><text xml:space="preserve" font-family="HelveticaNeue-Light" font-size="75.0" fill="#FEFFFE" transform="matrix(1.00, 0.00, -0.00, -1.00, 6.0, 21.0)">T</text><text xml:space="preserve" font-family="HelveticaNeue-Light" font-size="75.0" fill="#FEFFFE" transform="matrix(1.00, 0.00, -0.00, -1.00, 47.7, 21.0)">h</text><text xml:space="preserve" font-family="HelveticaNeue-Light" font-size="75.0" fill="#FEFFFE" transform="matrix(1.00, 0.00, -0.00, -1.00, 88.0, 21.0)">i</text><text xml:space="preserve" font-family="HelveticaNeue-Light" font-size="75.0" fill="#FEFFFE" transform="matrix(1.00, 0.00, -0.00, -1.00, 101.8, 21.0)">s</text><text xml:space="preserve" font-family="HelveticaNeue-Light" font-size="75.0" fill="#FEFFFE" transform="matrix(1.00, 0.00, -0.00, -1.00, 137.9, 21.0)"> </text><text xml:space="preserve" font-family="HelveticaNeue-Light" font-size="75.0" fill="#FEFFFE" transform="matrix(1.00, 0.00, -0.00, -1.00, 158.8, 21.0)">i</text><text xml:space="preserve" font-family="HelveticaNeue-Light" font-size="75.0" fill="#FEFFFE" transform="matrix(1.00, 0.00, -0.00, -1.00, 172.6, 21.0)">s</text><text xml:space="preserve" font-family="HelveticaNeue-Light" font-size="75.0" fill="#FEFFFE" transform="matrix(1.00, 0.00, -0.00, -1.00, 208.7, 21.0)"> </text><text xml:space="preserve" font-family="HelveticaNeue-Light" font-size="75.0" fill="#FEFFFE" transform="matrix(1.00, 0.00, -0.00, -1.00, 229.6, 21.0)">N</text><text xml:space="preserve" font-family="HelveticaNeue-Light" font-size="75.0" fill="#FEFFFE" transform="matrix(1.00, 0.00, -0.00, -1.00, 282.4, 21.0)">O</text><text xml:space="preserve" font-family="HelveticaNeue-Light" font-size="75.0" fill="#FEFFFE" transform="matrix(1.00, 0.00, -0.00, -1.00, 337.9, 21.0)">T</text><text xml:space="preserve" font-family="HelveticaNeue-Light" font-size="75.0" fill="#FEFFFE" transform="matrix(1.00, 0.00, -0.00, -1.00, 379.6, 21.0)"> </text><text xml:space="preserve" font-family="HelveticaNeue-Light" font-size="75.0" fill="#FEFFFE" transform="matrix(1.00, 0.00, -0.00, -1.00, 400.5, 21.0)">h</text><text xml:space="preserve" font-family="HelveticaNeue-Light" font-size="75.0" fill="#FEFFFE" transform="matrix(1.00, 0.00, -0.00, -1.00, 440.8, 21.0)">a</text><text xml:space="preserve" font-family="HelveticaNeue-Light" font-size="75.0" fill="#FEFFFE" transform="matrix(1.00, 0.00, -0.00, -1.00, 479.7, 21.0)">r</text><text xml:space="preserve" font-family="HelveticaNeue-Light" font-size="75.0" fill="#FEFFFE" transform="matrix(1.00, 0.00, -0.00, -1.00, 502.0, 21.0)">d</text></g></g></g></svg>