<?xml version="1.0" encoding="UTF-8" standalone="no"?><svg xmlns="http://www.w3.org/2000/svg" xmlns:xlink="http://www.w3.org/1999/xlink" clip-rule="evenodd" stroke-miterlimit="4.00" viewBox="0 0 1920 1080"><desc>SVG generated by Keynote</desc><defs></defs><g transform="matrix(1.00, 0.00, -0.00, -1.00, 0.0, 1080.0)"><g><clipPath id="clip-1696"><path d="M 0.0 1080.0 L 1920.0 1080.0 L 1920.0 0.0 L 0.0 0.0 Z M 0.0 1080.0 "></path></clipPath><g clip-path="url(#clip-1696)"><image xlink:href="../../1D876F4A-8FAE-4533-855C-0B67E64EABCD/assets/4B0075050CC9D0F3DC006F0CDE78D676.jpeg" width="1365.00" height="767.00" transform="matrix(1.41, 0.00, -0.00, -1.41, 0.0, 1080.0)"></image></g></g><image xlink:href="../../0DD67CD5-8FB0-46AB-978B-11ADC2143516/assets/D65565485EA41C2B359A6401A99A27CC.png" width="305.00" height="101.00" transform="matrix(1.00, 0.00, -0.00, -1.00, 115.0, 952.0)"></image><text xml:space="preserve" font-family="HelveticaNeue-Light" font-size="100.0" fill="#FEFFFE" transform="matrix(1.00, 0.00, -0.00, -1.00, 120.0, 879.0)">T</text><text xml:space="preserve" font-family="HelveticaNeue-Light" font-size="100.0" fill="#FEFFFE" transform="matrix(1.00, 0.00, -0.00, -1.00, 164.5, 879.0)">e</text><text xml:space="preserve" font-family="HelveticaNeue-Light" font-size="100.0" fill="#FEFFFE" transform="matrix(1.00, 0.00, -0.00, -1.00, 216.4, 879.0)">s</text><text xml:space="preserve" font-family="HelveticaNeue-Light" font-size="100.0" fill="#FEFFFE" transform="matrix(1.00, 0.00, -0.00, -1.00, 264.5, 879.0)">t</text><text xml:space="preserve" font-family="HelveticaNeue-Light" font-size="100.0" fill="#FEFFFE" transform="matrix(1.00, 0.00, -0.00, -1.00, 294.1, 879.0)">i</text><text xml:space="preserve" font-family="HelveticaNeue-Light" font-size="100.0" fill="#FEFFFE" transform="matrix(1.00, 0.00, -0.00, -1.00, 312.6, 879.0)">n</text><text xml:space="preserve" font-family="HelveticaNeue-Light" font-size="100.0" fill="#FEFFFE" transform="matrix(1.00, 0.00, -0.00, -1.00, 366.3, 879.0)">g</text><image xlink:href="../../077543C8-1A3F-406E-9593-99609A063235/assets/D78D93A8DEE9B68D58E2A0BAEAF9F97F.png" width="18.00" height="18.00" transform="matrix(1.00, 0.00, -0.00, -1.00, 120.0, 575.0)"></image><g><clipPath id="clip-1697"><path d="M 120.0 557.1 L 137.6 557.1 L 137.6 574.8 L 120.0 574.8 Z M 120.0 557.1 "></path></clipPath><g clip-path="url(#clip-1697)"><g><g><clipPath id="clip-1698"><path d="M 120.0 574.8 L 137.6 574.8 L 137.6 557.1 L 120.0 557.1 Z M 120.0 574.8 "></path></clipPath><g clip-path="url(#clip-1698)"><g><clipPath id="clip-1699"><path d="M 116.0 550.0 L 142.0 550.0 L 142.0 582.0 L 116.0 582.0 Z M 116.0 550.0 "></path></clipPath><g clip-path="url(#clip-1699)"><path d="M 137.6 571.3 C 137.6 572.0 137.2 572.8 136.5 573.6 C 135.8 574.4 135.0 574.8 134.1 574.8 C 133.7 574.8 133.1 574.6 132.2 574.2 C 130.9 573.5 129.7 573.2 128.8 573.2 C 127.8 573.2 126.6 573.5 125.3 574.2 C 124.5 574.6 123.9 574.8 123.4 574.8 C 122.6 574.8 121.8 574.4 121.1 573.6 C 120.4 572.9 120.0 572.1 120.0 571.3 C 120.0 570.8 120.2 570.2 120.6 569.3 C 121.2 568.0 121.5 566.9 121.5 565.9 C 121.5 565.0 121.2 563.9 120.6 562.5 C 120.2 561.7 120.0 561.1 120.0 560.6 C 120.0 559.8 120.4 559.0 121.1 558.2 C 121.8 557.5 122.6 557.1 123.4 557.1 C 123.9 557.1 124.5 557.3 125.3 557.7 C 126.6 558.4 127.8 558.7 128.8 558.7 C 129.7 558.7 130.9 558.4 132.2 557.7 C 133.1 557.3 133.7 557.1 134.1 557.1 C 135.0 557.1 135.8 557.5 136.5 558.2 C 137.2 559.0 137.6 559.8 137.6 560.6 C 137.6 561.1 137.4 561.7 137.0 562.5 C 136.3 563.9 136.0 565.0 136.0 565.9 C 136.0 566.9 136.3 568.0 137.0 569.3 C 137.4 570.2 137.6 570.8 137.6 571.3 " fill="#FFFFFF"></path></g></g></g></g></g></g></g><image xlink:href="C2AAF769CB4284E07E89967FE9A9174B.png" width="1033.00" height="55.00" transform="matrix(1.00, 0.00, -0.00, -1.00, 167.0, 587.0)"></image><text xml:space="preserve" font-family="HelveticaNeue-Light" font-size="50.0" fill="#FEFFFE" transform="matrix(1.00, 0.00, -0.00, -1.00, 170.0, 549.0)">S</text><text xml:space="preserve" font-family="HelveticaNeue-Light" font-size="50.0" fill="#FEFFFE" transform="matrix(1.00, 0.00, -0.00, -1.00, 201.5, 549.0)">t</text><text xml:space="preserve" font-family="HelveticaNeue-Light" font-size="50.0" fill="#FEFFFE" transform="matrix(1.00, 0.00, -0.00, -1.00, 216.3, 549.0)">a</text><text xml:space="preserve" font-family="HelveticaNeue-Light" font-size="50.0" fill="#FEFFFE" transform="matrix(1.00, 0.00, -0.00, -1.00, 242.2, 549.0)">n</text><text xml:space="preserve" font-family="HelveticaNeue-Light" font-size="50.0" fill="#FEFFFE" transform="matrix(1.00, 0.00, -0.00, -1.00, 269.1, 549.0)">d</text><text xml:space="preserve" font-family="HelveticaNeue-Light" font-size="50.0" fill="#FEFFFE" transform="matrix(1.00, 0.00, -0.00, -1.00, 297.8, 549.0)">a</text><text xml:space="preserve" font-family="HelveticaNeue-Light" font-size="50.0" fill="#FEFFFE" transform="matrix(1.00, 0.00, -0.00, -1.00, 323.8, 549.0)">r</text><text xml:space="preserve" font-family="HelveticaNeue-Light" font-size="50.0" fill="#FEFFFE" transform="matrix(1.00, 0.00, -0.00, -1.00, 338.6, 549.0)">d</text><text xml:space="preserve" font-family="HelveticaNeue-Light" font-size="50.0" fill="#FEFFFE" transform="matrix(1.00, 0.00, -0.00, -1.00, 367.3, 549.0)"> </text><text xml:space="preserve" font-family="HelveticaNeue-Light" font-size="50.0" fill="#FEFFFE" transform="matrix(1.00, 0.00, -0.00, -1.00, 381.2, 549.0)">p</text><text xml:space="preserve" font-family="HelveticaNeue-Light" font-size="50.0" fill="#FEFFFE" transform="matrix(1.00, 0.00, -0.00, -1.00, 409.9, 549.0)">r</text><text xml:space="preserve" font-family="HelveticaNeue-Light" font-size="50.0" fill="#FEFFFE" transform="matrix(1.00, 0.00, -0.00, -1.00, 425.7, 549.0)">a</text><text xml:space="preserve" font-family="HelveticaNeue-Light" font-size="50.0" fill="#FEFFFE" transform="matrix(1.00, 0.00, -0.00, -1.00, 451.6, 549.0)">c</text><text xml:space="preserve" font-family="HelveticaNeue-Light" font-size="50.0" fill="#FEFFFE" transform="matrix(1.00, 0.00, -0.00, -1.00, 477.6, 549.0)">t</text><text xml:space="preserve" font-family="HelveticaNeue-Light" font-size="50.0" fill="#FEFFFE" transform="matrix(1.00, 0.00, -0.00, -1.00, 492.4, 549.0)">i</text><text xml:space="preserve" font-family="HelveticaNeue-Light" font-size="50.0" fill="#FEFFFE" transform="matrix(1.00, 0.00, -0.00, -1.00, 501.6, 549.0)">c</text><text xml:space="preserve" font-family="HelveticaNeue-Light" font-size="50.0" fill="#FEFFFE" transform="matrix(1.00, 0.00, -0.00, -1.00, 527.5, 549.0)">e</text><text xml:space="preserve" font-family="HelveticaNeue-Light" font-size="50.0" fill="#FEFFFE" transform="matrix(1.00, 0.00, -0.00, -1.00, 553.5, 549.0)"> </text><text xml:space="preserve" font-family="HelveticaNeue-Light" font-size="50.0" fill="#FEFFFE" transform="matrix(1.00, 0.00, -0.00, -1.00, 567.4, 549.0)">i</text><text xml:space="preserve" font-family="HelveticaNeue-Light" font-size="50.0" fill="#FEFFFE" transform="matrix(1.00, 0.00, -0.00, -1.00, 576.6, 549.0)">n</text><text xml:space="preserve" font-family="HelveticaNeue-Light" font-size="50.0" fill="#FEFFFE" transform="matrix(1.00, 0.00, -0.00, -1.00, 603.5, 549.0)"> </text><text xml:space="preserve" font-family="HelveticaNeue-Light" font-size="50.0" fill="#FEFFFE" transform="matrix(1.00, 0.00, -0.00, -1.00, 617.4, 549.0)">i</text><text xml:space="preserve" font-family="HelveticaNeue-Light" font-size="50.0" fill="#FEFFFE" transform="matrix(1.00, 0.00, -0.00, -1.00, 626.6, 549.0)">n</text><text xml:space="preserve" font-family="HelveticaNeue-Light" font-size="50.0" fill="#FEFFFE" transform="matrix(1.00, 0.00, -0.00, -1.00, 653.5, 549.0)">d</text><text xml:space="preserve" font-family="HelveticaNeue-Light" font-size="50.0" fill="#FEFFFE" transform="matrix(1.00, 0.00, -0.00, -1.00, 682.2, 549.0)">u</text><text xml:space="preserve" font-family="HelveticaNeue-Light" font-size="50.0" fill="#FEFFFE" transform="matrix(1.00, 0.00, -0.00, -1.00, 709.1, 549.0)">s</text><text xml:space="preserve" font-family="HelveticaNeue-Light" font-size="50.0" fill="#FEFFFE" transform="matrix(1.00, 0.00, -0.00, -1.00, 733.1, 549.0)">t</text><text xml:space="preserve" font-family="HelveticaNeue-Light" font-size="50.0" fill="#FEFFFE" transform="matrix(1.00, 0.00, -0.00, -1.00, 747.9, 549.0)">r</text><text xml:space="preserve" font-family="HelveticaNeue-Light" font-size="50.0" fill="#FEFFFE" transform="matrix(1.00, 0.00, -0.00, -1.00, 763.6, 549.0)">y</text><text xml:space="preserve" font-family="HelveticaNeue-Light" font-size="50.0" fill="#FEFFFE" transform="matrix(1.00, 0.00, -0.00, -1.00, 786.8, 549.0)"> </text><text xml:space="preserve" font-family="HelveticaNeue-Light" font-size="50.0" fill="#FEFFFE" transform="matrix(1.00, 0.00, -0.00, -1.00, 800.7, 549.0)">a</text><text xml:space="preserve" font-family="HelveticaNeue-Light" font-size="50.0" fill="#FEFFFE" transform="matrix(1.00, 0.00, -0.00, -1.00, 826.6, 549.0)">n</text><text xml:space="preserve" font-family="HelveticaNeue-Light" font-size="50.0" fill="#FEFFFE" transform="matrix(1.00, 0.00, -0.00, -1.00, 853.5, 549.0)">d</text><text xml:space="preserve" font-family="HelveticaNeue-Light" font-size="50.0" fill="#FEFFFE" transform="matrix(1.00, 0.00, -0.00, -1.00, 882.2, 549.0)"> </text><text xml:space="preserve" font-family="HelveticaNeue-Light" font-size="50.0" fill="#FEFFFE" transform="matrix(1.00, 0.00, -0.00, -1.00, 896.1, 549.0)">f</text><text xml:space="preserve" font-family="HelveticaNeue-Light" font-size="50.0" fill="#FEFFFE" transform="matrix(1.00, 0.00, -0.00, -1.00, 909.1, 549.0)">o</text><text xml:space="preserve" font-family="HelveticaNeue-Light" font-size="50.0" fill="#FEFFFE" transform="matrix(1.00, 0.00, -0.00, -1.00, 936.9, 549.0)">r</text><text xml:space="preserve" font-family="HelveticaNeue-Light" font-size="50.0" fill="#FEFFFE" transform="matrix(1.00, 0.00, -0.00, -1.00, 952.6, 549.0)"> </text><text xml:space="preserve" font-family="HelveticaNeue-Light" font-size="50.0" fill="#FEFFFE" transform="matrix(1.00, 0.00, -0.00, -1.00, 966.5, 549.0)">p</text><text xml:space="preserve" font-family="HelveticaNeue-Light" font-size="50.0" fill="#FEFFFE" transform="matrix(1.00, 0.00, -0.00, -1.00, 995.2, 549.0)">r</text><text xml:space="preserve" font-family="HelveticaNeue-Light" font-size="50.0" fill="#FEFFFE" transform="matrix(1.00, 0.00, -0.00, -1.00, 1010.1, 549.0)">o</text><text xml:space="preserve" font-family="HelveticaNeue-Light" font-size="50.0" fill="#FEFFFE" transform="matrix(1.00, 0.00, -0.00, -1.00, 1037.8, 549.0)">d</text><text xml:space="preserve" font-family="HelveticaNeue-Light" font-size="50.0" fill="#FEFFFE" transform="matrix(1.00, 0.00, -0.00, -1.00, 1066.6, 549.0)">u</text><text xml:space="preserve" font-family="HelveticaNeue-Light" font-size="50.0" fill="#FEFFFE" transform="matrix(1.00, 0.00, -0.00, -1.00, 1093.4, 549.0)">c</text><text xml:space="preserve" font-family="HelveticaNeue-Light" font-size="50.0" fill="#FEFFFE" transform="matrix(1.00, 0.00, -0.00, -1.00, 1119.4, 549.0)">t</text><text xml:space="preserve" font-family="HelveticaNeue-Light" font-size="50.0" fill="#FEFFFE" transform="matrix(1.00, 0.00, -0.00, -1.00, 1134.2, 549.0)">i</text><text xml:space="preserve" font-family="HelveticaNeue-Light" font-size="50.0" fill="#FEFFFE" transform="matrix(1.00, 0.00, -0.00, -1.00, 1143.4, 549.0)">o</text><text xml:space="preserve" font-family="HelveticaNeue-Light" font-size="50.0" fill="#FEFFFE" transform="matrix(1.00, 0.00, -0.00, -1.00, 1171.2, 549.0)">n</text><text xml:space="preserve" font-family="HelveticaNeue-Light" font-size="50.0" fill="#FEFFFE" transform="matrix(1.00, 0.00, -0.00, -1.00, 1198.0, 549.0)"> </text><image xlink:href="../../077543C8-1A3F-406E-9593-99609A063235/assets/D78D93A8DEE9B68D58E2A0BAEAF9F97F.png" width="18.00" height="18.00" transform="matrix(1.00, 0.00, -0.00, -1.00, 120.0, 464.0)"></image><g><clipPath id="clip-1700"><path d="M 120.0 446.1 L 137.6 446.1 L 137.6 463.8 L 120.0 463.8 Z M 120.0 446.1 "></path></clipPath><g clip-path="url(#clip-1700)"><g><g><clipPath id="clip-1701"><path d="M 120.0 463.8 L 137.6 463.8 L 137.6 446.1 L 120.0 446.1 Z M 120.0 463.8 "></path></clipPath><g clip-path="url(#clip-1701)"><g><clipPath id="clip-1702"><path d="M 116.0 439.0 L 142.0 439.0 L 142.0 471.0 L 116.0 471.0 Z M 116.0 439.0 "></path></clipPath><g clip-path="url(#clip-1702)"><path d="M 137.6 460.3 C 137.6 461.0 137.2 461.8 136.5 462.6 C 135.8 463.4 135.0 463.8 134.1 463.8 C 133.7 463.8 133.1 463.6 132.2 463.2 C 130.9 462.5 129.7 462.2 128.8 462.2 C 127.8 462.2 126.6 462.5 125.3 463.2 C 124.5 463.6 123.9 463.8 123.4 463.8 C 122.6 463.8 121.8 463.4 121.1 462.6 C 120.4 461.9 120.0 461.1 120.0 460.3 C 120.0 459.8 120.2 459.2 120.6 458.3 C 121.2 457.0 121.5 455.9 121.5 454.9 C 121.5 454.0 121.2 452.9 120.6 451.5 C 120.2 450.7 120.0 450.1 120.0 449.6 C 120.0 448.8 120.4 448.0 121.1 447.2 C 121.8 446.5 122.6 446.1 123.4 446.1 C 123.9 446.1 124.5 446.3 125.3 446.7 C 126.6 447.4 127.8 447.7 128.8 447.7 C 129.7 447.7 130.9 447.4 132.2 446.7 C 133.1 446.3 133.7 446.1 134.1 446.1 C 135.0 446.1 135.8 446.5 136.5 447.2 C 137.2 448.0 137.6 448.8 137.6 449.6 C 137.6 450.1 137.4 450.7 137.0 451.5 C 136.3 452.9 136.0 454.0 136.0 454.9 C 136.0 455.9 136.3 457.0 137.0 458.3 C 137.4 459.2 137.6 459.8 137.6 460.3 " fill="#FFFFFF"></path></g></g></g></g></g></g></g><image xlink:href="1178B7D1BE06F370830E2F994E4A29FB.png" width="1563.00" height="55.00" transform="matrix(1.00, 0.00, -0.00, -1.00, 165.0, 475.0)"></image><text xml:space="preserve" font-family="HelveticaNeue-Light" font-size="50.0" fill="#FEFFFE" transform="matrix(1.00, 0.00, -0.00, -1.00, 170.0, 438.0)">A</text><text xml:space="preserve" font-family="HelveticaNeue-Light" font-size="50.0" fill="#FEFFFE" transform="matrix(1.00, 0.00, -0.00, -1.00, 201.5, 438.0)">l</text><text xml:space="preserve" font-family="HelveticaNeue-Light" font-size="50.0" fill="#FEFFFE" transform="matrix(1.00, 0.00, -0.00, -1.00, 210.8, 438.0)">m</text><text xml:space="preserve" font-family="HelveticaNeue-Light" font-size="50.0" fill="#FEFFFE" transform="matrix(1.00, 0.00, -0.00, -1.00, 252.4, 438.0)">o</text><text xml:space="preserve" font-family="HelveticaNeue-Light" font-size="50.0" fill="#FEFFFE" transform="matrix(1.00, 0.00, -0.00, -1.00, 280.2, 438.0)">s</text><text xml:space="preserve" font-family="HelveticaNeue-Light" font-size="50.0" fill="#FEFFFE" transform="matrix(1.00, 0.00, -0.00, -1.00, 304.2, 438.0)">t</text><text xml:space="preserve" font-family="HelveticaNeue-Light" font-size="50.0" fill="#FEFFFE" transform="matrix(1.00, 0.00, -0.00, -1.00, 319.1, 438.0)"> </text><text xml:space="preserve" font-family="HelveticaNeue-Light" font-size="50.0" fill="#FEFFFE" transform="matrix(1.00, 0.00, -0.00, -1.00, 333.0, 438.0)">a</text><text xml:space="preserve" font-family="HelveticaNeue-Light" font-size="50.0" fill="#FEFFFE" transform="matrix(1.00, 0.00, -0.00, -1.00, 358.9, 438.0)">l</text><text xml:space="preserve" font-family="HelveticaNeue-Light" font-size="50.0" fill="#FEFFFE" transform="matrix(1.00, 0.00, -0.00, -1.00, 368.2, 438.0)">w</text><text xml:space="preserve" font-family="HelveticaNeue-Light" font-size="50.0" fill="#FEFFFE" transform="matrix(1.00, 0.00, -0.00, -1.00, 405.2, 438.0)">a</text><text xml:space="preserve" font-family="HelveticaNeue-Light" font-size="50.0" fill="#FEFFFE" transform="matrix(1.00, 0.00, -0.00, -1.00, 431.2, 438.0)">y</text><text xml:space="preserve" font-family="HelveticaNeue-Light" font-size="50.0" fill="#FEFFFE" transform="matrix(1.00, 0.00, -0.00, -1.00, 454.3, 438.0)">s</text><text xml:space="preserve" font-family="HelveticaNeue-Light" font-size="50.0" fill="#FEFFFE" transform="matrix(1.00, 0.00, -0.00, -1.00, 478.4, 438.0)"> </text><text xml:space="preserve" font-family="HelveticaNeue-Light" font-size="50.0" fill="#FEFFFE" transform="matrix(1.00, 0.00, -0.00, -1.00, 492.2, 438.0)">i</text><text xml:space="preserve" font-family="HelveticaNeue-Light" font-size="50.0" fill="#FEFFFE" transform="matrix(1.00, 0.00, -0.00, -1.00, 501.5, 438.0)">g</text><text xml:space="preserve" font-family="HelveticaNeue-Light" font-size="50.0" fill="#FEFFFE" transform="matrix(1.00, 0.00, -0.00, -1.00, 529.3, 438.0)">n</text><text xml:space="preserve" font-family="HelveticaNeue-Light" font-size="50.0" fill="#FEFFFE" transform="matrix(1.00, 0.00, -0.00, -1.00, 556.2, 438.0)">o</text><text xml:space="preserve" font-family="HelveticaNeue-Light" font-size="50.0" fill="#FEFFFE" transform="matrix(1.00, 0.00, -0.00, -1.00, 584.0, 438.0)">r</text><text xml:space="preserve" font-family="HelveticaNeue-Light" font-size="50.0" fill="#FEFFFE" transform="matrix(1.00, 0.00, -0.00, -1.00, 598.8, 438.0)">e</text><text xml:space="preserve" font-family="HelveticaNeue-Light" font-size="50.0" fill="#FEFFFE" transform="matrix(1.00, 0.00, -0.00, -1.00, 624.8, 438.0)">d</text><text xml:space="preserve" font-family="HelveticaNeue-Light" font-size="50.0" fill="#FEFFFE" transform="matrix(1.00, 0.00, -0.00, -1.00, 653.5, 438.0)"> </text><text xml:space="preserve" font-family="HelveticaNeue-Light" font-size="50.0" fill="#FEFFFE" transform="matrix(1.00, 0.00, -0.00, -1.00, 667.4, 438.0)">f</text><text xml:space="preserve" font-family="HelveticaNeue-Light" font-size="50.0" fill="#FEFFFE" transform="matrix(1.00, 0.00, -0.00, -1.00, 680.3, 438.0)">o</text><text xml:space="preserve" font-family="HelveticaNeue-Light" font-size="50.0" fill="#FEFFFE" transform="matrix(1.00, 0.00, -0.00, -1.00, 708.1, 438.0)">r</text><text xml:space="preserve" font-family="HelveticaNeue-Light" font-size="50.0" fill="#FEFFFE" transform="matrix(1.00, 0.00, -0.00, -1.00, 723.9, 438.0)"> </text><text xml:space="preserve" font-family="HelveticaNeue-Light" font-size="50.0" fill="#FEFFFE" transform="matrix(1.00, 0.00, -0.00, -1.00, 737.8, 438.0)">i</text><text xml:space="preserve" font-family="HelveticaNeue-Light" font-size="50.0" fill="#FEFFFE" transform="matrix(1.00, 0.00, -0.00, -1.00, 747.0, 438.0)">n</text><text xml:space="preserve" font-family="HelveticaNeue-Light" font-size="50.0" fill="#FEFFFE" transform="matrix(1.00, 0.00, -0.00, -1.00, 773.9, 438.0)">d</text><text xml:space="preserve" font-family="HelveticaNeue-Light" font-size="50.0" fill="#FEFFFE" transform="matrix(1.00, 0.00, -0.00, -1.00, 802.6, 438.0)">i</text><text xml:space="preserve" font-family="HelveticaNeue-Light" font-size="50.0" fill="#FEFFFE" transform="matrix(1.00, 0.00, -0.00, -1.00, 811.8, 438.0)">v</text><text xml:space="preserve" font-family="HelveticaNeue-Light" font-size="50.0" fill="#FEFFFE" transform="matrix(1.00, 0.00, -0.00, -1.00, 835.0, 438.0)">i</text><text xml:space="preserve" font-family="HelveticaNeue-Light" font-size="50.0" fill="#FEFFFE" transform="matrix(1.00, 0.00, -0.00, -1.00, 844.2, 438.0)">d</text><text xml:space="preserve" font-family="HelveticaNeue-Light" font-size="50.0" fill="#FEFFFE" transform="matrix(1.00, 0.00, -0.00, -1.00, 872.9, 438.0)">u</text><text xml:space="preserve" font-family="HelveticaNeue-Light" font-size="50.0" fill="#FEFFFE" transform="matrix(1.00, 0.00, -0.00, -1.00, 899.8, 438.0)">a</text><text xml:space="preserve" font-family="HelveticaNeue-Light" font-size="50.0" fill="#FEFFFE" transform="matrix(1.00, 0.00, -0.00, -1.00, 925.7, 438.0)">l</text><text xml:space="preserve" font-family="HelveticaNeue-Light" font-size="50.0" fill="#FEFFFE" transform="matrix(1.00, 0.00, -0.00, -1.00, 935.0, 438.0)"> </text><text xml:space="preserve" font-family="HelveticaNeue-Light" font-size="50.0" fill="#FEFFFE" transform="matrix(1.00, 0.00, -0.00, -1.00, 948.9, 438.0)">c</text><text xml:space="preserve" font-family="HelveticaNeue-Light" font-size="50.0" fill="#FEFFFE" transform="matrix(1.00, 0.00, -0.00, -1.00, 974.8, 438.0)">o</text><text xml:space="preserve" font-family="HelveticaNeue-Light" font-size="50.0" fill="#FEFFFE" transform="matrix(1.00, 0.00, -0.00, -1.00, 1002.6, 438.0)">n</text><text xml:space="preserve" font-family="HelveticaNeue-Light" font-size="50.0" fill="#FEFFFE" transform="matrix(1.00, 0.00, -0.00, -1.00, 1029.5, 438.0)">s</text><text xml:space="preserve" font-family="HelveticaNeue-Light" font-size="50.0" fill="#FEFFFE" transform="matrix(1.00, 0.00, -0.00, -1.00, 1053.5, 438.0)">u</text><text xml:space="preserve" font-family="HelveticaNeue-Light" font-size="50.0" fill="#FEFFFE" transform="matrix(1.00, 0.00, -0.00, -1.00, 1080.4, 438.0)">l</text><text xml:space="preserve" font-family="HelveticaNeue-Light" font-size="50.0" fill="#FEFFFE" transform="matrix(1.00, 0.00, -0.00, -1.00, 1089.6, 438.0)">t</text><text xml:space="preserve" font-family="HelveticaNeue-Light" font-size="50.0" fill="#FEFFFE" transform="matrix(1.00, 0.00, -0.00, -1.00, 1104.4, 438.0)">a</text><text xml:space="preserve" font-family="HelveticaNeue-Light" font-size="50.0" fill="#FEFFFE" transform="matrix(1.00, 0.00, -0.00, -1.00, 1130.4, 438.0)">t</text><text xml:space="preserve" font-family="HelveticaNeue-Light" font-size="50.0" fill="#FEFFFE" transform="matrix(1.00, 0.00, -0.00, -1.00, 1145.2, 438.0)">i</text><text xml:space="preserve" font-family="HelveticaNeue-Light" font-size="50.0" fill="#FEFFFE" transform="matrix(1.00, 0.00, -0.00, -1.00, 1154.4, 438.0)">o</text><text xml:space="preserve" font-family="HelveticaNeue-Light" font-size="50.0" fill="#FEFFFE" transform="matrix(1.00, 0.00, -0.00, -1.00, 1182.2, 438.0)">n</text><text xml:space="preserve" font-family="HelveticaNeue-Light" font-size="50.0" fill="#FEFFFE" transform="matrix(1.00, 0.00, -0.00, -1.00, 1209.0, 438.0)"> </text><text xml:space="preserve" font-family="HelveticaNeue-Light" font-size="50.0" fill="#FEFFFE" transform="matrix(1.00, 0.00, -0.00, -1.00, 1223.0, 438.0)">a</text><text xml:space="preserve" font-family="HelveticaNeue-Light" font-size="50.0" fill="#FEFFFE" transform="matrix(1.00, 0.00, -0.00, -1.00, 1248.9, 438.0)">n</text><text xml:space="preserve" font-family="HelveticaNeue-Light" font-size="50.0" fill="#FEFFFE" transform="matrix(1.00, 0.00, -0.00, -1.00, 1275.8, 438.0)">d</text><text xml:space="preserve" font-family="HelveticaNeue-Light" font-size="50.0" fill="#FEFFFE" transform="matrix(1.00, 0.00, -0.00, -1.00, 1304.5, 438.0)"> </text><text xml:space="preserve" font-family="HelveticaNeue-Light" font-size="50.0" fill="#FEFFFE" transform="matrix(1.00, 0.00, -0.00, -1.00, 1318.4, 438.0)">a</text><text xml:space="preserve" font-family="HelveticaNeue-Light" font-size="50.0" fill="#FEFFFE" transform="matrix(1.00, 0.00, -0.00, -1.00, 1344.3, 438.0)">c</text><text xml:space="preserve" font-family="HelveticaNeue-Light" font-size="50.0" fill="#FEFFFE" transform="matrix(1.00, 0.00, -0.00, -1.00, 1370.3, 438.0)">a</text><text xml:space="preserve" font-family="HelveticaNeue-Light" font-size="50.0" fill="#FEFFFE" transform="matrix(1.00, 0.00, -0.00, -1.00, 1396.2, 438.0)">d</text><text xml:space="preserve" font-family="HelveticaNeue-Light" font-size="50.0" fill="#FEFFFE" transform="matrix(1.00, 0.00, -0.00, -1.00, 1424.9, 438.0)">e</text><text xml:space="preserve" font-family="HelveticaNeue-Light" font-size="50.0" fill="#FEFFFE" transform="matrix(1.00, 0.00, -0.00, -1.00, 1450.9, 438.0)">m</text><text xml:space="preserve" font-family="HelveticaNeue-Light" font-size="50.0" fill="#FEFFFE" transform="matrix(1.00, 0.00, -0.00, -1.00, 1492.5, 438.0)">i</text><text xml:space="preserve" font-family="HelveticaNeue-Light" font-size="50.0" fill="#FEFFFE" transform="matrix(1.00, 0.00, -0.00, -1.00, 1501.8, 438.0)">c</text><text xml:space="preserve" font-family="HelveticaNeue-Light" font-size="50.0" fill="#FEFFFE" transform="matrix(1.00, 0.00, -0.00, -1.00, 1527.7, 438.0)"> </text><text xml:space="preserve" font-family="HelveticaNeue-Light" font-size="50.0" fill="#FEFFFE" transform="matrix(1.00, 0.00, -0.00, -1.00, 1541.6, 438.0)">r</text><text xml:space="preserve" font-family="HelveticaNeue-Light" font-size="50.0" fill="#FEFFFE" transform="matrix(1.00, 0.00, -0.00, -1.00, 1556.5, 438.0)">e</text><text xml:space="preserve" font-family="HelveticaNeue-Light" font-size="50.0" fill="#FEFFFE" transform="matrix(1.00, 0.00, -0.00, -1.00, 1582.4, 438.0)">s</text><text xml:space="preserve" font-family="HelveticaNeue-Light" font-size="50.0" fill="#FEFFFE" transform="matrix(1.00, 0.00, -0.00, -1.00, 1606.5, 438.0)">e</text><text xml:space="preserve" font-family="HelveticaNeue-Light" font-size="50.0" fill="#FEFFFE" transform="matrix(1.00, 0.00, -0.00, -1.00, 1632.4, 438.0)">a</text><text xml:space="preserve" font-family="HelveticaNeue-Light" font-size="50.0" fill="#FEFFFE" transform="matrix(1.00, 0.00, -0.00, -1.00, 1658.4, 438.0)">r</text><text xml:space="preserve" font-family="HelveticaNeue-Light" font-size="50.0" fill="#FEFFFE" transform="matrix(1.00, 0.00, -0.00, -1.00, 1673.2, 438.0)">c</text><text xml:space="preserve" font-family="HelveticaNeue-Light" font-size="50.0" fill="#FEFFFE" transform="matrix(1.00, 0.00, -0.00, -1.00, 1699.2, 438.0)">h</text><text xml:space="preserve" font-family="HelveticaNeue-Light" font-size="50.0" fill="#FEFFFE" transform="matrix(1.00, 0.00, -0.00, -1.00, 1726.0, 438.0)"> </text><image xlink:href="../../077543C8-1A3F-406E-9593-99609A063235/assets/D78D93A8DEE9B68D58E2A0BAEAF9F97F.png" width="18.00" height="18.00" transform="matrix(1.00, 0.00, -0.00, -1.00, 120.0, 353.0)"></image><g><clipPath id="clip-1703"><path d="M 120.0 335.1 L 137.6 335.1 L 137.6 352.8 L 120.0 352.8 Z M 120.0 335.1 "></path></clipPath><g clip-path="url(#clip-1703)"><g><g><clipPath id="clip-1704"><path d="M 120.0 352.8 L 137.6 352.8 L 137.6 335.1 L 120.0 335.1 Z M 120.0 352.8 "></path></clipPath><g clip-path="url(#clip-1704)"><g><clipPath id="clip-1705"><path d="M 116.0 328.0 L 142.0 328.0 L 142.0 360.0 L 116.0 360.0 Z M 116.0 328.0 "></path></clipPath><g clip-path="url(#clip-1705)"><path d="M 137.6 349.3 C 137.6 350.0 137.2 350.8 136.5 351.6 C 135.8 352.4 135.0 352.8 134.1 352.8 C 133.7 352.8 133.1 352.6 132.2 352.2 C 130.9 351.5 129.7 351.2 128.8 351.2 C 127.8 351.2 126.6 351.5 125.3 352.2 C 124.5 352.6 123.9 352.8 123.4 352.8 C 122.6 352.8 121.8 352.4 121.1 351.6 C 120.4 350.9 120.0 350.1 120.0 349.3 C 120.0 348.8 120.2 348.2 120.6 347.3 C 121.2 346.0 121.5 344.9 121.5 343.9 C 121.5 343.0 121.2 341.9 120.6 340.5 C 120.2 339.7 120.0 339.1 120.0 338.6 C 120.0 337.8 120.4 337.0 121.1 336.2 C 121.8 335.5 122.6 335.1 123.4 335.1 C 123.9 335.1 124.5 335.3 125.3 335.7 C 126.6 336.4 127.8 336.7 128.8 336.7 C 129.7 336.7 130.9 336.4 132.2 335.7 C 133.1 335.3 133.7 335.1 134.1 335.1 C 135.0 335.1 135.8 335.5 136.5 336.2 C 137.2 337.0 137.6 337.8 137.6 338.6 C 137.6 339.1 137.4 339.7 137.0 340.5 C 136.3 341.9 136.0 343.0 136.0 343.9 C 136.0 344.9 136.3 346.0 137.0 347.3 C 137.4 348.2 137.6 348.8 137.6 349.3 " fill="#FFFFFF"></path></g></g></g></g></g></g></g><image xlink:href="DC70AF65045F15C0A379B8F0DC74507A.png" width="1085.00" height="56.00" transform="matrix(1.00, 0.00, -0.00, -1.00, 167.0, 365.0)"></image><text xml:space="preserve" font-family="HelveticaNeue-Light" font-size="50.0" fill="#FEFFFE" transform="matrix(1.00, 0.00, -0.00, -1.00, 170.0, 327.0)">C</text><text xml:space="preserve" font-family="HelveticaNeue-Light" font-size="50.0" fill="#FEFFFE" transform="matrix(1.00, 0.00, -0.00, -1.00, 205.2, 327.0)">a</text><text xml:space="preserve" font-family="HelveticaNeue-Light" font-size="50.0" fill="#FEFFFE" transform="matrix(1.00, 0.00, -0.00, -1.00, 231.2, 327.0)">n</text><text xml:space="preserve" font-family="HelveticaNeue-Light" font-size="50.0" fill="#FEFFFE" transform="matrix(1.00, 0.00, -0.00, -1.00, 258.0, 327.0)"> </text><text xml:space="preserve" font-family="HelveticaNeue-Light" font-size="50.0" fill="#FEFFFE" transform="matrix(1.00, 0.00, -0.00, -1.00, 271.9, 327.0)">r</text><text xml:space="preserve" font-family="HelveticaNeue-Light" font-size="50.0" fill="#FEFFFE" transform="matrix(1.00, 0.00, -0.00, -1.00, 286.8, 327.0)">e</text><text xml:space="preserve" font-family="HelveticaNeue-Light" font-size="50.0" fill="#FEFFFE" transform="matrix(1.00, 0.00, -0.00, -1.00, 312.7, 327.0)">d</text><text xml:space="preserve" font-family="HelveticaNeue-Light" font-size="50.0" fill="#FEFFFE" transform="matrix(1.00, 0.00, -0.00, -1.00, 341.4, 327.0)">u</text><text xml:space="preserve" font-family="HelveticaNeue-Light" font-size="50.0" fill="#FEFFFE" transform="matrix(1.00, 0.00, -0.00, -1.00, 368.2, 327.0)">c</text><text xml:space="preserve" font-family="HelveticaNeue-Light" font-size="50.0" fill="#FEFFFE" transform="matrix(1.00, 0.00, -0.00, -1.00, 394.2, 327.0)">e</text><text xml:space="preserve" font-family="HelveticaNeue-Light" font-size="50.0" fill="#FEFFFE" transform="matrix(1.00, 0.00, -0.00, -1.00, 420.1, 327.0)"> </text><text xml:space="preserve" font-family="HelveticaNeue-Light" font-size="50.0" fill="#FEFFFE" transform="matrix(1.00, 0.00, -0.00, -1.00, 434.0, 327.0)">f</text><text xml:space="preserve" font-family="HelveticaNeue-Light" font-size="50.0" fill="#FEFFFE" transform="matrix(1.00, 0.00, -0.00, -1.00, 447.0, 327.0)">u</text><text xml:space="preserve" font-family="HelveticaNeue-Light" font-size="50.0" fill="#FEFFFE" transform="matrix(1.00, 0.00, -0.00, -1.00, 473.8, 327.0)">t</text><text xml:space="preserve" font-family="HelveticaNeue-Light" font-size="50.0" fill="#FEFFFE" transform="matrix(1.00, 0.00, -0.00, -1.00, 488.6, 327.0)">u</text><text xml:space="preserve" font-family="HelveticaNeue-Light" font-size="50.0" fill="#FEFFFE" transform="matrix(1.00, 0.00, -0.00, -1.00, 515.5, 327.0)">r</text><text xml:space="preserve" font-family="HelveticaNeue-Light" font-size="50.0" fill="#FEFFFE" transform="matrix(1.00, 0.00, -0.00, -1.00, 530.4, 327.0)">e</text><text xml:space="preserve" font-family="HelveticaNeue-Light" font-size="50.0" fill="#FEFFFE" transform="matrix(1.00, 0.00, -0.00, -1.00, 556.3, 327.0)"> </text><text xml:space="preserve" font-family="HelveticaNeue-Light" font-size="50.0" fill="#FEFFFE" transform="matrix(1.00, 0.00, -0.00, -1.00, 570.2, 327.0)">g</text><text xml:space="preserve" font-family="HelveticaNeue-Light" font-size="50.0" fill="#FEFFFE" transform="matrix(1.00, 0.00, -0.00, -1.00, 598.0, 327.0)">r</text><text xml:space="preserve" font-family="HelveticaNeue-Light" font-size="50.0" fill="#FEFFFE" transform="matrix(1.00, 0.00, -0.00, -1.00, 613.8, 327.0)">i</text><text xml:space="preserve" font-family="HelveticaNeue-Light" font-size="50.0" fill="#FEFFFE" transform="matrix(1.00, 0.00, -0.00, -1.00, 623.0, 327.0)">e</text><text xml:space="preserve" font-family="HelveticaNeue-Light" font-size="50.0" fill="#FEFFFE" transform="matrix(1.00, 0.00, -0.00, -1.00, 649.0, 327.0)">f</text><text xml:space="preserve" font-family="HelveticaNeue-Light" font-size="50.0" fill="#FEFFFE" transform="matrix(1.00, 0.00, -0.00, -1.00, 661.9, 327.0)"> </text><text xml:space="preserve" font-family="HelveticaNeue-Light" font-size="50.0" fill="#FEFFFE" transform="matrix(1.00, 0.00, -0.00, -1.00, 675.8, 327.0)">a</text><text xml:space="preserve" font-family="HelveticaNeue-Light" font-size="50.0" fill="#FEFFFE" transform="matrix(1.00, 0.00, -0.00, -1.00, 701.8, 327.0)">n</text><text xml:space="preserve" font-family="HelveticaNeue-Light" font-size="50.0" fill="#FEFFFE" transform="matrix(1.00, 0.00, -0.00, -1.00, 728.6, 327.0)">d</text><text xml:space="preserve" font-family="HelveticaNeue-Light" font-size="50.0" fill="#FEFFFE" transform="matrix(1.00, 0.00, -0.00, -1.00, 757.3, 327.0)"> </text><text xml:space="preserve" font-family="HelveticaNeue-Light" font-size="50.0" fill="#FEFFFE" transform="matrix(1.00, 0.00, -0.00, -1.00, 771.2, 327.0)">a</text><text xml:space="preserve" font-family="HelveticaNeue-Light" font-size="50.0" fill="#FEFFFE" transform="matrix(1.00, 0.00, -0.00, -1.00, 797.2, 327.0)">n</text><text xml:space="preserve" font-family="HelveticaNeue-Light" font-size="50.0" fill="#FEFFFE" transform="matrix(1.00, 0.00, -0.00, -1.00, 824.0, 327.0)">g</text><text xml:space="preserve" font-family="HelveticaNeue-Light" font-size="50.0" fill="#FEFFFE" transform="matrix(1.00, 0.00, -0.00, -1.00, 851.8, 327.0)">s</text><text xml:space="preserve" font-family="HelveticaNeue-Light" font-size="50.0" fill="#FEFFFE" transform="matrix(1.00, 0.00, -0.00, -1.00, 875.9, 327.0)">t</text><text xml:space="preserve" font-family="HelveticaNeue-Light" font-size="50.0" fill="#FEFFFE" transform="matrix(1.00, 0.00, -0.00, -1.00, 890.6, 327.0)"> </text><text xml:space="preserve" font-family="HelveticaNeue-Light" font-size="50.0" fill="#FEFFFE" transform="matrix(1.00, 0.00, -0.00, -1.00, 904.5, 327.0)">b</text><text xml:space="preserve" font-family="HelveticaNeue-Light" font-size="50.0" fill="#FEFFFE" transform="matrix(1.00, 0.00, -0.00, -1.00, 933.2, 327.0)">y</text><text xml:space="preserve" font-family="HelveticaNeue-Light" font-size="50.0" fill="#FEFFFE" transform="matrix(1.00, 0.00, -0.00, -1.00, 956.4, 327.0)"> </text><text xml:space="preserve" font-family="HelveticaNeue-Light" font-size="50.0" fill="#FEFFFE" transform="matrix(1.00, 0.00, -0.00, -1.00, 970.3, 327.0)">m</text><text xml:space="preserve" font-family="HelveticaNeue-Light" font-size="50.0" fill="#FEFFFE" transform="matrix(1.00, 0.00, -0.00, -1.00, 1011.9, 327.0)">a</text><text xml:space="preserve" font-family="HelveticaNeue-Light" font-size="50.0" fill="#FEFFFE" transform="matrix(1.00, 0.00, -0.00, -1.00, 1037.9, 327.0)">n</text><text xml:space="preserve" font-family="HelveticaNeue-Light" font-size="50.0" fill="#FEFFFE" transform="matrix(1.00, 0.00, -0.00, -1.00, 1064.8, 327.0)">y</text><text xml:space="preserve" font-family="HelveticaNeue-Light" font-size="50.0" fill="#FEFFFE" transform="matrix(1.00, 0.00, -0.00, -1.00, 1087.9, 327.0)"> </text><text xml:space="preserve" font-family="HelveticaNeue-Light" font-size="50.0" fill="#FEFFFE" transform="matrix(1.00, 0.00, -0.00, -1.00, 1101.8, 327.0)">f</text><text xml:space="preserve" font-family="HelveticaNeue-Light" font-size="50.0" fill="#FEFFFE" transform="matrix(1.00, 0.00, -0.00, -1.00, 1114.8, 327.0)">a</text><text xml:space="preserve" font-family="HelveticaNeue-Light" font-size="50.0" fill="#FEFFFE" transform="matrix(1.00, 0.00, -0.00, -1.00, 1140.7, 327.0)">c</text><text xml:space="preserve" font-family="HelveticaNeue-Light" font-size="50.0" fill="#FEFFFE" transform="matrix(1.00, 0.00, -0.00, -1.00, 1166.7, 327.0)">t</text><text xml:space="preserve" font-family="HelveticaNeue-Light" font-size="50.0" fill="#FEFFFE" transform="matrix(1.00, 0.00, -0.00, -1.00, 1181.5, 327.0)">o</text><text xml:space="preserve" font-family="HelveticaNeue-Light" font-size="50.0" fill="#FEFFFE" transform="matrix(1.00, 0.00, -0.00, -1.00, 1209.2, 327.0)">r</text><text xml:space="preserve" font-family="HelveticaNeue-Light" font-size="50.0" fill="#FEFFFE" transform="matrix(1.00, 0.00, -0.00, -1.00, 1225.0, 327.0)">s</text></g></svg>