<?xml version="1.0" encoding="UTF-8" standalone="no"?><svg xmlns="http://www.w3.org/2000/svg" xmlns:xlink="http://www.w3.org/1999/xlink" clip-rule="evenodd" stroke-miterlimit="4.00" viewBox="0 0 1920 1080"><desc>SVG generated by Keynote</desc><defs></defs><g transform="matrix(1.00, 0.00, -0.00, -1.00, 0.0, 1080.0)"><g><clipPath id="clip-2015"><path d="M 0.0 1080.0 L 1920.0 1080.0 L 1920.0 0.0 L 0.0 0.0 Z M 0.0 1080.0 "></path></clipPath><g clip-path="url(#clip-2015)"><image xlink:href="../../1D876F4A-8FAE-4533-855C-0B67E64EABCD/assets/4B0075050CC9D0F3DC006F0CDE78D676.jpeg" width="1365.00" height="767.00" transform="matrix(1.41, 0.00, -0.00, -1.41, 0.0, 1080.0)"></image></g></g><image xlink:href="../../B6BFED13-5CC9-4354-A59A-CD9DF74F88D7/assets/488E057C7252F0E8AAE001DBD596989D.png" width="1025.00" height="99.00" transform="matrix(1.00, 0.00, -0.00, -1.00, 115.0, 952.0)"></image><text xml:space="preserve" font-family="HelveticaNeue-Light" font-size="100.0" fill="#FEFFFE" transform="matrix(1.00, 0.00, -0.00, -1.00, 120.0, 879.0)">V</text><text xml:space="preserve" font-family="HelveticaNeue-Light" font-size="100.0" fill="#FEFFFE" transform="matrix(1.00, 0.00, -0.00, -1.00, 173.8, 879.0)">e</text><text xml:space="preserve" font-family="HelveticaNeue-Light" font-size="100.0" fill="#FEFFFE" transform="matrix(1.00, 0.00, -0.00, -1.00, 225.7, 879.0)">r</text><text xml:space="preserve" font-family="HelveticaNeue-Light" font-size="100.0" fill="#FEFFFE" transform="matrix(1.00, 0.00, -0.00, -1.00, 257.2, 879.0)">s</text><text xml:space="preserve" font-family="HelveticaNeue-Light" font-size="100.0" fill="#FEFFFE" transform="matrix(1.00, 0.00, -0.00, -1.00, 305.3, 879.0)">i</text><text xml:space="preserve" font-family="HelveticaNeue-Light" font-size="100.0" fill="#FEFFFE" transform="matrix(1.00, 0.00, -0.00, -1.00, 323.8, 879.0)">o</text><text xml:space="preserve" font-family="HelveticaNeue-Light" font-size="100.0" fill="#FEFFFE" transform="matrix(1.00, 0.00, -0.00, -1.00, 379.4, 879.0)">n</text><text xml:space="preserve" font-family="HelveticaNeue-Light" font-size="100.0" fill="#FEFFFE" transform="matrix(1.00, 0.00, -0.00, -1.00, 433.1, 879.0)"> </text><text xml:space="preserve" font-family="HelveticaNeue-Light" font-size="100.0" fill="#FEFFFE" transform="matrix(1.00, 0.00, -0.00, -1.00, 460.9, 879.0)">c</text><text xml:space="preserve" font-family="HelveticaNeue-Light" font-size="100.0" fill="#FEFFFE" transform="matrix(1.00, 0.00, -0.00, -1.00, 512.8, 879.0)">o</text><text xml:space="preserve" font-family="HelveticaNeue-Light" font-size="100.0" fill="#FEFFFE" transform="matrix(1.00, 0.00, -0.00, -1.00, 568.4, 879.0)">n</text><text xml:space="preserve" font-family="HelveticaNeue-Light" font-size="100.0" fill="#FEFFFE" transform="matrix(1.00, 0.00, -0.00, -1.00, 622.1, 879.0)">t</text><text xml:space="preserve" font-family="HelveticaNeue-Light" font-size="100.0" fill="#FEFFFE" transform="matrix(1.00, 0.00, -0.00, -1.00, 651.7, 879.0)">r</text><text xml:space="preserve" font-family="HelveticaNeue-Light" font-size="100.0" fill="#FEFFFE" transform="matrix(1.00, 0.00, -0.00, -1.00, 681.4, 879.0)">o</text><text xml:space="preserve" font-family="HelveticaNeue-Light" font-size="100.0" fill="#FEFFFE" transform="matrix(1.00, 0.00, -0.00, -1.00, 737.0, 879.0)">l</text><text xml:space="preserve" font-family="HelveticaNeue-Light" font-size="100.0" fill="#FEFFFE" transform="matrix(1.00, 0.00, -0.00, -1.00, 755.5, 879.0)"> </text><text xml:space="preserve" font-family="HelveticaNeue-Light" font-size="100.0" fill="#FEFFFE" transform="matrix(1.00, 0.00, -0.00, -1.00, 783.3, 879.0)">s</text><text xml:space="preserve" font-family="HelveticaNeue-Light" font-size="100.0" fill="#FEFFFE" transform="matrix(1.00, 0.00, -0.00, -1.00, 831.4, 879.0)">y</text><text xml:space="preserve" font-family="HelveticaNeue-Light" font-size="100.0" fill="#FEFFFE" transform="matrix(1.00, 0.00, -0.00, -1.00, 877.7, 879.0)">s</text><text xml:space="preserve" font-family="HelveticaNeue-Light" font-size="100.0" fill="#FEFFFE" transform="matrix(1.00, 0.00, -0.00, -1.00, 925.8, 879.0)">t</text><text xml:space="preserve" font-family="HelveticaNeue-Light" font-size="100.0" fill="#FEFFFE" transform="matrix(1.00, 0.00, -0.00, -1.00, 955.4, 879.0)">e</text><text xml:space="preserve" font-family="HelveticaNeue-Light" font-size="100.0" fill="#FEFFFE" transform="matrix(1.00, 0.00, -0.00, -1.00, 1007.3, 879.0)">m</text><text xml:space="preserve" font-family="HelveticaNeue-Light" font-size="100.0" fill="#FEFFFE" transform="matrix(1.00, 0.00, -0.00, -1.00, 1090.6, 879.0)">s</text><image xlink:href="../../077543C8-1A3F-406E-9593-99609A063235/assets/D78D93A8DEE9B68D58E2A0BAEAF9F97F.png" width="18.00" height="18.00" transform="matrix(1.00, 0.00, -0.00, -1.00, 120.0, 630.0)"></image><g><clipPath id="clip-2016"><path d="M 120.0 612.1 L 137.6 612.1 L 137.6 629.8 L 120.0 629.8 Z M 120.0 612.1 "></path></clipPath><g clip-path="url(#clip-2016)"><g><g><clipPath id="clip-2017"><path d="M 120.0 629.8 L 137.6 629.8 L 137.6 612.1 L 120.0 612.1 Z M 120.0 629.8 "></path></clipPath><g clip-path="url(#clip-2017)"><g><clipPath id="clip-2018"><path d="M 116.0 605.0 L 142.0 605.0 L 142.0 637.0 L 116.0 637.0 Z M 116.0 605.0 "></path></clipPath><g clip-path="url(#clip-2018)"><path d="M 137.6 626.3 C 137.6 627.0 137.2 627.8 136.5 628.6 C 135.8 629.4 135.0 629.8 134.1 629.8 C 133.7 629.8 133.1 629.6 132.2 629.2 C 130.9 628.5 129.7 628.2 128.8 628.2 C 127.8 628.2 126.6 628.5 125.3 629.2 C 124.5 629.6 123.9 629.8 123.4 629.8 C 122.6 629.8 121.8 629.4 121.1 628.6 C 120.4 627.9 120.0 627.1 120.0 626.3 C 120.0 625.8 120.2 625.2 120.6 624.3 C 121.2 623.0 121.5 621.9 121.5 620.9 C 121.5 620.0 121.2 618.9 120.6 617.5 C 120.2 616.7 120.0 616.1 120.0 615.6 C 120.0 614.8 120.4 614.0 121.1 613.2 C 121.8 612.5 122.6 612.1 123.4 612.1 C 123.9 612.1 124.5 612.3 125.3 612.7 C 126.6 613.4 127.8 613.7 128.8 613.7 C 129.7 613.7 130.9 613.4 132.2 612.7 C 133.1 612.3 133.7 612.1 134.1 612.1 C 135.0 612.1 135.8 612.5 136.5 613.2 C 137.2 614.0 137.6 614.8 137.6 615.6 C 137.6 616.1 137.4 616.7 137.0 617.5 C 136.3 618.9 136.0 620.0 136.0 620.9 C 136.0 621.9 136.3 623.0 137.0 624.3 C 137.4 625.2 137.6 625.8 137.6 626.3 " fill="#FFFFFF"></path></g></g></g></g></g></g></g><image xlink:href="../../B6BFED13-5CC9-4354-A59A-CD9DF74F88D7/assets/9764F5515FD09CC9CB2BB144AE885265.png" width="268.00" height="46.00" transform="matrix(1.00, 0.00, -0.00, -1.00, 167.0, 642.0)"></image><text xml:space="preserve" font-family="HelveticaNeue-Light" font-size="50.0" fill="#FEFFFE" transform="matrix(1.00, 0.00, -0.00, -1.00, 170.0, 604.0)">C</text><text xml:space="preserve" font-family="HelveticaNeue-Light" font-size="50.0" fill="#FEFFFE" transform="matrix(1.00, 0.00, -0.00, -1.00, 205.2, 604.0)">h</text><text xml:space="preserve" font-family="HelveticaNeue-Light" font-size="50.0" fill="#FEFFFE" transform="matrix(1.00, 0.00, -0.00, -1.00, 232.1, 604.0)">o</text><text xml:space="preserve" font-family="HelveticaNeue-Light" font-size="50.0" fill="#FEFFFE" transform="matrix(1.00, 0.00, -0.00, -1.00, 259.9, 604.0)">o</text><text xml:space="preserve" font-family="HelveticaNeue-Light" font-size="50.0" fill="#FEFFFE" transform="matrix(1.00, 0.00, -0.00, -1.00, 287.6, 604.0)">s</text><text xml:space="preserve" font-family="HelveticaNeue-Light" font-size="50.0" fill="#FEFFFE" transform="matrix(1.00, 0.00, -0.00, -1.00, 311.7, 604.0)">e</text><text xml:space="preserve" font-family="HelveticaNeue-Light" font-size="50.0" fill="#FEFFFE" transform="matrix(1.00, 0.00, -0.00, -1.00, 337.7, 604.0)"> </text><text xml:space="preserve" font-family="HelveticaNeue-Light" font-size="50.0" fill="#FEFFFE" transform="matrix(1.00, 0.00, -0.00, -1.00, 351.6, 604.0)">o</text><text xml:space="preserve" font-family="HelveticaNeue-Light" font-size="50.0" fill="#FEFFFE" transform="matrix(1.00, 0.00, -0.00, -1.00, 379.4, 604.0)">n</text><text xml:space="preserve" font-family="HelveticaNeue-Light" font-size="50.0" fill="#FEFFFE" transform="matrix(1.00, 0.00, -0.00, -1.00, 406.2, 604.0)">e</text><text xml:space="preserve" font-family="HelveticaNeue-Light" font-size="50.0" fill="#FEFFFE" transform="matrix(1.00, 0.00, -0.00, -1.00, 432.2, 604.0)"> </text><image xlink:href="../../077543C8-1A3F-406E-9593-99609A063235/assets/D78D93A8DEE9B68D58E2A0BAEAF9F97F.png" width="18.00" height="18.00" transform="matrix(1.00, 0.00, -0.00, -1.00, 170.0, 519.0)"></image><g><clipPath id="clip-2019"><path d="M 170.0 501.1 L 187.6 501.1 L 187.6 518.8 L 170.0 518.8 Z M 170.0 501.1 "></path></clipPath><g clip-path="url(#clip-2019)"><g><g><clipPath id="clip-2020"><path d="M 170.0 518.8 L 187.6 518.8 L 187.6 501.1 L 170.0 501.1 Z M 170.0 518.8 "></path></clipPath><g clip-path="url(#clip-2020)"><g><clipPath id="clip-2021"><path d="M 166.0 494.0 L 192.0 494.0 L 192.0 526.0 L 166.0 526.0 Z M 166.0 494.0 "></path></clipPath><g clip-path="url(#clip-2021)"><path d="M 187.6 515.3 C 187.6 516.0 187.2 516.8 186.5 517.6 C 185.8 518.4 185.0 518.8 184.1 518.8 C 183.7 518.8 183.1 518.6 182.2 518.2 C 180.9 517.5 179.7 517.2 178.8 517.2 C 177.8 517.2 176.6 517.5 175.3 518.2 C 174.5 518.6 173.9 518.8 173.4 518.8 C 172.6 518.8 171.8 518.4 171.1 517.6 C 170.4 516.9 170.0 516.1 170.0 515.3 C 170.0 514.8 170.2 514.2 170.6 513.3 C 171.2 512.0 171.5 510.9 171.5 509.9 C 171.5 509.0 171.2 507.9 170.6 506.5 C 170.2 505.7 170.0 505.1 170.0 504.6 C 170.0 503.8 170.4 503.0 171.1 502.2 C 171.8 501.5 172.6 501.1 173.4 501.1 C 173.9 501.1 174.5 501.3 175.3 501.7 C 176.6 502.4 177.8 502.7 178.8 502.7 C 179.7 502.7 180.9 502.4 182.2 501.7 C 183.1 501.3 183.7 501.1 184.1 501.1 C 185.0 501.1 185.8 501.5 186.5 502.2 C 187.2 503.0 187.6 503.8 187.6 504.6 C 187.6 505.1 187.4 505.7 187.0 506.5 C 186.3 507.9 186.0 509.0 186.0 509.9 C 186.0 510.9 186.3 512.0 187.0 513.3 C 187.4 514.2 187.6 514.8 187.6 515.3 " fill="#FFFFFF"></path></g></g></g></g></g></g></g><image xlink:href="../../B6BFED13-5CC9-4354-A59A-CD9DF74F88D7/assets/EE90BAC816231C4874E9278DCAC9295E.png" width="67.00" height="46.00" transform="matrix(1.00, 0.00, -0.00, -1.00, 217.0, 531.0)"></image><text xml:space="preserve" font-family="HelveticaNeue-Light" font-size="50.0" fill="#FEFFFE" transform="matrix(1.00, 0.00, -0.00, -1.00, 220.0, 493.0)">G</text><text xml:space="preserve" font-family="HelveticaNeue-Light" font-size="50.0" fill="#FEFFFE" transform="matrix(1.00, 0.00, -0.00, -1.00, 257.1, 493.0)">i</text><text xml:space="preserve" font-family="HelveticaNeue-Light" font-size="50.0" fill="#FEFFFE" transform="matrix(1.00, 0.00, -0.00, -1.00, 266.3, 493.0)">t</text><text xml:space="preserve" font-family="HelveticaNeue-Light" font-size="50.0" fill="#FEFFFE" transform="matrix(1.00, 0.00, -0.00, -1.00, 281.1, 493.0)"> </text><image xlink:href="../../077543C8-1A3F-406E-9593-99609A063235/assets/D78D93A8DEE9B68D58E2A0BAEAF9F97F.png" width="18.00" height="18.00" transform="matrix(1.00, 0.00, -0.00, -1.00, 170.0, 408.0)"></image><g><clipPath id="clip-2022"><path d="M 170.0 390.1 L 187.6 390.1 L 187.6 407.8 L 170.0 407.8 Z M 170.0 390.1 "></path></clipPath><g clip-path="url(#clip-2022)"><g><g><clipPath id="clip-2023"><path d="M 170.0 407.8 L 187.6 407.8 L 187.6 390.1 L 170.0 390.1 Z M 170.0 407.8 "></path></clipPath><g clip-path="url(#clip-2023)"><g><clipPath id="clip-2024"><path d="M 166.0 383.0 L 192.0 383.0 L 192.0 415.0 L 166.0 415.0 Z M 166.0 383.0 "></path></clipPath><g clip-path="url(#clip-2024)"><path d="M 187.6 404.3 C 187.6 405.0 187.2 405.8 186.5 406.6 C 185.8 407.4 185.0 407.8 184.1 407.8 C 183.7 407.8 183.1 407.6 182.2 407.2 C 180.9 406.5 179.7 406.2 178.8 406.2 C 177.8 406.2 176.6 406.5 175.3 407.2 C 174.5 407.6 173.9 407.8 173.4 407.8 C 172.6 407.8 171.8 407.4 171.1 406.6 C 170.4 405.9 170.0 405.1 170.0 404.3 C 170.0 403.8 170.2 403.2 170.6 402.3 C 171.2 401.0 171.5 399.9 171.5 398.9 C 171.5 398.0 171.2 396.9 170.6 395.5 C 170.2 394.7 170.0 394.1 170.0 393.6 C 170.0 392.8 170.4 392.0 171.1 391.2 C 171.8 390.5 172.6 390.1 173.4 390.1 C 173.9 390.1 174.5 390.3 175.3 390.7 C 176.6 391.4 177.8 391.7 178.8 391.7 C 179.7 391.7 180.9 391.4 182.2 390.7 C 183.1 390.3 183.7 390.1 184.1 390.1 C 185.0 390.1 185.8 390.5 186.5 391.2 C 187.2 392.0 187.6 392.8 187.6 393.6 C 187.6 394.1 187.4 394.7 187.0 395.5 C 186.3 396.9 186.0 398.0 186.0 398.9 C 186.0 399.9 186.3 401.0 187.0 402.3 C 187.4 403.2 187.6 403.8 187.6 404.3 " fill="#FFFFFF"></path></g></g></g></g></g></g></g><image xlink:href="../../B6BFED13-5CC9-4354-A59A-CD9DF74F88D7/assets/13B68E900440929E21EDA0DF16C7E1C1.png" width="244.00" height="46.00" transform="matrix(1.00, 0.00, -0.00, -1.00, 217.0, 420.0)"></image><text xml:space="preserve" font-family="HelveticaNeue-Light" font-size="50.0" fill="#FEFFFE" transform="matrix(1.00, 0.00, -0.00, -1.00, 220.0, 382.0)">S</text><text xml:space="preserve" font-family="HelveticaNeue-Light" font-size="50.0" fill="#FEFFFE" transform="matrix(1.00, 0.00, -0.00, -1.00, 251.5, 382.0)">u</text><text xml:space="preserve" font-family="HelveticaNeue-Light" font-size="50.0" fill="#FEFFFE" transform="matrix(1.00, 0.00, -0.00, -1.00, 278.4, 382.0)">b</text><text xml:space="preserve" font-family="HelveticaNeue-Light" font-size="50.0" fill="#FEFFFE" transform="matrix(1.00, 0.00, -0.00, -1.00, 307.1, 382.0)">v</text><text xml:space="preserve" font-family="HelveticaNeue-Light" font-size="50.0" fill="#FEFFFE" transform="matrix(1.00, 0.00, -0.00, -1.00, 330.2, 382.0)">e</text><text xml:space="preserve" font-family="HelveticaNeue-Light" font-size="50.0" fill="#FEFFFE" transform="matrix(1.00, 0.00, -0.00, -1.00, 356.2, 382.0)">r</text><text xml:space="preserve" font-family="HelveticaNeue-Light" font-size="50.0" fill="#FEFFFE" transform="matrix(1.00, 0.00, -0.00, -1.00, 371.9, 382.0)">s</text><text xml:space="preserve" font-family="HelveticaNeue-Light" font-size="50.0" fill="#FEFFFE" transform="matrix(1.00, 0.00, -0.00, -1.00, 396.0, 382.0)">i</text><text xml:space="preserve" font-family="HelveticaNeue-Light" font-size="50.0" fill="#FEFFFE" transform="matrix(1.00, 0.00, -0.00, -1.00, 405.2, 382.0)">o</text><text xml:space="preserve" font-family="HelveticaNeue-Light" font-size="50.0" fill="#FEFFFE" transform="matrix(1.00, 0.00, -0.00, -1.00, 433.0, 382.0)">n</text><text xml:space="preserve" font-family="HelveticaNeue-Light" font-size="50.0" fill="#FEFFFE" transform="matrix(1.00, 0.00, -0.00, -1.00, 459.9, 382.0)"> </text><image xlink:href="../../077543C8-1A3F-406E-9593-99609A063235/assets/D78D93A8DEE9B68D58E2A0BAEAF9F97F.png" width="18.00" height="18.00" transform="matrix(1.00, 0.00, -0.00, -1.00, 170.0, 297.0)"></image><g><clipPath id="clip-2025"><path d="M 170.0 279.1 L 187.6 279.1 L 187.6 296.8 L 170.0 296.8 Z M 170.0 279.1 "></path></clipPath><g clip-path="url(#clip-2025)"><g><g><clipPath id="clip-2026"><path d="M 170.0 296.8 L 187.6 296.8 L 187.6 279.1 L 170.0 279.1 Z M 170.0 296.8 "></path></clipPath><g clip-path="url(#clip-2026)"><g><clipPath id="clip-2027"><path d="M 166.0 272.0 L 192.0 272.0 L 192.0 304.0 L 166.0 304.0 Z M 166.0 272.0 "></path></clipPath><g clip-path="url(#clip-2027)"><path d="M 187.6 293.3 C 187.6 294.0 187.2 294.8 186.5 295.6 C 185.8 296.4 185.0 296.8 184.1 296.8 C 183.7 296.8 183.1 296.6 182.2 296.2 C 180.9 295.5 179.7 295.2 178.8 295.2 C 177.8 295.2 176.6 295.5 175.3 296.2 C 174.5 296.6 173.9 296.8 173.4 296.8 C 172.6 296.8 171.8 296.4 171.1 295.6 C 170.4 294.9 170.0 294.1 170.0 293.3 C 170.0 292.8 170.2 292.2 170.6 291.3 C 171.2 290.0 171.5 288.9 171.5 287.9 C 171.5 287.0 171.2 285.9 170.6 284.5 C 170.2 283.7 170.0 283.1 170.0 282.6 C 170.0 281.8 170.4 281.0 171.1 280.2 C 171.8 279.5 172.6 279.1 173.4 279.1 C 173.9 279.1 174.5 279.3 175.3 279.7 C 176.6 280.4 177.8 280.7 178.8 280.7 C 179.7 280.7 180.9 280.4 182.2 279.7 C 183.1 279.3 183.7 279.1 184.1 279.1 C 185.0 279.1 185.8 279.5 186.5 280.2 C 187.2 281.0 187.6 281.8 187.6 282.6 C 187.6 283.1 187.4 283.7 187.0 284.5 C 186.3 285.9 186.0 287.0 186.0 287.9 C 186.0 288.9 186.3 290.0 187.0 291.3 C 187.4 292.2 187.6 292.8 187.6 293.3 " fill="#FFFFFF"></path></g></g></g></g></g></g></g><image xlink:href="../../B6BFED13-5CC9-4354-A59A-CD9DF74F88D7/assets/62E69D4FC8858E298479995EAEA2A7C3.png" width="197.00" height="45.00" transform="matrix(1.00, 0.00, -0.00, -1.00, 219.0, 308.0)"></image><text xml:space="preserve" font-family="HelveticaNeue-Light" font-size="50.0" fill="#FEFFFE" transform="matrix(1.00, 0.00, -0.00, -1.00, 220.0, 271.0)">M</text><text xml:space="preserve" font-family="HelveticaNeue-Light" font-size="50.0" fill="#FEFFFE" transform="matrix(1.00, 0.00, -0.00, -1.00, 261.1, 271.0)">e</text><text xml:space="preserve" font-family="HelveticaNeue-Light" font-size="50.0" fill="#FEFFFE" transform="matrix(1.00, 0.00, -0.00, -1.00, 287.0, 271.0)">r</text><text xml:space="preserve" font-family="HelveticaNeue-Light" font-size="50.0" fill="#FEFFFE" transform="matrix(1.00, 0.00, -0.00, -1.00, 301.9, 271.0)">c</text><text xml:space="preserve" font-family="HelveticaNeue-Light" font-size="50.0" fill="#FEFFFE" transform="matrix(1.00, 0.00, -0.00, -1.00, 327.8, 271.0)">u</text><text xml:space="preserve" font-family="HelveticaNeue-Light" font-size="50.0" fill="#FEFFFE" transform="matrix(1.00, 0.00, -0.00, -1.00, 354.6, 271.0)">r</text><text xml:space="preserve" font-family="HelveticaNeue-Light" font-size="50.0" fill="#FEFFFE" transform="matrix(1.00, 0.00, -0.00, -1.00, 370.4, 271.0)">i</text><text xml:space="preserve" font-family="HelveticaNeue-Light" font-size="50.0" fill="#FEFFFE" transform="matrix(1.00, 0.00, -0.00, -1.00, 379.6, 271.0)">a</text><text xml:space="preserve" font-family="HelveticaNeue-Light" font-size="50.0" fill="#FEFFFE" transform="matrix(1.00, 0.00, -0.00, -1.00, 405.6, 271.0)">l</text></g></svg>