<?xml version="1.0" encoding="UTF-8" standalone="no"?><svg xmlns="http://www.w3.org/2000/svg" xmlns:xlink="http://www.w3.org/1999/xlink" clip-rule="evenodd" stroke-miterlimit="4.00" viewBox="0 0 995 56"><desc>SVG generated by Keynote</desc><defs></defs><g transform="matrix(1.00, 0.00, -0.00, -1.00, 0.0, 56.0)"><image xlink:href="E1D35CD04E9E0740ED1CE5960DA6DBBC.png" width="18.00" height="19.00" transform="matrix(1.00, 0.00, -0.00, -1.00, 4.0, 45.0)"></image><g><clipPath id="clip-92"><path d="M 4.0 26.7 L 21.3 26.7 L 21.3 44.0 L 4.0 44.0 Z M 4.0 26.7 "></path></clipPath><g clip-path="url(#clip-92)"><g><g><clipPath id="clip-93"><path d="M 4.0 44.0 L 21.3 44.0 L 21.3 26.7 L 4.0 26.7 Z M 4.0 44.0 "></path></clipPath><g clip-path="url(#clip-93)"><g><clipPath id="clip-94"><path d="M 0.0 19.0 L 26.0 19.0 L 26.0 52.0 L 0.0 52.0 Z M 0.0 19.0 "></path></clipPath><g clip-path="url(#clip-94)"><path d="M 21.3 40.5 C 21.3 41.3 20.9 42.1 20.2 42.8 C 19.4 43.6 18.7 44.0 17.8 44.0 C 17.4 44.0 16.8 43.8 16.0 43.4 C 14.6 42.8 13.5 42.4 12.6 42.4 C 11.6 42.4 10.5 42.8 9.2 43.4 C 8.4 43.8 7.8 44.0 7.4 44.0 C 6.6 44.0 5.8 43.6 5.1 42.9 C 4.4 42.1 4.0 41.3 4.0 40.5 C 4.0 40.1 4.2 39.5 4.6 38.6 C 5.2 37.4 5.5 36.3 5.5 35.3 C 5.5 34.4 5.2 33.3 4.6 31.9 C 4.2 31.1 4.0 30.5 4.0 30.1 C 4.0 29.3 4.4 28.5 5.1 27.8 C 5.8 27.0 6.6 26.7 7.4 26.7 C 7.8 26.7 8.4 26.9 9.2 27.3 C 10.5 27.9 11.6 28.2 12.6 28.2 C 13.5 28.2 14.6 27.9 16.0 27.3 C 16.8 26.9 17.4 26.7 17.8 26.7 C 18.7 26.7 19.4 27.0 20.2 27.8 C 20.9 28.5 21.3 29.3 21.3 30.1 C 21.3 30.5 21.1 31.1 20.7 31.9 C 20.0 33.3 19.7 34.4 19.7 35.3 C 19.7 36.3 20.0 37.4 20.7 38.6 C 21.1 39.5 21.3 40.1 21.3 40.5 " fill="#FFFFFF"></path></g></g></g></g></g></g></g><image xlink:href="463519B60FF94C29409AE01A0BA99717.png" width="942.00" height="54.00" transform="matrix(1.00, 0.00, -0.00, -1.00, 52.0, 55.0)"></image><text xml:space="preserve" font-family="HelveticaNeue-Light" font-size="49.0" fill="#FEFFFE" transform="matrix(1.00, 0.00, -0.00, -1.00, 53.0, 19.0)">I</text><text xml:space="preserve" font-family="HelveticaNeue-Light" font-size="49.0" fill="#FEFFFE" transform="matrix(1.00, 0.00, -0.00, -1.00, 63.9, 19.0)"> </text><text xml:space="preserve" font-family="HelveticaNeue-Light" font-size="49.0" fill="#FEFFFE" transform="matrix(1.00, 0.00, -0.00, -1.00, 77.5, 19.0)">p</text><text xml:space="preserve" font-family="HelveticaNeue-Light" font-size="49.0" fill="#FEFFFE" transform="matrix(1.00, 0.00, -0.00, -1.00, 105.6, 19.0)">r</text><text xml:space="preserve" font-family="HelveticaNeue-Light" font-size="49.0" fill="#FEFFFE" transform="matrix(1.00, 0.00, -0.00, -1.00, 120.2, 19.0)">o</text><text xml:space="preserve" font-family="HelveticaNeue-Light" font-size="49.0" fill="#FEFFFE" transform="matrix(1.00, 0.00, -0.00, -1.00, 147.4, 19.0)">b</text><text xml:space="preserve" font-family="HelveticaNeue-Light" font-size="49.0" fill="#FEFFFE" transform="matrix(1.00, 0.00, -0.00, -1.00, 175.5, 19.0)">a</text><text xml:space="preserve" font-family="HelveticaNeue-Light" font-size="49.0" fill="#FEFFFE" transform="matrix(1.00, 0.00, -0.00, -1.00, 201.0, 19.0)">b</text><text xml:space="preserve" font-family="HelveticaNeue-Light" font-size="49.0" fill="#FEFFFE" transform="matrix(1.00, 0.00, -0.00, -1.00, 229.1, 19.0)">l</text><text xml:space="preserve" font-family="HelveticaNeue-Light" font-size="49.0" fill="#FEFFFE" transform="matrix(1.00, 0.00, -0.00, -1.00, 238.2, 19.0)">y</text><text xml:space="preserve" font-family="HelveticaNeue-Light" font-size="49.0" fill="#FEFFFE" transform="matrix(1.00, 0.00, -0.00, -1.00, 260.9, 19.0)"> </text><text xml:space="preserve" font-family="HelveticaNeue-Light" font-size="49.0" fill="#FEFFFE" transform="matrix(1.00, 0.00, -0.00, -1.00, 274.5, 19.0)">d</text><text xml:space="preserve" font-family="HelveticaNeue-Light" font-size="49.0" fill="#FEFFFE" transform="matrix(1.00, 0.00, -0.00, -1.00, 302.6, 19.0)">o</text><text xml:space="preserve" font-family="HelveticaNeue-Light" font-size="49.0" fill="#FEFFFE" transform="matrix(1.00, 0.00, -0.00, -1.00, 329.9, 19.0)">n</text><text xml:space="preserve" font-family="HelveticaNeue-Light" font-size="49.0" fill="#FEFFFE" transform="matrix(1.00, 0.00, -0.00, -1.00, 356.2, 19.0)">’</text><text xml:space="preserve" font-family="HelveticaNeue-Light" font-size="49.0" fill="#FEFFFE" transform="matrix(1.00, 0.00, -0.00, -1.00, 368.9, 19.0)">t</text><text xml:space="preserve" font-family="HelveticaNeue-Light" font-size="49.0" fill="#FEFFFE" transform="matrix(1.00, 0.00, -0.00, -1.00, 383.4, 19.0)"> </text><text xml:space="preserve" font-family="HelveticaNeue-Light" font-size="49.0" fill="#FEFFFE" transform="matrix(1.00, 0.00, -0.00, -1.00, 397.0, 19.0)">k</text><text xml:space="preserve" font-family="HelveticaNeue-Light" font-size="49.0" fill="#FEFFFE" transform="matrix(1.00, 0.00, -0.00, -1.00, 421.5, 19.0)">n</text><text xml:space="preserve" font-family="HelveticaNeue-Light" font-size="49.0" fill="#FEFFFE" transform="matrix(1.00, 0.00, -0.00, -1.00, 447.8, 19.0)">o</text><text xml:space="preserve" font-family="HelveticaNeue-Light" font-size="49.0" fill="#FEFFFE" transform="matrix(1.00, 0.00, -0.00, -1.00, 475.1, 19.0)">w</text><text xml:space="preserve" font-family="HelveticaNeue-Light" font-size="49.0" fill="#FEFFFE" transform="matrix(1.00, 0.00, -0.00, -1.00, 511.4, 19.0)"> </text><text xml:space="preserve" font-family="HelveticaNeue-Light" font-size="49.0" fill="#FEFFFE" transform="matrix(1.00, 0.00, -0.00, -1.00, 525.0, 19.0)">w</text><text xml:space="preserve" font-family="HelveticaNeue-Light" font-size="49.0" fill="#FEFFFE" transform="matrix(1.00, 0.00, -0.00, -1.00, 561.3, 19.0)">h</text><text xml:space="preserve" font-family="HelveticaNeue-Light" font-size="49.0" fill="#FEFFFE" transform="matrix(1.00, 0.00, -0.00, -1.00, 587.6, 19.0)">a</text><text xml:space="preserve" font-family="HelveticaNeue-Light" font-size="49.0" fill="#FEFFFE" transform="matrix(1.00, 0.00, -0.00, -1.00, 613.1, 19.0)">t</text><text xml:space="preserve" font-family="HelveticaNeue-Light" font-size="49.0" fill="#FEFFFE" transform="matrix(1.00, 0.00, -0.00, -1.00, 627.6, 19.0)"> </text><text xml:space="preserve" font-family="HelveticaNeue-Light" font-size="49.0" fill="#FEFFFE" transform="matrix(1.00, 0.00, -0.00, -1.00, 641.2, 19.0)">I</text><text xml:space="preserve" font-family="HelveticaNeue-Light" font-size="49.0" fill="#FEFFFE" transform="matrix(1.00, 0.00, -0.00, -1.00, 652.1, 19.0)">’</text><text xml:space="preserve" font-family="HelveticaNeue-Light" font-size="49.0" fill="#FEFFFE" transform="matrix(1.00, 0.00, -0.00, -1.00, 665.7, 19.0)">m</text><text xml:space="preserve" font-family="HelveticaNeue-Light" font-size="49.0" fill="#FEFFFE" transform="matrix(1.00, 0.00, -0.00, -1.00, 706.5, 19.0)"> </text><text xml:space="preserve" font-family="HelveticaNeue-Light" font-size="49.0" fill="#FEFFFE" transform="matrix(1.00, 0.00, -0.00, -1.00, 720.1, 19.0)">t</text><text xml:space="preserve" font-family="HelveticaNeue-Light" font-size="49.0" fill="#FEFFFE" transform="matrix(1.00, 0.00, -0.00, -1.00, 734.6, 19.0)">a</text><text xml:space="preserve" font-family="HelveticaNeue-Light" font-size="49.0" fill="#FEFFFE" transform="matrix(1.00, 0.00, -0.00, -1.00, 760.1, 19.0)">l</text><text xml:space="preserve" font-family="HelveticaNeue-Light" font-size="49.0" fill="#FEFFFE" transform="matrix(1.00, 0.00, -0.00, -1.00, 769.1, 19.0)">k</text><text xml:space="preserve" font-family="HelveticaNeue-Light" font-size="49.0" fill="#FEFFFE" transform="matrix(1.00, 0.00, -0.00, -1.00, 793.6, 19.0)">i</text><text xml:space="preserve" font-family="HelveticaNeue-Light" font-size="49.0" fill="#FEFFFE" transform="matrix(1.00, 0.00, -0.00, -1.00, 802.7, 19.0)">n</text><text xml:space="preserve" font-family="HelveticaNeue-Light" font-size="49.0" fill="#FEFFFE" transform="matrix(1.00, 0.00, -0.00, -1.00, 829.0, 19.0)">g</text><text xml:space="preserve" font-family="HelveticaNeue-Light" font-size="49.0" fill="#FEFFFE" transform="matrix(1.00, 0.00, -0.00, -1.00, 856.3, 19.0)"> </text><text xml:space="preserve" font-family="HelveticaNeue-Light" font-size="49.0" fill="#FEFFFE" transform="matrix(1.00, 0.00, -0.00, -1.00, 869.9, 19.0)">a</text><text xml:space="preserve" font-family="HelveticaNeue-Light" font-size="49.0" fill="#FEFFFE" transform="matrix(1.00, 0.00, -0.00, -1.00, 895.3, 19.0)">b</text><text xml:space="preserve" font-family="HelveticaNeue-Light" font-size="49.0" fill="#FEFFFE" transform="matrix(1.00, 0.00, -0.00, -1.00, 923.4, 19.0)">o</text><text xml:space="preserve" font-family="HelveticaNeue-Light" font-size="49.0" fill="#FEFFFE" transform="matrix(1.00, 0.00, -0.00, -1.00, 950.7, 19.0)">u</text><text xml:space="preserve" font-family="HelveticaNeue-Light" font-size="49.0" fill="#FEFFFE" transform="matrix(1.00, 0.00, -0.00, -1.00, 977.0, 19.0)">t</text></g></svg>