<?xml version="1.0" encoding="UTF-8" standalone="no"?><svg xmlns="http://www.w3.org/2000/svg" xmlns:xlink="http://www.w3.org/1999/xlink" clip-rule="evenodd" stroke-miterlimit="4.00" viewBox="0 0 1226 117"><desc>SVG generated by Keynote</desc><defs></defs><g transform="matrix(1.00, 0.00, -0.00, -1.00, 0.0, 117.0)"><image xlink:href="9F6A6118E0012C53FEDFEBE81797C5DC.png" width="18.00" height="19.00" transform="matrix(1.00, 0.00, -0.00, -1.00, 4.0, 45.0)"></image><g><clipPath id="clip-99"><path d="M 4.0 26.7 L 21.3 26.7 L 21.3 44.0 L 4.0 44.0 Z M 4.0 26.7 "></path></clipPath><g clip-path="url(#clip-99)"><g><g><clipPath id="clip-100"><path d="M 4.0 44.0 L 21.3 44.0 L 21.3 26.7 L 4.0 26.7 Z M 4.0 44.0 "></path></clipPath><g clip-path="url(#clip-100)"><g><clipPath id="clip-101"><path d="M 0.0 19.0 L 26.0 19.0 L 26.0 52.0 L 0.0 52.0 Z M 0.0 19.0 "></path></clipPath><g clip-path="url(#clip-101)"><path d="M 21.3 40.6 C 21.3 41.3 20.9 42.1 20.2 42.9 C 19.4 43.7 18.7 44.0 17.8 44.0 C 17.4 44.0 16.8 43.8 16.0 43.4 C 14.6 42.8 13.5 42.5 12.6 42.5 C 11.6 42.5 10.5 42.8 9.2 43.4 C 8.4 43.8 7.8 44.0 7.4 44.0 C 6.6 44.0 5.8 43.7 5.1 42.9 C 4.4 42.2 4.0 41.4 4.0 40.6 C 4.0 40.2 4.2 39.5 4.6 38.7 C 5.2 37.4 5.5 36.3 5.5 35.4 C 5.5 34.4 5.2 33.3 4.6 32.0 C 4.2 31.2 4.0 30.6 4.0 30.2 C 4.0 29.4 4.4 28.6 5.1 27.8 C 5.8 27.1 6.6 26.7 7.4 26.7 C 7.8 26.7 8.4 26.9 9.2 27.3 C 10.5 27.9 11.6 28.3 12.6 28.3 C 13.5 28.3 14.6 27.9 16.0 27.3 C 16.8 26.9 17.4 26.7 17.8 26.7 C 18.7 26.7 19.4 27.1 20.2 27.8 C 20.9 28.6 21.3 29.4 21.3 30.2 C 21.3 30.6 21.1 31.2 20.7 32.0 C 20.0 33.3 19.7 34.4 19.7 35.4 C 19.7 36.3 20.0 37.4 20.7 38.7 C 21.1 39.5 21.3 40.2 21.3 40.6 " fill="#FFFFFF"></path></g></g></g></g></g></g></g><image xlink:href="EBF648BA4539AA601F786B33CFC2935A.png" width="930.00" height="54.00" transform="matrix(1.00, 0.00, -0.00, -1.00, 50.0, 56.0)"></image><text xml:space="preserve" font-family="HelveticaNeue-Light" font-size="49.0" fill="#FEFFFE" transform="matrix(1.00, 0.00, -0.00, -1.00, 53.0, 19.0)">S</text><text xml:space="preserve" font-family="HelveticaNeue-Light" font-size="49.0" fill="#FEFFFE" transform="matrix(1.00, 0.00, -0.00, -1.00, 83.9, 19.0)">o</text><text xml:space="preserve" font-family="HelveticaNeue-Light" font-size="49.0" fill="#FEFFFE" transform="matrix(1.00, 0.00, -0.00, -1.00, 111.1, 19.0)">m</text><text xml:space="preserve" font-family="HelveticaNeue-Light" font-size="49.0" fill="#FEFFFE" transform="matrix(1.00, 0.00, -0.00, -1.00, 151.9, 19.0)">e</text><text xml:space="preserve" font-family="HelveticaNeue-Light" font-size="49.0" fill="#FEFFFE" transform="matrix(1.00, 0.00, -0.00, -1.00, 177.4, 19.0)"> </text><text xml:space="preserve" font-family="HelveticaNeue-Light" font-size="49.0" fill="#FEFFFE" transform="matrix(1.00, 0.00, -0.00, -1.00, 191.0, 19.0)">p</text><text xml:space="preserve" font-family="HelveticaNeue-Light" font-size="49.0" fill="#FEFFFE" transform="matrix(1.00, 0.00, -0.00, -1.00, 219.1, 19.0)">e</text><text xml:space="preserve" font-family="HelveticaNeue-Light" font-size="49.0" fill="#FEFFFE" transform="matrix(1.00, 0.00, -0.00, -1.00, 244.5, 19.0)">o</text><text xml:space="preserve" font-family="HelveticaNeue-Light" font-size="49.0" fill="#FEFFFE" transform="matrix(1.00, 0.00, -0.00, -1.00, 271.8, 19.0)">p</text><text xml:space="preserve" font-family="HelveticaNeue-Light" font-size="49.0" fill="#FEFFFE" transform="matrix(1.00, 0.00, -0.00, -1.00, 299.9, 19.0)">l</text><text xml:space="preserve" font-family="HelveticaNeue-Light" font-size="49.0" fill="#FEFFFE" transform="matrix(1.00, 0.00, -0.00, -1.00, 309.0, 19.0)">e</text><text xml:space="preserve" font-family="HelveticaNeue-Light" font-size="49.0" fill="#FEFFFE" transform="matrix(1.00, 0.00, -0.00, -1.00, 334.4, 19.0)"> </text><text xml:space="preserve" font-family="HelveticaNeue-Light" font-size="49.0" fill="#FEFFFE" transform="matrix(1.00, 0.00, -0.00, -1.00, 348.0, 19.0)">I</text><text xml:space="preserve" font-family="HelveticaNeue-Light" font-size="49.0" fill="#FEFFFE" transform="matrix(1.00, 0.00, -0.00, -1.00, 358.9, 19.0)"> </text><text xml:space="preserve" font-family="HelveticaNeue-Light" font-size="49.0" fill="#FEFFFE" transform="matrix(1.00, 0.00, -0.00, -1.00, 372.5, 19.0)">r</text><text xml:space="preserve" font-family="HelveticaNeue-Light" font-size="49.0" fill="#FEFFFE" transform="matrix(1.00, 0.00, -0.00, -1.00, 387.1, 19.0)">e</text><text xml:space="preserve" font-family="HelveticaNeue-Light" font-size="49.0" fill="#FEFFFE" transform="matrix(1.00, 0.00, -0.00, -1.00, 412.5, 19.0)">s</text><text xml:space="preserve" font-family="HelveticaNeue-Light" font-size="49.0" fill="#FEFFFE" transform="matrix(1.00, 0.00, -0.00, -1.00, 436.1, 19.0)">p</text><text xml:space="preserve" font-family="HelveticaNeue-Light" font-size="49.0" fill="#FEFFFE" transform="matrix(1.00, 0.00, -0.00, -1.00, 464.2, 19.0)">e</text><text xml:space="preserve" font-family="HelveticaNeue-Light" font-size="49.0" fill="#FEFFFE" transform="matrix(1.00, 0.00, -0.00, -1.00, 489.6, 19.0)">c</text><text xml:space="preserve" font-family="HelveticaNeue-Light" font-size="49.0" fill="#FEFFFE" transform="matrix(1.00, 0.00, -0.00, -1.00, 515.1, 19.0)">t</text><text xml:space="preserve" font-family="HelveticaNeue-Light" font-size="49.0" fill="#FEFFFE" transform="matrix(1.00, 0.00, -0.00, -1.00, 529.6, 19.0)"> </text><text xml:space="preserve" font-family="HelveticaNeue-Light" font-size="49.0" fill="#FEFFFE" transform="matrix(1.00, 0.00, -0.00, -1.00, 543.2, 19.0)">t</text><text xml:space="preserve" font-family="HelveticaNeue-Light" font-size="49.0" fill="#FEFFFE" transform="matrix(1.00, 0.00, -0.00, -1.00, 557.7, 19.0)">h</text><text xml:space="preserve" font-family="HelveticaNeue-Light" font-size="49.0" fill="#FEFFFE" transform="matrix(1.00, 0.00, -0.00, -1.00, 584.0, 19.0)">i</text><text xml:space="preserve" font-family="HelveticaNeue-Light" font-size="49.0" fill="#FEFFFE" transform="matrix(1.00, 0.00, -0.00, -1.00, 593.1, 19.0)">n</text><text xml:space="preserve" font-family="HelveticaNeue-Light" font-size="49.0" fill="#FEFFFE" transform="matrix(1.00, 0.00, -0.00, -1.00, 619.4, 19.0)">k</text><text xml:space="preserve" font-family="HelveticaNeue-Light" font-size="49.0" fill="#FEFFFE" transform="matrix(1.00, 0.00, -0.00, -1.00, 643.9, 19.0)"> </text><text xml:space="preserve" font-family="HelveticaNeue-Light" font-size="49.0" fill="#FEFFFE" transform="matrix(1.00, 0.00, -0.00, -1.00, 657.5, 19.0)">t</text><text xml:space="preserve" font-family="HelveticaNeue-Light" font-size="49.0" fill="#FEFFFE" transform="matrix(1.00, 0.00, -0.00, -1.00, 672.0, 19.0)">h</text><text xml:space="preserve" font-family="HelveticaNeue-Light" font-size="49.0" fill="#FEFFFE" transform="matrix(1.00, 0.00, -0.00, -1.00, 698.3, 19.0)">e</text><text xml:space="preserve" font-family="HelveticaNeue-Light" font-size="49.0" fill="#FEFFFE" transform="matrix(1.00, 0.00, -0.00, -1.00, 723.8, 19.0)">s</text><text xml:space="preserve" font-family="HelveticaNeue-Light" font-size="49.0" fill="#FEFFFE" transform="matrix(1.00, 0.00, -0.00, -1.00, 747.3, 19.0)">e</text><text xml:space="preserve" font-family="HelveticaNeue-Light" font-size="49.0" fill="#FEFFFE" transform="matrix(1.00, 0.00, -0.00, -1.00, 772.8, 19.0)"> </text><text xml:space="preserve" font-family="HelveticaNeue-Light" font-size="49.0" fill="#FEFFFE" transform="matrix(1.00, 0.00, -0.00, -1.00, 786.4, 19.0)">i</text><text xml:space="preserve" font-family="HelveticaNeue-Light" font-size="49.0" fill="#FEFFFE" transform="matrix(1.00, 0.00, -0.00, -1.00, 795.4, 19.0)">d</text><text xml:space="preserve" font-family="HelveticaNeue-Light" font-size="49.0" fill="#FEFFFE" transform="matrix(1.00, 0.00, -0.00, -1.00, 823.6, 19.0)">e</text><text xml:space="preserve" font-family="HelveticaNeue-Light" font-size="49.0" fill="#FEFFFE" transform="matrix(1.00, 0.00, -0.00, -1.00, 849.0, 19.0)">a</text><text xml:space="preserve" font-family="HelveticaNeue-Light" font-size="49.0" fill="#FEFFFE" transform="matrix(1.00, 0.00, -0.00, -1.00, 874.4, 19.0)">s</text><text xml:space="preserve" font-family="HelveticaNeue-Light" font-size="49.0" fill="#FEFFFE" transform="matrix(1.00, 0.00, -0.00, -1.00, 898.0, 19.0)"> </text><text xml:space="preserve" font-family="HelveticaNeue-Light" font-size="49.0" fill="#FEFFFE" transform="matrix(1.00, 0.00, -0.00, -1.00, 911.6, 19.0)">a</text><text xml:space="preserve" font-family="HelveticaNeue-Light" font-size="49.0" fill="#FEFFFE" transform="matrix(1.00, 0.00, -0.00, -1.00, 937.1, 19.0)">r</text><text xml:space="preserve" font-family="HelveticaNeue-Light" font-size="49.0" fill="#FEFFFE" transform="matrix(1.00, 0.00, -0.00, -1.00, 951.6, 19.0)">e</text><text xml:space="preserve" font-family="HelveticaNeue-Light" font-size="49.0" fill="#FEFFFE" transform="matrix(1.00, 0.00, -0.00, -1.00, 977.0, 19.0)"> </text><image xlink:href="7AC36D79DF4D1C15819037FC49CC2683.png" width="236.00" height="44.00" transform="matrix(1.00, 0.00, -0.00, -1.00, 989.0, 55.0)"></image><text xml:space="preserve" font-family="HelveticaNeue-Light" font-size="49.0" fill="#FEFFFE" transform="matrix(1.00, 0.00, -0.00, -1.00, 990.7, 19.0)">r</text><text xml:space="preserve" font-family="HelveticaNeue-Light" font-size="49.0" fill="#FEFFFE" transform="matrix(1.00, 0.00, -0.00, -1.00, 1005.2, 19.0)">e</text><text xml:space="preserve" font-family="HelveticaNeue-Light" font-size="49.0" fill="#FEFFFE" transform="matrix(1.00, 0.00, -0.00, -1.00, 1030.6, 19.0)">a</text><text xml:space="preserve" font-family="HelveticaNeue-Light" font-size="49.0" fill="#FEFFFE" transform="matrix(1.00, 0.00, -0.00, -1.00, 1056.1, 19.0)">s</text><text xml:space="preserve" font-family="HelveticaNeue-Light" font-size="49.0" fill="#FEFFFE" transform="matrix(1.00, 0.00, -0.00, -1.00, 1079.6, 19.0)">o</text><text xml:space="preserve" font-family="HelveticaNeue-Light" font-size="49.0" fill="#FEFFFE" transform="matrix(1.00, 0.00, -0.00, -1.00, 1106.9, 19.0)">n</text><text xml:space="preserve" font-family="HelveticaNeue-Light" font-size="49.0" fill="#FEFFFE" transform="matrix(1.00, 0.00, -0.00, -1.00, 1133.2, 19.0)">a</text><text xml:space="preserve" font-family="HelveticaNeue-Light" font-size="49.0" fill="#FEFFFE" transform="matrix(1.00, 0.00, -0.00, -1.00, 1158.6, 19.0)">b</text><text xml:space="preserve" font-family="HelveticaNeue-Light" font-size="49.0" fill="#FEFFFE" transform="matrix(1.00, 0.00, -0.00, -1.00, 1186.8, 19.0)">l</text><text xml:space="preserve" font-family="HelveticaNeue-Light" font-size="49.0" fill="#FEFFFE" transform="matrix(1.00, 0.00, -0.00, -1.00, 1195.8, 19.0)">e</text><g><clipPath id="clip-102"><path d="M 989.7 11.8 L 1221.3 11.8 L 1221.3 16.2 L 989.7 16.2 Z M 989.7 11.8 "></path></clipPath><g clip-path="url(#clip-102)"><path d="M 1040.7 271.0 L 1271.3 271.0 " fill="none" stroke="#FEFFFE" stroke-width="2.45" stroke-miterlimit="0.00" transform="matrix(1.00, 0.00, 0.00, -1.00, -50.0, 285.0)"></path></g></g></g></svg>