<?xml version="1.0" encoding="UTF-8" standalone="no"?><svg xmlns="http://www.w3.org/2000/svg" xmlns:xlink="http://www.w3.org/1999/xlink" clip-rule="evenodd" stroke-miterlimit="4.00" viewBox="0 0 852 116"><desc>SVG generated by Keynote</desc><defs></defs><g transform="matrix(1.00, 0.00, -0.00, -1.00, 0.0, 116.0)"><image xlink:href="2175206B69963D925FC9192AF2FF3295.png" width="18.00" height="19.00" transform="matrix(1.00, 0.00, -0.00, -1.00, 4.0, 45.0)"></image><g><clipPath id="clip-95"><path d="M 4.0 26.7 L 21.3 26.7 L 21.3 44.0 L 4.0 44.0 Z M 4.0 26.7 "></path></clipPath><g clip-path="url(#clip-95)"><g><g><clipPath id="clip-96"><path d="M 4.0 44.0 L 21.3 44.0 L 21.3 26.7 L 4.0 26.7 Z M 4.0 44.0 "></path></clipPath><g clip-path="url(#clip-96)"><g><clipPath id="clip-97"><path d="M 0.0 19.0 L 26.0 19.0 L 26.0 52.0 L 0.0 52.0 Z M 0.0 19.0 "></path></clipPath><g clip-path="url(#clip-97)"><path d="M 21.3 40.6 C 21.3 41.3 20.9 42.1 20.2 42.9 C 19.4 43.6 18.7 44.0 17.8 44.0 C 17.4 44.0 16.8 43.8 16.0 43.4 C 14.6 42.8 13.5 42.5 12.6 42.5 C 11.6 42.5 10.5 42.8 9.2 43.4 C 8.4 43.8 7.8 44.0 7.4 44.0 C 6.6 44.0 5.8 43.6 5.1 42.9 C 4.4 42.1 4.0 41.4 4.0 40.6 C 4.0 40.1 4.2 39.5 4.6 38.6 C 5.2 37.4 5.5 36.3 5.5 35.3 C 5.5 34.4 5.2 33.3 4.6 32.0 C 4.2 31.2 4.0 30.6 4.0 30.1 C 4.0 29.3 4.4 28.6 5.1 27.8 C 5.8 27.1 6.6 26.7 7.4 26.7 C 7.8 26.7 8.4 26.9 9.2 27.3 C 10.5 27.9 11.6 28.2 12.6 28.2 C 13.5 28.2 14.6 27.9 16.0 27.3 C 16.8 26.9 17.4 26.7 17.8 26.7 C 18.7 26.7 19.4 27.1 20.2 27.8 C 20.9 28.6 21.3 29.3 21.3 30.1 C 21.3 30.6 21.1 31.2 20.7 32.0 C 20.0 33.3 19.7 34.4 19.7 35.3 C 19.7 36.3 20.0 37.4 20.7 38.6 C 21.1 39.5 21.3 40.1 21.3 40.6 " fill="#FFFFFF"></path></g></g></g></g></g></g></g><image xlink:href="9D30F696AFFE84006714C7EBC883B28D.png" width="541.00" height="53.00" transform="matrix(1.00, 0.00, -0.00, -1.00, 48.0, 55.0)"></image><text xml:space="preserve" font-family="HelveticaNeue-Light" font-size="49.0" fill="#FEFFFE" transform="matrix(1.00, 0.00, -0.00, -1.00, 53.0, 19.0)">A</text><text xml:space="preserve" font-family="HelveticaNeue-Light" font-size="49.0" fill="#FEFFFE" transform="matrix(1.00, 0.00, -0.00, -1.00, 83.9, 19.0)"> </text><text xml:space="preserve" font-family="HelveticaNeue-Light" font-size="49.0" fill="#FEFFFE" transform="matrix(1.00, 0.00, -0.00, -1.00, 97.5, 19.0)">l</text><text xml:space="preserve" font-family="HelveticaNeue-Light" font-size="49.0" fill="#FEFFFE" transform="matrix(1.00, 0.00, -0.00, -1.00, 106.6, 19.0)">o</text><text xml:space="preserve" font-family="HelveticaNeue-Light" font-size="49.0" fill="#FEFFFE" transform="matrix(1.00, 0.00, -0.00, -1.00, 133.8, 19.0)">t</text><text xml:space="preserve" font-family="HelveticaNeue-Light" font-size="49.0" fill="#FEFFFE" transform="matrix(1.00, 0.00, -0.00, -1.00, 148.3, 19.0)"> </text><text xml:space="preserve" font-family="HelveticaNeue-Light" font-size="49.0" fill="#FEFFFE" transform="matrix(1.00, 0.00, -0.00, -1.00, 161.9, 19.0)">o</text><text xml:space="preserve" font-family="HelveticaNeue-Light" font-size="49.0" fill="#FEFFFE" transform="matrix(1.00, 0.00, -0.00, -1.00, 189.2, 19.0)">f</text><text xml:space="preserve" font-family="HelveticaNeue-Light" font-size="49.0" fill="#FEFFFE" transform="matrix(1.00, 0.00, -0.00, -1.00, 201.9, 19.0)"> </text><text xml:space="preserve" font-family="HelveticaNeue-Light" font-size="49.0" fill="#FEFFFE" transform="matrix(1.00, 0.00, -0.00, -1.00, 215.5, 19.0)">t</text><text xml:space="preserve" font-family="HelveticaNeue-Light" font-size="49.0" fill="#FEFFFE" transform="matrix(1.00, 0.00, -0.00, -1.00, 230.0, 19.0)">h</text><text xml:space="preserve" font-family="HelveticaNeue-Light" font-size="49.0" fill="#FEFFFE" transform="matrix(1.00, 0.00, -0.00, -1.00, 256.3, 19.0)">i</text><text xml:space="preserve" font-family="HelveticaNeue-Light" font-size="49.0" fill="#FEFFFE" transform="matrix(1.00, 0.00, -0.00, -1.00, 265.4, 19.0)">s</text><text xml:space="preserve" font-family="HelveticaNeue-Light" font-size="49.0" fill="#FEFFFE" transform="matrix(1.00, 0.00, -0.00, -1.00, 288.9, 19.0)"> </text><text xml:space="preserve" font-family="HelveticaNeue-Light" font-size="49.0" fill="#FEFFFE" transform="matrix(1.00, 0.00, -0.00, -1.00, 302.6, 19.0)">h</text><text xml:space="preserve" font-family="HelveticaNeue-Light" font-size="49.0" fill="#FEFFFE" transform="matrix(1.00, 0.00, -0.00, -1.00, 328.9, 19.0)">a</text><text xml:space="preserve" font-family="HelveticaNeue-Light" font-size="49.0" fill="#FEFFFE" transform="matrix(1.00, 0.00, -0.00, -1.00, 354.3, 19.0)">s</text><text xml:space="preserve" font-family="HelveticaNeue-Light" font-size="49.0" fill="#FEFFFE" transform="matrix(1.00, 0.00, -0.00, -1.00, 377.9, 19.0)"> </text><text xml:space="preserve" font-family="HelveticaNeue-Light" font-size="49.0" fill="#FEFFFE" transform="matrix(1.00, 0.00, -0.00, -1.00, 391.5, 19.0)">i</text><text xml:space="preserve" font-family="HelveticaNeue-Light" font-size="49.0" fill="#FEFFFE" transform="matrix(1.00, 0.00, -0.00, -1.00, 400.6, 19.0)">m</text><text xml:space="preserve" font-family="HelveticaNeue-Light" font-size="49.0" fill="#FEFFFE" transform="matrix(1.00, 0.00, -0.00, -1.00, 441.4, 19.0)">p</text><text xml:space="preserve" font-family="HelveticaNeue-Light" font-size="49.0" fill="#FEFFFE" transform="matrix(1.00, 0.00, -0.00, -1.00, 469.5, 19.0)">r</text><text xml:space="preserve" font-family="HelveticaNeue-Light" font-size="49.0" fill="#FEFFFE" transform="matrix(1.00, 0.00, -0.00, -1.00, 484.1, 19.0)">o</text><text xml:space="preserve" font-family="HelveticaNeue-Light" font-size="49.0" fill="#FEFFFE" transform="matrix(1.00, 0.00, -0.00, -1.00, 511.3, 19.0)">v</text><text xml:space="preserve" font-family="HelveticaNeue-Light" font-size="49.0" fill="#FEFFFE" transform="matrix(1.00, 0.00, -0.00, -1.00, 534.0, 19.0)">e</text><text xml:space="preserve" font-family="HelveticaNeue-Light" font-size="49.0" fill="#FEFFFE" transform="matrix(1.00, 0.00, -0.00, -1.00, 559.4, 19.0)">d</text><text xml:space="preserve" font-family="HelveticaNeue-Light" font-size="49.0" fill="#FEFFFE" transform="matrix(1.00, 0.00, -0.00, -1.00, 587.5, 19.0)"> </text><image xlink:href="269440C86034B14EFBA3055C9F896A10.png" width="69.00" height="45.00" transform="matrix(1.00, 0.00, -0.00, -1.00, 600.0, 47.0)"></image><text xml:space="preserve" font-family="HelveticaNeue-Light" font-size="49.0" fill="#FEFFFE" transform="matrix(1.00, 0.00, -0.00, -1.00, 601.2, 19.0)">m</text><text xml:space="preserve" font-family="HelveticaNeue-Light" font-size="49.0" fill="#FEFFFE" transform="matrix(1.00, 0.00, -0.00, -1.00, 642.0, 19.0)">y</text><image xlink:href="E6869EDE9B489F653675160A096D5EAB.png" width="173.00" height="53.00" transform="matrix(1.00, 0.00, -0.00, -1.00, 677.0, 55.0)"></image><text xml:space="preserve" font-family="HelveticaNeue-Light" font-size="49.0" fill="#FEFFFE" transform="matrix(1.00, 0.00, -0.00, -1.00, 664.7, 19.0)"> </text><text xml:space="preserve" font-family="HelveticaNeue-Light" font-size="49.0" fill="#FEFFFE" transform="matrix(1.00, 0.00, -0.00, -1.00, 678.3, 19.0)">p</text><text xml:space="preserve" font-family="HelveticaNeue-Light" font-size="49.0" fill="#FEFFFE" transform="matrix(1.00, 0.00, -0.00, -1.00, 706.4, 19.0)">r</text><text xml:space="preserve" font-family="HelveticaNeue-Light" font-size="49.0" fill="#FEFFFE" transform="matrix(1.00, 0.00, -0.00, -1.00, 721.8, 19.0)">a</text><text xml:space="preserve" font-family="HelveticaNeue-Light" font-size="49.0" fill="#FEFFFE" transform="matrix(1.00, 0.00, -0.00, -1.00, 747.3, 19.0)">c</text><text xml:space="preserve" font-family="HelveticaNeue-Light" font-size="49.0" fill="#FEFFFE" transform="matrix(1.00, 0.00, -0.00, -1.00, 772.7, 19.0)">t</text><text xml:space="preserve" font-family="HelveticaNeue-Light" font-size="49.0" fill="#FEFFFE" transform="matrix(1.00, 0.00, -0.00, -1.00, 787.2, 19.0)">i</text><text xml:space="preserve" font-family="HelveticaNeue-Light" font-size="49.0" fill="#FEFFFE" transform="matrix(1.00, 0.00, -0.00, -1.00, 796.3, 19.0)">c</text><text xml:space="preserve" font-family="HelveticaNeue-Light" font-size="49.0" fill="#FEFFFE" transform="matrix(1.00, 0.00, -0.00, -1.00, 821.7, 19.0)">e</text><g><clipPath id="clip-98"><path d="M 600.2 11.8 L 664.7 11.8 L 664.7 16.2 L 600.2 16.2 Z M 600.2 11.8 "></path></clipPath><g clip-path="url(#clip-98)"><path d="M 651.2 163.0 L 714.7 163.0 " fill="none" stroke="#FEFFFE" stroke-width="2.45" stroke-miterlimit="0.00" transform="matrix(1.00, 0.00, 0.00, -1.00, -50.0, 177.0)"></path></g></g></g></svg>