<?xml version="1.0" encoding="UTF-8" standalone="no"?><svg xmlns="http://www.w3.org/2000/svg" xmlns:xlink="http://www.w3.org/1999/xlink" clip-rule="evenodd" stroke-miterlimit="4.00" viewBox="0 0 1920 1080"><desc>SVG generated by Keynote</desc><defs></defs><g transform="matrix(1.00, 0.00, -0.00, -1.00, 0.0, 1080.0)"><g><clipPath id="clip-498"><path d="M 0.0 1080.0 L 1920.0 1080.0 L 1920.0 0.0 L 0.0 0.0 Z M 0.0 1080.0 "></path></clipPath><g clip-path="url(#clip-498)"><image xlink:href="../../1D876F4A-8FAE-4533-855C-0B67E64EABCD/assets/4B0075050CC9D0F3DC006F0CDE78D676.jpeg" width="1365.00" height="767.00" transform="matrix(1.41, 0.00, -0.00, -1.41, 0.0, 1080.0)"></image></g></g><image xlink:href="8C25E174B4BBC002219F5E346EE0DDC7.png" width="428.00" height="82.00" transform="matrix(1.00, 0.00, -0.00, -1.00, 123.0, 952.0)"></image><text xml:space="preserve" font-family="HelveticaNeue-Light" font-size="100.0" fill="#FEFFFE" transform="matrix(1.00, 0.00, -0.00, -1.00, 120.0, 879.0)">E</text><text xml:space="preserve" font-family="HelveticaNeue-Light" font-size="100.0" fill="#FEFFFE" transform="matrix(1.00, 0.00, -0.00, -1.00, 179.3, 879.0)">n</text><text xml:space="preserve" font-family="HelveticaNeue-Light" font-size="100.0" fill="#FEFFFE" transform="matrix(1.00, 0.00, -0.00, -1.00, 233.0, 879.0)">d</text><text xml:space="preserve" font-family="HelveticaNeue-Light" font-size="100.0" fill="#FEFFFE" transform="matrix(1.00, 0.00, -0.00, -1.00, 290.4, 879.0)"> </text><text xml:space="preserve" font-family="HelveticaNeue-Light" font-size="100.0" fill="#FEFFFE" transform="matrix(1.00, 0.00, -0.00, -1.00, 318.2, 879.0)">r</text><text xml:space="preserve" font-family="HelveticaNeue-Light" font-size="100.0" fill="#FEFFFE" transform="matrix(1.00, 0.00, -0.00, -1.00, 347.9, 879.0)">e</text><text xml:space="preserve" font-family="HelveticaNeue-Light" font-size="100.0" fill="#FEFFFE" transform="matrix(1.00, 0.00, -0.00, -1.00, 399.8, 879.0)">s</text><text xml:space="preserve" font-family="HelveticaNeue-Light" font-size="100.0" fill="#FEFFFE" transform="matrix(1.00, 0.00, -0.00, -1.00, 447.9, 879.0)">u</text><text xml:space="preserve" font-family="HelveticaNeue-Light" font-size="100.0" fill="#FEFFFE" transform="matrix(1.00, 0.00, -0.00, -1.00, 501.6, 879.0)">l</text><text xml:space="preserve" font-family="HelveticaNeue-Light" font-size="100.0" fill="#FEFFFE" transform="matrix(1.00, 0.00, -0.00, -1.00, 520.1, 879.0)">t</text><image xlink:href="../../077543C8-1A3F-406E-9593-99609A063235/assets/D78D93A8DEE9B68D58E2A0BAEAF9F97F.png" width="18.00" height="18.00" transform="matrix(1.00, 0.00, -0.00, -1.00, 120.0, 741.0)"></image><g><clipPath id="clip-499"><path d="M 120.0 723.1 L 137.6 723.1 L 137.6 740.8 L 120.0 740.8 Z M 120.0 723.1 "></path></clipPath><g clip-path="url(#clip-499)"><g><g><clipPath id="clip-500"><path d="M 120.0 740.8 L 137.6 740.8 L 137.6 723.1 L 120.0 723.1 Z M 120.0 740.8 "></path></clipPath><g clip-path="url(#clip-500)"><g><clipPath id="clip-501"><path d="M 116.0 716.0 L 142.0 716.0 L 142.0 748.0 L 116.0 748.0 Z M 116.0 716.0 "></path></clipPath><g clip-path="url(#clip-501)"><path d="M 137.6 737.3 C 137.6 738.0 137.2 738.8 136.5 739.6 C 135.8 740.4 135.0 740.8 134.1 740.8 C 133.7 740.8 133.1 740.6 132.2 740.2 C 130.9 739.5 129.7 739.2 128.8 739.2 C 127.8 739.2 126.6 739.5 125.3 740.2 C 124.5 740.6 123.9 740.8 123.4 740.8 C 122.6 740.8 121.8 740.4 121.1 739.6 C 120.4 738.9 120.0 738.1 120.0 737.3 C 120.0 736.8 120.2 736.2 120.6 735.3 C 121.2 734.0 121.5 732.9 121.5 731.9 C 121.5 731.0 121.2 729.9 120.6 728.5 C 120.2 727.7 120.0 727.1 120.0 726.6 C 120.0 725.8 120.4 725.0 121.1 724.2 C 121.8 723.5 122.6 723.1 123.4 723.1 C 123.9 723.1 124.5 723.3 125.3 723.7 C 126.6 724.4 127.8 724.7 128.8 724.7 C 129.7 724.7 130.9 724.4 132.2 723.7 C 133.1 723.3 133.7 723.1 134.1 723.1 C 135.0 723.1 135.8 723.5 136.5 724.2 C 137.2 725.0 137.6 725.8 137.6 726.6 C 137.6 727.1 137.4 727.7 137.0 728.5 C 136.3 729.9 136.0 731.0 136.0 731.9 C 136.0 732.9 136.3 734.0 137.0 735.3 C 137.4 736.2 137.6 736.8 137.6 737.3 " fill="#FFFFFF"></path></g></g></g></g></g></g></g><image xlink:href="A5069EB5277A0CC40325A2A10CA49074.png" width="184.00" height="45.00" transform="matrix(1.00, 0.00, -0.00, -1.00, 168.0, 752.0)"></image><text xml:space="preserve" font-family="HelveticaNeue-Light" font-size="50.0" fill="#FEFFFE" transform="matrix(1.00, 0.00, -0.00, -1.00, 170.0, 715.0)">7</text><text xml:space="preserve" font-family="HelveticaNeue-Light" font-size="50.0" fill="#FEFFFE" transform="matrix(1.00, 0.00, -0.00, -1.00, 197.8, 715.0)">0</text><text xml:space="preserve" font-family="HelveticaNeue-Light" font-size="50.0" fill="#FEFFFE" transform="matrix(1.00, 0.00, -0.00, -1.00, 225.6, 715.0)">4</text><text xml:space="preserve" font-family="HelveticaNeue-Light" font-size="50.0" fill="#FEFFFE" transform="matrix(1.00, 0.00, -0.00, -1.00, 253.4, 715.0)"> </text><text xml:space="preserve" font-family="HelveticaNeue-Light" font-size="50.0" fill="#FEFFFE" transform="matrix(1.00, 0.00, -0.00, -1.00, 267.3, 715.0)">ﬁ</text><text xml:space="preserve" font-family="HelveticaNeue-Light" font-size="50.0" fill="#FEFFFE" transform="matrix(1.00, 0.00, -0.00, -1.00, 289.5, 715.0)">l</text><text xml:space="preserve" font-family="HelveticaNeue-Light" font-size="50.0" fill="#FEFFFE" transform="matrix(1.00, 0.00, -0.00, -1.00, 298.8, 715.0)">e</text><text xml:space="preserve" font-family="HelveticaNeue-Light" font-size="50.0" fill="#FEFFFE" transform="matrix(1.00, 0.00, -0.00, -1.00, 324.7, 715.0)">s</text><text xml:space="preserve" font-family="HelveticaNeue-Light" font-size="50.0" fill="#FEFFFE" transform="matrix(1.00, 0.00, -0.00, -1.00, 348.8, 715.0)"> </text><image xlink:href="../../077543C8-1A3F-406E-9593-99609A063235/assets/D78D93A8DEE9B68D58E2A0BAEAF9F97F.png" width="18.00" height="18.00" transform="matrix(1.00, 0.00, -0.00, -1.00, 120.0, 630.0)"></image><g><clipPath id="clip-502"><path d="M 120.0 612.1 L 137.6 612.1 L 137.6 629.8 L 120.0 629.8 Z M 120.0 612.1 "></path></clipPath><g clip-path="url(#clip-502)"><g><g><clipPath id="clip-503"><path d="M 120.0 629.8 L 137.6 629.8 L 137.6 612.1 L 120.0 612.1 Z M 120.0 629.8 "></path></clipPath><g clip-path="url(#clip-503)"><g><clipPath id="clip-504"><path d="M 116.0 605.0 L 142.0 605.0 L 142.0 637.0 L 116.0 637.0 Z M 116.0 605.0 "></path></clipPath><g clip-path="url(#clip-504)"><path d="M 137.6 626.3 C 137.6 627.0 137.2 627.8 136.5 628.6 C 135.8 629.4 135.0 629.8 134.1 629.8 C 133.7 629.8 133.1 629.6 132.2 629.2 C 130.9 628.5 129.7 628.2 128.8 628.2 C 127.8 628.2 126.6 628.5 125.3 629.2 C 124.5 629.6 123.9 629.8 123.4 629.8 C 122.6 629.8 121.8 629.4 121.1 628.6 C 120.4 627.9 120.0 627.1 120.0 626.3 C 120.0 625.8 120.2 625.2 120.6 624.3 C 121.2 623.0 121.5 621.9 121.5 620.9 C 121.5 620.0 121.2 618.9 120.6 617.5 C 120.2 616.7 120.0 616.1 120.0 615.6 C 120.0 614.8 120.4 614.0 121.1 613.2 C 121.8 612.5 122.6 612.1 123.4 612.1 C 123.9 612.1 124.5 612.3 125.3 612.7 C 126.6 613.4 127.8 613.7 128.8 613.7 C 129.7 613.7 130.9 613.4 132.2 612.7 C 133.1 612.3 133.7 612.1 134.1 612.1 C 135.0 612.1 135.8 612.5 136.5 613.2 C 137.2 614.0 137.6 614.8 137.6 615.6 C 137.6 616.1 137.4 616.7 137.0 617.5 C 136.3 618.9 136.0 620.0 136.0 620.9 C 136.0 621.9 136.3 623.0 137.0 624.3 C 137.4 625.2 137.6 625.8 137.6 626.3 " fill="#FFFFFF"></path></g></g></g></g></g></g></g><image xlink:href="1D6B0E31348FC3895AD0C8486EE5F2D4.png" width="1210.00" height="54.00" transform="matrix(1.00, 0.00, -0.00, -1.00, 169.0, 641.0)"></image><text xml:space="preserve" font-family="HelveticaNeue-Light" font-size="50.0" fill="#FEFFFE" transform="matrix(1.00, 0.00, -0.00, -1.00, 170.0, 604.0)">U</text><text xml:space="preserve" font-family="HelveticaNeue-Light" font-size="50.0" fill="#FEFFFE" transform="matrix(1.00, 0.00, -0.00, -1.00, 204.2, 604.0)">n</text><text xml:space="preserve" font-family="HelveticaNeue-Light" font-size="50.0" fill="#FEFFFE" transform="matrix(1.00, 0.00, -0.00, -1.00, 231.1, 604.0)">w</text><text xml:space="preserve" font-family="HelveticaNeue-Light" font-size="50.0" fill="#FEFFFE" transform="matrix(1.00, 0.00, -0.00, -1.00, 268.1, 604.0)">a</text><text xml:space="preserve" font-family="HelveticaNeue-Light" font-size="50.0" fill="#FEFFFE" transform="matrix(1.00, 0.00, -0.00, -1.00, 294.1, 604.0)">n</text><text xml:space="preserve" font-family="HelveticaNeue-Light" font-size="50.0" fill="#FEFFFE" transform="matrix(1.00, 0.00, -0.00, -1.00, 321.0, 604.0)">t</text><text xml:space="preserve" font-family="HelveticaNeue-Light" font-size="50.0" fill="#FEFFFE" transform="matrix(1.00, 0.00, -0.00, -1.00, 335.8, 604.0)">e</text><text xml:space="preserve" font-family="HelveticaNeue-Light" font-size="50.0" fill="#FEFFFE" transform="matrix(1.00, 0.00, -0.00, -1.00, 361.7, 604.0)">d</text><text xml:space="preserve" font-family="HelveticaNeue-Light" font-size="50.0" fill="#FEFFFE" transform="matrix(1.00, 0.00, -0.00, -1.00, 390.4, 604.0)"> </text><text xml:space="preserve" font-family="HelveticaNeue-Light" font-size="50.0" fill="#FEFFFE" transform="matrix(1.00, 0.00, -0.00, -1.00, 404.3, 604.0)">c</text><text xml:space="preserve" font-family="HelveticaNeue-Light" font-size="50.0" fill="#FEFFFE" transform="matrix(1.00, 0.00, -0.00, -1.00, 430.3, 604.0)">y</text><text xml:space="preserve" font-family="HelveticaNeue-Light" font-size="50.0" fill="#FEFFFE" transform="matrix(1.00, 0.00, -0.00, -1.00, 453.4, 604.0)">c</text><text xml:space="preserve" font-family="HelveticaNeue-Light" font-size="50.0" fill="#FEFFFE" transform="matrix(1.00, 0.00, -0.00, -1.00, 479.4, 604.0)">l</text><text xml:space="preserve" font-family="HelveticaNeue-Light" font-size="50.0" fill="#FEFFFE" transform="matrix(1.00, 0.00, -0.00, -1.00, 488.6, 604.0)">i</text><text xml:space="preserve" font-family="HelveticaNeue-Light" font-size="50.0" fill="#FEFFFE" transform="matrix(1.00, 0.00, -0.00, -1.00, 497.9, 604.0)">c</text><text xml:space="preserve" font-family="HelveticaNeue-Light" font-size="50.0" fill="#FEFFFE" transform="matrix(1.00, 0.00, -0.00, -1.00, 523.8, 604.0)"> </text><text xml:space="preserve" font-family="HelveticaNeue-Light" font-size="50.0" fill="#FEFFFE" transform="matrix(1.00, 0.00, -0.00, -1.00, 537.7, 604.0)">l</text><text xml:space="preserve" font-family="HelveticaNeue-Light" font-size="50.0" fill="#FEFFFE" transform="matrix(1.00, 0.00, -0.00, -1.00, 547.0, 604.0)">o</text><text xml:space="preserve" font-family="HelveticaNeue-Light" font-size="50.0" fill="#FEFFFE" transform="matrix(1.00, 0.00, -0.00, -1.00, 574.8, 604.0)">o</text><text xml:space="preserve" font-family="HelveticaNeue-Light" font-size="50.0" fill="#FEFFFE" transform="matrix(1.00, 0.00, -0.00, -1.00, 602.5, 604.0)">p</text><text xml:space="preserve" font-family="HelveticaNeue-Light" font-size="50.0" fill="#FEFFFE" transform="matrix(1.00, 0.00, -0.00, -1.00, 631.2, 604.0)">s</text><text xml:space="preserve" font-family="HelveticaNeue-Light" font-size="50.0" fill="#FEFFFE" transform="matrix(1.00, 0.00, -0.00, -1.00, 655.3, 604.0)"> </text><text xml:space="preserve" font-family="HelveticaNeue-Light" font-size="50.0" fill="#FEFFFE" transform="matrix(1.00, 0.00, -0.00, -1.00, 669.2, 604.0)">f</text><text xml:space="preserve" font-family="HelveticaNeue-Light" font-size="50.0" fill="#FEFFFE" transform="matrix(1.00, 0.00, -0.00, -1.00, 682.1, 604.0)">o</text><text xml:space="preserve" font-family="HelveticaNeue-Light" font-size="50.0" fill="#FEFFFE" transform="matrix(1.00, 0.00, -0.00, -1.00, 709.9, 604.0)">r</text><text xml:space="preserve" font-family="HelveticaNeue-Light" font-size="50.0" fill="#FEFFFE" transform="matrix(1.00, 0.00, -0.00, -1.00, 725.7, 604.0)"> </text><text xml:space="preserve" font-family="HelveticaNeue-Light" font-size="50.0" fill="#FEFFFE" transform="matrix(1.00, 0.00, -0.00, -1.00, 739.6, 604.0)">i</text><text xml:space="preserve" font-family="HelveticaNeue-Light" font-size="50.0" fill="#FEFFFE" transform="matrix(1.00, 0.00, -0.00, -1.00, 748.8, 604.0)">n</text><text xml:space="preserve" font-family="HelveticaNeue-Light" font-size="50.0" fill="#FEFFFE" transform="matrix(1.00, 0.00, -0.00, -1.00, 775.7, 604.0)">t</text><text xml:space="preserve" font-family="HelveticaNeue-Light" font-size="50.0" fill="#FEFFFE" transform="matrix(1.00, 0.00, -0.00, -1.00, 790.5, 604.0)">e</text><text xml:space="preserve" font-family="HelveticaNeue-Light" font-size="50.0" fill="#FEFFFE" transform="matrix(1.00, 0.00, -0.00, -1.00, 816.4, 604.0)">r</text><text xml:space="preserve" font-family="HelveticaNeue-Light" font-size="50.0" fill="#FEFFFE" transform="matrix(1.00, 0.00, -0.00, -1.00, 832.2, 604.0)">m</text><text xml:space="preserve" font-family="HelveticaNeue-Light" font-size="50.0" fill="#FEFFFE" transform="matrix(1.00, 0.00, -0.00, -1.00, 873.8, 604.0)">e</text><text xml:space="preserve" font-family="HelveticaNeue-Light" font-size="50.0" fill="#FEFFFE" transform="matrix(1.00, 0.00, -0.00, -1.00, 899.8, 604.0)">d</text><text xml:space="preserve" font-family="HelveticaNeue-Light" font-size="50.0" fill="#FEFFFE" transform="matrix(1.00, 0.00, -0.00, -1.00, 928.5, 604.0)">i</text><text xml:space="preserve" font-family="HelveticaNeue-Light" font-size="50.0" fill="#FEFFFE" transform="matrix(1.00, 0.00, -0.00, -1.00, 937.8, 604.0)">a</text><text xml:space="preserve" font-family="HelveticaNeue-Light" font-size="50.0" fill="#FEFFFE" transform="matrix(1.00, 0.00, -0.00, -1.00, 963.7, 604.0)">t</text><text xml:space="preserve" font-family="HelveticaNeue-Light" font-size="50.0" fill="#FEFFFE" transform="matrix(1.00, 0.00, -0.00, -1.00, 978.5, 604.0)">e</text><text xml:space="preserve" font-family="HelveticaNeue-Light" font-size="50.0" fill="#FEFFFE" transform="matrix(1.00, 0.00, -0.00, -1.00, 1004.5, 604.0)"> </text><text xml:space="preserve" font-family="HelveticaNeue-Light" font-size="50.0" fill="#FEFFFE" transform="matrix(1.00, 0.00, -0.00, -1.00, 1018.4, 604.0)">d</text><text xml:space="preserve" font-family="HelveticaNeue-Light" font-size="50.0" fill="#FEFFFE" transform="matrix(1.00, 0.00, -0.00, -1.00, 1047.1, 604.0)">a</text><text xml:space="preserve" font-family="HelveticaNeue-Light" font-size="50.0" fill="#FEFFFE" transform="matrix(1.00, 0.00, -0.00, -1.00, 1073.0, 604.0)">t</text><text xml:space="preserve" font-family="HelveticaNeue-Light" font-size="50.0" fill="#FEFFFE" transform="matrix(1.00, 0.00, -0.00, -1.00, 1087.8, 604.0)">a</text><text xml:space="preserve" font-family="HelveticaNeue-Light" font-size="50.0" fill="#FEFFFE" transform="matrix(1.00, 0.00, -0.00, -1.00, 1113.8, 604.0)"> </text><text xml:space="preserve" font-family="HelveticaNeue-Light" font-size="50.0" fill="#FEFFFE" transform="matrix(1.00, 0.00, -0.00, -1.00, 1127.7, 604.0)">s</text><text xml:space="preserve" font-family="HelveticaNeue-Light" font-size="50.0" fill="#FEFFFE" transform="matrix(1.00, 0.00, -0.00, -1.00, 1151.7, 604.0)">e</text><text xml:space="preserve" font-family="HelveticaNeue-Light" font-size="50.0" fill="#FEFFFE" transform="matrix(1.00, 0.00, -0.00, -1.00, 1177.7, 604.0)">t</text><text xml:space="preserve" font-family="HelveticaNeue-Light" font-size="50.0" fill="#FEFFFE" transform="matrix(1.00, 0.00, -0.00, -1.00, 1192.5, 604.0)"> </text><text xml:space="preserve" font-family="HelveticaNeue-Light" font-size="50.0" fill="#FEFFFE" transform="matrix(1.00, 0.00, -0.00, -1.00, 1206.4, 604.0)">c</text><text xml:space="preserve" font-family="HelveticaNeue-Light" font-size="50.0" fill="#FEFFFE" transform="matrix(1.00, 0.00, -0.00, -1.00, 1232.3, 604.0)">r</text><text xml:space="preserve" font-family="HelveticaNeue-Light" font-size="50.0" fill="#FEFFFE" transform="matrix(1.00, 0.00, -0.00, -1.00, 1247.2, 604.0)">e</text><text xml:space="preserve" font-family="HelveticaNeue-Light" font-size="50.0" fill="#FEFFFE" transform="matrix(1.00, 0.00, -0.00, -1.00, 1273.1, 604.0)">a</text><text xml:space="preserve" font-family="HelveticaNeue-Light" font-size="50.0" fill="#FEFFFE" transform="matrix(1.00, 0.00, -0.00, -1.00, 1299.1, 604.0)">t</text><text xml:space="preserve" font-family="HelveticaNeue-Light" font-size="50.0" fill="#FEFFFE" transform="matrix(1.00, 0.00, -0.00, -1.00, 1313.9, 604.0)">i</text><text xml:space="preserve" font-family="HelveticaNeue-Light" font-size="50.0" fill="#FEFFFE" transform="matrix(1.00, 0.00, -0.00, -1.00, 1323.1, 604.0)">o</text><text xml:space="preserve" font-family="HelveticaNeue-Light" font-size="50.0" fill="#FEFFFE" transform="matrix(1.00, 0.00, -0.00, -1.00, 1350.9, 604.0)">n</text><text xml:space="preserve" font-family="HelveticaNeue-Light" font-size="50.0" fill="#FEFFFE" transform="matrix(1.00, 0.00, -0.00, -1.00, 1377.8, 604.0)"> </text><image xlink:href="../../077543C8-1A3F-406E-9593-99609A063235/assets/D78D93A8DEE9B68D58E2A0BAEAF9F97F.png" width="18.00" height="18.00" transform="matrix(1.00, 0.00, -0.00, -1.00, 120.0, 519.0)"></image><g><clipPath id="clip-505"><path d="M 120.0 501.1 L 137.6 501.1 L 137.6 518.8 L 120.0 518.8 Z M 120.0 501.1 "></path></clipPath><g clip-path="url(#clip-505)"><g><g><clipPath id="clip-506"><path d="M 120.0 518.8 L 137.6 518.8 L 137.6 501.1 L 120.0 501.1 Z M 120.0 518.8 "></path></clipPath><g clip-path="url(#clip-506)"><g><clipPath id="clip-507"><path d="M 116.0 494.0 L 142.0 494.0 L 142.0 526.0 L 116.0 526.0 Z M 116.0 494.0 "></path></clipPath><g clip-path="url(#clip-507)"><path d="M 137.6 515.3 C 137.6 516.0 137.2 516.8 136.5 517.6 C 135.8 518.4 135.0 518.8 134.1 518.8 C 133.7 518.8 133.1 518.6 132.2 518.2 C 130.9 517.5 129.7 517.2 128.8 517.2 C 127.8 517.2 126.6 517.5 125.3 518.2 C 124.5 518.6 123.9 518.8 123.4 518.8 C 122.6 518.8 121.8 518.4 121.1 517.6 C 120.4 516.9 120.0 516.1 120.0 515.3 C 120.0 514.8 120.2 514.2 120.6 513.3 C 121.2 512.0 121.5 510.9 121.5 509.9 C 121.5 509.0 121.2 507.9 120.6 506.5 C 120.2 505.7 120.0 505.1 120.0 504.6 C 120.0 503.8 120.4 503.0 121.1 502.2 C 121.8 501.5 122.6 501.1 123.4 501.1 C 123.9 501.1 124.5 501.3 125.3 501.7 C 126.6 502.4 127.8 502.7 128.8 502.7 C 129.7 502.7 130.9 502.4 132.2 501.7 C 133.1 501.3 133.7 501.1 134.1 501.1 C 135.0 501.1 135.8 501.5 136.5 502.2 C 137.2 503.0 137.6 503.8 137.6 504.6 C 137.6 505.1 137.4 505.7 137.0 506.5 C 136.3 507.9 136.0 509.0 136.0 509.9 C 136.0 510.9 136.3 512.0 137.0 513.3 C 137.4 514.2 137.6 514.8 137.6 515.3 " fill="#FFFFFF"></path></g></g></g></g></g></g></g><image xlink:href="B014DE520A8B6FC538D1089CA7E5C4E6.png" width="262.00" height="45.00" transform="matrix(1.00, 0.00, -0.00, -1.00, 169.0, 530.0)"></image><text xml:space="preserve" font-family="HelveticaNeue-Light" font-size="50.0" fill="#FEFFFE" transform="matrix(1.00, 0.00, -0.00, -1.00, 170.0, 493.0)">L</text><text xml:space="preserve" font-family="HelveticaNeue-Light" font-size="50.0" fill="#FEFFFE" transform="matrix(1.00, 0.00, -0.00, -1.00, 196.8, 493.0)">o</text><text xml:space="preserve" font-family="HelveticaNeue-Light" font-size="50.0" fill="#FEFFFE" transform="matrix(1.00, 0.00, -0.00, -1.00, 224.7, 493.0)">t</text><text xml:space="preserve" font-family="HelveticaNeue-Light" font-size="50.0" fill="#FEFFFE" transform="matrix(1.00, 0.00, -0.00, -1.00, 239.4, 493.0)">s</text><text xml:space="preserve" font-family="HelveticaNeue-Light" font-size="50.0" fill="#FEFFFE" transform="matrix(1.00, 0.00, -0.00, -1.00, 263.5, 493.0)"> </text><text xml:space="preserve" font-family="HelveticaNeue-Light" font-size="50.0" fill="#FEFFFE" transform="matrix(1.00, 0.00, -0.00, -1.00, 277.4, 493.0)">o</text><text xml:space="preserve" font-family="HelveticaNeue-Light" font-size="50.0" fill="#FEFFFE" transform="matrix(1.00, 0.00, -0.00, -1.00, 305.2, 493.0)">f</text><text xml:space="preserve" font-family="HelveticaNeue-Light" font-size="50.0" fill="#FEFFFE" transform="matrix(1.00, 0.00, -0.00, -1.00, 318.1, 493.0)"> </text><text xml:space="preserve" font-family="HelveticaNeue-Light" font-size="50.0" fill="#FEFFFE" transform="matrix(1.00, 0.00, -0.00, -1.00, 332.1, 493.0)">c</text><text xml:space="preserve" font-family="HelveticaNeue-Light" font-size="50.0" fill="#FEFFFE" transform="matrix(1.00, 0.00, -0.00, -1.00, 358.0, 493.0)">r</text><text xml:space="preserve" font-family="HelveticaNeue-Light" font-size="50.0" fill="#FEFFFE" transform="matrix(1.00, 0.00, -0.00, -1.00, 373.8, 493.0)">u</text><text xml:space="preserve" font-family="HelveticaNeue-Light" font-size="50.0" fill="#FEFFFE" transform="matrix(1.00, 0.00, -0.00, -1.00, 400.6, 493.0)">f</text><text xml:space="preserve" font-family="HelveticaNeue-Light" font-size="50.0" fill="#FEFFFE" transform="matrix(1.00, 0.00, -0.00, -1.00, 413.5, 493.0)">t</text><text xml:space="preserve" font-family="HelveticaNeue-Light" font-size="50.0" fill="#FEFFFE" transform="matrix(1.00, 0.00, -0.00, -1.00, 428.3, 493.0)"> </text><image xlink:href="../../077543C8-1A3F-406E-9593-99609A063235/assets/D78D93A8DEE9B68D58E2A0BAEAF9F97F.png" width="18.00" height="18.00" transform="matrix(1.00, 0.00, -0.00, -1.00, 120.0, 408.0)"></image><g><clipPath id="clip-508"><path d="M 120.0 390.1 L 137.6 390.1 L 137.6 407.8 L 120.0 407.8 Z M 120.0 390.1 "></path></clipPath><g clip-path="url(#clip-508)"><g><g><clipPath id="clip-509"><path d="M 120.0 407.8 L 137.6 407.8 L 137.6 390.1 L 120.0 390.1 Z M 120.0 407.8 "></path></clipPath><g clip-path="url(#clip-509)"><g><clipPath id="clip-510"><path d="M 116.0 383.0 L 142.0 383.0 L 142.0 415.0 L 116.0 415.0 Z M 116.0 383.0 "></path></clipPath><g clip-path="url(#clip-510)"><path d="M 137.6 404.3 C 137.6 405.0 137.2 405.8 136.5 406.6 C 135.8 407.4 135.0 407.8 134.1 407.8 C 133.7 407.8 133.1 407.6 132.2 407.2 C 130.9 406.5 129.7 406.2 128.8 406.2 C 127.8 406.2 126.6 406.5 125.3 407.2 C 124.5 407.6 123.9 407.8 123.4 407.8 C 122.6 407.8 121.8 407.4 121.1 406.6 C 120.4 405.9 120.0 405.1 120.0 404.3 C 120.0 403.8 120.2 403.2 120.6 402.3 C 121.2 401.0 121.5 399.9 121.5 398.9 C 121.5 398.0 121.2 396.9 120.6 395.5 C 120.2 394.7 120.0 394.1 120.0 393.6 C 120.0 392.8 120.4 392.0 121.1 391.2 C 121.8 390.5 122.6 390.1 123.4 390.1 C 123.9 390.1 124.5 390.3 125.3 390.7 C 126.6 391.4 127.8 391.7 128.8 391.7 C 129.7 391.7 130.9 391.4 132.2 390.7 C 133.1 390.3 133.7 390.1 134.1 390.1 C 135.0 390.1 135.8 390.5 136.5 391.2 C 137.2 392.0 137.6 392.8 137.6 393.6 C 137.6 394.1 137.4 394.7 137.0 395.5 C 136.3 396.9 136.0 398.0 136.0 398.9 C 136.0 399.9 136.3 401.0 137.0 402.3 C 137.4 403.2 137.6 403.8 137.6 404.3 " fill="#FFFFFF"></path></g></g></g></g></g></g></g><image xlink:href="9F3661148E8A5CEABF5DA40E351F2750.png" width="929.00" height="55.00" transform="matrix(1.00, 0.00, -0.00, -1.00, 169.0, 420.0)"></image><text xml:space="preserve" font-family="HelveticaNeue-Light" font-size="50.0" fill="#FEFFFE" transform="matrix(1.00, 0.00, -0.00, -1.00, 170.0, 382.0)">L</text><text xml:space="preserve" font-family="HelveticaNeue-Light" font-size="50.0" fill="#FEFFFE" transform="matrix(1.00, 0.00, -0.00, -1.00, 196.8, 382.0)">o</text><text xml:space="preserve" font-family="HelveticaNeue-Light" font-size="50.0" fill="#FEFFFE" transform="matrix(1.00, 0.00, -0.00, -1.00, 224.7, 382.0)">t</text><text xml:space="preserve" font-family="HelveticaNeue-Light" font-size="50.0" fill="#FEFFFE" transform="matrix(1.00, 0.00, -0.00, -1.00, 239.4, 382.0)">s</text><text xml:space="preserve" font-family="HelveticaNeue-Light" font-size="50.0" fill="#FEFFFE" transform="matrix(1.00, 0.00, -0.00, -1.00, 263.5, 382.0)"> </text><text xml:space="preserve" font-family="HelveticaNeue-Light" font-size="50.0" fill="#FEFFFE" transform="matrix(1.00, 0.00, -0.00, -1.00, 277.4, 382.0)">o</text><text xml:space="preserve" font-family="HelveticaNeue-Light" font-size="50.0" fill="#FEFFFE" transform="matrix(1.00, 0.00, -0.00, -1.00, 305.2, 382.0)">f</text><text xml:space="preserve" font-family="HelveticaNeue-Light" font-size="50.0" fill="#FEFFFE" transform="matrix(1.00, 0.00, -0.00, -1.00, 318.1, 382.0)"> </text><text xml:space="preserve" font-family="HelveticaNeue-Light" font-size="50.0" fill="#FEFFFE" transform="matrix(1.00, 0.00, -0.00, -1.00, 332.1, 382.0)">a</text><text xml:space="preserve" font-family="HelveticaNeue-Light" font-size="50.0" fill="#FEFFFE" transform="matrix(1.00, 0.00, -0.00, -1.00, 358.0, 382.0)">d</text><text xml:space="preserve" font-family="HelveticaNeue-Light" font-size="50.0" fill="#FEFFFE" transform="matrix(1.00, 0.00, -0.00, -1.00, 386.7, 382.0)">-</text><text xml:space="preserve" font-family="HelveticaNeue-Light" font-size="50.0" fill="#FEFFFE" transform="matrix(1.00, 0.00, -0.00, -1.00, 405.2, 382.0)">h</text><text xml:space="preserve" font-family="HelveticaNeue-Light" font-size="50.0" fill="#FEFFFE" transform="matrix(1.00, 0.00, -0.00, -1.00, 432.1, 382.0)">o</text><text xml:space="preserve" font-family="HelveticaNeue-Light" font-size="50.0" fill="#FEFFFE" transform="matrix(1.00, 0.00, -0.00, -1.00, 459.9, 382.0)">c</text><text xml:space="preserve" font-family="HelveticaNeue-Light" font-size="50.0" fill="#FEFFFE" transform="matrix(1.00, 0.00, -0.00, -1.00, 485.8, 382.0)"> </text><text xml:space="preserve" font-family="HelveticaNeue-Light" font-size="50.0" fill="#FEFFFE" transform="matrix(1.00, 0.00, -0.00, -1.00, 499.7, 382.0)">d</text><text xml:space="preserve" font-family="HelveticaNeue-Light" font-size="50.0" fill="#FEFFFE" transform="matrix(1.00, 0.00, -0.00, -1.00, 528.4, 382.0)">e</text><text xml:space="preserve" font-family="HelveticaNeue-Light" font-size="50.0" fill="#FEFFFE" transform="matrix(1.00, 0.00, -0.00, -1.00, 554.3, 382.0)">c</text><text xml:space="preserve" font-family="HelveticaNeue-Light" font-size="50.0" fill="#FEFFFE" transform="matrix(1.00, 0.00, -0.00, -1.00, 580.3, 382.0)">i</text><text xml:space="preserve" font-family="HelveticaNeue-Light" font-size="50.0" fill="#FEFFFE" transform="matrix(1.00, 0.00, -0.00, -1.00, 589.5, 382.0)">s</text><text xml:space="preserve" font-family="HelveticaNeue-Light" font-size="50.0" fill="#FEFFFE" transform="matrix(1.00, 0.00, -0.00, -1.00, 613.6, 382.0)">i</text><text xml:space="preserve" font-family="HelveticaNeue-Light" font-size="50.0" fill="#FEFFFE" transform="matrix(1.00, 0.00, -0.00, -1.00, 622.8, 382.0)">o</text><text xml:space="preserve" font-family="HelveticaNeue-Light" font-size="50.0" fill="#FEFFFE" transform="matrix(1.00, 0.00, -0.00, -1.00, 650.6, 382.0)">n</text><text xml:space="preserve" font-family="HelveticaNeue-Light" font-size="50.0" fill="#FEFFFE" transform="matrix(1.00, 0.00, -0.00, -1.00, 677.5, 382.0)">s</text><text xml:space="preserve" font-family="HelveticaNeue-Light" font-size="50.0" fill="#FEFFFE" transform="matrix(1.00, 0.00, -0.00, -1.00, 701.5, 382.0)"> </text><text xml:space="preserve" font-family="HelveticaNeue-Light" font-size="50.0" fill="#FEFFFE" transform="matrix(1.00, 0.00, -0.00, -1.00, 715.4, 382.0)">(</text><text xml:space="preserve" font-family="HelveticaNeue-Light" font-size="50.0" fill="#FEFFFE" transform="matrix(1.00, 0.00, -0.00, -1.00, 727.5, 382.0)">n</text><text xml:space="preserve" font-family="HelveticaNeue-Light" font-size="50.0" fill="#FEFFFE" transform="matrix(1.00, 0.00, -0.00, -1.00, 754.3, 382.0)">o</text><text xml:space="preserve" font-family="HelveticaNeue-Light" font-size="50.0" fill="#FEFFFE" transform="matrix(1.00, 0.00, -0.00, -1.00, 782.1, 382.0)">t</text><text xml:space="preserve" font-family="HelveticaNeue-Light" font-size="50.0" fill="#FEFFFE" transform="matrix(1.00, 0.00, -0.00, -1.00, 796.9, 382.0)"> </text><text xml:space="preserve" font-family="HelveticaNeue-Light" font-size="50.0" fill="#FEFFFE" transform="matrix(1.00, 0.00, -0.00, -1.00, 810.8, 382.0)">d</text><text xml:space="preserve" font-family="HelveticaNeue-Light" font-size="50.0" fill="#FEFFFE" transform="matrix(1.00, 0.00, -0.00, -1.00, 839.5, 382.0)">o</text><text xml:space="preserve" font-family="HelveticaNeue-Light" font-size="50.0" fill="#FEFFFE" transform="matrix(1.00, 0.00, -0.00, -1.00, 867.3, 382.0)">c</text><text xml:space="preserve" font-family="HelveticaNeue-Light" font-size="50.0" fill="#FEFFFE" transform="matrix(1.00, 0.00, -0.00, -1.00, 893.3, 382.0)">u</text><text xml:space="preserve" font-family="HelveticaNeue-Light" font-size="50.0" fill="#FEFFFE" transform="matrix(1.00, 0.00, -0.00, -1.00, 920.1, 382.0)">m</text><text xml:space="preserve" font-family="HelveticaNeue-Light" font-size="50.0" fill="#FEFFFE" transform="matrix(1.00, 0.00, -0.00, -1.00, 961.8, 382.0)">e</text><text xml:space="preserve" font-family="HelveticaNeue-Light" font-size="50.0" fill="#FEFFFE" transform="matrix(1.00, 0.00, -0.00, -1.00, 987.7, 382.0)">n</text><text xml:space="preserve" font-family="HelveticaNeue-Light" font-size="50.0" fill="#FEFFFE" transform="matrix(1.00, 0.00, -0.00, -1.00, 1014.6, 382.0)">t</text><text xml:space="preserve" font-family="HelveticaNeue-Light" font-size="50.0" fill="#FEFFFE" transform="matrix(1.00, 0.00, -0.00, -1.00, 1029.4, 382.0)">e</text><text xml:space="preserve" font-family="HelveticaNeue-Light" font-size="50.0" fill="#FEFFFE" transform="matrix(1.00, 0.00, -0.00, -1.00, 1055.3, 382.0)">d</text><text xml:space="preserve" font-family="HelveticaNeue-Light" font-size="50.0" fill="#FEFFFE" transform="matrix(1.00, 0.00, -0.00, -1.00, 1084.0, 382.0)">)</text><text xml:space="preserve" font-family="HelveticaNeue-Light" font-size="50.0" fill="#FEFFFE" transform="matrix(1.00, 0.00, -0.00, -1.00, 1096.1, 382.0)"> </text><image xlink:href="../../077543C8-1A3F-406E-9593-99609A063235/assets/D78D93A8DEE9B68D58E2A0BAEAF9F97F.png" width="18.00" height="18.00" transform="matrix(1.00, 0.00, -0.00, -1.00, 120.0, 297.0)"></image><g><clipPath id="clip-511"><path d="M 120.0 279.1 L 137.6 279.1 L 137.6 296.8 L 120.0 296.8 Z M 120.0 279.1 "></path></clipPath><g clip-path="url(#clip-511)"><g><g><clipPath id="clip-512"><path d="M 120.0 296.8 L 137.6 296.8 L 137.6 279.1 L 120.0 279.1 Z M 120.0 296.8 "></path></clipPath><g clip-path="url(#clip-512)"><g><clipPath id="clip-513"><path d="M 116.0 272.0 L 142.0 272.0 L 142.0 304.0 L 116.0 304.0 Z M 116.0 272.0 "></path></clipPath><g clip-path="url(#clip-513)"><path d="M 137.6 293.3 C 137.6 294.0 137.2 294.8 136.5 295.6 C 135.8 296.4 135.0 296.8 134.1 296.8 C 133.7 296.8 133.1 296.6 132.2 296.2 C 130.9 295.5 129.7 295.2 128.8 295.2 C 127.8 295.2 126.6 295.5 125.3 296.2 C 124.5 296.6 123.9 296.8 123.4 296.8 C 122.6 296.8 121.8 296.4 121.1 295.6 C 120.4 294.9 120.0 294.1 120.0 293.3 C 120.0 292.8 120.2 292.2 120.6 291.3 C 121.2 290.0 121.5 288.9 121.5 287.9 C 121.5 287.0 121.2 285.9 120.6 284.5 C 120.2 283.7 120.0 283.1 120.0 282.6 C 120.0 281.8 120.4 281.0 121.1 280.2 C 121.8 279.5 122.6 279.1 123.4 279.1 C 123.9 279.1 124.5 279.3 125.3 279.7 C 126.6 280.4 127.8 280.7 128.8 280.7 C 129.7 280.7 130.9 280.4 132.2 279.7 C 133.1 279.3 133.7 279.1 134.1 279.1 C 135.0 279.1 135.8 279.5 136.5 280.2 C 137.2 281.0 137.6 281.8 137.6 282.6 C 137.6 283.1 137.4 283.7 137.0 284.5 C 136.3 285.9 136.0 287.0 136.0 287.9 C 136.0 288.9 136.3 290.0 137.0 291.3 C 137.4 292.2 137.6 292.8 137.6 293.3 " fill="#FFFFFF"></path></g></g></g></g></g></g></g><image xlink:href="B32DD961531BB45E522FA4BEFD253E6C.png" width="871.00" height="54.00" transform="matrix(1.00, 0.00, -0.00, -1.00, 169.0, 308.0)"></image><text xml:space="preserve" font-family="HelveticaNeue-Light" font-size="50.0" fill="#FEFFFE" transform="matrix(1.00, 0.00, -0.00, -1.00, 170.0, 271.0)">R</text><text xml:space="preserve" font-family="HelveticaNeue-Light" font-size="50.0" fill="#FEFFFE" transform="matrix(1.00, 0.00, -0.00, -1.00, 203.3, 271.0)">e</text><text xml:space="preserve" font-family="HelveticaNeue-Light" font-size="50.0" fill="#FEFFFE" transform="matrix(1.00, 0.00, -0.00, -1.00, 229.3, 271.0)">p</text><text xml:space="preserve" font-family="HelveticaNeue-Light" font-size="50.0" fill="#FEFFFE" transform="matrix(1.00, 0.00, -0.00, -1.00, 258.0, 271.0)">l</text><text xml:space="preserve" font-family="HelveticaNeue-Light" font-size="50.0" fill="#FEFFFE" transform="matrix(1.00, 0.00, -0.00, -1.00, 267.2, 271.0)">i</text><text xml:space="preserve" font-family="HelveticaNeue-Light" font-size="50.0" fill="#FEFFFE" transform="matrix(1.00, 0.00, -0.00, -1.00, 276.5, 271.0)">c</text><text xml:space="preserve" font-family="HelveticaNeue-Light" font-size="50.0" fill="#FEFFFE" transform="matrix(1.00, 0.00, -0.00, -1.00, 302.4, 271.0)">a</text><text xml:space="preserve" font-family="HelveticaNeue-Light" font-size="50.0" fill="#FEFFFE" transform="matrix(1.00, 0.00, -0.00, -1.00, 328.4, 271.0)">t</text><text xml:space="preserve" font-family="HelveticaNeue-Light" font-size="50.0" fill="#FEFFFE" transform="matrix(1.00, 0.00, -0.00, -1.00, 343.2, 271.0)">i</text><text xml:space="preserve" font-family="HelveticaNeue-Light" font-size="50.0" fill="#FEFFFE" transform="matrix(1.00, 0.00, -0.00, -1.00, 352.4, 271.0)">o</text><text xml:space="preserve" font-family="HelveticaNeue-Light" font-size="50.0" fill="#FEFFFE" transform="matrix(1.00, 0.00, -0.00, -1.00, 380.2, 271.0)">n</text><text xml:space="preserve" font-family="HelveticaNeue-Light" font-size="50.0" fill="#FEFFFE" transform="matrix(1.00, 0.00, -0.00, -1.00, 407.1, 271.0)"> </text><text xml:space="preserve" font-family="HelveticaNeue-Light" font-size="50.0" fill="#FEFFFE" transform="matrix(1.00, 0.00, -0.00, -1.00, 421.0, 271.0)">o</text><text xml:space="preserve" font-family="HelveticaNeue-Light" font-size="50.0" fill="#FEFFFE" transform="matrix(1.00, 0.00, -0.00, -1.00, 448.8, 271.0)">f</text><text xml:space="preserve" font-family="HelveticaNeue-Light" font-size="50.0" fill="#FEFFFE" transform="matrix(1.00, 0.00, -0.00, -1.00, 461.8, 271.0)"> </text><text xml:space="preserve" font-family="HelveticaNeue-Light" font-size="50.0" fill="#FEFFFE" transform="matrix(1.00, 0.00, -0.00, -1.00, 475.6, 271.0)">f</text><text xml:space="preserve" font-family="HelveticaNeue-Light" font-size="50.0" fill="#FEFFFE" transform="matrix(1.00, 0.00, -0.00, -1.00, 488.6, 271.0)">u</text><text xml:space="preserve" font-family="HelveticaNeue-Light" font-size="50.0" fill="#FEFFFE" transform="matrix(1.00, 0.00, -0.00, -1.00, 515.5, 271.0)">n</text><text xml:space="preserve" font-family="HelveticaNeue-Light" font-size="50.0" fill="#FEFFFE" transform="matrix(1.00, 0.00, -0.00, -1.00, 542.3, 271.0)">c</text><text xml:space="preserve" font-family="HelveticaNeue-Light" font-size="50.0" fill="#FEFFFE" transform="matrix(1.00, 0.00, -0.00, -1.00, 568.2, 271.0)">t</text><text xml:space="preserve" font-family="HelveticaNeue-Light" font-size="50.0" fill="#FEFFFE" transform="matrix(1.00, 0.00, -0.00, -1.00, 583.0, 271.0)">i</text><text xml:space="preserve" font-family="HelveticaNeue-Light" font-size="50.0" fill="#FEFFFE" transform="matrix(1.00, 0.00, -0.00, -1.00, 592.3, 271.0)">o</text><text xml:space="preserve" font-family="HelveticaNeue-Light" font-size="50.0" fill="#FEFFFE" transform="matrix(1.00, 0.00, -0.00, -1.00, 620.1, 271.0)">n</text><text xml:space="preserve" font-family="HelveticaNeue-Light" font-size="50.0" fill="#FEFFFE" transform="matrix(1.00, 0.00, -0.00, -1.00, 647.0, 271.0)">s</text><text xml:space="preserve" font-family="HelveticaNeue-Light" font-size="50.0" fill="#FEFFFE" transform="matrix(1.00, 0.00, -0.00, -1.00, 671.0, 271.0)"> </text><text xml:space="preserve" font-family="HelveticaNeue-Light" font-size="50.0" fill="#FEFFFE" transform="matrix(1.00, 0.00, -0.00, -1.00, 684.9, 271.0)">w</text><text xml:space="preserve" font-family="HelveticaNeue-Light" font-size="50.0" fill="#FEFFFE" transform="matrix(1.00, 0.00, -0.00, -1.00, 722.0, 271.0)">i</text><text xml:space="preserve" font-family="HelveticaNeue-Light" font-size="50.0" fill="#FEFFFE" transform="matrix(1.00, 0.00, -0.00, -1.00, 731.2, 271.0)">t</text><text xml:space="preserve" font-family="HelveticaNeue-Light" font-size="50.0" fill="#FEFFFE" transform="matrix(1.00, 0.00, -0.00, -1.00, 746.0, 271.0)">h</text><text xml:space="preserve" font-family="HelveticaNeue-Light" font-size="50.0" fill="#FEFFFE" transform="matrix(1.00, 0.00, -0.00, -1.00, 772.9, 271.0)">i</text><text xml:space="preserve" font-family="HelveticaNeue-Light" font-size="50.0" fill="#FEFFFE" transform="matrix(1.00, 0.00, -0.00, -1.00, 782.1, 271.0)">n</text><text xml:space="preserve" font-family="HelveticaNeue-Light" font-size="50.0" fill="#FEFFFE" transform="matrix(1.00, 0.00, -0.00, -1.00, 809.0, 271.0)"> </text><text xml:space="preserve" font-family="HelveticaNeue-Light" font-size="50.0" fill="#FEFFFE" transform="matrix(1.00, 0.00, -0.00, -1.00, 822.9, 271.0)">s</text><text xml:space="preserve" font-family="HelveticaNeue-Light" font-size="50.0" fill="#FEFFFE" transform="matrix(1.00, 0.00, -0.00, -1.00, 846.9, 271.0)">c</text><text xml:space="preserve" font-family="HelveticaNeue-Light" font-size="50.0" fill="#FEFFFE" transform="matrix(1.00, 0.00, -0.00, -1.00, 872.9, 271.0)">r</text><text xml:space="preserve" font-family="HelveticaNeue-Light" font-size="50.0" fill="#FEFFFE" transform="matrix(1.00, 0.00, -0.00, -1.00, 888.6, 271.0)">i</text><text xml:space="preserve" font-family="HelveticaNeue-Light" font-size="50.0" fill="#FEFFFE" transform="matrix(1.00, 0.00, -0.00, -1.00, 897.9, 271.0)">p</text><text xml:space="preserve" font-family="HelveticaNeue-Light" font-size="50.0" fill="#FEFFFE" transform="matrix(1.00, 0.00, -0.00, -1.00, 926.6, 271.0)">t</text><text xml:space="preserve" font-family="HelveticaNeue-Light" font-size="50.0" fill="#FEFFFE" transform="matrix(1.00, 0.00, -0.00, -1.00, 941.4, 271.0)"> </text><text xml:space="preserve" font-family="HelveticaNeue-Light" font-size="50.0" fill="#FEFFFE" transform="matrix(1.00, 0.00, -0.00, -1.00, 955.2, 271.0)">ﬁ</text><text xml:space="preserve" font-family="HelveticaNeue-Light" font-size="50.0" fill="#FEFFFE" transform="matrix(1.00, 0.00, -0.00, -1.00, 977.5, 271.0)">l</text><text xml:space="preserve" font-family="HelveticaNeue-Light" font-size="50.0" fill="#FEFFFE" transform="matrix(1.00, 0.00, -0.00, -1.00, 986.7, 271.0)">e</text><text xml:space="preserve" font-family="HelveticaNeue-Light" font-size="50.0" fill="#FEFFFE" transform="matrix(1.00, 0.00, -0.00, -1.00, 1012.7, 271.0)">s</text><text xml:space="preserve" font-family="HelveticaNeue-Light" font-size="50.0" fill="#FEFFFE" transform="matrix(1.00, 0.00, -0.00, -1.00, 1036.7, 271.0)"> </text><image xlink:href="../../077543C8-1A3F-406E-9593-99609A063235/assets/D78D93A8DEE9B68D58E2A0BAEAF9F97F.png" width="18.00" height="18.00" transform="matrix(1.00, 0.00, -0.00, -1.00, 120.0, 186.0)"></image><g><clipPath id="clip-514"><path d="M 120.0 168.1 L 137.6 168.1 L 137.6 185.8 L 120.0 185.8 Z M 120.0 168.1 "></path></clipPath><g clip-path="url(#clip-514)"><g><g><clipPath id="clip-515"><path d="M 120.0 185.8 L 137.6 185.8 L 137.6 168.1 L 120.0 168.1 Z M 120.0 185.8 "></path></clipPath><g clip-path="url(#clip-515)"><g><clipPath id="clip-516"><path d="M 116.0 161.0 L 142.0 161.0 L 142.0 193.0 L 116.0 193.0 Z M 116.0 161.0 "></path></clipPath><g clip-path="url(#clip-516)"><path d="M 137.6 182.3 C 137.6 183.0 137.2 183.8 136.5 184.6 C 135.8 185.4 135.0 185.8 134.1 185.8 C 133.7 185.8 133.1 185.6 132.2 185.2 C 130.9 184.5 129.7 184.2 128.8 184.2 C 127.8 184.2 126.6 184.5 125.3 185.2 C 124.5 185.6 123.9 185.8 123.4 185.8 C 122.6 185.8 121.8 185.4 121.1 184.6 C 120.4 183.9 120.0 183.1 120.0 182.3 C 120.0 181.8 120.2 181.2 120.6 180.3 C 121.2 179.0 121.5 177.9 121.5 176.9 C 121.5 176.0 121.2 174.9 120.6 173.5 C 120.2 172.7 120.0 172.1 120.0 171.6 C 120.0 170.8 120.4 170.0 121.1 169.2 C 121.8 168.5 122.6 168.1 123.4 168.1 C 123.9 168.1 124.5 168.3 125.3 168.7 C 126.6 169.4 127.8 169.7 128.8 169.7 C 129.7 169.7 130.9 169.4 132.2 168.7 C 133.1 168.3 133.7 168.1 134.1 168.1 C 135.0 168.1 135.8 168.5 136.5 169.2 C 137.2 170.0 137.6 170.8 137.6 171.6 C 137.6 172.1 137.4 172.7 137.0 173.5 C 136.3 174.9 136.0 176.0 136.0 176.9 C 136.0 177.9 136.3 179.0 137.0 180.3 C 137.4 181.2 137.6 181.8 137.6 182.3 " fill="#FFFFFF"></path></g></g></g></g></g></g></g><image xlink:href="773324345884C2F3B037B0B1EBDC6FC9.png" width="984.00" height="55.00" transform="matrix(1.00, 0.00, -0.00, -1.00, 167.0, 198.0)"></image><text xml:space="preserve" font-family="HelveticaNeue-Light" font-size="50.0" fill="#FEFFFE" transform="matrix(1.00, 0.00, -0.00, -1.00, 170.0, 160.0)">S</text><text xml:space="preserve" font-family="HelveticaNeue-Light" font-size="50.0" fill="#FEFFFE" transform="matrix(1.00, 0.00, -0.00, -1.00, 201.5, 160.0)">t</text><text xml:space="preserve" font-family="HelveticaNeue-Light" font-size="50.0" fill="#FEFFFE" transform="matrix(1.00, 0.00, -0.00, -1.00, 216.3, 160.0)">i</text><text xml:space="preserve" font-family="HelveticaNeue-Light" font-size="50.0" fill="#FEFFFE" transform="matrix(1.00, 0.00, -0.00, -1.00, 225.6, 160.0)">l</text><text xml:space="preserve" font-family="HelveticaNeue-Light" font-size="50.0" fill="#FEFFFE" transform="matrix(1.00, 0.00, -0.00, -1.00, 234.8, 160.0)">l</text><text xml:space="preserve" font-family="HelveticaNeue-Light" font-size="50.0" fill="#FEFFFE" transform="matrix(1.00, 0.00, -0.00, -1.00, 244.1, 160.0)"> </text><text xml:space="preserve" font-family="HelveticaNeue-Light" font-size="50.0" fill="#FEFFFE" transform="matrix(1.00, 0.00, -0.00, -1.00, 257.9, 160.0)">n</text><text xml:space="preserve" font-family="HelveticaNeue-Light" font-size="50.0" fill="#FEFFFE" transform="matrix(1.00, 0.00, -0.00, -1.00, 284.8, 160.0)">e</text><text xml:space="preserve" font-family="HelveticaNeue-Light" font-size="50.0" fill="#FEFFFE" transform="matrix(1.00, 0.00, -0.00, -1.00, 310.8, 160.0)">e</text><text xml:space="preserve" font-family="HelveticaNeue-Light" font-size="50.0" fill="#FEFFFE" transform="matrix(1.00, 0.00, -0.00, -1.00, 336.7, 160.0)">d</text><text xml:space="preserve" font-family="HelveticaNeue-Light" font-size="50.0" fill="#FEFFFE" transform="matrix(1.00, 0.00, -0.00, -1.00, 365.4, 160.0)">e</text><text xml:space="preserve" font-family="HelveticaNeue-Light" font-size="50.0" fill="#FEFFFE" transform="matrix(1.00, 0.00, -0.00, -1.00, 391.3, 160.0)">d</text><text xml:space="preserve" font-family="HelveticaNeue-Light" font-size="50.0" fill="#FEFFFE" transform="matrix(1.00, 0.00, -0.00, -1.00, 420.0, 160.0)"> </text><text xml:space="preserve" font-family="HelveticaNeue-Light" font-size="50.0" fill="#FEFFFE" transform="matrix(1.00, 0.00, -0.00, -1.00, 433.9, 160.0)">f</text><text xml:space="preserve" font-family="HelveticaNeue-Light" font-size="50.0" fill="#FEFFFE" transform="matrix(1.00, 0.00, -0.00, -1.00, 446.9, 160.0)">o</text><text xml:space="preserve" font-family="HelveticaNeue-Light" font-size="50.0" fill="#FEFFFE" transform="matrix(1.00, 0.00, -0.00, -1.00, 474.7, 160.0)">r</text><text xml:space="preserve" font-family="HelveticaNeue-Light" font-size="50.0" fill="#FEFFFE" transform="matrix(1.00, 0.00, -0.00, -1.00, 490.4, 160.0)"> </text><text xml:space="preserve" font-family="HelveticaNeue-Light" font-size="50.0" fill="#FEFFFE" transform="matrix(1.00, 0.00, -0.00, -1.00, 504.3, 160.0)">3</text><text xml:space="preserve" font-family="HelveticaNeue-Light" font-size="50.0" fill="#FEFFFE" transform="matrix(1.00, 0.00, -0.00, -1.00, 532.1, 160.0)"> </text><text xml:space="preserve" font-family="HelveticaNeue-Light" font-size="50.0" fill="#FEFFFE" transform="matrix(1.00, 0.00, -0.00, -1.00, 546.0, 160.0)">p</text><text xml:space="preserve" font-family="HelveticaNeue-Light" font-size="50.0" fill="#FEFFFE" transform="matrix(1.00, 0.00, -0.00, -1.00, 574.7, 160.0)">a</text><text xml:space="preserve" font-family="HelveticaNeue-Light" font-size="50.0" fill="#FEFFFE" transform="matrix(1.00, 0.00, -0.00, -1.00, 600.7, 160.0)">p</text><text xml:space="preserve" font-family="HelveticaNeue-Light" font-size="50.0" fill="#FEFFFE" transform="matrix(1.00, 0.00, -0.00, -1.00, 629.4, 160.0)">e</text><text xml:space="preserve" font-family="HelveticaNeue-Light" font-size="50.0" fill="#FEFFFE" transform="matrix(1.00, 0.00, -0.00, -1.00, 655.3, 160.0)">r</text><text xml:space="preserve" font-family="HelveticaNeue-Light" font-size="50.0" fill="#FEFFFE" transform="matrix(1.00, 0.00, -0.00, -1.00, 671.1, 160.0)">s</text><text xml:space="preserve" font-family="HelveticaNeue-Light" font-size="50.0" fill="#FEFFFE" transform="matrix(1.00, 0.00, -0.00, -1.00, 695.1, 160.0)"> </text><text xml:space="preserve" font-family="HelveticaNeue-Light" font-size="50.0" fill="#FEFFFE" transform="matrix(1.00, 0.00, -0.00, -1.00, 709.0, 160.0)">a</text><text xml:space="preserve" font-family="HelveticaNeue-Light" font-size="50.0" fill="#FEFFFE" transform="matrix(1.00, 0.00, -0.00, -1.00, 735.0, 160.0)">n</text><text xml:space="preserve" font-family="HelveticaNeue-Light" font-size="50.0" fill="#FEFFFE" transform="matrix(1.00, 0.00, -0.00, -1.00, 761.8, 160.0)">d</text><text xml:space="preserve" font-family="HelveticaNeue-Light" font-size="50.0" fill="#FEFFFE" transform="matrix(1.00, 0.00, -0.00, -1.00, 790.5, 160.0)"> </text><text xml:space="preserve" font-family="HelveticaNeue-Light" font-size="50.0" fill="#FEFFFE" transform="matrix(1.00, 0.00, -0.00, -1.00, 804.4, 160.0)">r</text><text xml:space="preserve" font-family="HelveticaNeue-Light" font-size="50.0" fill="#FEFFFE" transform="matrix(1.00, 0.00, -0.00, -1.00, 819.3, 160.0)">e</text><text xml:space="preserve" font-family="HelveticaNeue-Light" font-size="50.0" fill="#FEFFFE" transform="matrix(1.00, 0.00, -0.00, -1.00, 845.2, 160.0)">v</text><text xml:space="preserve" font-family="HelveticaNeue-Light" font-size="50.0" fill="#FEFFFE" transform="matrix(1.00, 0.00, -0.00, -1.00, 868.4, 160.0)">i</text><text xml:space="preserve" font-family="HelveticaNeue-Light" font-size="50.0" fill="#FEFFFE" transform="matrix(1.00, 0.00, -0.00, -1.00, 877.6, 160.0)">s</text><text xml:space="preserve" font-family="HelveticaNeue-Light" font-size="50.0" fill="#FEFFFE" transform="matrix(1.00, 0.00, -0.00, -1.00, 901.7, 160.0)">i</text><text xml:space="preserve" font-family="HelveticaNeue-Light" font-size="50.0" fill="#FEFFFE" transform="matrix(1.00, 0.00, -0.00, -1.00, 910.9, 160.0)">o</text><text xml:space="preserve" font-family="HelveticaNeue-Light" font-size="50.0" fill="#FEFFFE" transform="matrix(1.00, 0.00, -0.00, -1.00, 938.7, 160.0)">n</text><text xml:space="preserve" font-family="HelveticaNeue-Light" font-size="50.0" fill="#FEFFFE" transform="matrix(1.00, 0.00, -0.00, -1.00, 965.6, 160.0)"> </text><text xml:space="preserve" font-family="HelveticaNeue-Light" font-size="50.0" fill="#FEFFFE" transform="matrix(1.00, 0.00, -0.00, -1.00, 979.5, 160.0)">c</text><text xml:space="preserve" font-family="HelveticaNeue-Light" font-size="50.0" fill="#FEFFFE" transform="matrix(1.00, 0.00, -0.00, -1.00, 1005.4, 160.0)">y</text><text xml:space="preserve" font-family="HelveticaNeue-Light" font-size="50.0" fill="#FEFFFE" transform="matrix(1.00, 0.00, -0.00, -1.00, 1028.6, 160.0)">c</text><text xml:space="preserve" font-family="HelveticaNeue-Light" font-size="50.0" fill="#FEFFFE" transform="matrix(1.00, 0.00, -0.00, -1.00, 1054.5, 160.0)">l</text><text xml:space="preserve" font-family="HelveticaNeue-Light" font-size="50.0" fill="#FEFFFE" transform="matrix(1.00, 0.00, -0.00, -1.00, 1063.8, 160.0)">e</text><text xml:space="preserve" font-family="HelveticaNeue-Light" font-size="50.0" fill="#FEFFFE" transform="matrix(1.00, 0.00, -0.00, -1.00, 1089.8, 160.0)">s</text><text xml:space="preserve" font-family="HelveticaNeue-Light" font-size="50.0" fill="#FEFFFE" transform="matrix(1.00, 0.00, -0.00, -1.00, 1113.8, 160.0)">!</text><text xml:space="preserve" font-family="HelveticaNeue-Light" font-size="50.0" fill="#FEFFFE" transform="matrix(1.00, 0.00, -0.00, -1.00, 1125.8, 160.0)">!</text><text xml:space="preserve" font-family="HelveticaNeue-Light" font-size="50.0" fill="#FEFFFE" transform="matrix(1.00, 0.00, -0.00, -1.00, 1137.9, 160.0)">!</text></g></svg>