<?xml version="1.0" encoding="UTF-8" standalone="no"?><svg xmlns="http://www.w3.org/2000/svg" xmlns:xlink="http://www.w3.org/1999/xlink" clip-rule="evenodd" stroke-miterlimit="4.00" viewBox="0 0 1920 1080"><desc>SVG generated by Keynote</desc><defs></defs><g transform="matrix(1.00, 0.00, -0.00, -1.00, 0.0, 1080.0)"><g><clipPath id="clip-0"><path d="M 0.0 1080.0 L 1920.0 1080.0 L 1920.0 0.0 L 0.0 0.0 Z M 0.0 1080.0 "></path></clipPath><g clip-path="url(#clip-0)"><image xlink:href="4B0075050CC9D0F3DC006F0CDE78D676.jpeg" width="1365.00" height="767.00" transform="matrix(1.41, 0.00, -0.00, -1.41, 0.0, 1080.0)"></image></g></g><image xlink:href="43EAA2547B44DB23C3175B28C2B42CC0.png" width="1326.00" height="99.00" transform="matrix(1.00, 0.00, -0.00, -1.00, 123.0, 649.0)"></image><text xml:space="preserve" font-family="HelveticaNeue-Light" font-size="100.0" fill="#FEFFFE" transform="matrix(1.00, 0.00, -0.00, -1.00, 120.0, 576.0)">B</text><text xml:space="preserve" font-family="HelveticaNeue-Light" font-size="100.0" fill="#FEFFFE" transform="matrix(1.00, 0.00, -0.00, -1.00, 186.7, 576.0)">e</text><text xml:space="preserve" font-family="HelveticaNeue-Light" font-size="100.0" fill="#FEFFFE" transform="matrix(1.00, 0.00, -0.00, -1.00, 238.6, 576.0)">s</text><text xml:space="preserve" font-family="HelveticaNeue-Light" font-size="100.0" fill="#FEFFFE" transform="matrix(1.00, 0.00, -0.00, -1.00, 286.7, 576.0)">t</text><text xml:space="preserve" font-family="HelveticaNeue-Light" font-size="100.0" fill="#FEFFFE" transform="matrix(1.00, 0.00, -0.00, -1.00, 316.3, 576.0)"> </text><text xml:space="preserve" font-family="HelveticaNeue-Light" font-size="100.0" fill="#FEFFFE" transform="matrix(1.00, 0.00, -0.00, -1.00, 344.1, 576.0)">P</text><text xml:space="preserve" font-family="HelveticaNeue-Light" font-size="100.0" fill="#FEFFFE" transform="matrix(1.00, 0.00, -0.00, -1.00, 407.1, 576.0)">r</text><text xml:space="preserve" font-family="HelveticaNeue-Light" font-size="100.0" fill="#FEFFFE" transform="matrix(1.00, 0.00, -0.00, -1.00, 438.6, 576.0)">a</text><text xml:space="preserve" font-family="HelveticaNeue-Light" font-size="100.0" fill="#FEFFFE" transform="matrix(1.00, 0.00, -0.00, -1.00, 490.5, 576.0)">c</text><text xml:space="preserve" font-family="HelveticaNeue-Light" font-size="100.0" fill="#FEFFFE" transform="matrix(1.00, 0.00, -0.00, -1.00, 542.4, 576.0)">t</text><text xml:space="preserve" font-family="HelveticaNeue-Light" font-size="100.0" fill="#FEFFFE" transform="matrix(1.00, 0.00, -0.00, -1.00, 572.0, 576.0)">i</text><text xml:space="preserve" font-family="HelveticaNeue-Light" font-size="100.0" fill="#FEFFFE" transform="matrix(1.00, 0.00, -0.00, -1.00, 590.5, 576.0)">c</text><text xml:space="preserve" font-family="HelveticaNeue-Light" font-size="100.0" fill="#FEFFFE" transform="matrix(1.00, 0.00, -0.00, -1.00, 642.4, 576.0)">e</text><text xml:space="preserve" font-family="HelveticaNeue-Light" font-size="100.0" fill="#FEFFFE" transform="matrix(1.00, 0.00, -0.00, -1.00, 694.3, 576.0)">s</text><text xml:space="preserve" font-family="HelveticaNeue-Light" font-size="100.0" fill="#FEFFFE" transform="matrix(1.00, 0.00, -0.00, -1.00, 742.4, 576.0)"> </text><text xml:space="preserve" font-family="HelveticaNeue-Light" font-size="100.0" fill="#FEFFFE" transform="matrix(1.00, 0.00, -0.00, -1.00, 770.2, 576.0)">i</text><text xml:space="preserve" font-family="HelveticaNeue-Light" font-size="100.0" fill="#FEFFFE" transform="matrix(1.00, 0.00, -0.00, -1.00, 788.7, 576.0)">n</text><text xml:space="preserve" font-family="HelveticaNeue-Light" font-size="100.0" fill="#FEFFFE" transform="matrix(1.00, 0.00, -0.00, -1.00, 842.4, 576.0)"> </text><text xml:space="preserve" font-family="HelveticaNeue-Light" font-size="100.0" fill="#FEFFFE" transform="matrix(1.00, 0.00, -0.00, -1.00, 870.2, 576.0)">D</text><text xml:space="preserve" font-family="HelveticaNeue-Light" font-size="100.0" fill="#FEFFFE" transform="matrix(1.00, 0.00, -0.00, -1.00, 938.7, 576.0)">a</text><text xml:space="preserve" font-family="HelveticaNeue-Light" font-size="100.0" fill="#FEFFFE" transform="matrix(1.00, 0.00, -0.00, -1.00, 990.6, 576.0)">t</text><text xml:space="preserve" font-family="HelveticaNeue-Light" font-size="100.0" fill="#FEFFFE" transform="matrix(1.00, 0.00, -0.00, -1.00, 1020.2, 576.0)">a</text><text xml:space="preserve" font-family="HelveticaNeue-Light" font-size="100.0" fill="#FEFFFE" transform="matrix(1.00, 0.00, -0.00, -1.00, 1072.1, 576.0)"> </text><text xml:space="preserve" font-family="HelveticaNeue-Light" font-size="100.0" fill="#FEFFFE" transform="matrix(1.00, 0.00, -0.00, -1.00, 1099.9, 576.0)">A</text><text xml:space="preserve" font-family="HelveticaNeue-Light" font-size="100.0" fill="#FEFFFE" transform="matrix(1.00, 0.00, -0.00, -1.00, 1162.9, 576.0)">n</text><text xml:space="preserve" font-family="HelveticaNeue-Light" font-size="100.0" fill="#FEFFFE" transform="matrix(1.00, 0.00, -0.00, -1.00, 1216.6, 576.0)">a</text><text xml:space="preserve" font-family="HelveticaNeue-Light" font-size="100.0" fill="#FEFFFE" transform="matrix(1.00, 0.00, -0.00, -1.00, 1268.5, 576.0)">l</text><text xml:space="preserve" font-family="HelveticaNeue-Light" font-size="100.0" fill="#FEFFFE" transform="matrix(1.00, 0.00, -0.00, -1.00, 1287.0, 576.0)">y</text><text xml:space="preserve" font-family="HelveticaNeue-Light" font-size="100.0" fill="#FEFFFE" transform="matrix(1.00, 0.00, -0.00, -1.00, 1333.3, 576.0)">s</text><text xml:space="preserve" font-family="HelveticaNeue-Light" font-size="100.0" fill="#FEFFFE" transform="matrix(1.00, 0.00, -0.00, -1.00, 1381.4, 576.0)">i</text><text xml:space="preserve" font-family="HelveticaNeue-Light" font-size="100.0" fill="#FEFFFE" transform="matrix(1.00, 0.00, -0.00, -1.00, 1399.9, 576.0)">s</text><image xlink:href="E0D246C12A512F2585E8CF4F1A0451F7.png" width="555.00" height="62.00" transform="matrix(1.00, 0.00, -0.00, -1.00, 115.0, 524.0)"></image><text xml:space="preserve" font-family="HelveticaNeue-Light" font-size="58.0" fill="#73BFFF" transform="matrix(1.00, 0.00, -0.00, -1.00, 120.0, 481.0)">A</text><text xml:space="preserve" font-family="HelveticaNeue-Light" font-size="58.0" fill="#73BFFF" transform="matrix(1.00, 0.00, -0.00, -1.00, 156.5, 481.0)">b</text><text xml:space="preserve" font-family="HelveticaNeue-Light" font-size="58.0" fill="#73BFFF" transform="matrix(1.00, 0.00, -0.00, -1.00, 189.8, 481.0)">h</text><text xml:space="preserve" font-family="HelveticaNeue-Light" font-size="58.0" fill="#73BFFF" transform="matrix(1.00, 0.00, -0.00, -1.00, 221.0, 481.0)">i</text><text xml:space="preserve" font-family="HelveticaNeue-Light" font-size="58.0" fill="#73BFFF" transform="matrix(1.00, 0.00, -0.00, -1.00, 231.7, 481.0)">j</text><text xml:space="preserve" font-family="HelveticaNeue-Light" font-size="58.0" fill="#73BFFF" transform="matrix(1.00, 0.00, -0.00, -1.00, 242.4, 481.0)">i</text><text xml:space="preserve" font-family="HelveticaNeue-Light" font-size="58.0" fill="#73BFFF" transform="matrix(1.00, 0.00, -0.00, -1.00, 253.2, 481.0)">t</text><text xml:space="preserve" font-family="HelveticaNeue-Light" font-size="58.0" fill="#73BFFF" transform="matrix(1.00, 0.00, -0.00, -1.00, 270.3, 481.0)"> </text><text xml:space="preserve" font-family="HelveticaNeue-Light" font-size="58.0" fill="#73BFFF" transform="matrix(1.00, 0.00, -0.00, -1.00, 286.5, 481.0)">D</text><text xml:space="preserve" font-family="HelveticaNeue-Light" font-size="58.0" fill="#73BFFF" transform="matrix(1.00, 0.00, -0.00, -1.00, 326.2, 481.0)">a</text><text xml:space="preserve" font-family="HelveticaNeue-Light" font-size="58.0" fill="#73BFFF" transform="matrix(1.00, 0.00, -0.00, -1.00, 356.3, 481.0)">s</text><text xml:space="preserve" font-family="HelveticaNeue-Light" font-size="58.0" fill="#73BFFF" transform="matrix(1.00, 0.00, -0.00, -1.00, 384.2, 481.0)">g</text><text xml:space="preserve" font-family="HelveticaNeue-Light" font-size="58.0" fill="#73BFFF" transform="matrix(1.00, 0.00, -0.00, -1.00, 416.4, 481.0)">u</text><text xml:space="preserve" font-family="HelveticaNeue-Light" font-size="58.0" fill="#73BFFF" transform="matrix(1.00, 0.00, -0.00, -1.00, 447.6, 481.0)">p</text><text xml:space="preserve" font-family="HelveticaNeue-Light" font-size="58.0" fill="#73BFFF" transform="matrix(1.00, 0.00, -0.00, -1.00, 480.9, 481.0)">t</text><text xml:space="preserve" font-family="HelveticaNeue-Light" font-size="58.0" fill="#73BFFF" transform="matrix(1.00, 0.00, -0.00, -1.00, 498.0, 481.0)">a</text><text xml:space="preserve" font-family="HelveticaNeue-Light" font-size="58.0" fill="#73BFFF" transform="matrix(1.00, 0.00, -0.00, -1.00, 528.1, 481.0)">,</text><text xml:space="preserve" font-family="HelveticaNeue-Light" font-size="58.0" fill="#73BFFF" transform="matrix(1.00, 0.00, -0.00, -1.00, 544.3, 481.0)"> </text><text xml:space="preserve" font-family="HelveticaNeue-Light" font-size="58.0" fill="#73BFFF" transform="matrix(1.00, 0.00, -0.00, -1.00, 560.4, 481.0)">P</text><text xml:space="preserve" font-family="HelveticaNeue-Light" font-size="58.0" fill="#73BFFF" transform="matrix(1.00, 0.00, -0.00, -1.00, 596.9, 481.0)">h</text><text xml:space="preserve" font-family="HelveticaNeue-Light" font-size="58.0" fill="#73BFFF" transform="matrix(1.00, 0.00, -0.00, -1.00, 628.1, 481.0)">D</text><text xml:space="preserve" font-family="HelveticaNeue-Light" font-size="58.0" fill="#73BFFF" transform="matrix(1.00, 0.00, -0.00, -1.00, 667.8, 481.0)"> </text><image xlink:href="C4E1A9EECD098D90F98C2F46FFCBFBC6.png" width="288.00" height="52.00" transform="matrix(1.00, 0.00, -0.00, -1.00, 115.0, 455.0)"></image><text xml:space="preserve" font-family="HelveticaNeue-Light" font-size="58.0" fill="#73BFFF" transform="matrix(1.00, 0.00, -0.00, -1.00, 120.0, 411.0)">A</text><text xml:space="preserve" font-family="HelveticaNeue-Light" font-size="58.0" fill="#73BFFF" transform="matrix(1.00, 0.00, -0.00, -1.00, 156.5, 411.0)">R</text><text xml:space="preserve" font-family="HelveticaNeue-Light" font-size="58.0" fill="#73BFFF" transform="matrix(1.00, 0.00, -0.00, -1.00, 195.2, 411.0)">A</text><text xml:space="preserve" font-family="HelveticaNeue-Light" font-size="58.0" fill="#73BFFF" transform="matrix(1.00, 0.00, -0.00, -1.00, 231.8, 411.0)">A</text><text xml:space="preserve" font-family="HelveticaNeue-Light" font-size="58.0" fill="#73BFFF" transform="matrix(1.00, 0.00, -0.00, -1.00, 268.3, 411.0)">S</text><text xml:space="preserve" font-family="HelveticaNeue-Light" font-size="58.0" fill="#73BFFF" transform="matrix(1.00, 0.00, -0.00, -1.00, 304.8, 411.0)">T</text><text xml:space="preserve" font-family="HelveticaNeue-Light" font-size="58.0" fill="#73BFFF" transform="matrix(1.00, 0.00, -0.00, -1.00, 333.1, 411.0)">A</text><text xml:space="preserve" font-family="HelveticaNeue-Light" font-size="58.0" fill="#73BFFF" transform="matrix(1.00, 0.00, -0.00, -1.00, 365.7, 411.0)">T</text><image xlink:href="C81BC77B99C0C05E3B0FBF9F6F933406.png" width="226.00" height="40.00" transform="matrix(1.00, 0.00, -0.00, -1.00, 198.0, 167.0)"></image><text xml:space="preserve" font-family="HelveticaNeue-Light" font-size="43.0" fill="#FEFFFE" transform="matrix(1.00, 0.00, -0.00, -1.00, 202.0, 135.0)">w</text><text xml:space="preserve" font-family="HelveticaNeue-Light" font-size="43.0" fill="#FEFFFE" transform="matrix(1.00, 0.00, -0.00, -1.00, 233.9, 135.0)">e</text><text xml:space="preserve" font-family="HelveticaNeue-Light" font-size="43.0" fill="#FEFFFE" transform="matrix(1.00, 0.00, -0.00, -1.00, 256.2, 135.0)">b</text><text xml:space="preserve" font-family="HelveticaNeue-Light" font-size="43.0" fill="#FEFFFE" transform="matrix(1.00, 0.00, -0.00, -1.00, 280.9, 135.0)">b</text><text xml:space="preserve" font-family="HelveticaNeue-Light" font-size="43.0" fill="#FEFFFE" transform="matrix(1.00, 0.00, -0.00, -1.00, 305.5, 135.0)">e</text><text xml:space="preserve" font-family="HelveticaNeue-Light" font-size="43.0" fill="#FEFFFE" transform="matrix(1.00, 0.00, -0.00, -1.00, 327.9, 135.0)">d</text><text xml:space="preserve" font-family="HelveticaNeue-Light" font-size="43.0" fill="#FEFFFE" transform="matrix(1.00, 0.00, -0.00, -1.00, 352.5, 135.0)">f</text><text xml:space="preserve" font-family="HelveticaNeue-Light" font-size="43.0" fill="#FEFFFE" transform="matrix(1.00, 0.00, -0.00, -1.00, 363.7, 135.0)">e</text><text xml:space="preserve" font-family="HelveticaNeue-Light" font-size="43.0" fill="#FEFFFE" transform="matrix(1.00, 0.00, -0.00, -1.00, 386.0, 135.0)">e</text><text xml:space="preserve" font-family="HelveticaNeue-Light" font-size="43.0" fill="#FEFFFE" transform="matrix(1.00, 0.00, -0.00, -1.00, 408.3, 135.0)">t</text><image xlink:href="B7261A1237830D5B46F8B7767175EDB9.png" width="61.00" height="61.00" transform="matrix(1.00, 0.00, -0.00, -1.00, 125.0, 179.0)"></image><image xlink:href="F98F8469A85B1FBD773D92DAF62CAFFC.png" width="50.00" height="50.00" transform="matrix(1.00, 0.00, -0.00, -1.00, 130.0, 97.0)"></image><text xml:space="preserve" font-family="FontAwesome" font-size="42.0" fill="#FEFFFE" transform="matrix(1.00, 0.00, -0.00, -1.00, 134.0, 60.0)"></text><image xlink:href="F4867DB13CEF06F733CB91AA15817CBA.png" width="479.00" height="49.00" transform="matrix(1.00, 0.00, -0.00, -1.00, 201.0, 91.0)"></image><text xml:space="preserve" font-family="HelveticaNeue-Light" font-size="43.0" fill="#FEFFFE" transform="matrix(1.00, 0.00, -0.00, -1.00, 204.0, 58.0)">a</text><text xml:space="preserve" font-family="HelveticaNeue-Light" font-size="43.0" fill="#FEFFFE" transform="matrix(1.00, 0.00, -0.00, -1.00, 226.3, 58.0)">d</text><text xml:space="preserve" font-family="HelveticaNeue-Light" font-size="43.0" fill="#FEFFFE" transform="matrix(1.00, 0.00, -0.00, -1.00, 251.0, 58.0)">a</text><text xml:space="preserve" font-family="HelveticaNeue-Light" font-size="43.0" fill="#FEFFFE" transform="matrix(1.00, 0.00, -0.00, -1.00, 273.3, 58.0)">s</text><text xml:space="preserve" font-family="HelveticaNeue-Light" font-size="43.0" fill="#FEFFFE" transform="matrix(1.00, 0.00, -0.00, -1.00, 294.0, 58.0)">g</text><text xml:space="preserve" font-family="HelveticaNeue-Light" font-size="43.0" fill="#FEFFFE" transform="matrix(1.00, 0.00, -0.00, -1.00, 317.9, 58.0)">u</text><text xml:space="preserve" font-family="HelveticaNeue-Light" font-size="43.0" fill="#FEFFFE" transform="matrix(1.00, 0.00, -0.00, -1.00, 341.0, 58.0)">p</text><text xml:space="preserve" font-family="HelveticaNeue-Light" font-size="43.0" fill="#FEFFFE" transform="matrix(1.00, 0.00, -0.00, -1.00, 365.7, 58.0)">t</text><text xml:space="preserve" font-family="HelveticaNeue-Light" font-size="43.0" fill="#FEFFFE" transform="matrix(1.00, 0.00, -0.00, -1.00, 378.4, 58.0)">a</text><text xml:space="preserve" font-family="HelveticaNeue-Light" font-size="43.0" fill="#FEFFFE" transform="matrix(1.00, 0.00, -0.00, -1.00, 400.7, 58.0)">@</text><text xml:space="preserve" font-family="HelveticaNeue-Light" font-size="43.0" fill="#FEFFFE" transform="matrix(1.00, 0.00, -0.00, -1.00, 435.1, 58.0)">a</text><text xml:space="preserve" font-family="HelveticaNeue-Light" font-size="43.0" fill="#FEFFFE" transform="matrix(1.00, 0.00, -0.00, -1.00, 457.4, 58.0)">r</text><text xml:space="preserve" font-family="HelveticaNeue-Light" font-size="43.0" fill="#FEFFFE" transform="matrix(1.00, 0.00, -0.00, -1.00, 471.0, 58.0)">a</text><text xml:space="preserve" font-family="HelveticaNeue-Light" font-size="43.0" fill="#FEFFFE" transform="matrix(1.00, 0.00, -0.00, -1.00, 493.3, 58.0)">a</text><text xml:space="preserve" font-family="HelveticaNeue-Light" font-size="43.0" fill="#FEFFFE" transform="matrix(1.00, 0.00, -0.00, -1.00, 515.6, 58.0)">s</text><text xml:space="preserve" font-family="HelveticaNeue-Light" font-size="43.0" fill="#FEFFFE" transform="matrix(1.00, 0.00, -0.00, -1.00, 536.3, 58.0)">t</text><text xml:space="preserve" font-family="HelveticaNeue-Light" font-size="43.0" fill="#FEFFFE" transform="matrix(1.00, 0.00, -0.00, -1.00, 549.0, 58.0)">a</text><text xml:space="preserve" font-family="HelveticaNeue-Light" font-size="43.0" fill="#FEFFFE" transform="matrix(1.00, 0.00, -0.00, -1.00, 571.3, 58.0)">t</text><text xml:space="preserve" font-family="HelveticaNeue-Light" font-size="43.0" fill="#FEFFFE" transform="matrix(1.00, 0.00, -0.00, -1.00, 584.1, 58.0)">.</text><text xml:space="preserve" font-family="HelveticaNeue-Light" font-size="43.0" fill="#FEFFFE" transform="matrix(1.00, 0.00, -0.00, -1.00, 596.0, 58.0)">c</text><text xml:space="preserve" font-family="HelveticaNeue-Light" font-size="43.0" fill="#FEFFFE" transform="matrix(1.00, 0.00, -0.00, -1.00, 618.3, 58.0)">o</text><text xml:space="preserve" font-family="HelveticaNeue-Light" font-size="43.0" fill="#FEFFFE" transform="matrix(1.00, 0.00, -0.00, -1.00, 642.3, 58.0)">m</text><g><clipPath id="clip-1"><path d="M 202.8 52.0 L 677.9 52.0 L 677.9 56.1 L 202.8 56.1 Z M 202.8 52.0 "></path></clipPath><g clip-path="url(#clip-1)"><path d="M 4.5 49.9 L 478.6 49.9 " fill="none" stroke="#FEFFFE" stroke-width="2.15" stroke-miterlimit="0.00" transform="matrix(1.00, 0.00, 0.00, -1.00, 199.3, 103.9)"></path></g></g><image xlink:href="5594B9E98D06EFEF928F65D80AC45F4A.png" width="801.00" height="49.00" transform="matrix(1.00, 0.00, -0.00, -1.00, 199.0, 263.0)"></image><text xml:space="preserve" font-family="HelveticaNeue-Light" font-size="43.0" fill="#FEFFFE" transform="matrix(1.00, 0.00, -0.00, -1.00, 201.0, 230.0)">l</text><text xml:space="preserve" font-family="HelveticaNeue-Light" font-size="43.0" fill="#FEFFFE" transform="matrix(1.00, 0.00, -0.00, -1.00, 209.0, 230.0)">i</text><text xml:space="preserve" font-family="HelveticaNeue-Light" font-size="43.0" fill="#FEFFFE" transform="matrix(1.00, 0.00, -0.00, -1.00, 216.9, 230.0)">n</text><text xml:space="preserve" font-family="HelveticaNeue-Light" font-size="43.0" fill="#FEFFFE" transform="matrix(1.00, 0.00, -0.00, -1.00, 240.0, 230.0)">k</text><text xml:space="preserve" font-family="HelveticaNeue-Light" font-size="43.0" fill="#FEFFFE" transform="matrix(1.00, 0.00, -0.00, -1.00, 261.5, 230.0)">e</text><text xml:space="preserve" font-family="HelveticaNeue-Light" font-size="43.0" fill="#FEFFFE" transform="matrix(1.00, 0.00, -0.00, -1.00, 283.8, 230.0)">d</text><text xml:space="preserve" font-family="HelveticaNeue-Light" font-size="43.0" fill="#FEFFFE" transform="matrix(1.00, 0.00, -0.00, -1.00, 308.5, 230.0)">i</text><text xml:space="preserve" font-family="HelveticaNeue-Light" font-size="43.0" fill="#FEFFFE" transform="matrix(1.00, 0.00, -0.00, -1.00, 316.5, 230.0)">n</text><text xml:space="preserve" font-family="HelveticaNeue-Light" font-size="43.0" fill="#FEFFFE" transform="matrix(1.00, 0.00, -0.00, -1.00, 339.5, 230.0)">.</text><text xml:space="preserve" font-family="HelveticaNeue-Light" font-size="43.0" fill="#FEFFFE" transform="matrix(1.00, 0.00, -0.00, -1.00, 351.5, 230.0)">c</text><text xml:space="preserve" font-family="HelveticaNeue-Light" font-size="43.0" fill="#FEFFFE" transform="matrix(1.00, 0.00, -0.00, -1.00, 373.8, 230.0)">o</text><text xml:space="preserve" font-family="HelveticaNeue-Light" font-size="43.0" fill="#FEFFFE" transform="matrix(1.00, 0.00, -0.00, -1.00, 397.7, 230.0)">m</text><text xml:space="preserve" font-family="HelveticaNeue-Light" font-size="43.0" fill="#FEFFFE" transform="matrix(1.00, 0.00, -0.00, -1.00, 433.5, 230.0)">/</text><text xml:space="preserve" font-family="HelveticaNeue-Light" font-size="43.0" fill="#FEFFFE" transform="matrix(1.00, 0.00, -0.00, -1.00, 447.9, 230.0)">i</text><text xml:space="preserve" font-family="HelveticaNeue-Light" font-size="43.0" fill="#FEFFFE" transform="matrix(1.00, 0.00, -0.00, -1.00, 455.8, 230.0)">n</text><text xml:space="preserve" font-family="HelveticaNeue-Light" font-size="43.0" fill="#FEFFFE" transform="matrix(1.00, 0.00, -0.00, -1.00, 478.9, 230.0)">/</text><text xml:space="preserve" font-family="HelveticaNeue-Light" font-size="43.0" fill="#FEFFFE" transform="matrix(1.00, 0.00, -0.00, -1.00, 493.2, 230.0)">a</text><text xml:space="preserve" font-family="HelveticaNeue-Light" font-size="43.0" fill="#FEFFFE" transform="matrix(1.00, 0.00, -0.00, -1.00, 515.5, 230.0)">b</text><text xml:space="preserve" font-family="HelveticaNeue-Light" font-size="43.0" fill="#FEFFFE" transform="matrix(1.00, 0.00, -0.00, -1.00, 540.2, 230.0)">h</text><text xml:space="preserve" font-family="HelveticaNeue-Light" font-size="43.0" fill="#FEFFFE" transform="matrix(1.00, 0.00, -0.00, -1.00, 563.3, 230.0)">i</text><text xml:space="preserve" font-family="HelveticaNeue-Light" font-size="43.0" fill="#FEFFFE" transform="matrix(1.00, 0.00, -0.00, -1.00, 571.3, 230.0)">j</text><text xml:space="preserve" font-family="HelveticaNeue-Light" font-size="43.0" fill="#FEFFFE" transform="matrix(1.00, 0.00, -0.00, -1.00, 579.2, 230.0)">i</text><text xml:space="preserve" font-family="HelveticaNeue-Light" font-size="43.0" fill="#FEFFFE" transform="matrix(1.00, 0.00, -0.00, -1.00, 587.2, 230.0)">t</text><text xml:space="preserve" font-family="HelveticaNeue-Light" font-size="43.0" fill="#FEFFFE" transform="matrix(1.00, 0.00, -0.00, -1.00, 599.9, 230.0)">-</text><text xml:space="preserve" font-family="HelveticaNeue-Light" font-size="43.0" fill="#FEFFFE" transform="matrix(1.00, 0.00, -0.00, -1.00, 615.8, 230.0)">d</text><text xml:space="preserve" font-family="HelveticaNeue-Light" font-size="43.0" fill="#FEFFFE" transform="matrix(1.00, 0.00, -0.00, -1.00, 640.5, 230.0)">a</text><text xml:space="preserve" font-family="HelveticaNeue-Light" font-size="43.0" fill="#FEFFFE" transform="matrix(1.00, 0.00, -0.00, -1.00, 662.8, 230.0)">s</text><text xml:space="preserve" font-family="HelveticaNeue-Light" font-size="43.0" fill="#FEFFFE" transform="matrix(1.00, 0.00, -0.00, -1.00, 683.5, 230.0)">g</text><text xml:space="preserve" font-family="HelveticaNeue-Light" font-size="43.0" fill="#FEFFFE" transform="matrix(1.00, 0.00, -0.00, -1.00, 707.4, 230.0)">u</text><text xml:space="preserve" font-family="HelveticaNeue-Light" font-size="43.0" fill="#FEFFFE" transform="matrix(1.00, 0.00, -0.00, -1.00, 730.5, 230.0)">p</text><text xml:space="preserve" font-family="HelveticaNeue-Light" font-size="43.0" fill="#FEFFFE" transform="matrix(1.00, 0.00, -0.00, -1.00, 755.2, 230.0)">t</text><text xml:space="preserve" font-family="HelveticaNeue-Light" font-size="43.0" fill="#FEFFFE" transform="matrix(1.00, 0.00, -0.00, -1.00, 767.9, 230.0)">a</text><text xml:space="preserve" font-family="HelveticaNeue-Light" font-size="43.0" fill="#FEFFFE" transform="matrix(1.00, 0.00, -0.00, -1.00, 790.2, 230.0)">-</text><text xml:space="preserve" font-family="HelveticaNeue-Light" font-size="43.0" fill="#FEFFFE" transform="matrix(1.00, 0.00, -0.00, -1.00, 806.1, 230.0)">7</text><text xml:space="preserve" font-family="HelveticaNeue-Light" font-size="43.0" fill="#FEFFFE" transform="matrix(1.00, 0.00, -0.00, -1.00, 830.0, 230.0)">0</text><text xml:space="preserve" font-family="HelveticaNeue-Light" font-size="43.0" fill="#FEFFFE" transform="matrix(1.00, 0.00, -0.00, -1.00, 854.0, 230.0)">1</text><text xml:space="preserve" font-family="HelveticaNeue-Light" font-size="43.0" fill="#FEFFFE" transform="matrix(1.00, 0.00, -0.00, -1.00, 877.9, 230.0)">9</text><text xml:space="preserve" font-family="HelveticaNeue-Light" font-size="43.0" fill="#FEFFFE" transform="matrix(1.00, 0.00, -0.00, -1.00, 901.8, 230.0)">7</text><text xml:space="preserve" font-family="HelveticaNeue-Light" font-size="43.0" fill="#FEFFFE" transform="matrix(1.00, 0.00, -0.00, -1.00, 925.7, 230.0)">7</text><text xml:space="preserve" font-family="HelveticaNeue-Light" font-size="43.0" fill="#FEFFFE" transform="matrix(1.00, 0.00, -0.00, -1.00, 949.6, 230.0)">1</text><text xml:space="preserve" font-family="HelveticaNeue-Light" font-size="43.0" fill="#FEFFFE" transform="matrix(1.00, 0.00, -0.00, -1.00, 973.5, 230.0)">3</text><image xlink:href="F302069D4E30C22ECA5CDE4B48EC1B39.png" width="50.00" height="49.00" transform="matrix(1.00, 0.00, -0.00, -1.00, 130.0, 268.0)"></image></g></svg>