<?xml version="1.0" encoding="UTF-8" standalone="no"?><svg xmlns="http://www.w3.org/2000/svg" xmlns:xlink="http://www.w3.org/1999/xlink" clip-rule="evenodd" stroke-miterlimit="4.00" viewBox="0 0 612 491"><desc>SVG generated by Keynote</desc><defs></defs><g transform="matrix(1.00, 0.00, -0.00, -1.00, 0.0, 491.0)"><image xlink:href="../../077543C8-1A3F-406E-9593-99609A063235/assets/D78D93A8DEE9B68D58E2A0BAEAF9F97F.png" width="18.00" height="18.00" transform="matrix(1.00, 0.00, -0.00, -1.00, 4.0, 479.0)"></image><g><clipPath id="clip-1373"><path d="M 4.0 461.1 L 21.6 461.1 L 21.6 478.8 L 4.0 478.8 Z M 4.0 461.1 "></path></clipPath><g clip-path="url(#clip-1373)"><g><g><clipPath id="clip-1374"><path d="M 4.0 478.8 L 21.6 478.8 L 21.6 461.1 L 4.0 461.1 Z M 4.0 478.8 "></path></clipPath><g clip-path="url(#clip-1374)"><g><clipPath id="clip-1375"><path d="M 0.0 454.0 L 26.0 454.0 L 26.0 486.0 L 0.0 486.0 Z M 0.0 454.0 "></path></clipPath><g clip-path="url(#clip-1375)"><path d="M 21.6 475.3 C 21.6 476.0 21.2 476.8 20.5 477.6 C 19.8 478.4 19.0 478.8 18.1 478.8 C 17.7 478.8 17.1 478.6 16.2 478.2 C 14.9 477.5 13.7 477.2 12.8 477.2 C 11.8 477.2 10.6 477.5 9.3 478.2 C 8.5 478.6 7.9 478.8 7.4 478.8 C 6.6 478.8 5.8 478.4 5.1 477.6 C 4.4 476.9 4.0 476.1 4.0 475.3 C 4.0 474.8 4.2 474.2 4.6 473.3 C 5.2 472.0 5.5 470.9 5.5 469.9 C 5.5 469.0 5.2 467.9 4.6 466.5 C 4.2 465.7 4.0 465.1 4.0 464.6 C 4.0 463.8 4.4 463.0 5.1 462.2 C 5.8 461.5 6.6 461.1 7.4 461.1 C 7.9 461.1 8.5 461.3 9.3 461.7 C 10.6 462.4 11.8 462.7 12.8 462.7 C 13.7 462.7 14.9 462.4 16.2 461.7 C 17.1 461.3 17.7 461.1 18.1 461.1 C 19.0 461.1 19.8 461.5 20.5 462.2 C 21.2 463.0 21.6 463.8 21.6 464.6 C 21.6 465.1 21.4 465.7 21.0 466.5 C 20.3 467.9 20.0 469.0 20.0 469.9 C 20.0 470.9 20.3 472.0 21.0 473.3 C 21.4 474.2 21.6 474.8 21.6 475.3 " fill="#FFFFFF"></path></g></g></g></g></g></g></g><image xlink:href="../../7DB75823-5C40-482F-9F31-A376713F8125/assets/506710C762A257C8EA954999F76824D8.png" width="518.00" height="45.00" transform="matrix(1.00, 0.00, -0.00, -1.00, 53.0, 490.0)"></image><text xml:space="preserve" font-family="HelveticaNeue-Light" font-size="50.0" fill="#FEFFFE" transform="matrix(1.00, 0.00, -0.00, -1.00, 54.0, 453.0)">B</text><text xml:space="preserve" font-family="HelveticaNeue-Light" font-size="50.0" fill="#FEFFFE" transform="matrix(1.00, 0.00, -0.00, -1.00, 87.3, 453.0)">e</text><text xml:space="preserve" font-family="HelveticaNeue-Light" font-size="50.0" fill="#FEFFFE" transform="matrix(1.00, 0.00, -0.00, -1.00, 113.3, 453.0)"> </text><text xml:space="preserve" font-family="HelveticaNeue-Light" font-size="50.0" fill="#FEFFFE" transform="matrix(1.00, 0.00, -0.00, -1.00, 127.2, 453.0)">ﬂ</text><text xml:space="preserve" font-family="HelveticaNeue-Light" font-size="50.0" fill="#FEFFFE" transform="matrix(1.00, 0.00, -0.00, -1.00, 149.4, 453.0)">u</text><text xml:space="preserve" font-family="HelveticaNeue-Light" font-size="50.0" fill="#FEFFFE" transform="matrix(1.00, 0.00, -0.00, -1.00, 176.2, 453.0)">e</text><text xml:space="preserve" font-family="HelveticaNeue-Light" font-size="50.0" fill="#FEFFFE" transform="matrix(1.00, 0.00, -0.00, -1.00, 202.2, 453.0)">n</text><text xml:space="preserve" font-family="HelveticaNeue-Light" font-size="50.0" fill="#FEFFFE" transform="matrix(1.00, 0.00, -0.00, -1.00, 229.0, 453.0)">t</text><text xml:space="preserve" font-family="HelveticaNeue-Light" font-size="50.0" fill="#FEFFFE" transform="matrix(1.00, 0.00, -0.00, -1.00, 243.8, 453.0)"> </text><text xml:space="preserve" font-family="HelveticaNeue-Light" font-size="50.0" fill="#FEFFFE" transform="matrix(1.00, 0.00, -0.00, -1.00, 257.8, 453.0)">a</text><text xml:space="preserve" font-family="HelveticaNeue-Light" font-size="50.0" fill="#FEFFFE" transform="matrix(1.00, 0.00, -0.00, -1.00, 283.7, 453.0)">n</text><text xml:space="preserve" font-family="HelveticaNeue-Light" font-size="50.0" fill="#FEFFFE" transform="matrix(1.00, 0.00, -0.00, -1.00, 310.6, 453.0)">d</text><text xml:space="preserve" font-family="HelveticaNeue-Light" font-size="50.0" fill="#FEFFFE" transform="matrix(1.00, 0.00, -0.00, -1.00, 339.2, 453.0)"> </text><text xml:space="preserve" font-family="HelveticaNeue-Light" font-size="50.0" fill="#FEFFFE" transform="matrix(1.00, 0.00, -0.00, -1.00, 353.1, 453.0)">c</text><text xml:space="preserve" font-family="HelveticaNeue-Light" font-size="50.0" fill="#FEFFFE" transform="matrix(1.00, 0.00, -0.00, -1.00, 379.1, 453.0)">r</text><text xml:space="preserve" font-family="HelveticaNeue-Light" font-size="50.0" fill="#FEFFFE" transform="matrix(1.00, 0.00, -0.00, -1.00, 393.9, 453.0)">e</text><text xml:space="preserve" font-family="HelveticaNeue-Light" font-size="50.0" fill="#FEFFFE" transform="matrix(1.00, 0.00, -0.00, -1.00, 419.9, 453.0)">a</text><text xml:space="preserve" font-family="HelveticaNeue-Light" font-size="50.0" fill="#FEFFFE" transform="matrix(1.00, 0.00, -0.00, -1.00, 445.8, 453.0)">t</text><text xml:space="preserve" font-family="HelveticaNeue-Light" font-size="50.0" fill="#FEFFFE" transform="matrix(1.00, 0.00, -0.00, -1.00, 460.6, 453.0)">i</text><text xml:space="preserve" font-family="HelveticaNeue-Light" font-size="50.0" fill="#FEFFFE" transform="matrix(1.00, 0.00, -0.00, -1.00, 469.9, 453.0)">v</text><text xml:space="preserve" font-family="HelveticaNeue-Light" font-size="50.0" fill="#FEFFFE" transform="matrix(1.00, 0.00, -0.00, -1.00, 493.0, 453.0)">e</text><text xml:space="preserve" font-family="HelveticaNeue-Light" font-size="50.0" fill="#FEFFFE" transform="matrix(1.00, 0.00, -0.00, -1.00, 519.0, 453.0)"> </text><text xml:space="preserve" font-family="HelveticaNeue-Light" font-size="50.0" fill="#FEFFFE" transform="matrix(1.00, 0.00, -0.00, -1.00, 532.9, 453.0)">i</text><text xml:space="preserve" font-family="HelveticaNeue-Light" font-size="50.0" fill="#FEFFFE" transform="matrix(1.00, 0.00, -0.00, -1.00, 542.1, 453.0)">n</text><text xml:space="preserve" font-family="HelveticaNeue-Light" font-size="50.0" fill="#FEFFFE" transform="matrix(1.00, 0.00, -0.00, -1.00, 569.0, 453.0)"> </text><image xlink:href="../../077543C8-1A3F-406E-9593-99609A063235/assets/D78D93A8DEE9B68D58E2A0BAEAF9F97F.png" width="18.00" height="18.00" transform="matrix(1.00, 0.00, -0.00, -1.00, 54.0, 368.0)"></image><g><clipPath id="clip-1376"><path d="M 54.0 350.1 L 71.6 350.1 L 71.6 367.8 L 54.0 367.8 Z M 54.0 350.1 "></path></clipPath><g clip-path="url(#clip-1376)"><g><g><clipPath id="clip-1377"><path d="M 54.0 367.8 L 71.6 367.8 L 71.6 350.1 L 54.0 350.1 Z M 54.0 367.8 "></path></clipPath><g clip-path="url(#clip-1377)"><g><clipPath id="clip-1378"><path d="M 50.0 343.0 L 76.0 343.0 L 76.0 375.0 L 50.0 375.0 Z M 50.0 343.0 "></path></clipPath><g clip-path="url(#clip-1378)"><path d="M 71.6 364.3 C 71.6 365.0 71.2 365.8 70.5 366.6 C 69.8 367.4 69.0 367.8 68.1 367.8 C 67.7 367.8 67.1 367.6 66.2 367.2 C 64.9 366.5 63.7 366.2 62.8 366.2 C 61.8 366.2 60.6 366.5 59.3 367.2 C 58.5 367.6 57.9 367.8 57.4 367.8 C 56.6 367.8 55.8 367.4 55.1 366.6 C 54.4 365.9 54.0 365.1 54.0 364.3 C 54.0 363.8 54.2 363.2 54.6 362.3 C 55.2 361.0 55.5 359.9 55.5 358.9 C 55.5 358.0 55.2 356.9 54.6 355.5 C 54.2 354.7 54.0 354.1 54.0 353.6 C 54.0 352.8 54.4 352.0 55.1 351.2 C 55.8 350.5 56.6 350.1 57.4 350.1 C 57.9 350.1 58.5 350.3 59.3 350.7 C 60.6 351.4 61.8 351.7 62.8 351.7 C 63.7 351.7 64.9 351.4 66.2 350.7 C 67.1 350.3 67.7 350.1 68.1 350.1 C 69.0 350.1 69.8 350.5 70.5 351.2 C 71.2 352.0 71.6 352.8 71.6 353.6 C 71.6 354.1 71.4 354.7 71.0 355.5 C 70.3 356.9 70.0 358.0 70.0 358.9 C 70.0 359.9 70.3 361.0 71.0 362.3 C 71.4 363.2 71.6 363.8 71.6 364.3 " fill="#FFFFFF"></path></g></g></g></g></g></g></g><image xlink:href="../../7DB75823-5C40-482F-9F31-A376713F8125/assets/3135526D91ED0F868D827C2D1B824795.png" width="496.00" height="55.00" transform="matrix(1.00, 0.00, -0.00, -1.00, 101.0, 379.0)"></image><text xml:space="preserve" font-family="HelveticaNeue-Light" font-size="50.0" fill="#FEFFFE" transform="matrix(1.00, 0.00, -0.00, -1.00, 104.0, 342.0)">s</text><text xml:space="preserve" font-family="HelveticaNeue-Light" font-size="50.0" fill="#FEFFFE" transform="matrix(1.00, 0.00, -0.00, -1.00, 128.1, 342.0)">u</text><text xml:space="preserve" font-family="HelveticaNeue-Light" font-size="50.0" fill="#FEFFFE" transform="matrix(1.00, 0.00, -0.00, -1.00, 154.9, 342.0)">m</text><text xml:space="preserve" font-family="HelveticaNeue-Light" font-size="50.0" fill="#FEFFFE" transform="matrix(1.00, 0.00, -0.00, -1.00, 196.6, 342.0)">m</text><text xml:space="preserve" font-family="HelveticaNeue-Light" font-size="50.0" fill="#FEFFFE" transform="matrix(1.00, 0.00, -0.00, -1.00, 238.2, 342.0)">a</text><text xml:space="preserve" font-family="HelveticaNeue-Light" font-size="50.0" fill="#FEFFFE" transform="matrix(1.00, 0.00, -0.00, -1.00, 264.2, 342.0)">r</text><text xml:space="preserve" font-family="HelveticaNeue-Light" font-size="50.0" fill="#FEFFFE" transform="matrix(1.00, 0.00, -0.00, -1.00, 279.9, 342.0)">i</text><text xml:space="preserve" font-family="HelveticaNeue-Light" font-size="50.0" fill="#FEFFFE" transform="matrix(1.00, 0.00, -0.00, -1.00, 289.2, 342.0)">z</text><text xml:space="preserve" font-family="HelveticaNeue-Light" font-size="50.0" fill="#FEFFFE" transform="matrix(1.00, 0.00, -0.00, -1.00, 312.3, 342.0)">i</text><text xml:space="preserve" font-family="HelveticaNeue-Light" font-size="50.0" fill="#FEFFFE" transform="matrix(1.00, 0.00, -0.00, -1.00, 321.6, 342.0)">n</text><text xml:space="preserve" font-family="HelveticaNeue-Light" font-size="50.0" fill="#FEFFFE" transform="matrix(1.00, 0.00, -0.00, -1.00, 348.4, 342.0)">g</text><text xml:space="preserve" font-family="HelveticaNeue-Light" font-size="50.0" fill="#FEFFFE" transform="matrix(1.00, 0.00, -0.00, -1.00, 376.2, 342.0)"> </text><text xml:space="preserve" font-family="HelveticaNeue-Light" font-size="50.0" fill="#FEFFFE" transform="matrix(1.00, 0.00, -0.00, -1.00, 390.1, 342.0)">y</text><text xml:space="preserve" font-family="HelveticaNeue-Light" font-size="50.0" fill="#FEFFFE" transform="matrix(1.00, 0.00, -0.00, -1.00, 413.2, 342.0)">o</text><text xml:space="preserve" font-family="HelveticaNeue-Light" font-size="50.0" fill="#FEFFFE" transform="matrix(1.00, 0.00, -0.00, -1.00, 441.1, 342.0)">u</text><text xml:space="preserve" font-family="HelveticaNeue-Light" font-size="50.0" fill="#FEFFFE" transform="matrix(1.00, 0.00, -0.00, -1.00, 467.9, 342.0)">r</text><text xml:space="preserve" font-family="HelveticaNeue-Light" font-size="50.0" fill="#FEFFFE" transform="matrix(1.00, 0.00, -0.00, -1.00, 483.7, 342.0)"> </text><text xml:space="preserve" font-family="HelveticaNeue-Light" font-size="50.0" fill="#FEFFFE" transform="matrix(1.00, 0.00, -0.00, -1.00, 497.6, 342.0)">d</text><text xml:space="preserve" font-family="HelveticaNeue-Light" font-size="50.0" fill="#FEFFFE" transform="matrix(1.00, 0.00, -0.00, -1.00, 526.2, 342.0)">a</text><text xml:space="preserve" font-family="HelveticaNeue-Light" font-size="50.0" fill="#FEFFFE" transform="matrix(1.00, 0.00, -0.00, -1.00, 552.2, 342.0)">t</text><text xml:space="preserve" font-family="HelveticaNeue-Light" font-size="50.0" fill="#FEFFFE" transform="matrix(1.00, 0.00, -0.00, -1.00, 567.0, 342.0)">a</text><text xml:space="preserve" font-family="HelveticaNeue-Light" font-size="50.0" fill="#FEFFFE" transform="matrix(1.00, 0.00, -0.00, -1.00, 593.0, 342.0)"> </text><image xlink:href="../../077543C8-1A3F-406E-9593-99609A063235/assets/D78D93A8DEE9B68D58E2A0BAEAF9F97F.png" width="18.00" height="18.00" transform="matrix(1.00, 0.00, -0.00, -1.00, 54.0, 257.0)"></image><g><clipPath id="clip-1379"><path d="M 54.0 239.1 L 71.6 239.1 L 71.6 256.8 L 54.0 256.8 Z M 54.0 239.1 "></path></clipPath><g clip-path="url(#clip-1379)"><g><g><clipPath id="clip-1380"><path d="M 54.0 256.8 L 71.6 256.8 L 71.6 239.1 L 54.0 239.1 Z M 54.0 256.8 "></path></clipPath><g clip-path="url(#clip-1380)"><g><clipPath id="clip-1381"><path d="M 50.0 232.0 L 76.0 232.0 L 76.0 264.0 L 50.0 264.0 Z M 50.0 232.0 "></path></clipPath><g clip-path="url(#clip-1381)"><path d="M 71.6 253.3 C 71.6 254.0 71.2 254.8 70.5 255.6 C 69.8 256.4 69.0 256.8 68.1 256.8 C 67.7 256.8 67.1 256.6 66.2 256.2 C 64.9 255.5 63.7 255.2 62.8 255.2 C 61.8 255.2 60.6 255.5 59.3 256.2 C 58.5 256.6 57.9 256.8 57.4 256.8 C 56.6 256.8 55.8 256.4 55.1 255.6 C 54.4 254.9 54.0 254.1 54.0 253.3 C 54.0 252.8 54.2 252.2 54.6 251.3 C 55.2 250.0 55.5 248.9 55.5 247.9 C 55.5 247.0 55.2 245.9 54.6 244.5 C 54.2 243.7 54.0 243.1 54.0 242.6 C 54.0 241.8 54.4 241.0 55.1 240.2 C 55.8 239.5 56.6 239.1 57.4 239.1 C 57.9 239.1 58.5 239.3 59.3 239.7 C 60.6 240.4 61.8 240.7 62.8 240.7 C 63.7 240.7 64.9 240.4 66.2 239.7 C 67.1 239.3 67.7 239.1 68.1 239.1 C 69.0 239.1 69.8 239.5 70.5 240.2 C 71.2 241.0 71.6 241.8 71.6 242.6 C 71.6 243.1 71.4 243.7 71.0 244.5 C 70.3 245.9 70.0 247.0 70.0 247.9 C 70.0 248.9 70.3 250.0 71.0 251.3 C 71.4 252.2 71.6 252.8 71.6 253.3 " fill="#FFFFFF"></path></g></g></g></g></g></g></g><image xlink:href="../../7DB75823-5C40-482F-9F31-A376713F8125/assets/A3FFB995987D5EDD42925DA7BB2AF5C2.png" width="414.00" height="55.00" transform="matrix(1.00, 0.00, -0.00, -1.00, 100.0, 268.0)"></image><text xml:space="preserve" font-family="HelveticaNeue-Light" font-size="50.0" fill="#FEFFFE" transform="matrix(1.00, 0.00, -0.00, -1.00, 104.0, 231.0)">v</text><text xml:space="preserve" font-family="HelveticaNeue-Light" font-size="50.0" fill="#FEFFFE" transform="matrix(1.00, 0.00, -0.00, -1.00, 127.2, 231.0)">i</text><text xml:space="preserve" font-family="HelveticaNeue-Light" font-size="50.0" fill="#FEFFFE" transform="matrix(1.00, 0.00, -0.00, -1.00, 136.4, 231.0)">s</text><text xml:space="preserve" font-family="HelveticaNeue-Light" font-size="50.0" fill="#FEFFFE" transform="matrix(1.00, 0.00, -0.00, -1.00, 160.4, 231.0)">u</text><text xml:space="preserve" font-family="HelveticaNeue-Light" font-size="50.0" fill="#FEFFFE" transform="matrix(1.00, 0.00, -0.00, -1.00, 187.3, 231.0)">a</text><text xml:space="preserve" font-family="HelveticaNeue-Light" font-size="50.0" fill="#FEFFFE" transform="matrix(1.00, 0.00, -0.00, -1.00, 213.2, 231.0)">l</text><text xml:space="preserve" font-family="HelveticaNeue-Light" font-size="50.0" fill="#FEFFFE" transform="matrix(1.00, 0.00, -0.00, -1.00, 222.5, 231.0)">i</text><text xml:space="preserve" font-family="HelveticaNeue-Light" font-size="50.0" fill="#FEFFFE" transform="matrix(1.00, 0.00, -0.00, -1.00, 231.8, 231.0)">z</text><text xml:space="preserve" font-family="HelveticaNeue-Light" font-size="50.0" fill="#FEFFFE" transform="matrix(1.00, 0.00, -0.00, -1.00, 254.9, 231.0)">i</text><text xml:space="preserve" font-family="HelveticaNeue-Light" font-size="50.0" fill="#FEFFFE" transform="matrix(1.00, 0.00, -0.00, -1.00, 264.1, 231.0)">n</text><text xml:space="preserve" font-family="HelveticaNeue-Light" font-size="50.0" fill="#FEFFFE" transform="matrix(1.00, 0.00, -0.00, -1.00, 291.0, 231.0)">g</text><text xml:space="preserve" font-family="HelveticaNeue-Light" font-size="50.0" fill="#FEFFFE" transform="matrix(1.00, 0.00, -0.00, -1.00, 318.8, 231.0)"> </text><text xml:space="preserve" font-family="HelveticaNeue-Light" font-size="50.0" fill="#FEFFFE" transform="matrix(1.00, 0.00, -0.00, -1.00, 332.7, 231.0)">t</text><text xml:space="preserve" font-family="HelveticaNeue-Light" font-size="50.0" fill="#FEFFFE" transform="matrix(1.00, 0.00, -0.00, -1.00, 347.5, 231.0)">h</text><text xml:space="preserve" font-family="HelveticaNeue-Light" font-size="50.0" fill="#FEFFFE" transform="matrix(1.00, 0.00, -0.00, -1.00, 374.4, 231.0)">e</text><text xml:space="preserve" font-family="HelveticaNeue-Light" font-size="50.0" fill="#FEFFFE" transform="matrix(1.00, 0.00, -0.00, -1.00, 400.3, 231.0)"> </text><text xml:space="preserve" font-family="HelveticaNeue-Light" font-size="50.0" fill="#FEFFFE" transform="matrix(1.00, 0.00, -0.00, -1.00, 414.2, 231.0)">d</text><text xml:space="preserve" font-family="HelveticaNeue-Light" font-size="50.0" fill="#FEFFFE" transform="matrix(1.00, 0.00, -0.00, -1.00, 442.9, 231.0)">a</text><text xml:space="preserve" font-family="HelveticaNeue-Light" font-size="50.0" fill="#FEFFFE" transform="matrix(1.00, 0.00, -0.00, -1.00, 468.8, 231.0)">t</text><text xml:space="preserve" font-family="HelveticaNeue-Light" font-size="50.0" fill="#FEFFFE" transform="matrix(1.00, 0.00, -0.00, -1.00, 483.6, 231.0)">a</text><text xml:space="preserve" font-family="HelveticaNeue-Light" font-size="50.0" fill="#FEFFFE" transform="matrix(1.00, 0.00, -0.00, -1.00, 509.6, 231.0)"> </text><image xlink:href="../../077543C8-1A3F-406E-9593-99609A063235/assets/D78D93A8DEE9B68D58E2A0BAEAF9F97F.png" width="18.00" height="18.00" transform="matrix(1.00, 0.00, -0.00, -1.00, 54.0, 146.0)"></image><g><clipPath id="clip-1382"><path d="M 54.0 128.1 L 71.6 128.1 L 71.6 145.8 L 54.0 145.8 Z M 54.0 128.1 "></path></clipPath><g clip-path="url(#clip-1382)"><g><g><clipPath id="clip-1383"><path d="M 54.0 145.8 L 71.6 145.8 L 71.6 128.1 L 54.0 128.1 Z M 54.0 145.8 "></path></clipPath><g clip-path="url(#clip-1383)"><g><clipPath id="clip-1384"><path d="M 50.0 121.0 L 76.0 121.0 L 76.0 153.0 L 50.0 153.0 Z M 50.0 121.0 "></path></clipPath><g clip-path="url(#clip-1384)"><path d="M 71.6 142.3 C 71.6 143.0 71.2 143.8 70.5 144.6 C 69.8 145.4 69.0 145.8 68.1 145.8 C 67.7 145.8 67.1 145.6 66.2 145.2 C 64.9 144.5 63.7 144.2 62.8 144.2 C 61.8 144.2 60.6 144.5 59.3 145.2 C 58.5 145.6 57.9 145.8 57.4 145.8 C 56.6 145.8 55.8 145.4 55.1 144.6 C 54.4 143.9 54.0 143.1 54.0 142.3 C 54.0 141.8 54.2 141.2 54.6 140.3 C 55.2 139.0 55.5 137.9 55.5 136.9 C 55.5 136.0 55.2 134.9 54.6 133.5 C 54.2 132.7 54.0 132.1 54.0 131.6 C 54.0 130.8 54.4 130.0 55.1 129.2 C 55.8 128.5 56.6 128.1 57.4 128.1 C 57.9 128.1 58.5 128.3 59.3 128.7 C 60.6 129.4 61.8 129.7 62.8 129.7 C 63.7 129.7 64.9 129.4 66.2 128.7 C 67.1 128.3 67.7 128.1 68.1 128.1 C 69.0 128.1 69.8 128.5 70.5 129.2 C 71.2 130.0 71.6 130.8 71.6 131.6 C 71.6 132.1 71.4 132.7 71.0 133.5 C 70.3 134.9 70.0 136.0 70.0 136.9 C 70.0 137.9 70.3 139.0 71.0 140.3 C 71.4 141.2 71.6 141.8 71.6 142.3 " fill="#FFFFFF"></path></g></g></g></g></g></g></g><image xlink:href="../../7DB75823-5C40-482F-9F31-A376713F8125/assets/0BCEC9428239DC6AB9BCE9633352E578.png" width="509.00" height="55.00" transform="matrix(1.00, 0.00, -0.00, -1.00, 101.0, 157.0)"></image><text xml:space="preserve" font-family="HelveticaNeue-Light" font-size="50.0" fill="#FEFFFE" transform="matrix(1.00, 0.00, -0.00, -1.00, 104.0, 120.0)">d</text><text xml:space="preserve" font-family="HelveticaNeue-Light" font-size="50.0" fill="#FEFFFE" transform="matrix(1.00, 0.00, -0.00, -1.00, 132.7, 120.0)">i</text><text xml:space="preserve" font-family="HelveticaNeue-Light" font-size="50.0" fill="#FEFFFE" transform="matrix(1.00, 0.00, -0.00, -1.00, 141.9, 120.0)">s</text><text xml:space="preserve" font-family="HelveticaNeue-Light" font-size="50.0" fill="#FEFFFE" transform="matrix(1.00, 0.00, -0.00, -1.00, 166.0, 120.0)">c</text><text xml:space="preserve" font-family="HelveticaNeue-Light" font-size="50.0" fill="#FEFFFE" transform="matrix(1.00, 0.00, -0.00, -1.00, 191.9, 120.0)">e</text><text xml:space="preserve" font-family="HelveticaNeue-Light" font-size="50.0" fill="#FEFFFE" transform="matrix(1.00, 0.00, -0.00, -1.00, 217.9, 120.0)">r</text><text xml:space="preserve" font-family="HelveticaNeue-Light" font-size="50.0" fill="#FEFFFE" transform="matrix(1.00, 0.00, -0.00, -1.00, 234.6, 120.0)">n</text><text xml:space="preserve" font-family="HelveticaNeue-Light" font-size="50.0" fill="#FEFFFE" transform="matrix(1.00, 0.00, -0.00, -1.00, 261.4, 120.0)">i</text><text xml:space="preserve" font-family="HelveticaNeue-Light" font-size="50.0" fill="#FEFFFE" transform="matrix(1.00, 0.00, -0.00, -1.00, 270.6, 120.0)">n</text><text xml:space="preserve" font-family="HelveticaNeue-Light" font-size="50.0" fill="#FEFFFE" transform="matrix(1.00, 0.00, -0.00, -1.00, 297.5, 120.0)">g</text><text xml:space="preserve" font-family="HelveticaNeue-Light" font-size="50.0" fill="#FEFFFE" transform="matrix(1.00, 0.00, -0.00, -1.00, 325.3, 120.0)"> </text><text xml:space="preserve" font-family="HelveticaNeue-Light" font-size="50.0" fill="#FEFFFE" transform="matrix(1.00, 0.00, -0.00, -1.00, 339.2, 120.0)">r</text><text xml:space="preserve" font-family="HelveticaNeue-Light" font-size="50.0" fill="#FEFFFE" transform="matrix(1.00, 0.00, -0.00, -1.00, 354.1, 120.0)">e</text><text xml:space="preserve" font-family="HelveticaNeue-Light" font-size="50.0" fill="#FEFFFE" transform="matrix(1.00, 0.00, -0.00, -1.00, 380.0, 120.0)">l</text><text xml:space="preserve" font-family="HelveticaNeue-Light" font-size="50.0" fill="#FEFFFE" transform="matrix(1.00, 0.00, -0.00, -1.00, 389.2, 120.0)">a</text><text xml:space="preserve" font-family="HelveticaNeue-Light" font-size="50.0" fill="#FEFFFE" transform="matrix(1.00, 0.00, -0.00, -1.00, 415.2, 120.0)">t</text><text xml:space="preserve" font-family="HelveticaNeue-Light" font-size="50.0" fill="#FEFFFE" transform="matrix(1.00, 0.00, -0.00, -1.00, 430.0, 120.0)">i</text><text xml:space="preserve" font-family="HelveticaNeue-Light" font-size="50.0" fill="#FEFFFE" transform="matrix(1.00, 0.00, -0.00, -1.00, 439.2, 120.0)">o</text><text xml:space="preserve" font-family="HelveticaNeue-Light" font-size="50.0" fill="#FEFFFE" transform="matrix(1.00, 0.00, -0.00, -1.00, 467.1, 120.0)">n</text><text xml:space="preserve" font-family="HelveticaNeue-Light" font-size="50.0" fill="#FEFFFE" transform="matrix(1.00, 0.00, -0.00, -1.00, 493.9, 120.0)">s</text><text xml:space="preserve" font-family="HelveticaNeue-Light" font-size="50.0" fill="#FEFFFE" transform="matrix(1.00, 0.00, -0.00, -1.00, 518.0, 120.0)">h</text><text xml:space="preserve" font-family="HelveticaNeue-Light" font-size="50.0" fill="#FEFFFE" transform="matrix(1.00, 0.00, -0.00, -1.00, 544.8, 120.0)">i</text><text xml:space="preserve" font-family="HelveticaNeue-Light" font-size="50.0" fill="#FEFFFE" transform="matrix(1.00, 0.00, -0.00, -1.00, 554.1, 120.0)">p</text><text xml:space="preserve" font-family="HelveticaNeue-Light" font-size="50.0" fill="#FEFFFE" transform="matrix(1.00, 0.00, -0.00, -1.00, 582.8, 120.0)">s</text><text xml:space="preserve" font-family="HelveticaNeue-Light" font-size="50.0" fill="#FEFFFE" transform="matrix(1.00, 0.00, -0.00, -1.00, 606.8, 120.0)"> </text><image xlink:href="../../077543C8-1A3F-406E-9593-99609A063235/assets/D78D93A8DEE9B68D58E2A0BAEAF9F97F.png" width="18.00" height="18.00" transform="matrix(1.00, 0.00, -0.00, -1.00, 4.0, 35.0)"></image><g><clipPath id="clip-1385"><path d="M 4.0 17.1 L 21.6 17.1 L 21.6 34.8 L 4.0 34.8 Z M 4.0 17.1 "></path></clipPath><g clip-path="url(#clip-1385)"><g><g><clipPath id="clip-1386"><path d="M 4.0 34.8 L 21.6 34.8 L 21.6 17.1 L 4.0 17.1 Z M 4.0 34.8 "></path></clipPath><g clip-path="url(#clip-1386)"><g><clipPath id="clip-1387"><path d="M 0.0 10.0 L 26.0 10.0 L 26.0 42.0 L 0.0 42.0 Z M 0.0 10.0 "></path></clipPath><g clip-path="url(#clip-1387)"><path d="M 21.6 31.3 C 21.6 32.0 21.2 32.8 20.5 33.6 C 19.8 34.4 19.0 34.8 18.1 34.8 C 17.7 34.8 17.1 34.6 16.2 34.2 C 14.9 33.5 13.7 33.2 12.8 33.2 C 11.8 33.2 10.6 33.5 9.3 34.2 C 8.5 34.6 7.9 34.8 7.4 34.8 C 6.6 34.8 5.8 34.4 5.1 33.6 C 4.4 32.9 4.0 32.1 4.0 31.3 C 4.0 30.8 4.2 30.2 4.6 29.3 C 5.2 28.0 5.5 26.9 5.5 25.9 C 5.5 25.0 5.2 23.9 4.6 22.5 C 4.2 21.7 4.0 21.1 4.0 20.6 C 4.0 19.8 4.4 19.0 5.1 18.2 C 5.8 17.5 6.6 17.1 7.4 17.1 C 7.9 17.1 8.5 17.3 9.3 17.7 C 10.6 18.4 11.8 18.7 12.8 18.7 C 13.7 18.7 14.9 18.4 16.2 17.7 C 17.1 17.3 17.7 17.1 18.1 17.1 C 19.0 17.1 19.8 17.5 20.5 18.2 C 21.2 19.0 21.6 19.8 21.6 20.6 C 21.6 21.1 21.4 21.7 21.0 22.5 C 20.3 23.9 20.0 25.0 20.0 25.9 C 20.0 26.9 20.3 28.0 21.0 29.3 C 21.4 30.2 21.6 30.8 21.6 31.3 " fill="#FFFFFF"></path></g></g></g></g></g></g></g><image xlink:href="../../7DB75823-5C40-482F-9F31-A376713F8125/assets/B56F06537755FD818D0AD1DA7F7A79E1.png" width="340.00" height="45.00" transform="matrix(1.00, 0.00, -0.00, -1.00, 53.0, 46.0)"></image><text xml:space="preserve" font-family="HelveticaNeue-Light" font-size="50.0" fill="#FEFFFE" transform="matrix(1.00, 0.00, -0.00, -1.00, 54.0, 9.0)">D</text><text xml:space="preserve" font-family="HelveticaNeue-Light" font-size="50.0" fill="#FEFFFE" transform="matrix(1.00, 0.00, -0.00, -1.00, 88.2, 9.0)">a</text><text xml:space="preserve" font-family="HelveticaNeue-Light" font-size="50.0" fill="#FEFFFE" transform="matrix(1.00, 0.00, -0.00, -1.00, 114.2, 9.0)">t</text><text xml:space="preserve" font-family="HelveticaNeue-Light" font-size="50.0" fill="#FEFFFE" transform="matrix(1.00, 0.00, -0.00, -1.00, 129.0, 9.0)">a</text><text xml:space="preserve" font-family="HelveticaNeue-Light" font-size="50.0" fill="#FEFFFE" transform="matrix(1.00, 0.00, -0.00, -1.00, 154.9, 9.0)"> </text><text xml:space="preserve" font-family="HelveticaNeue-Light" font-size="50.0" fill="#FEFFFE" transform="matrix(1.00, 0.00, -0.00, -1.00, 168.9, 9.0)">i</text><text xml:space="preserve" font-family="HelveticaNeue-Light" font-size="50.0" fill="#FEFFFE" transform="matrix(1.00, 0.00, -0.00, -1.00, 178.1, 9.0)">m</text><text xml:space="preserve" font-family="HelveticaNeue-Light" font-size="50.0" fill="#FEFFFE" transform="matrix(1.00, 0.00, -0.00, -1.00, 219.8, 9.0)">m</text><text xml:space="preserve" font-family="HelveticaNeue-Light" font-size="50.0" fill="#FEFFFE" transform="matrix(1.00, 0.00, -0.00, -1.00, 261.4, 9.0)">e</text><text xml:space="preserve" font-family="HelveticaNeue-Light" font-size="50.0" fill="#FEFFFE" transform="matrix(1.00, 0.00, -0.00, -1.00, 287.4, 9.0)">r</text><text xml:space="preserve" font-family="HelveticaNeue-Light" font-size="50.0" fill="#FEFFFE" transform="matrix(1.00, 0.00, -0.00, -1.00, 303.1, 9.0)">s</text><text xml:space="preserve" font-family="HelveticaNeue-Light" font-size="50.0" fill="#FEFFFE" transform="matrix(1.00, 0.00, -0.00, -1.00, 327.2, 9.0)">i</text><text xml:space="preserve" font-family="HelveticaNeue-Light" font-size="50.0" fill="#FEFFFE" transform="matrix(1.00, 0.00, -0.00, -1.00, 336.4, 9.0)">o</text><text xml:space="preserve" font-family="HelveticaNeue-Light" font-size="50.0" fill="#FEFFFE" transform="matrix(1.00, 0.00, -0.00, -1.00, 364.2, 9.0)">n</text></g></svg>