<?xml version="1.0" encoding="UTF-8" standalone="no"?><svg xmlns="http://www.w3.org/2000/svg" xmlns:xlink="http://www.w3.org/1999/xlink" clip-rule="evenodd" stroke-miterlimit="4.00" viewBox="0 0 598 86"><desc>SVG generated by Keynote</desc><defs></defs><g transform="matrix(1.00, 0.00, -0.00, -1.00, 0.0, 86.0)"><image xlink:href="493382CF58B4D8B11239B3312A5E9FF4.png" width="596.00" height="84.00" transform="matrix(1.00, 0.00, -0.00, -1.00, 1.0, 85.0)"></image><text xml:space="preserve" font-family="HelveticaNeue-Light" font-size="81.0" fill="#DE6A10" transform="matrix(1.00, 0.00, -0.00, -1.00, 6.0, 24.0)">T</text><text xml:space="preserve" font-family="HelveticaNeue-Light" font-size="81.0" fill="#DE6A10" transform="matrix(1.00, 0.00, -0.00, -1.00, 51.0, 24.0)">h</text><text xml:space="preserve" font-family="HelveticaNeue-Light" font-size="81.0" fill="#DE6A10" transform="matrix(1.00, 0.00, -0.00, -1.00, 94.5, 24.0)">i</text><text xml:space="preserve" font-family="HelveticaNeue-Light" font-size="81.0" fill="#DE6A10" transform="matrix(1.00, 0.00, -0.00, -1.00, 109.5, 24.0)">s</text><text xml:space="preserve" font-family="HelveticaNeue-Light" font-size="81.0" fill="#DE6A10" transform="matrix(1.00, 0.00, -0.00, -1.00, 148.5, 24.0)"> </text><text xml:space="preserve" font-family="HelveticaNeue-Light" font-size="81.0" fill="#DE6A10" transform="matrix(1.00, 0.00, -0.00, -1.00, 171.0, 24.0)">i</text><text xml:space="preserve" font-family="HelveticaNeue-Light" font-size="81.0" fill="#DE6A10" transform="matrix(1.00, 0.00, -0.00, -1.00, 186.0, 24.0)">s</text><text xml:space="preserve" font-family="HelveticaNeue-Light" font-size="81.0" fill="#DE6A10" transform="matrix(1.00, 0.00, -0.00, -1.00, 224.9, 24.0)"> </text><text xml:space="preserve" font-family="HelveticaNeue-Light" font-size="81.0" fill="#DE6A10" transform="matrix(1.00, 0.00, -0.00, -1.00, 247.5, 24.0)">N</text><text xml:space="preserve" font-family="HelveticaNeue-Light" font-size="81.0" fill="#DE6A10" transform="matrix(1.00, 0.00, -0.00, -1.00, 304.5, 24.0)">O</text><text xml:space="preserve" font-family="HelveticaNeue-Light" font-size="81.0" fill="#DE6A10" transform="matrix(1.00, 0.00, -0.00, -1.00, 364.5, 24.0)">T</text><text xml:space="preserve" font-family="HelveticaNeue-Light" font-size="81.0" fill="#DE6A10" transform="matrix(1.00, 0.00, -0.00, -1.00, 409.5, 24.0)"> </text><text xml:space="preserve" font-family="HelveticaNeue-Light" font-size="81.0" fill="#DE6A10" transform="matrix(1.00, 0.00, -0.00, -1.00, 432.1, 24.0)">e</text><text xml:space="preserve" font-family="HelveticaNeue-Light" font-size="81.0" fill="#DE6A10" transform="matrix(1.00, 0.00, -0.00, -1.00, 474.1, 24.0)">a</text><text xml:space="preserve" font-family="HelveticaNeue-Light" font-size="81.0" fill="#DE6A10" transform="matrix(1.00, 0.00, -0.00, -1.00, 516.1, 24.0)">s</text><text xml:space="preserve" font-family="HelveticaNeue-Light" font-size="81.0" fill="#DE6A10" transform="matrix(1.00, 0.00, -0.00, -1.00, 555.1, 24.0)">y</text></g></svg>