<?xml version="1.0" encoding="UTF-8" standalone="no"?><svg xmlns="http://www.w3.org/2000/svg" xmlns:xlink="http://www.w3.org/1999/xlink" clip-rule="evenodd" stroke-miterlimit="4.00" viewBox="0 0 1920 1080"><desc>SVG generated by Keynote</desc><defs></defs><g transform="matrix(1.00, 0.00, -0.00, -1.00, 0.0, 1080.0)"><g><clipPath id="clip-1388"><path d="M 0.0 1080.0 L 1920.0 1080.0 L 1920.0 0.0 L 0.0 0.0 Z M 0.0 1080.0 "></path></clipPath><g clip-path="url(#clip-1388)"><image xlink:href="../../1D876F4A-8FAE-4533-855C-0B67E64EABCD/assets/4B0075050CC9D0F3DC006F0CDE78D676.jpeg" width="1365.00" height="767.00" transform="matrix(1.41, 0.00, -0.00, -1.41, 0.0, 1080.0)"></image></g></g><image xlink:href="../../7DB75823-5C40-482F-9F31-A376713F8125/assets/A81BD0C2A6E15467853604B533F5ED00.png" width="814.00" height="99.00" transform="matrix(1.00, 0.00, -0.00, -1.00, 123.0, 952.0)"></image><text xml:space="preserve" font-family="HelveticaNeue-Light" font-size="100.0" fill="#FEFFFE" transform="matrix(1.00, 0.00, -0.00, -1.00, 120.0, 879.0)">R</text><text xml:space="preserve" font-family="HelveticaNeue-Light" font-size="100.0" fill="#FEFFFE" transform="matrix(1.00, 0.00, -0.00, -1.00, 186.7, 879.0)">e</text><text xml:space="preserve" font-family="HelveticaNeue-Light" font-size="100.0" fill="#FEFFFE" transform="matrix(1.00, 0.00, -0.00, -1.00, 238.6, 879.0)">a</text><text xml:space="preserve" font-family="HelveticaNeue-Light" font-size="100.0" fill="#FEFFFE" transform="matrix(1.00, 0.00, -0.00, -1.00, 290.5, 879.0)">l</text><text xml:space="preserve" font-family="HelveticaNeue-Light" font-size="100.0" fill="#FEFFFE" transform="matrix(1.00, 0.00, -0.00, -1.00, 309.0, 879.0)">l</text><text xml:space="preserve" font-family="HelveticaNeue-Light" font-size="100.0" fill="#FEFFFE" transform="matrix(1.00, 0.00, -0.00, -1.00, 327.5, 879.0)">y</text><text xml:space="preserve" font-family="HelveticaNeue-Light" font-size="100.0" fill="#FEFFFE" transform="matrix(1.00, 0.00, -0.00, -1.00, 373.8, 879.0)"> </text><text xml:space="preserve" font-family="HelveticaNeue-Light" font-size="100.0" fill="#FEFFFE" transform="matrix(1.00, 0.00, -0.00, -1.00, 401.6, 879.0)">e</text><text xml:space="preserve" font-family="HelveticaNeue-Light" font-size="100.0" fill="#FEFFFE" transform="matrix(1.00, 0.00, -0.00, -1.00, 453.5, 879.0)">x</text><text xml:space="preserve" font-family="HelveticaNeue-Light" font-size="100.0" fill="#FEFFFE" transform="matrix(1.00, 0.00, -0.00, -1.00, 501.6, 879.0)">p</text><text xml:space="preserve" font-family="HelveticaNeue-Light" font-size="100.0" fill="#FEFFFE" transform="matrix(1.00, 0.00, -0.00, -1.00, 559.0, 879.0)">l</text><text xml:space="preserve" font-family="HelveticaNeue-Light" font-size="100.0" fill="#FEFFFE" transform="matrix(1.00, 0.00, -0.00, -1.00, 577.5, 879.0)">o</text><text xml:space="preserve" font-family="HelveticaNeue-Light" font-size="100.0" fill="#FEFFFE" transform="matrix(1.00, 0.00, -0.00, -1.00, 633.1, 879.0)">r</text><text xml:space="preserve" font-family="HelveticaNeue-Light" font-size="100.0" fill="#FEFFFE" transform="matrix(1.00, 0.00, -0.00, -1.00, 662.8, 879.0)">e</text><text xml:space="preserve" font-family="HelveticaNeue-Light" font-size="100.0" fill="#FEFFFE" transform="matrix(1.00, 0.00, -0.00, -1.00, 714.7, 879.0)"> </text><text xml:space="preserve" font-family="HelveticaNeue-Light" font-size="100.0" fill="#FEFFFE" transform="matrix(1.00, 0.00, -0.00, -1.00, 742.5, 879.0)">d</text><text xml:space="preserve" font-family="HelveticaNeue-Light" font-size="100.0" fill="#FEFFFE" transform="matrix(1.00, 0.00, -0.00, -1.00, 799.9, 879.0)">a</text><text xml:space="preserve" font-family="HelveticaNeue-Light" font-size="100.0" fill="#FEFFFE" transform="matrix(1.00, 0.00, -0.00, -1.00, 851.8, 879.0)">t</text><text xml:space="preserve" font-family="HelveticaNeue-Light" font-size="100.0" fill="#FEFFFE" transform="matrix(1.00, 0.00, -0.00, -1.00, 881.4, 879.0)">a</text><image xlink:href="../../077543C8-1A3F-406E-9593-99609A063235/assets/D78D93A8DEE9B68D58E2A0BAEAF9F97F.png" width="18.00" height="18.00" transform="matrix(1.00, 0.00, -0.00, -1.00, 120.0, 686.0)"></image><g><clipPath id="clip-1389"><path d="M 120.0 668.1 L 137.6 668.1 L 137.6 685.8 L 120.0 685.8 Z M 120.0 668.1 "></path></clipPath><g clip-path="url(#clip-1389)"><g><g><clipPath id="clip-1390"><path d="M 120.0 685.8 L 137.6 685.8 L 137.6 668.1 L 120.0 668.1 Z M 120.0 685.8 "></path></clipPath><g clip-path="url(#clip-1390)"><g><clipPath id="clip-1391"><path d="M 116.0 661.0 L 142.0 661.0 L 142.0 693.0 L 116.0 693.0 Z M 116.0 661.0 "></path></clipPath><g clip-path="url(#clip-1391)"><path d="M 137.6 682.3 C 137.6 683.0 137.2 683.8 136.5 684.6 C 135.8 685.4 135.0 685.8 134.1 685.8 C 133.7 685.8 133.1 685.6 132.2 685.2 C 130.9 684.5 129.7 684.2 128.8 684.2 C 127.8 684.2 126.6 684.5 125.3 685.2 C 124.5 685.6 123.9 685.8 123.4 685.8 C 122.6 685.8 121.8 685.4 121.1 684.6 C 120.4 683.9 120.0 683.1 120.0 682.3 C 120.0 681.8 120.2 681.2 120.6 680.3 C 121.2 679.0 121.5 677.9 121.5 676.9 C 121.5 676.0 121.2 674.9 120.6 673.5 C 120.2 672.7 120.0 672.1 120.0 671.6 C 120.0 670.8 120.4 670.0 121.1 669.2 C 121.8 668.5 122.6 668.1 123.4 668.1 C 123.9 668.1 124.5 668.3 125.3 668.7 C 126.6 669.4 127.8 669.7 128.8 669.7 C 129.7 669.7 130.9 669.4 132.2 668.7 C 133.1 668.3 133.7 668.1 134.1 668.1 C 135.0 668.1 135.8 668.5 136.5 669.2 C 137.2 670.0 137.6 670.8 137.6 671.6 C 137.6 672.1 137.4 672.7 137.0 673.5 C 136.3 674.9 136.0 676.0 136.0 676.9 C 136.0 677.9 136.3 679.0 137.0 680.3 C 137.4 681.2 137.6 681.8 137.6 682.3 " fill="#FFFFFF"></path></g></g></g></g></g></g></g><image xlink:href="../../7DB75823-5C40-482F-9F31-A376713F8125/assets/506710C762A257C8EA954999F76824D8.png" width="518.00" height="45.00" transform="matrix(1.00, 0.00, -0.00, -1.00, 169.0, 697.0)"></image><text xml:space="preserve" font-family="HelveticaNeue-Light" font-size="50.0" fill="#FEFFFE" transform="matrix(1.00, 0.00, -0.00, -1.00, 170.0, 660.0)">B</text><text xml:space="preserve" font-family="HelveticaNeue-Light" font-size="50.0" fill="#FEFFFE" transform="matrix(1.00, 0.00, -0.00, -1.00, 203.3, 660.0)">e</text><text xml:space="preserve" font-family="HelveticaNeue-Light" font-size="50.0" fill="#FEFFFE" transform="matrix(1.00, 0.00, -0.00, -1.00, 229.3, 660.0)"> </text><text xml:space="preserve" font-family="HelveticaNeue-Light" font-size="50.0" fill="#FEFFFE" transform="matrix(1.00, 0.00, -0.00, -1.00, 243.2, 660.0)">ﬂ</text><text xml:space="preserve" font-family="HelveticaNeue-Light" font-size="50.0" fill="#FEFFFE" transform="matrix(1.00, 0.00, -0.00, -1.00, 265.4, 660.0)">u</text><text xml:space="preserve" font-family="HelveticaNeue-Light" font-size="50.0" fill="#FEFFFE" transform="matrix(1.00, 0.00, -0.00, -1.00, 292.2, 660.0)">e</text><text xml:space="preserve" font-family="HelveticaNeue-Light" font-size="50.0" fill="#FEFFFE" transform="matrix(1.00, 0.00, -0.00, -1.00, 318.2, 660.0)">n</text><text xml:space="preserve" font-family="HelveticaNeue-Light" font-size="50.0" fill="#FEFFFE" transform="matrix(1.00, 0.00, -0.00, -1.00, 345.0, 660.0)">t</text><text xml:space="preserve" font-family="HelveticaNeue-Light" font-size="50.0" fill="#FEFFFE" transform="matrix(1.00, 0.00, -0.00, -1.00, 359.9, 660.0)"> </text><text xml:space="preserve" font-family="HelveticaNeue-Light" font-size="50.0" fill="#FEFFFE" transform="matrix(1.00, 0.00, -0.00, -1.00, 373.8, 660.0)">a</text><text xml:space="preserve" font-family="HelveticaNeue-Light" font-size="50.0" fill="#FEFFFE" transform="matrix(1.00, 0.00, -0.00, -1.00, 399.7, 660.0)">n</text><text xml:space="preserve" font-family="HelveticaNeue-Light" font-size="50.0" fill="#FEFFFE" transform="matrix(1.00, 0.00, -0.00, -1.00, 426.6, 660.0)">d</text><text xml:space="preserve" font-family="HelveticaNeue-Light" font-size="50.0" fill="#FEFFFE" transform="matrix(1.00, 0.00, -0.00, -1.00, 455.2, 660.0)"> </text><text xml:space="preserve" font-family="HelveticaNeue-Light" font-size="50.0" fill="#FEFFFE" transform="matrix(1.00, 0.00, -0.00, -1.00, 469.1, 660.0)">c</text><text xml:space="preserve" font-family="HelveticaNeue-Light" font-size="50.0" fill="#FEFFFE" transform="matrix(1.00, 0.00, -0.00, -1.00, 495.1, 660.0)">r</text><text xml:space="preserve" font-family="HelveticaNeue-Light" font-size="50.0" fill="#FEFFFE" transform="matrix(1.00, 0.00, -0.00, -1.00, 509.9, 660.0)">e</text><text xml:space="preserve" font-family="HelveticaNeue-Light" font-size="50.0" fill="#FEFFFE" transform="matrix(1.00, 0.00, -0.00, -1.00, 535.9, 660.0)">a</text><text xml:space="preserve" font-family="HelveticaNeue-Light" font-size="50.0" fill="#FEFFFE" transform="matrix(1.00, 0.00, -0.00, -1.00, 561.8, 660.0)">t</text><text xml:space="preserve" font-family="HelveticaNeue-Light" font-size="50.0" fill="#FEFFFE" transform="matrix(1.00, 0.00, -0.00, -1.00, 576.6, 660.0)">i</text><text xml:space="preserve" font-family="HelveticaNeue-Light" font-size="50.0" fill="#FEFFFE" transform="matrix(1.00, 0.00, -0.00, -1.00, 585.9, 660.0)">v</text><text xml:space="preserve" font-family="HelveticaNeue-Light" font-size="50.0" fill="#FEFFFE" transform="matrix(1.00, 0.00, -0.00, -1.00, 609.0, 660.0)">e</text><text xml:space="preserve" font-family="HelveticaNeue-Light" font-size="50.0" fill="#FEFFFE" transform="matrix(1.00, 0.00, -0.00, -1.00, 635.0, 660.0)"> </text><text xml:space="preserve" font-family="HelveticaNeue-Light" font-size="50.0" fill="#FEFFFE" transform="matrix(1.00, 0.00, -0.00, -1.00, 648.9, 660.0)">i</text><text xml:space="preserve" font-family="HelveticaNeue-Light" font-size="50.0" fill="#FEFFFE" transform="matrix(1.00, 0.00, -0.00, -1.00, 658.1, 660.0)">n</text><text xml:space="preserve" font-family="HelveticaNeue-Light" font-size="50.0" fill="#FEFFFE" transform="matrix(1.00, 0.00, -0.00, -1.00, 685.0, 660.0)"> </text><image xlink:href="../../077543C8-1A3F-406E-9593-99609A063235/assets/D78D93A8DEE9B68D58E2A0BAEAF9F97F.png" width="18.00" height="18.00" transform="matrix(1.00, 0.00, -0.00, -1.00, 170.0, 575.0)"></image><g><clipPath id="clip-1392"><path d="M 170.0 557.1 L 187.6 557.1 L 187.6 574.8 L 170.0 574.8 Z M 170.0 557.1 "></path></clipPath><g clip-path="url(#clip-1392)"><g><g><clipPath id="clip-1393"><path d="M 170.0 574.8 L 187.6 574.8 L 187.6 557.1 L 170.0 557.1 Z M 170.0 574.8 "></path></clipPath><g clip-path="url(#clip-1393)"><g><clipPath id="clip-1394"><path d="M 166.0 550.0 L 192.0 550.0 L 192.0 582.0 L 166.0 582.0 Z M 166.0 550.0 "></path></clipPath><g clip-path="url(#clip-1394)"><path d="M 187.6 571.3 C 187.6 572.0 187.2 572.8 186.5 573.6 C 185.8 574.4 185.0 574.8 184.1 574.8 C 183.7 574.8 183.1 574.6 182.2 574.2 C 180.9 573.5 179.7 573.2 178.8 573.2 C 177.8 573.2 176.6 573.5 175.3 574.2 C 174.5 574.6 173.9 574.8 173.4 574.8 C 172.6 574.8 171.8 574.4 171.1 573.6 C 170.4 572.9 170.0 572.1 170.0 571.3 C 170.0 570.8 170.2 570.2 170.6 569.3 C 171.2 568.0 171.5 566.9 171.5 565.9 C 171.5 565.0 171.2 563.9 170.6 562.5 C 170.2 561.7 170.0 561.1 170.0 560.6 C 170.0 559.8 170.4 559.0 171.1 558.2 C 171.8 557.5 172.6 557.1 173.4 557.1 C 173.9 557.1 174.5 557.3 175.3 557.7 C 176.6 558.4 177.8 558.7 178.8 558.7 C 179.7 558.7 180.9 558.4 182.2 557.7 C 183.1 557.3 183.7 557.1 184.1 557.1 C 185.0 557.1 185.8 557.5 186.5 558.2 C 187.2 559.0 187.6 559.8 187.6 560.6 C 187.6 561.1 187.4 561.7 187.0 562.5 C 186.3 563.9 186.0 565.0 186.0 565.9 C 186.0 566.9 186.3 568.0 187.0 569.3 C 187.4 570.2 187.6 570.8 187.6 571.3 " fill="#FFFFFF"></path></g></g></g></g></g></g></g><image xlink:href="../../7DB75823-5C40-482F-9F31-A376713F8125/assets/3135526D91ED0F868D827C2D1B824795.png" width="496.00" height="55.00" transform="matrix(1.00, 0.00, -0.00, -1.00, 217.0, 586.0)"></image><text xml:space="preserve" font-family="HelveticaNeue-Light" font-size="50.0" fill="#FEFFFE" transform="matrix(1.00, 0.00, -0.00, -1.00, 220.0, 549.0)">s</text><text xml:space="preserve" font-family="HelveticaNeue-Light" font-size="50.0" fill="#FEFFFE" transform="matrix(1.00, 0.00, -0.00, -1.00, 244.1, 549.0)">u</text><text xml:space="preserve" font-family="HelveticaNeue-Light" font-size="50.0" fill="#FEFFFE" transform="matrix(1.00, 0.00, -0.00, -1.00, 270.9, 549.0)">m</text><text xml:space="preserve" font-family="HelveticaNeue-Light" font-size="50.0" fill="#FEFFFE" transform="matrix(1.00, 0.00, -0.00, -1.00, 312.6, 549.0)">m</text><text xml:space="preserve" font-family="HelveticaNeue-Light" font-size="50.0" fill="#FEFFFE" transform="matrix(1.00, 0.00, -0.00, -1.00, 354.2, 549.0)">a</text><text xml:space="preserve" font-family="HelveticaNeue-Light" font-size="50.0" fill="#FEFFFE" transform="matrix(1.00, 0.00, -0.00, -1.00, 380.2, 549.0)">r</text><text xml:space="preserve" font-family="HelveticaNeue-Light" font-size="50.0" fill="#FEFFFE" transform="matrix(1.00, 0.00, -0.00, -1.00, 395.9, 549.0)">i</text><text xml:space="preserve" font-family="HelveticaNeue-Light" font-size="50.0" fill="#FEFFFE" transform="matrix(1.00, 0.00, -0.00, -1.00, 405.2, 549.0)">z</text><text xml:space="preserve" font-family="HelveticaNeue-Light" font-size="50.0" fill="#FEFFFE" transform="matrix(1.00, 0.00, -0.00, -1.00, 428.3, 549.0)">i</text><text xml:space="preserve" font-family="HelveticaNeue-Light" font-size="50.0" fill="#FEFFFE" transform="matrix(1.00, 0.00, -0.00, -1.00, 437.6, 549.0)">n</text><text xml:space="preserve" font-family="HelveticaNeue-Light" font-size="50.0" fill="#FEFFFE" transform="matrix(1.00, 0.00, -0.00, -1.00, 464.4, 549.0)">g</text><text xml:space="preserve" font-family="HelveticaNeue-Light" font-size="50.0" fill="#FEFFFE" transform="matrix(1.00, 0.00, -0.00, -1.00, 492.2, 549.0)"> </text><text xml:space="preserve" font-family="HelveticaNeue-Light" font-size="50.0" fill="#FEFFFE" transform="matrix(1.00, 0.00, -0.00, -1.00, 506.1, 549.0)">y</text><text xml:space="preserve" font-family="HelveticaNeue-Light" font-size="50.0" fill="#FEFFFE" transform="matrix(1.00, 0.00, -0.00, -1.00, 529.2, 549.0)">o</text><text xml:space="preserve" font-family="HelveticaNeue-Light" font-size="50.0" fill="#FEFFFE" transform="matrix(1.00, 0.00, -0.00, -1.00, 557.0, 549.0)">u</text><text xml:space="preserve" font-family="HelveticaNeue-Light" font-size="50.0" fill="#FEFFFE" transform="matrix(1.00, 0.00, -0.00, -1.00, 583.9, 549.0)">r</text><text xml:space="preserve" font-family="HelveticaNeue-Light" font-size="50.0" fill="#FEFFFE" transform="matrix(1.00, 0.00, -0.00, -1.00, 599.7, 549.0)"> </text><text xml:space="preserve" font-family="HelveticaNeue-Light" font-size="50.0" fill="#FEFFFE" transform="matrix(1.00, 0.00, -0.00, -1.00, 613.5, 549.0)">d</text><text xml:space="preserve" font-family="HelveticaNeue-Light" font-size="50.0" fill="#FEFFFE" transform="matrix(1.00, 0.00, -0.00, -1.00, 642.2, 549.0)">a</text><text xml:space="preserve" font-family="HelveticaNeue-Light" font-size="50.0" fill="#FEFFFE" transform="matrix(1.00, 0.00, -0.00, -1.00, 668.2, 549.0)">t</text><text xml:space="preserve" font-family="HelveticaNeue-Light" font-size="50.0" fill="#FEFFFE" transform="matrix(1.00, 0.00, -0.00, -1.00, 683.0, 549.0)">a</text><text xml:space="preserve" font-family="HelveticaNeue-Light" font-size="50.0" fill="#FEFFFE" transform="matrix(1.00, 0.00, -0.00, -1.00, 709.0, 549.0)"> </text><image xlink:href="../../077543C8-1A3F-406E-9593-99609A063235/assets/D78D93A8DEE9B68D58E2A0BAEAF9F97F.png" width="18.00" height="18.00" transform="matrix(1.00, 0.00, -0.00, -1.00, 170.0, 464.0)"></image><g><clipPath id="clip-1395"><path d="M 170.0 446.1 L 187.6 446.1 L 187.6 463.8 L 170.0 463.8 Z M 170.0 446.1 "></path></clipPath><g clip-path="url(#clip-1395)"><g><g><clipPath id="clip-1396"><path d="M 170.0 463.8 L 187.6 463.8 L 187.6 446.1 L 170.0 446.1 Z M 170.0 463.8 "></path></clipPath><g clip-path="url(#clip-1396)"><g><clipPath id="clip-1397"><path d="M 166.0 439.0 L 192.0 439.0 L 192.0 471.0 L 166.0 471.0 Z M 166.0 439.0 "></path></clipPath><g clip-path="url(#clip-1397)"><path d="M 187.6 460.3 C 187.6 461.0 187.2 461.8 186.5 462.6 C 185.8 463.4 185.0 463.8 184.1 463.8 C 183.7 463.8 183.1 463.6 182.2 463.2 C 180.9 462.5 179.7 462.2 178.8 462.2 C 177.8 462.2 176.6 462.5 175.3 463.2 C 174.5 463.6 173.9 463.8 173.4 463.8 C 172.6 463.8 171.8 463.4 171.1 462.6 C 170.4 461.9 170.0 461.1 170.0 460.3 C 170.0 459.8 170.2 459.2 170.6 458.3 C 171.2 457.0 171.5 455.9 171.5 454.9 C 171.5 454.0 171.2 452.9 170.6 451.5 C 170.2 450.7 170.0 450.1 170.0 449.6 C 170.0 448.8 170.4 448.0 171.1 447.2 C 171.8 446.5 172.6 446.1 173.4 446.1 C 173.9 446.1 174.5 446.3 175.3 446.7 C 176.6 447.4 177.8 447.7 178.8 447.7 C 179.7 447.7 180.9 447.4 182.2 446.7 C 183.1 446.3 183.7 446.1 184.1 446.1 C 185.0 446.1 185.8 446.5 186.5 447.2 C 187.2 448.0 187.6 448.8 187.6 449.6 C 187.6 450.1 187.4 450.7 187.0 451.5 C 186.3 452.9 186.0 454.0 186.0 454.9 C 186.0 455.9 186.3 457.0 187.0 458.3 C 187.4 459.2 187.6 459.8 187.6 460.3 " fill="#FFFFFF"></path></g></g></g></g></g></g></g><image xlink:href="../../7DB75823-5C40-482F-9F31-A376713F8125/assets/A3FFB995987D5EDD42925DA7BB2AF5C2.png" width="414.00" height="55.00" transform="matrix(1.00, 0.00, -0.00, -1.00, 216.0, 475.0)"></image><text xml:space="preserve" font-family="HelveticaNeue-Light" font-size="50.0" fill="#FEFFFE" transform="matrix(1.00, 0.00, -0.00, -1.00, 220.0, 438.0)">v</text><text xml:space="preserve" font-family="HelveticaNeue-Light" font-size="50.0" fill="#FEFFFE" transform="matrix(1.00, 0.00, -0.00, -1.00, 243.2, 438.0)">i</text><text xml:space="preserve" font-family="HelveticaNeue-Light" font-size="50.0" fill="#FEFFFE" transform="matrix(1.00, 0.00, -0.00, -1.00, 252.4, 438.0)">s</text><text xml:space="preserve" font-family="HelveticaNeue-Light" font-size="50.0" fill="#FEFFFE" transform="matrix(1.00, 0.00, -0.00, -1.00, 276.4, 438.0)">u</text><text xml:space="preserve" font-family="HelveticaNeue-Light" font-size="50.0" fill="#FEFFFE" transform="matrix(1.00, 0.00, -0.00, -1.00, 303.3, 438.0)">a</text><text xml:space="preserve" font-family="HelveticaNeue-Light" font-size="50.0" fill="#FEFFFE" transform="matrix(1.00, 0.00, -0.00, -1.00, 329.2, 438.0)">l</text><text xml:space="preserve" font-family="HelveticaNeue-Light" font-size="50.0" fill="#FEFFFE" transform="matrix(1.00, 0.00, -0.00, -1.00, 338.5, 438.0)">i</text><text xml:space="preserve" font-family="HelveticaNeue-Light" font-size="50.0" fill="#FEFFFE" transform="matrix(1.00, 0.00, -0.00, -1.00, 347.8, 438.0)">z</text><text xml:space="preserve" font-family="HelveticaNeue-Light" font-size="50.0" fill="#FEFFFE" transform="matrix(1.00, 0.00, -0.00, -1.00, 370.9, 438.0)">i</text><text xml:space="preserve" font-family="HelveticaNeue-Light" font-size="50.0" fill="#FEFFFE" transform="matrix(1.00, 0.00, -0.00, -1.00, 380.1, 438.0)">n</text><text xml:space="preserve" font-family="HelveticaNeue-Light" font-size="50.0" fill="#FEFFFE" transform="matrix(1.00, 0.00, -0.00, -1.00, 407.0, 438.0)">g</text><text xml:space="preserve" font-family="HelveticaNeue-Light" font-size="50.0" fill="#FEFFFE" transform="matrix(1.00, 0.00, -0.00, -1.00, 434.8, 438.0)"> </text><text xml:space="preserve" font-family="HelveticaNeue-Light" font-size="50.0" fill="#FEFFFE" transform="matrix(1.00, 0.00, -0.00, -1.00, 448.7, 438.0)">t</text><text xml:space="preserve" font-family="HelveticaNeue-Light" font-size="50.0" fill="#FEFFFE" transform="matrix(1.00, 0.00, -0.00, -1.00, 463.5, 438.0)">h</text><text xml:space="preserve" font-family="HelveticaNeue-Light" font-size="50.0" fill="#FEFFFE" transform="matrix(1.00, 0.00, -0.00, -1.00, 490.4, 438.0)">e</text><text xml:space="preserve" font-family="HelveticaNeue-Light" font-size="50.0" fill="#FEFFFE" transform="matrix(1.00, 0.00, -0.00, -1.00, 516.3, 438.0)"> </text><text xml:space="preserve" font-family="HelveticaNeue-Light" font-size="50.0" fill="#FEFFFE" transform="matrix(1.00, 0.00, -0.00, -1.00, 530.2, 438.0)">d</text><text xml:space="preserve" font-family="HelveticaNeue-Light" font-size="50.0" fill="#FEFFFE" transform="matrix(1.00, 0.00, -0.00, -1.00, 558.9, 438.0)">a</text><text xml:space="preserve" font-family="HelveticaNeue-Light" font-size="50.0" fill="#FEFFFE" transform="matrix(1.00, 0.00, -0.00, -1.00, 584.8, 438.0)">t</text><text xml:space="preserve" font-family="HelveticaNeue-Light" font-size="50.0" fill="#FEFFFE" transform="matrix(1.00, 0.00, -0.00, -1.00, 599.6, 438.0)">a</text><text xml:space="preserve" font-family="HelveticaNeue-Light" font-size="50.0" fill="#FEFFFE" transform="matrix(1.00, 0.00, -0.00, -1.00, 625.6, 438.0)"> </text><image xlink:href="../../077543C8-1A3F-406E-9593-99609A063235/assets/D78D93A8DEE9B68D58E2A0BAEAF9F97F.png" width="18.00" height="18.00" transform="matrix(1.00, 0.00, -0.00, -1.00, 170.0, 353.0)"></image><g><clipPath id="clip-1398"><path d="M 170.0 335.1 L 187.6 335.1 L 187.6 352.8 L 170.0 352.8 Z M 170.0 335.1 "></path></clipPath><g clip-path="url(#clip-1398)"><g><g><clipPath id="clip-1399"><path d="M 170.0 352.8 L 187.6 352.8 L 187.6 335.1 L 170.0 335.1 Z M 170.0 352.8 "></path></clipPath><g clip-path="url(#clip-1399)"><g><clipPath id="clip-1400"><path d="M 166.0 328.0 L 192.0 328.0 L 192.0 360.0 L 166.0 360.0 Z M 166.0 328.0 "></path></clipPath><g clip-path="url(#clip-1400)"><path d="M 187.6 349.3 C 187.6 350.0 187.2 350.8 186.5 351.6 C 185.8 352.4 185.0 352.8 184.1 352.8 C 183.7 352.8 183.1 352.6 182.2 352.2 C 180.9 351.5 179.7 351.2 178.8 351.2 C 177.8 351.2 176.6 351.5 175.3 352.2 C 174.5 352.6 173.9 352.8 173.4 352.8 C 172.6 352.8 171.8 352.4 171.1 351.6 C 170.4 350.9 170.0 350.1 170.0 349.3 C 170.0 348.8 170.2 348.2 170.6 347.3 C 171.2 346.0 171.5 344.9 171.5 343.9 C 171.5 343.0 171.2 341.9 170.6 340.5 C 170.2 339.7 170.0 339.1 170.0 338.6 C 170.0 337.8 170.4 337.0 171.1 336.2 C 171.8 335.5 172.6 335.1 173.4 335.1 C 173.9 335.1 174.5 335.3 175.3 335.7 C 176.6 336.4 177.8 336.7 178.8 336.7 C 179.7 336.7 180.9 336.4 182.2 335.7 C 183.1 335.3 183.7 335.1 184.1 335.1 C 185.0 335.1 185.8 335.5 186.5 336.2 C 187.2 337.0 187.6 337.8 187.6 338.6 C 187.6 339.1 187.4 339.7 187.0 340.5 C 186.3 341.9 186.0 343.0 186.0 343.9 C 186.0 344.9 186.3 346.0 187.0 347.3 C 187.4 348.2 187.6 348.8 187.6 349.3 " fill="#FFFFFF"></path></g></g></g></g></g></g></g><image xlink:href="../../7DB75823-5C40-482F-9F31-A376713F8125/assets/0BCEC9428239DC6AB9BCE9633352E578.png" width="509.00" height="55.00" transform="matrix(1.00, 0.00, -0.00, -1.00, 217.0, 364.0)"></image><text xml:space="preserve" font-family="HelveticaNeue-Light" font-size="50.0" fill="#FEFFFE" transform="matrix(1.00, 0.00, -0.00, -1.00, 220.0, 327.0)">d</text><text xml:space="preserve" font-family="HelveticaNeue-Light" font-size="50.0" fill="#FEFFFE" transform="matrix(1.00, 0.00, -0.00, -1.00, 248.7, 327.0)">i</text><text xml:space="preserve" font-family="HelveticaNeue-Light" font-size="50.0" fill="#FEFFFE" transform="matrix(1.00, 0.00, -0.00, -1.00, 257.9, 327.0)">s</text><text xml:space="preserve" font-family="HelveticaNeue-Light" font-size="50.0" fill="#FEFFFE" transform="matrix(1.00, 0.00, -0.00, -1.00, 282.0, 327.0)">c</text><text xml:space="preserve" font-family="HelveticaNeue-Light" font-size="50.0" fill="#FEFFFE" transform="matrix(1.00, 0.00, -0.00, -1.00, 307.9, 327.0)">e</text><text xml:space="preserve" font-family="HelveticaNeue-Light" font-size="50.0" fill="#FEFFFE" transform="matrix(1.00, 0.00, -0.00, -1.00, 333.9, 327.0)">r</text><text xml:space="preserve" font-family="HelveticaNeue-Light" font-size="50.0" fill="#FEFFFE" transform="matrix(1.00, 0.00, -0.00, -1.00, 350.6, 327.0)">n</text><text xml:space="preserve" font-family="HelveticaNeue-Light" font-size="50.0" fill="#FEFFFE" transform="matrix(1.00, 0.00, -0.00, -1.00, 377.4, 327.0)">i</text><text xml:space="preserve" font-family="HelveticaNeue-Light" font-size="50.0" fill="#FEFFFE" transform="matrix(1.00, 0.00, -0.00, -1.00, 386.6, 327.0)">n</text><text xml:space="preserve" font-family="HelveticaNeue-Light" font-size="50.0" fill="#FEFFFE" transform="matrix(1.00, 0.00, -0.00, -1.00, 413.5, 327.0)">g</text><text xml:space="preserve" font-family="HelveticaNeue-Light" font-size="50.0" fill="#FEFFFE" transform="matrix(1.00, 0.00, -0.00, -1.00, 441.3, 327.0)"> </text><text xml:space="preserve" font-family="HelveticaNeue-Light" font-size="50.0" fill="#FEFFFE" transform="matrix(1.00, 0.00, -0.00, -1.00, 455.2, 327.0)">r</text><text xml:space="preserve" font-family="HelveticaNeue-Light" font-size="50.0" fill="#FEFFFE" transform="matrix(1.00, 0.00, -0.00, -1.00, 470.1, 327.0)">e</text><text xml:space="preserve" font-family="HelveticaNeue-Light" font-size="50.0" fill="#FEFFFE" transform="matrix(1.00, 0.00, -0.00, -1.00, 496.0, 327.0)">l</text><text xml:space="preserve" font-family="HelveticaNeue-Light" font-size="50.0" fill="#FEFFFE" transform="matrix(1.00, 0.00, -0.00, -1.00, 505.2, 327.0)">a</text><text xml:space="preserve" font-family="HelveticaNeue-Light" font-size="50.0" fill="#FEFFFE" transform="matrix(1.00, 0.00, -0.00, -1.00, 531.2, 327.0)">t</text><text xml:space="preserve" font-family="HelveticaNeue-Light" font-size="50.0" fill="#FEFFFE" transform="matrix(1.00, 0.00, -0.00, -1.00, 546.0, 327.0)">i</text><text xml:space="preserve" font-family="HelveticaNeue-Light" font-size="50.0" fill="#FEFFFE" transform="matrix(1.00, 0.00, -0.00, -1.00, 555.2, 327.0)">o</text><text xml:space="preserve" font-family="HelveticaNeue-Light" font-size="50.0" fill="#FEFFFE" transform="matrix(1.00, 0.00, -0.00, -1.00, 583.0, 327.0)">n</text><text xml:space="preserve" font-family="HelveticaNeue-Light" font-size="50.0" fill="#FEFFFE" transform="matrix(1.00, 0.00, -0.00, -1.00, 609.9, 327.0)">s</text><text xml:space="preserve" font-family="HelveticaNeue-Light" font-size="50.0" fill="#FEFFFE" transform="matrix(1.00, 0.00, -0.00, -1.00, 634.0, 327.0)">h</text><text xml:space="preserve" font-family="HelveticaNeue-Light" font-size="50.0" fill="#FEFFFE" transform="matrix(1.00, 0.00, -0.00, -1.00, 660.8, 327.0)">i</text><text xml:space="preserve" font-family="HelveticaNeue-Light" font-size="50.0" fill="#FEFFFE" transform="matrix(1.00, 0.00, -0.00, -1.00, 670.1, 327.0)">p</text><text xml:space="preserve" font-family="HelveticaNeue-Light" font-size="50.0" fill="#FEFFFE" transform="matrix(1.00, 0.00, -0.00, -1.00, 698.8, 327.0)">s</text><text xml:space="preserve" font-family="HelveticaNeue-Light" font-size="50.0" fill="#FEFFFE" transform="matrix(1.00, 0.00, -0.00, -1.00, 722.8, 327.0)"> </text><image xlink:href="../../077543C8-1A3F-406E-9593-99609A063235/assets/D78D93A8DEE9B68D58E2A0BAEAF9F97F.png" width="18.00" height="18.00" transform="matrix(1.00, 0.00, -0.00, -1.00, 120.0, 242.0)"></image><g><clipPath id="clip-1401"><path d="M 120.0 224.1 L 137.6 224.1 L 137.6 241.8 L 120.0 241.8 Z M 120.0 224.1 "></path></clipPath><g clip-path="url(#clip-1401)"><g><g><clipPath id="clip-1402"><path d="M 120.0 241.8 L 137.6 241.8 L 137.6 224.1 L 120.0 224.1 Z M 120.0 241.8 "></path></clipPath><g clip-path="url(#clip-1402)"><g><clipPath id="clip-1403"><path d="M 116.0 217.0 L 142.0 217.0 L 142.0 249.0 L 116.0 249.0 Z M 116.0 217.0 "></path></clipPath><g clip-path="url(#clip-1403)"><path d="M 137.6 238.3 C 137.6 239.0 137.2 239.8 136.5 240.6 C 135.8 241.4 135.0 241.8 134.1 241.8 C 133.7 241.8 133.1 241.6 132.2 241.2 C 130.9 240.5 129.7 240.2 128.8 240.2 C 127.8 240.2 126.6 240.5 125.3 241.2 C 124.5 241.6 123.9 241.8 123.4 241.8 C 122.6 241.8 121.8 241.4 121.1 240.6 C 120.4 239.9 120.0 239.1 120.0 238.3 C 120.0 237.8 120.2 237.2 120.6 236.3 C 121.2 235.0 121.5 233.9 121.5 232.9 C 121.5 232.0 121.2 230.9 120.6 229.5 C 120.2 228.7 120.0 228.1 120.0 227.6 C 120.0 226.8 120.4 226.0 121.1 225.2 C 121.8 224.5 122.6 224.1 123.4 224.1 C 123.9 224.1 124.5 224.3 125.3 224.7 C 126.6 225.4 127.8 225.7 128.8 225.7 C 129.7 225.7 130.9 225.4 132.2 224.7 C 133.1 224.3 133.7 224.1 134.1 224.1 C 135.0 224.1 135.8 224.5 136.5 225.2 C 137.2 226.0 137.6 226.8 137.6 227.6 C 137.6 228.1 137.4 228.7 137.0 229.5 C 136.3 230.9 136.0 232.0 136.0 232.9 C 136.0 233.9 136.3 235.0 137.0 236.3 C 137.4 237.2 137.6 237.8 137.6 238.3 " fill="#FFFFFF"></path></g></g></g></g></g></g></g><image xlink:href="../../7DB75823-5C40-482F-9F31-A376713F8125/assets/B56F06537755FD818D0AD1DA7F7A79E1.png" width="340.00" height="45.00" transform="matrix(1.00, 0.00, -0.00, -1.00, 169.0, 253.0)"></image><text xml:space="preserve" font-family="HelveticaNeue-Light" font-size="50.0" fill="#FEFFFE" transform="matrix(1.00, 0.00, -0.00, -1.00, 170.0, 216.0)">D</text><text xml:space="preserve" font-family="HelveticaNeue-Light" font-size="50.0" fill="#FEFFFE" transform="matrix(1.00, 0.00, -0.00, -1.00, 204.2, 216.0)">a</text><text xml:space="preserve" font-family="HelveticaNeue-Light" font-size="50.0" fill="#FEFFFE" transform="matrix(1.00, 0.00, -0.00, -1.00, 230.2, 216.0)">t</text><text xml:space="preserve" font-family="HelveticaNeue-Light" font-size="50.0" fill="#FEFFFE" transform="matrix(1.00, 0.00, -0.00, -1.00, 245.0, 216.0)">a</text><text xml:space="preserve" font-family="HelveticaNeue-Light" font-size="50.0" fill="#FEFFFE" transform="matrix(1.00, 0.00, -0.00, -1.00, 270.9, 216.0)"> </text><text xml:space="preserve" font-family="HelveticaNeue-Light" font-size="50.0" fill="#FEFFFE" transform="matrix(1.00, 0.00, -0.00, -1.00, 284.9, 216.0)">i</text><text xml:space="preserve" font-family="HelveticaNeue-Light" font-size="50.0" fill="#FEFFFE" transform="matrix(1.00, 0.00, -0.00, -1.00, 294.1, 216.0)">m</text><text xml:space="preserve" font-family="HelveticaNeue-Light" font-size="50.0" fill="#FEFFFE" transform="matrix(1.00, 0.00, -0.00, -1.00, 335.8, 216.0)">m</text><text xml:space="preserve" font-family="HelveticaNeue-Light" font-size="50.0" fill="#FEFFFE" transform="matrix(1.00, 0.00, -0.00, -1.00, 377.4, 216.0)">e</text><text xml:space="preserve" font-family="HelveticaNeue-Light" font-size="50.0" fill="#FEFFFE" transform="matrix(1.00, 0.00, -0.00, -1.00, 403.4, 216.0)">r</text><text xml:space="preserve" font-family="HelveticaNeue-Light" font-size="50.0" fill="#FEFFFE" transform="matrix(1.00, 0.00, -0.00, -1.00, 419.1, 216.0)">s</text><text xml:space="preserve" font-family="HelveticaNeue-Light" font-size="50.0" fill="#FEFFFE" transform="matrix(1.00, 0.00, -0.00, -1.00, 443.2, 216.0)">i</text><text xml:space="preserve" font-family="HelveticaNeue-Light" font-size="50.0" fill="#FEFFFE" transform="matrix(1.00, 0.00, -0.00, -1.00, 452.4, 216.0)">o</text><text xml:space="preserve" font-family="HelveticaNeue-Light" font-size="50.0" fill="#FEFFFE" transform="matrix(1.00, 0.00, -0.00, -1.00, 480.2, 216.0)">n</text><image xlink:href="../../AB715C61-81B5-42A4-A982-28C94944B2A0/assets/493382CF58B4D8B11239B3312A5E9FF4.png" width="596.00" height="84.00" transform="matrix(1.00, 0.00, -0.00, -1.00, 1065.0, 571.0)"></image><text xml:space="preserve" font-family="HelveticaNeue-Light" font-size="81.0" fill="#DE6A10" transform="matrix(1.00, 0.00, -0.00, -1.00, 1070.0, 510.0)">T</text><text xml:space="preserve" font-family="HelveticaNeue-Light" font-size="81.0" fill="#DE6A10" transform="matrix(1.00, 0.00, -0.00, -1.00, 1115.0, 510.0)">h</text><text xml:space="preserve" font-family="HelveticaNeue-Light" font-size="81.0" fill="#DE6A10" transform="matrix(1.00, 0.00, -0.00, -1.00, 1158.5, 510.0)">i</text><text xml:space="preserve" font-family="HelveticaNeue-Light" font-size="81.0" fill="#DE6A10" transform="matrix(1.00, 0.00, -0.00, -1.00, 1173.5, 510.0)">s</text><text xml:space="preserve" font-family="HelveticaNeue-Light" font-size="81.0" fill="#DE6A10" transform="matrix(1.00, 0.00, -0.00, -1.00, 1212.5, 510.0)"> </text><text xml:space="preserve" font-family="HelveticaNeue-Light" font-size="81.0" fill="#DE6A10" transform="matrix(1.00, 0.00, -0.00, -1.00, 1235.0, 510.0)">i</text><text xml:space="preserve" font-family="HelveticaNeue-Light" font-size="81.0" fill="#DE6A10" transform="matrix(1.00, 0.00, -0.00, -1.00, 1250.0, 510.0)">s</text><text xml:space="preserve" font-family="HelveticaNeue-Light" font-size="81.0" fill="#DE6A10" transform="matrix(1.00, 0.00, -0.00, -1.00, 1288.9, 510.0)"> </text><text xml:space="preserve" font-family="HelveticaNeue-Light" font-size="81.0" fill="#DE6A10" transform="matrix(1.00, 0.00, -0.00, -1.00, 1311.5, 510.0)">N</text><text xml:space="preserve" font-family="HelveticaNeue-Light" font-size="81.0" fill="#DE6A10" transform="matrix(1.00, 0.00, -0.00, -1.00, 1368.5, 510.0)">O</text><text xml:space="preserve" font-family="HelveticaNeue-Light" font-size="81.0" fill="#DE6A10" transform="matrix(1.00, 0.00, -0.00, -1.00, 1428.5, 510.0)">T</text><text xml:space="preserve" font-family="HelveticaNeue-Light" font-size="81.0" fill="#DE6A10" transform="matrix(1.00, 0.00, -0.00, -1.00, 1473.5, 510.0)"> </text><text xml:space="preserve" font-family="HelveticaNeue-Light" font-size="81.0" fill="#DE6A10" transform="matrix(1.00, 0.00, -0.00, -1.00, 1496.1, 510.0)">e</text><text xml:space="preserve" font-family="HelveticaNeue-Light" font-size="81.0" fill="#DE6A10" transform="matrix(1.00, 0.00, -0.00, -1.00, 1538.1, 510.0)">a</text><text xml:space="preserve" font-family="HelveticaNeue-Light" font-size="81.0" fill="#DE6A10" transform="matrix(1.00, 0.00, -0.00, -1.00, 1580.1, 510.0)">s</text><text xml:space="preserve" font-family="HelveticaNeue-Light" font-size="81.0" fill="#DE6A10" transform="matrix(1.00, 0.00, -0.00, -1.00, 1619.1, 510.0)">y</text></g></svg>