<?xml version="1.0" encoding="UTF-8" standalone="no"?><svg xmlns="http://www.w3.org/2000/svg" xmlns:xlink="http://www.w3.org/1999/xlink" clip-rule="evenodd" stroke-miterlimit="4.00" viewBox="0 0 1920 1080"><desc>SVG generated by Keynote</desc><defs></defs><g transform="matrix(1.00, 0.00, -0.00, -1.00, 0.0, 1080.0)"><g><clipPath id="clip-2473"><path d="M 0.0 1080.0 L 1920.0 1080.0 L 1920.0 0.0 L 0.0 0.0 Z M 0.0 1080.0 "></path></clipPath><g clip-path="url(#clip-2473)"><image xlink:href="../../1D876F4A-8FAE-4533-855C-0B67E64EABCD/assets/4B0075050CC9D0F3DC006F0CDE78D676.jpeg" width="1365.00" height="767.00" transform="matrix(1.41, 0.00, -0.00, -1.41, 0.0, 1080.0)"></image></g></g><image xlink:href="../../2FCAF1E4-BA80-4331-B058-7E966796CA56/assets/AFEE503485CEC1750EC9A4B890212B2D.png" width="918.00" height="101.00" transform="matrix(1.00, 0.00, -0.00, -1.00, 123.0, 952.0)"></image><text xml:space="preserve" font-family="HelveticaNeue-Light" font-size="100.0" fill="#FEFFFE" transform="matrix(1.00, 0.00, -0.00, -1.00, 120.0, 879.0)">L</text><text xml:space="preserve" font-family="HelveticaNeue-Light" font-size="100.0" fill="#FEFFFE" transform="matrix(1.00, 0.00, -0.00, -1.00, 173.7, 879.0)">i</text><text xml:space="preserve" font-family="HelveticaNeue-Light" font-size="100.0" fill="#FEFFFE" transform="matrix(1.00, 0.00, -0.00, -1.00, 192.2, 879.0)">t</text><text xml:space="preserve" font-family="HelveticaNeue-Light" font-size="100.0" fill="#FEFFFE" transform="matrix(1.00, 0.00, -0.00, -1.00, 221.8, 879.0)">e</text><text xml:space="preserve" font-family="HelveticaNeue-Light" font-size="100.0" fill="#FEFFFE" transform="matrix(1.00, 0.00, -0.00, -1.00, 273.7, 879.0)">r</text><text xml:space="preserve" font-family="HelveticaNeue-Light" font-size="100.0" fill="#FEFFFE" transform="matrix(1.00, 0.00, -0.00, -1.00, 305.2, 879.0)">a</text><text xml:space="preserve" font-family="HelveticaNeue-Light" font-size="100.0" fill="#FEFFFE" transform="matrix(1.00, 0.00, -0.00, -1.00, 357.1, 879.0)">t</text><text xml:space="preserve" font-family="HelveticaNeue-Light" font-size="100.0" fill="#FEFFFE" transform="matrix(1.00, 0.00, -0.00, -1.00, 386.7, 879.0)">e</text><text xml:space="preserve" font-family="HelveticaNeue-Light" font-size="100.0" fill="#FEFFFE" transform="matrix(1.00, 0.00, -0.00, -1.00, 438.6, 879.0)"> </text><text xml:space="preserve" font-family="HelveticaNeue-Light" font-size="100.0" fill="#FEFFFE" transform="matrix(1.00, 0.00, -0.00, -1.00, 466.4, 879.0)">p</text><text xml:space="preserve" font-family="HelveticaNeue-Light" font-size="100.0" fill="#FEFFFE" transform="matrix(1.00, 0.00, -0.00, -1.00, 523.8, 879.0)">r</text><text xml:space="preserve" font-family="HelveticaNeue-Light" font-size="100.0" fill="#FEFFFE" transform="matrix(1.00, 0.00, -0.00, -1.00, 553.5, 879.0)">o</text><text xml:space="preserve" font-family="HelveticaNeue-Light" font-size="100.0" fill="#FEFFFE" transform="matrix(1.00, 0.00, -0.00, -1.00, 609.1, 879.0)">g</text><text xml:space="preserve" font-family="HelveticaNeue-Light" font-size="100.0" fill="#FEFFFE" transform="matrix(1.00, 0.00, -0.00, -1.00, 664.7, 879.0)">r</text><text xml:space="preserve" font-family="HelveticaNeue-Light" font-size="100.0" fill="#FEFFFE" transform="matrix(1.00, 0.00, -0.00, -1.00, 696.2, 879.0)">a</text><text xml:space="preserve" font-family="HelveticaNeue-Light" font-size="100.0" fill="#FEFFFE" transform="matrix(1.00, 0.00, -0.00, -1.00, 748.1, 879.0)">m</text><text xml:space="preserve" font-family="HelveticaNeue-Light" font-size="100.0" fill="#FEFFFE" transform="matrix(1.00, 0.00, -0.00, -1.00, 831.4, 879.0)">m</text><text xml:space="preserve" font-family="HelveticaNeue-Light" font-size="100.0" fill="#FEFFFE" transform="matrix(1.00, 0.00, -0.00, -1.00, 914.7, 879.0)">i</text><text xml:space="preserve" font-family="HelveticaNeue-Light" font-size="100.0" fill="#FEFFFE" transform="matrix(1.00, 0.00, -0.00, -1.00, 933.2, 879.0)">n</text><text xml:space="preserve" font-family="HelveticaNeue-Light" font-size="100.0" fill="#FEFFFE" transform="matrix(1.00, 0.00, -0.00, -1.00, 986.9, 879.0)">g</text><image xlink:href="../../077543C8-1A3F-406E-9593-99609A063235/assets/D78D93A8DEE9B68D58E2A0BAEAF9F97F.png" width="18.00" height="18.00" transform="matrix(1.00, 0.00, -0.00, -1.00, 120.0, 741.0)"></image><g><clipPath id="clip-2474"><path d="M 120.0 723.1 L 137.6 723.1 L 137.6 740.8 L 120.0 740.8 Z M 120.0 723.1 "></path></clipPath><g clip-path="url(#clip-2474)"><g><g><clipPath id="clip-2475"><path d="M 120.0 740.8 L 137.6 740.8 L 137.6 723.1 L 120.0 723.1 Z M 120.0 740.8 "></path></clipPath><g clip-path="url(#clip-2475)"><g><clipPath id="clip-2476"><path d="M 116.0 716.0 L 142.0 716.0 L 142.0 748.0 L 116.0 748.0 Z M 116.0 716.0 "></path></clipPath><g clip-path="url(#clip-2476)"><path d="M 137.6 737.3 C 137.6 738.0 137.2 738.8 136.5 739.6 C 135.8 740.4 135.0 740.8 134.1 740.8 C 133.7 740.8 133.1 740.6 132.2 740.2 C 130.9 739.5 129.7 739.2 128.8 739.2 C 127.8 739.2 126.6 739.5 125.3 740.2 C 124.5 740.6 123.9 740.8 123.4 740.8 C 122.6 740.8 121.8 740.4 121.1 739.6 C 120.4 738.9 120.0 738.1 120.0 737.3 C 120.0 736.8 120.2 736.2 120.6 735.3 C 121.2 734.0 121.5 732.9 121.5 731.9 C 121.5 731.0 121.2 729.9 120.6 728.5 C 120.2 727.7 120.0 727.1 120.0 726.6 C 120.0 725.8 120.4 725.0 121.1 724.2 C 121.8 723.5 122.6 723.1 123.4 723.1 C 123.9 723.1 124.5 723.3 125.3 723.7 C 126.6 724.4 127.8 724.7 128.8 724.7 C 129.7 724.7 130.9 724.4 132.2 723.7 C 133.1 723.3 133.7 723.1 134.1 723.1 C 135.0 723.1 135.8 723.5 136.5 724.2 C 137.2 725.0 137.6 725.8 137.6 726.6 C 137.6 727.1 137.4 727.7 137.0 728.5 C 136.3 729.9 136.0 731.0 136.0 731.9 C 136.0 732.9 136.3 734.0 137.0 735.3 C 137.4 736.2 137.6 736.8 137.6 737.3 " fill="#FFFFFF"></path></g></g></g></g></g></g></g><image xlink:href="../../14F58C19-78CA-47B6-8767-2DC91955C37C/assets/0C9F248847F0DAEA437B010834C4C135.png" width="1042.00" height="55.00" transform="matrix(1.00, 0.00, -0.00, -1.00, 169.0, 752.0)"></image><text xml:space="preserve" font-family="HelveticaNeue-Light" font-size="50.0" fill="#FEFFFE" transform="matrix(1.00, 0.00, -0.00, -1.00, 170.0, 715.0)">E</text><text xml:space="preserve" font-family="HelveticaNeue-Light" font-size="50.0" fill="#FEFFFE" transform="matrix(1.00, 0.00, -0.00, -1.00, 199.7, 715.0)">l</text><text xml:space="preserve" font-family="HelveticaNeue-Light" font-size="50.0" fill="#FEFFFE" transform="matrix(1.00, 0.00, -0.00, -1.00, 208.9, 715.0)">e</text><text xml:space="preserve" font-family="HelveticaNeue-Light" font-size="50.0" fill="#FEFFFE" transform="matrix(1.00, 0.00, -0.00, -1.00, 234.9, 715.0)">c</text><text xml:space="preserve" font-family="HelveticaNeue-Light" font-size="50.0" fill="#FEFFFE" transform="matrix(1.00, 0.00, -0.00, -1.00, 260.8, 715.0)">t</text><text xml:space="preserve" font-family="HelveticaNeue-Light" font-size="50.0" fill="#FEFFFE" transform="matrix(1.00, 0.00, -0.00, -1.00, 275.6, 715.0)">r</text><text xml:space="preserve" font-family="HelveticaNeue-Light" font-size="50.0" fill="#FEFFFE" transform="matrix(1.00, 0.00, -0.00, -1.00, 290.4, 715.0)">o</text><text xml:space="preserve" font-family="HelveticaNeue-Light" font-size="50.0" fill="#FEFFFE" transform="matrix(1.00, 0.00, -0.00, -1.00, 318.2, 715.0)">n</text><text xml:space="preserve" font-family="HelveticaNeue-Light" font-size="50.0" fill="#FEFFFE" transform="matrix(1.00, 0.00, -0.00, -1.00, 345.1, 715.0)">i</text><text xml:space="preserve" font-family="HelveticaNeue-Light" font-size="50.0" fill="#FEFFFE" transform="matrix(1.00, 0.00, -0.00, -1.00, 354.4, 715.0)">c</text><text xml:space="preserve" font-family="HelveticaNeue-Light" font-size="50.0" fill="#FEFFFE" transform="matrix(1.00, 0.00, -0.00, -1.00, 380.3, 715.0)"> </text><text xml:space="preserve" font-family="HelveticaNeue-Light" font-size="50.0" fill="#FEFFFE" transform="matrix(1.00, 0.00, -0.00, -1.00, 394.2, 715.0)">n</text><text xml:space="preserve" font-family="HelveticaNeue-Light" font-size="50.0" fill="#FEFFFE" transform="matrix(1.00, 0.00, -0.00, -1.00, 421.1, 715.0)">o</text><text xml:space="preserve" font-family="HelveticaNeue-Light" font-size="50.0" fill="#FEFFFE" transform="matrix(1.00, 0.00, -0.00, -1.00, 448.9, 715.0)">t</text><text xml:space="preserve" font-family="HelveticaNeue-Light" font-size="50.0" fill="#FEFFFE" transform="matrix(1.00, 0.00, -0.00, -1.00, 463.7, 715.0)">e</text><text xml:space="preserve" font-family="HelveticaNeue-Light" font-size="50.0" fill="#FEFFFE" transform="matrix(1.00, 0.00, -0.00, -1.00, 489.6, 715.0)">b</text><text xml:space="preserve" font-family="HelveticaNeue-Light" font-size="50.0" fill="#FEFFFE" transform="matrix(1.00, 0.00, -0.00, -1.00, 518.3, 715.0)">o</text><text xml:space="preserve" font-family="HelveticaNeue-Light" font-size="50.0" fill="#FEFFFE" transform="matrix(1.00, 0.00, -0.00, -1.00, 546.1, 715.0)">o</text><text xml:space="preserve" font-family="HelveticaNeue-Light" font-size="50.0" fill="#FEFFFE" transform="matrix(1.00, 0.00, -0.00, -1.00, 573.9, 715.0)">k</text><text xml:space="preserve" font-family="HelveticaNeue-Light" font-size="50.0" fill="#FEFFFE" transform="matrix(1.00, 0.00, -0.00, -1.00, 598.9, 715.0)">s</text><text xml:space="preserve" font-family="HelveticaNeue-Light" font-size="50.0" fill="#FEFFFE" transform="matrix(1.00, 0.00, -0.00, -1.00, 623.0, 715.0)"> </text><text xml:space="preserve" font-family="HelveticaNeue-Light" font-size="50.0" fill="#FEFFFE" transform="matrix(1.00, 0.00, -0.00, -1.00, 636.9, 715.0)">u</text><text xml:space="preserve" font-family="HelveticaNeue-Light" font-size="50.0" fill="#FEFFFE" transform="matrix(1.00, 0.00, -0.00, -1.00, 663.7, 715.0)">s</text><text xml:space="preserve" font-family="HelveticaNeue-Light" font-size="50.0" fill="#FEFFFE" transform="matrix(1.00, 0.00, -0.00, -1.00, 687.8, 715.0)">i</text><text xml:space="preserve" font-family="HelveticaNeue-Light" font-size="50.0" fill="#FEFFFE" transform="matrix(1.00, 0.00, -0.00, -1.00, 697.0, 715.0)">n</text><text xml:space="preserve" font-family="HelveticaNeue-Light" font-size="50.0" fill="#FEFFFE" transform="matrix(1.00, 0.00, -0.00, -1.00, 723.9, 715.0)">g</text><text xml:space="preserve" font-family="HelveticaNeue-Light" font-size="50.0" fill="#FEFFFE" transform="matrix(1.00, 0.00, -0.00, -1.00, 751.6, 715.0)"> </text><text xml:space="preserve" font-family="HelveticaNeue-Light" font-size="50.0" fill="#FEFFFE" transform="matrix(1.00, 0.00, -0.00, -1.00, 765.5, 715.0)">l</text><text xml:space="preserve" font-family="HelveticaNeue-Light" font-size="50.0" fill="#FEFFFE" transform="matrix(1.00, 0.00, -0.00, -1.00, 774.8, 715.0)">i</text><text xml:space="preserve" font-family="HelveticaNeue-Light" font-size="50.0" fill="#FEFFFE" transform="matrix(1.00, 0.00, -0.00, -1.00, 784.0, 715.0)">t</text><text xml:space="preserve" font-family="HelveticaNeue-Light" font-size="50.0" fill="#FEFFFE" transform="matrix(1.00, 0.00, -0.00, -1.00, 798.8, 715.0)">e</text><text xml:space="preserve" font-family="HelveticaNeue-Light" font-size="50.0" fill="#FEFFFE" transform="matrix(1.00, 0.00, -0.00, -1.00, 824.8, 715.0)">r</text><text xml:space="preserve" font-family="HelveticaNeue-Light" font-size="50.0" fill="#FEFFFE" transform="matrix(1.00, 0.00, -0.00, -1.00, 840.5, 715.0)">a</text><text xml:space="preserve" font-family="HelveticaNeue-Light" font-size="50.0" fill="#FEFFFE" transform="matrix(1.00, 0.00, -0.00, -1.00, 866.5, 715.0)">t</text><text xml:space="preserve" font-family="HelveticaNeue-Light" font-size="50.0" fill="#FEFFFE" transform="matrix(1.00, 0.00, -0.00, -1.00, 881.3, 715.0)">e</text><text xml:space="preserve" font-family="HelveticaNeue-Light" font-size="50.0" fill="#FEFFFE" transform="matrix(1.00, 0.00, -0.00, -1.00, 907.2, 715.0)"> </text><text xml:space="preserve" font-family="HelveticaNeue-Light" font-size="50.0" fill="#FEFFFE" transform="matrix(1.00, 0.00, -0.00, -1.00, 921.1, 715.0)">p</text><text xml:space="preserve" font-family="HelveticaNeue-Light" font-size="50.0" fill="#FEFFFE" transform="matrix(1.00, 0.00, -0.00, -1.00, 949.9, 715.0)">r</text><text xml:space="preserve" font-family="HelveticaNeue-Light" font-size="50.0" fill="#FEFFFE" transform="matrix(1.00, 0.00, -0.00, -1.00, 964.7, 715.0)">o</text><text xml:space="preserve" font-family="HelveticaNeue-Light" font-size="50.0" fill="#FEFFFE" transform="matrix(1.00, 0.00, -0.00, -1.00, 992.5, 715.0)">g</text><text xml:space="preserve" font-family="HelveticaNeue-Light" font-size="50.0" fill="#FEFFFE" transform="matrix(1.00, 0.00, -0.00, -1.00, 1020.3, 715.0)">r</text><text xml:space="preserve" font-family="HelveticaNeue-Light" font-size="50.0" fill="#FEFFFE" transform="matrix(1.00, 0.00, -0.00, -1.00, 1036.0, 715.0)">a</text><text xml:space="preserve" font-family="HelveticaNeue-Light" font-size="50.0" fill="#FEFFFE" transform="matrix(1.00, 0.00, -0.00, -1.00, 1062.0, 715.0)">m</text><text xml:space="preserve" font-family="HelveticaNeue-Light" font-size="50.0" fill="#FEFFFE" transform="matrix(1.00, 0.00, -0.00, -1.00, 1103.7, 715.0)">m</text><text xml:space="preserve" font-family="HelveticaNeue-Light" font-size="50.0" fill="#FEFFFE" transform="matrix(1.00, 0.00, -0.00, -1.00, 1145.3, 715.0)">i</text><text xml:space="preserve" font-family="HelveticaNeue-Light" font-size="50.0" fill="#FEFFFE" transform="matrix(1.00, 0.00, -0.00, -1.00, 1154.5, 715.0)">n</text><text xml:space="preserve" font-family="HelveticaNeue-Light" font-size="50.0" fill="#FEFFFE" transform="matrix(1.00, 0.00, -0.00, -1.00, 1181.4, 715.0)">g</text><text xml:space="preserve" font-family="HelveticaNeue-Light" font-size="50.0" fill="#FEFFFE" transform="matrix(1.00, 0.00, -0.00, -1.00, 1209.2, 715.0)"> </text><image xlink:href="../../077543C8-1A3F-406E-9593-99609A063235/assets/D78D93A8DEE9B68D58E2A0BAEAF9F97F.png" width="18.00" height="18.00" transform="matrix(1.00, 0.00, -0.00, -1.00, 170.0, 630.0)"></image><g><clipPath id="clip-2477"><path d="M 170.0 612.1 L 187.6 612.1 L 187.6 629.8 L 170.0 629.8 Z M 170.0 612.1 "></path></clipPath><g clip-path="url(#clip-2477)"><g><g><clipPath id="clip-2478"><path d="M 170.0 629.8 L 187.6 629.8 L 187.6 612.1 L 170.0 612.1 Z M 170.0 629.8 "></path></clipPath><g clip-path="url(#clip-2478)"><g><clipPath id="clip-2479"><path d="M 166.0 605.0 L 192.0 605.0 L 192.0 637.0 L 166.0 637.0 Z M 166.0 605.0 "></path></clipPath><g clip-path="url(#clip-2479)"><path d="M 187.6 626.3 C 187.6 627.0 187.2 627.8 186.5 628.6 C 185.8 629.4 185.0 629.8 184.1 629.8 C 183.7 629.8 183.1 629.6 182.2 629.2 C 180.9 628.5 179.7 628.2 178.8 628.2 C 177.8 628.2 176.6 628.5 175.3 629.2 C 174.5 629.6 173.9 629.8 173.4 629.8 C 172.6 629.8 171.8 629.4 171.1 628.6 C 170.4 627.9 170.0 627.1 170.0 626.3 C 170.0 625.8 170.2 625.2 170.6 624.3 C 171.2 623.0 171.5 621.9 171.5 620.9 C 171.5 620.0 171.2 618.9 170.6 617.5 C 170.2 616.7 170.0 616.1 170.0 615.6 C 170.0 614.8 170.4 614.0 171.1 613.2 C 171.8 612.5 172.6 612.1 173.4 612.1 C 173.9 612.1 174.5 612.3 175.3 612.7 C 176.6 613.4 177.8 613.7 178.8 613.7 C 179.7 613.7 180.9 613.4 182.2 612.7 C 183.1 612.3 183.7 612.1 184.1 612.1 C 185.0 612.1 185.8 612.5 186.5 613.2 C 187.2 614.0 187.6 614.8 187.6 615.6 C 187.6 616.1 187.4 616.7 187.0 617.5 C 186.3 618.9 186.0 620.0 186.0 620.9 C 186.0 621.9 186.3 623.0 187.0 624.3 C 187.4 625.2 187.6 625.8 187.6 626.3 " fill="#FFFFFF"></path></g></g></g></g></g></g></g><image xlink:href="../../14F58C19-78CA-47B6-8767-2DC91955C37C/assets/9B114A14D4F1CB3CF5CB21EE30AD6A17.png" width="261.00" height="45.00" transform="matrix(1.00, 0.00, -0.00, -1.00, 219.0, 641.0)"></image><text xml:space="preserve" font-family="HelveticaNeue-Light" font-size="50.0" fill="#FEFFFE" transform="matrix(1.00, 0.00, -0.00, -1.00, 220.0, 604.0)">D</text><text xml:space="preserve" font-family="HelveticaNeue-Light" font-size="50.0" fill="#FEFFFE" transform="matrix(1.00, 0.00, -0.00, -1.00, 254.2, 604.0)">a</text><text xml:space="preserve" font-family="HelveticaNeue-Light" font-size="50.0" fill="#FEFFFE" transform="matrix(1.00, 0.00, -0.00, -1.00, 280.2, 604.0)">t</text><text xml:space="preserve" font-family="HelveticaNeue-Light" font-size="50.0" fill="#FEFFFE" transform="matrix(1.00, 0.00, -0.00, -1.00, 295.0, 604.0)">e</text><text xml:space="preserve" font-family="HelveticaNeue-Light" font-size="50.0" fill="#FEFFFE" transform="matrix(1.00, 0.00, -0.00, -1.00, 320.9, 604.0)"> </text><text xml:space="preserve" font-family="HelveticaNeue-Light" font-size="50.0" fill="#FEFFFE" transform="matrix(1.00, 0.00, -0.00, -1.00, 334.9, 604.0)">e</text><text xml:space="preserve" font-family="HelveticaNeue-Light" font-size="50.0" fill="#FEFFFE" transform="matrix(1.00, 0.00, -0.00, -1.00, 360.8, 604.0)">n</text><text xml:space="preserve" font-family="HelveticaNeue-Light" font-size="50.0" fill="#FEFFFE" transform="matrix(1.00, 0.00, -0.00, -1.00, 387.6, 604.0)">t</text><text xml:space="preserve" font-family="HelveticaNeue-Light" font-size="50.0" fill="#FEFFFE" transform="matrix(1.00, 0.00, -0.00, -1.00, 402.5, 604.0)">r</text><text xml:space="preserve" font-family="HelveticaNeue-Light" font-size="50.0" fill="#FEFFFE" transform="matrix(1.00, 0.00, -0.00, -1.00, 418.2, 604.0)">i</text><text xml:space="preserve" font-family="HelveticaNeue-Light" font-size="50.0" fill="#FEFFFE" transform="matrix(1.00, 0.00, -0.00, -1.00, 427.5, 604.0)">e</text><text xml:space="preserve" font-family="HelveticaNeue-Light" font-size="50.0" fill="#FEFFFE" transform="matrix(1.00, 0.00, -0.00, -1.00, 453.4, 604.0)">s</text><text xml:space="preserve" font-family="HelveticaNeue-Light" font-size="50.0" fill="#FEFFFE" transform="matrix(1.00, 0.00, -0.00, -1.00, 477.5, 604.0)"> </text><image xlink:href="../../077543C8-1A3F-406E-9593-99609A063235/assets/D78D93A8DEE9B68D58E2A0BAEAF9F97F.png" width="18.00" height="18.00" transform="matrix(1.00, 0.00, -0.00, -1.00, 170.0, 519.0)"></image><g><clipPath id="clip-2480"><path d="M 170.0 501.1 L 187.6 501.1 L 187.6 518.8 L 170.0 518.8 Z M 170.0 501.1 "></path></clipPath><g clip-path="url(#clip-2480)"><g><g><clipPath id="clip-2481"><path d="M 170.0 518.8 L 187.6 518.8 L 187.6 501.1 L 170.0 501.1 Z M 170.0 518.8 "></path></clipPath><g clip-path="url(#clip-2481)"><g><clipPath id="clip-2482"><path d="M 166.0 494.0 L 192.0 494.0 L 192.0 526.0 L 166.0 526.0 Z M 166.0 494.0 "></path></clipPath><g clip-path="url(#clip-2482)"><path d="M 187.6 515.3 C 187.6 516.0 187.2 516.8 186.5 517.6 C 185.8 518.4 185.0 518.8 184.1 518.8 C 183.7 518.8 183.1 518.6 182.2 518.2 C 180.9 517.5 179.7 517.2 178.8 517.2 C 177.8 517.2 176.6 517.5 175.3 518.2 C 174.5 518.6 173.9 518.8 173.4 518.8 C 172.6 518.8 171.8 518.4 171.1 517.6 C 170.4 516.9 170.0 516.1 170.0 515.3 C 170.0 514.8 170.2 514.2 170.6 513.3 C 171.2 512.0 171.5 510.9 171.5 509.9 C 171.5 509.0 171.2 507.9 170.6 506.5 C 170.2 505.7 170.0 505.1 170.0 504.6 C 170.0 503.8 170.4 503.0 171.1 502.2 C 171.8 501.5 172.6 501.1 173.4 501.1 C 173.9 501.1 174.5 501.3 175.3 501.7 C 176.6 502.4 177.8 502.7 178.8 502.7 C 179.7 502.7 180.9 502.4 182.2 501.7 C 183.1 501.3 183.7 501.1 184.1 501.1 C 185.0 501.1 185.8 501.5 186.5 502.2 C 187.2 503.0 187.6 503.8 187.6 504.6 C 187.6 505.1 187.4 505.7 187.0 506.5 C 186.3 507.9 186.0 509.0 186.0 509.9 C 186.0 510.9 186.3 512.0 187.0 513.3 C 187.4 514.2 187.6 514.8 187.6 515.3 " fill="#FFFFFF"></path></g></g></g></g></g></g></g><image xlink:href="../../14F58C19-78CA-47B6-8767-2DC91955C37C/assets/B02FB3CFD34D74FF0E974C429C8FD17A.png" width="446.00" height="54.00" transform="matrix(1.00, 0.00, -0.00, -1.00, 219.0, 530.0)"></image><text xml:space="preserve" font-family="HelveticaNeue-Light" font-size="50.0" fill="#FEFFFE" transform="matrix(1.00, 0.00, -0.00, -1.00, 220.0, 493.0)">P</text><text xml:space="preserve" font-family="HelveticaNeue-Light" font-size="50.0" fill="#FEFFFE" transform="matrix(1.00, 0.00, -0.00, -1.00, 251.5, 493.0)">u</text><text xml:space="preserve" font-family="HelveticaNeue-Light" font-size="50.0" fill="#FEFFFE" transform="matrix(1.00, 0.00, -0.00, -1.00, 278.4, 493.0)">t</text><text xml:space="preserve" font-family="HelveticaNeue-Light" font-size="50.0" fill="#FEFFFE" transform="matrix(1.00, 0.00, -0.00, -1.00, 293.1, 493.0)"> </text><text xml:space="preserve" font-family="HelveticaNeue-Light" font-size="50.0" fill="#FEFFFE" transform="matrix(1.00, 0.00, -0.00, -1.00, 307.1, 493.0)">i</text><text xml:space="preserve" font-family="HelveticaNeue-Light" font-size="50.0" fill="#FEFFFE" transform="matrix(1.00, 0.00, -0.00, -1.00, 316.3, 493.0)">n</text><text xml:space="preserve" font-family="HelveticaNeue-Light" font-size="50.0" fill="#FEFFFE" transform="matrix(1.00, 0.00, -0.00, -1.00, 343.1, 493.0)"> </text><text xml:space="preserve" font-family="HelveticaNeue-Light" font-size="50.0" fill="#FEFFFE" transform="matrix(1.00, 0.00, -0.00, -1.00, 357.1, 493.0)">c</text><text xml:space="preserve" font-family="HelveticaNeue-Light" font-size="50.0" fill="#FEFFFE" transform="matrix(1.00, 0.00, -0.00, -1.00, 383.0, 493.0)">o</text><text xml:space="preserve" font-family="HelveticaNeue-Light" font-size="50.0" fill="#FEFFFE" transform="matrix(1.00, 0.00, -0.00, -1.00, 410.8, 493.0)">d</text><text xml:space="preserve" font-family="HelveticaNeue-Light" font-size="50.0" fill="#FEFFFE" transform="matrix(1.00, 0.00, -0.00, -1.00, 439.5, 493.0)">e</text><text xml:space="preserve" font-family="HelveticaNeue-Light" font-size="50.0" fill="#FEFFFE" transform="matrix(1.00, 0.00, -0.00, -1.00, 465.4, 493.0)"> </text><text xml:space="preserve" font-family="HelveticaNeue-Light" font-size="50.0" fill="#FEFFFE" transform="matrix(1.00, 0.00, -0.00, -1.00, 479.3, 493.0)">s</text><text xml:space="preserve" font-family="HelveticaNeue-Light" font-size="50.0" fill="#FEFFFE" transform="matrix(1.00, 0.00, -0.00, -1.00, 503.4, 493.0)">n</text><text xml:space="preserve" font-family="HelveticaNeue-Light" font-size="50.0" fill="#FEFFFE" transform="matrix(1.00, 0.00, -0.00, -1.00, 530.2, 493.0)">i</text><text xml:space="preserve" font-family="HelveticaNeue-Light" font-size="50.0" fill="#FEFFFE" transform="matrix(1.00, 0.00, -0.00, -1.00, 539.5, 493.0)">p</text><text xml:space="preserve" font-family="HelveticaNeue-Light" font-size="50.0" fill="#FEFFFE" transform="matrix(1.00, 0.00, -0.00, -1.00, 568.2, 493.0)">p</text><text xml:space="preserve" font-family="HelveticaNeue-Light" font-size="50.0" fill="#FEFFFE" transform="matrix(1.00, 0.00, -0.00, -1.00, 596.9, 493.0)">e</text><text xml:space="preserve" font-family="HelveticaNeue-Light" font-size="50.0" fill="#FEFFFE" transform="matrix(1.00, 0.00, -0.00, -1.00, 622.8, 493.0)">t</text><text xml:space="preserve" font-family="HelveticaNeue-Light" font-size="50.0" fill="#FEFFFE" transform="matrix(1.00, 0.00, -0.00, -1.00, 637.6, 493.0)">s</text><text xml:space="preserve" font-family="HelveticaNeue-Light" font-size="50.0" fill="#FEFFFE" transform="matrix(1.00, 0.00, -0.00, -1.00, 661.7, 493.0)"> </text><image xlink:href="../../077543C8-1A3F-406E-9593-99609A063235/assets/D78D93A8DEE9B68D58E2A0BAEAF9F97F.png" width="18.00" height="18.00" transform="matrix(1.00, 0.00, -0.00, -1.00, 170.0, 408.0)"></image><g><clipPath id="clip-2483"><path d="M 170.0 390.1 L 187.6 390.1 L 187.6 407.8 L 170.0 407.8 Z M 170.0 390.1 "></path></clipPath><g clip-path="url(#clip-2483)"><g><g><clipPath id="clip-2484"><path d="M 170.0 407.8 L 187.6 407.8 L 187.6 390.1 L 170.0 390.1 Z M 170.0 407.8 "></path></clipPath><g clip-path="url(#clip-2484)"><g><clipPath id="clip-2485"><path d="M 166.0 383.0 L 192.0 383.0 L 192.0 415.0 L 166.0 415.0 Z M 166.0 383.0 "></path></clipPath><g clip-path="url(#clip-2485)"><path d="M 187.6 404.3 C 187.6 405.0 187.2 405.8 186.5 406.6 C 185.8 407.4 185.0 407.8 184.1 407.8 C 183.7 407.8 183.1 407.6 182.2 407.2 C 180.9 406.5 179.7 406.2 178.8 406.2 C 177.8 406.2 176.6 406.5 175.3 407.2 C 174.5 407.6 173.9 407.8 173.4 407.8 C 172.6 407.8 171.8 407.4 171.1 406.6 C 170.4 405.9 170.0 405.1 170.0 404.3 C 170.0 403.8 170.2 403.2 170.6 402.3 C 171.2 401.0 171.5 399.9 171.5 398.9 C 171.5 398.0 171.2 396.9 170.6 395.5 C 170.2 394.7 170.0 394.1 170.0 393.6 C 170.0 392.8 170.4 392.0 171.1 391.2 C 171.8 390.5 172.6 390.1 173.4 390.1 C 173.9 390.1 174.5 390.3 175.3 390.7 C 176.6 391.4 177.8 391.7 178.8 391.7 C 179.7 391.7 180.9 391.4 182.2 390.7 C 183.1 390.3 183.7 390.1 184.1 390.1 C 185.0 390.1 185.8 390.5 186.5 391.2 C 187.2 392.0 187.6 392.8 187.6 393.6 C 187.6 394.1 187.4 394.7 187.0 395.5 C 186.3 396.9 186.0 398.0 186.0 398.9 C 186.0 399.9 186.3 401.0 187.0 402.3 C 187.4 403.2 187.6 403.8 187.6 404.3 " fill="#FFFFFF"></path></g></g></g></g></g></g></g><image xlink:href="../../14F58C19-78CA-47B6-8767-2DC91955C37C/assets/E7420FFC3DD39838391D755238B08B09.png" width="615.00" height="45.00" transform="matrix(1.00, 0.00, -0.00, -1.00, 219.0, 419.0)"></image><text xml:space="preserve" font-family="HelveticaNeue-Light" font-size="50.0" fill="#FEFFFE" transform="matrix(1.00, 0.00, -0.00, -1.00, 220.0, 382.0)">P</text><text xml:space="preserve" font-family="HelveticaNeue-Light" font-size="50.0" fill="#FEFFFE" transform="matrix(1.00, 0.00, -0.00, -1.00, 251.5, 382.0)">u</text><text xml:space="preserve" font-family="HelveticaNeue-Light" font-size="50.0" fill="#FEFFFE" transform="matrix(1.00, 0.00, -0.00, -1.00, 278.4, 382.0)">t</text><text xml:space="preserve" font-family="HelveticaNeue-Light" font-size="50.0" fill="#FEFFFE" transform="matrix(1.00, 0.00, -0.00, -1.00, 293.1, 382.0)"> </text><text xml:space="preserve" font-family="HelveticaNeue-Light" font-size="50.0" fill="#FEFFFE" transform="matrix(1.00, 0.00, -0.00, -1.00, 307.1, 382.0)">i</text><text xml:space="preserve" font-family="HelveticaNeue-Light" font-size="50.0" fill="#FEFFFE" transform="matrix(1.00, 0.00, -0.00, -1.00, 316.3, 382.0)">n</text><text xml:space="preserve" font-family="HelveticaNeue-Light" font-size="50.0" fill="#FEFFFE" transform="matrix(1.00, 0.00, -0.00, -1.00, 343.1, 382.0)"> </text><text xml:space="preserve" font-family="HelveticaNeue-Light" font-size="50.0" fill="#FEFFFE" transform="matrix(1.00, 0.00, -0.00, -1.00, 357.1, 382.0)">i</text><text xml:space="preserve" font-family="HelveticaNeue-Light" font-size="50.0" fill="#FEFFFE" transform="matrix(1.00, 0.00, -0.00, -1.00, 366.3, 382.0)">d</text><text xml:space="preserve" font-family="HelveticaNeue-Light" font-size="50.0" fill="#FEFFFE" transform="matrix(1.00, 0.00, -0.00, -1.00, 395.0, 382.0)">e</text><text xml:space="preserve" font-family="HelveticaNeue-Light" font-size="50.0" fill="#FEFFFE" transform="matrix(1.00, 0.00, -0.00, -1.00, 420.9, 382.0)">a</text><text xml:space="preserve" font-family="HelveticaNeue-Light" font-size="50.0" fill="#FEFFFE" transform="matrix(1.00, 0.00, -0.00, -1.00, 446.9, 382.0)">s</text><text xml:space="preserve" font-family="HelveticaNeue-Light" font-size="50.0" fill="#FEFFFE" transform="matrix(1.00, 0.00, -0.00, -1.00, 470.9, 382.0)"> </text><text xml:space="preserve" font-family="HelveticaNeue-Light" font-size="50.0" fill="#FEFFFE" transform="matrix(1.00, 0.00, -0.00, -1.00, 484.8, 382.0)">a</text><text xml:space="preserve" font-family="HelveticaNeue-Light" font-size="50.0" fill="#FEFFFE" transform="matrix(1.00, 0.00, -0.00, -1.00, 510.8, 382.0)">n</text><text xml:space="preserve" font-family="HelveticaNeue-Light" font-size="50.0" fill="#FEFFFE" transform="matrix(1.00, 0.00, -0.00, -1.00, 537.6, 382.0)">d</text><text xml:space="preserve" font-family="HelveticaNeue-Light" font-size="50.0" fill="#FEFFFE" transform="matrix(1.00, 0.00, -0.00, -1.00, 566.3, 382.0)"> </text><text xml:space="preserve" font-family="HelveticaNeue-Light" font-size="50.0" fill="#FEFFFE" transform="matrix(1.00, 0.00, -0.00, -1.00, 580.2, 382.0)">d</text><text xml:space="preserve" font-family="HelveticaNeue-Light" font-size="50.0" fill="#FEFFFE" transform="matrix(1.00, 0.00, -0.00, -1.00, 608.9, 382.0)">i</text><text xml:space="preserve" font-family="HelveticaNeue-Light" font-size="50.0" fill="#FEFFFE" transform="matrix(1.00, 0.00, -0.00, -1.00, 618.2, 382.0)">s</text><text xml:space="preserve" font-family="HelveticaNeue-Light" font-size="50.0" fill="#FEFFFE" transform="matrix(1.00, 0.00, -0.00, -1.00, 642.2, 382.0)">c</text><text xml:space="preserve" font-family="HelveticaNeue-Light" font-size="50.0" fill="#FEFFFE" transform="matrix(1.00, 0.00, -0.00, -1.00, 668.2, 382.0)">u</text><text xml:space="preserve" font-family="HelveticaNeue-Light" font-size="50.0" fill="#FEFFFE" transform="matrix(1.00, 0.00, -0.00, -1.00, 695.0, 382.0)">s</text><text xml:space="preserve" font-family="HelveticaNeue-Light" font-size="50.0" fill="#FEFFFE" transform="matrix(1.00, 0.00, -0.00, -1.00, 719.1, 382.0)">s</text><text xml:space="preserve" font-family="HelveticaNeue-Light" font-size="50.0" fill="#FEFFFE" transform="matrix(1.00, 0.00, -0.00, -1.00, 743.1, 382.0)">i</text><text xml:space="preserve" font-family="HelveticaNeue-Light" font-size="50.0" fill="#FEFFFE" transform="matrix(1.00, 0.00, -0.00, -1.00, 752.4, 382.0)">o</text><text xml:space="preserve" font-family="HelveticaNeue-Light" font-size="50.0" fill="#FEFFFE" transform="matrix(1.00, 0.00, -0.00, -1.00, 780.2, 382.0)">n</text><text xml:space="preserve" font-family="HelveticaNeue-Light" font-size="50.0" fill="#FEFFFE" transform="matrix(1.00, 0.00, -0.00, -1.00, 807.0, 382.0)">s</text><text xml:space="preserve" font-family="HelveticaNeue-Light" font-size="50.0" fill="#FEFFFE" transform="matrix(1.00, 0.00, -0.00, -1.00, 831.1, 382.0)"> </text><image xlink:href="../../077543C8-1A3F-406E-9593-99609A063235/assets/D78D93A8DEE9B68D58E2A0BAEAF9F97F.png" width="18.00" height="18.00" transform="matrix(1.00, 0.00, -0.00, -1.00, 170.0, 297.0)"></image><g><clipPath id="clip-2486"><path d="M 170.0 279.1 L 187.6 279.1 L 187.6 296.8 L 170.0 296.8 Z M 170.0 279.1 "></path></clipPath><g clip-path="url(#clip-2486)"><g><g><clipPath id="clip-2487"><path d="M 170.0 296.8 L 187.6 296.8 L 187.6 279.1 L 170.0 279.1 Z M 170.0 296.8 "></path></clipPath><g clip-path="url(#clip-2487)"><g><clipPath id="clip-2488"><path d="M 166.0 272.0 L 192.0 272.0 L 192.0 304.0 L 166.0 304.0 Z M 166.0 272.0 "></path></clipPath><g clip-path="url(#clip-2488)"><path d="M 187.6 293.3 C 187.6 294.0 187.2 294.8 186.5 295.6 C 185.8 296.4 185.0 296.8 184.1 296.8 C 183.7 296.8 183.1 296.6 182.2 296.2 C 180.9 295.5 179.7 295.2 178.8 295.2 C 177.8 295.2 176.6 295.5 175.3 296.2 C 174.5 296.6 173.9 296.8 173.4 296.8 C 172.6 296.8 171.8 296.4 171.1 295.6 C 170.4 294.9 170.0 294.1 170.0 293.3 C 170.0 292.8 170.2 292.2 170.6 291.3 C 171.2 290.0 171.5 288.9 171.5 287.9 C 171.5 287.0 171.2 285.9 170.6 284.5 C 170.2 283.7 170.0 283.1 170.0 282.6 C 170.0 281.8 170.4 281.0 171.1 280.2 C 171.8 279.5 172.6 279.1 173.4 279.1 C 173.9 279.1 174.5 279.3 175.3 279.7 C 176.6 280.4 177.8 280.7 178.8 280.7 C 179.7 280.7 180.9 280.4 182.2 279.7 C 183.1 279.3 183.7 279.1 184.1 279.1 C 185.0 279.1 185.8 279.5 186.5 280.2 C 187.2 281.0 187.6 281.8 187.6 282.6 C 187.6 283.1 187.4 283.7 187.0 284.5 C 186.3 285.9 186.0 287.0 186.0 287.9 C 186.0 288.9 186.3 290.0 187.0 291.3 C 187.4 292.2 187.6 292.8 187.6 293.3 " fill="#FFFFFF"></path></g></g></g></g></g></g></g><image xlink:href="../../14F58C19-78CA-47B6-8767-2DC91955C37C/assets/04534F5EFAC889DBC04C0869A74B4960.png" width="453.00" height="45.00" transform="matrix(1.00, 0.00, -0.00, -1.00, 219.0, 308.0)"></image><text xml:space="preserve" font-family="HelveticaNeue-Light" font-size="50.0" fill="#FEFFFE" transform="matrix(1.00, 0.00, -0.00, -1.00, 220.0, 271.0)">R</text><text xml:space="preserve" font-family="HelveticaNeue-Light" font-size="50.0" fill="#FEFFFE" transform="matrix(1.00, 0.00, -0.00, -1.00, 253.3, 271.0)">e</text><text xml:space="preserve" font-family="HelveticaNeue-Light" font-size="50.0" fill="#FEFFFE" transform="matrix(1.00, 0.00, -0.00, -1.00, 279.3, 271.0)">f</text><text xml:space="preserve" font-family="HelveticaNeue-Light" font-size="50.0" fill="#FEFFFE" transform="matrix(1.00, 0.00, -0.00, -1.00, 292.2, 271.0)">e</text><text xml:space="preserve" font-family="HelveticaNeue-Light" font-size="50.0" fill="#FEFFFE" transform="matrix(1.00, 0.00, -0.00, -1.00, 318.2, 271.0)">r</text><text xml:space="preserve" font-family="HelveticaNeue-Light" font-size="50.0" fill="#FEFFFE" transform="matrix(1.00, 0.00, -0.00, -1.00, 333.9, 271.0)"> </text><text xml:space="preserve" font-family="HelveticaNeue-Light" font-size="50.0" fill="#FEFFFE" transform="matrix(1.00, 0.00, -0.00, -1.00, 347.9, 271.0)">b</text><text xml:space="preserve" font-family="HelveticaNeue-Light" font-size="50.0" fill="#FEFFFE" transform="matrix(1.00, 0.00, -0.00, -1.00, 376.6, 271.0)">a</text><text xml:space="preserve" font-family="HelveticaNeue-Light" font-size="50.0" fill="#FEFFFE" transform="matrix(1.00, 0.00, -0.00, -1.00, 402.5, 271.0)">c</text><text xml:space="preserve" font-family="HelveticaNeue-Light" font-size="50.0" fill="#FEFFFE" transform="matrix(1.00, 0.00, -0.00, -1.00, 428.4, 271.0)">k</text><text xml:space="preserve" font-family="HelveticaNeue-Light" font-size="50.0" fill="#FEFFFE" transform="matrix(1.00, 0.00, -0.00, -1.00, 453.4, 271.0)"> </text><text xml:space="preserve" font-family="HelveticaNeue-Light" font-size="50.0" fill="#FEFFFE" transform="matrix(1.00, 0.00, -0.00, -1.00, 467.4, 271.0)">t</text><text xml:space="preserve" font-family="HelveticaNeue-Light" font-size="50.0" fill="#FEFFFE" transform="matrix(1.00, 0.00, -0.00, -1.00, 482.1, 271.0)">o</text><text xml:space="preserve" font-family="HelveticaNeue-Light" font-size="50.0" fill="#FEFFFE" transform="matrix(1.00, 0.00, -0.00, -1.00, 509.9, 271.0)"> </text><text xml:space="preserve" font-family="HelveticaNeue-Light" font-size="50.0" fill="#FEFFFE" transform="matrix(1.00, 0.00, -0.00, -1.00, 523.8, 271.0)">i</text><text xml:space="preserve" font-family="HelveticaNeue-Light" font-size="50.0" fill="#FEFFFE" transform="matrix(1.00, 0.00, -0.00, -1.00, 533.1, 271.0)">t</text><text xml:space="preserve" font-family="HelveticaNeue-Light" font-size="50.0" fill="#FEFFFE" transform="matrix(1.00, 0.00, -0.00, -1.00, 547.9, 271.0)"> </text><text xml:space="preserve" font-family="HelveticaNeue-Light" font-size="50.0" fill="#FEFFFE" transform="matrix(1.00, 0.00, -0.00, -1.00, 561.8, 271.0)">o</text><text xml:space="preserve" font-family="HelveticaNeue-Light" font-size="50.0" fill="#FEFFFE" transform="matrix(1.00, 0.00, -0.00, -1.00, 589.6, 271.0)">f</text><text xml:space="preserve" font-family="HelveticaNeue-Light" font-size="50.0" fill="#FEFFFE" transform="matrix(1.00, 0.00, -0.00, -1.00, 602.5, 271.0)">t</text><text xml:space="preserve" font-family="HelveticaNeue-Light" font-size="50.0" fill="#FEFFFE" transform="matrix(1.00, 0.00, -0.00, -1.00, 617.3, 271.0)">e</text><text xml:space="preserve" font-family="HelveticaNeue-Light" font-size="50.0" fill="#FEFFFE" transform="matrix(1.00, 0.00, -0.00, -1.00, 643.3, 271.0)">n</text><text xml:space="preserve" font-family="HelveticaNeue-Light" font-size="50.0" fill="#FEFFFE" transform="matrix(1.00, 0.00, -0.00, -1.00, 670.1, 271.0)"> </text><image xlink:href="../../077543C8-1A3F-406E-9593-99609A063235/assets/D78D93A8DEE9B68D58E2A0BAEAF9F97F.png" width="18.00" height="18.00" transform="matrix(1.00, 0.00, -0.00, -1.00, 170.0, 186.0)"></image><g><clipPath id="clip-2489"><path d="M 170.0 168.1 L 187.6 168.1 L 187.6 185.8 L 170.0 185.8 Z M 170.0 168.1 "></path></clipPath><g clip-path="url(#clip-2489)"><g><g><clipPath id="clip-2490"><path d="M 170.0 185.8 L 187.6 185.8 L 187.6 168.1 L 170.0 168.1 Z M 170.0 185.8 "></path></clipPath><g clip-path="url(#clip-2490)"><g><clipPath id="clip-2491"><path d="M 166.0 161.0 L 192.0 161.0 L 192.0 193.0 L 166.0 193.0 Z M 166.0 161.0 "></path></clipPath><g clip-path="url(#clip-2491)"><path d="M 187.6 182.3 C 187.6 183.0 187.2 183.8 186.5 184.6 C 185.8 185.4 185.0 185.8 184.1 185.8 C 183.7 185.8 183.1 185.6 182.2 185.2 C 180.9 184.5 179.7 184.2 178.8 184.2 C 177.8 184.2 176.6 184.5 175.3 185.2 C 174.5 185.6 173.9 185.8 173.4 185.8 C 172.6 185.8 171.8 185.4 171.1 184.6 C 170.4 183.9 170.0 183.1 170.0 182.3 C 170.0 181.8 170.2 181.2 170.6 180.3 C 171.2 179.0 171.5 177.9 171.5 176.9 C 171.5 176.0 171.2 174.9 170.6 173.5 C 170.2 172.7 170.0 172.1 170.0 171.6 C 170.0 170.8 170.4 170.0 171.1 169.2 C 171.8 168.5 172.6 168.1 173.4 168.1 C 173.9 168.1 174.5 168.3 175.3 168.7 C 176.6 169.4 177.8 169.7 178.8 169.7 C 179.7 169.7 180.9 169.4 182.2 168.7 C 183.1 168.3 183.7 168.1 184.1 168.1 C 185.0 168.1 185.8 168.5 186.5 169.2 C 187.2 170.0 187.6 170.8 187.6 171.6 C 187.6 172.1 187.4 172.7 187.0 173.5 C 186.3 174.9 186.0 176.0 186.0 176.9 C 186.0 177.9 186.3 179.0 187.0 180.3 C 187.4 181.2 187.6 181.8 187.6 182.3 " fill="#FFFFFF"></path></g></g></g></g></g></g></g><image xlink:href="../../14F58C19-78CA-47B6-8767-2DC91955C37C/assets/E584A06BB1C10D3EF8CCE4425EC230D2.png" width="1098.00" height="56.00" transform="matrix(1.00, 0.00, -0.00, -1.00, 217.0, 198.0)"></image><text xml:space="preserve" font-family="HelveticaNeue-Light" font-size="50.0" fill="#FEFFFE" transform="matrix(1.00, 0.00, -0.00, -1.00, 220.0, 160.0)">C</text><text xml:space="preserve" font-family="HelveticaNeue-Light" font-size="50.0" fill="#FEFFFE" transform="matrix(1.00, 0.00, -0.00, -1.00, 255.2, 160.0)">a</text><text xml:space="preserve" font-family="HelveticaNeue-Light" font-size="50.0" fill="#FEFFFE" transform="matrix(1.00, 0.00, -0.00, -1.00, 281.1, 160.0)">r</text><text xml:space="preserve" font-family="HelveticaNeue-Light" font-size="50.0" fill="#FEFFFE" transform="matrix(1.00, 0.00, -0.00, -1.00, 296.9, 160.0)">l</text><text xml:space="preserve" font-family="HelveticaNeue-Light" font-size="50.0" fill="#FEFFFE" transform="matrix(1.00, 0.00, -0.00, -1.00, 306.1, 160.0)"> </text><text xml:space="preserve" font-family="HelveticaNeue-Light" font-size="50.0" fill="#FEFFFE" transform="matrix(1.00, 0.00, -0.00, -1.00, 320.1, 160.0)">B</text><text xml:space="preserve" font-family="HelveticaNeue-Light" font-size="50.0" fill="#FEFFFE" transform="matrix(1.00, 0.00, -0.00, -1.00, 353.4, 160.0)">o</text><text xml:space="preserve" font-family="HelveticaNeue-Light" font-size="50.0" fill="#FEFFFE" transform="matrix(1.00, 0.00, -0.00, -1.00, 381.2, 160.0)">e</text><text xml:space="preserve" font-family="HelveticaNeue-Light" font-size="50.0" fill="#FEFFFE" transform="matrix(1.00, 0.00, -0.00, -1.00, 407.2, 160.0)">t</text><text xml:space="preserve" font-family="HelveticaNeue-Light" font-size="50.0" fill="#FEFFFE" transform="matrix(1.00, 0.00, -0.00, -1.00, 422.0, 160.0)">t</text><text xml:space="preserve" font-family="HelveticaNeue-Light" font-size="50.0" fill="#FEFFFE" transform="matrix(1.00, 0.00, -0.00, -1.00, 436.8, 160.0)">i</text><text xml:space="preserve" font-family="HelveticaNeue-Light" font-size="50.0" fill="#FEFFFE" transform="matrix(1.00, 0.00, -0.00, -1.00, 446.0, 160.0)">g</text><text xml:space="preserve" font-family="HelveticaNeue-Light" font-size="50.0" fill="#FEFFFE" transform="matrix(1.00, 0.00, -0.00, -1.00, 473.8, 160.0)">e</text><text xml:space="preserve" font-family="HelveticaNeue-Light" font-size="50.0" fill="#FEFFFE" transform="matrix(1.00, 0.00, -0.00, -1.00, 499.8, 160.0)">r</text><text xml:space="preserve" font-family="HelveticaNeue-Light" font-size="50.0" fill="#FEFFFE" transform="matrix(1.00, 0.00, -0.00, -1.00, 515.5, 160.0)"> </text><text xml:space="preserve" font-family="HelveticaNeue-Light" font-size="50.0" fill="#FEFFFE" transform="matrix(1.00, 0.00, -0.00, -1.00, 529.4, 160.0)">h</text><text xml:space="preserve" font-family="HelveticaNeue-Light" font-size="50.0" fill="#FEFFFE" transform="matrix(1.00, 0.00, -0.00, -1.00, 556.2, 160.0)">a</text><text xml:space="preserve" font-family="HelveticaNeue-Light" font-size="50.0" fill="#FEFFFE" transform="matrix(1.00, 0.00, -0.00, -1.00, 582.2, 160.0)">s</text><text xml:space="preserve" font-family="HelveticaNeue-Light" font-size="50.0" fill="#FEFFFE" transform="matrix(1.00, 0.00, -0.00, -1.00, 606.2, 160.0)"> </text><text xml:space="preserve" font-family="HelveticaNeue-Light" font-size="50.0" fill="#FEFFFE" transform="matrix(1.00, 0.00, -0.00, -1.00, 620.2, 160.0)">s</text><text xml:space="preserve" font-family="HelveticaNeue-Light" font-size="50.0" fill="#FEFFFE" transform="matrix(1.00, 0.00, -0.00, -1.00, 644.2, 160.0)">e</text><text xml:space="preserve" font-family="HelveticaNeue-Light" font-size="50.0" fill="#FEFFFE" transform="matrix(1.00, 0.00, -0.00, -1.00, 670.2, 160.0)">v</text><text xml:space="preserve" font-family="HelveticaNeue-Light" font-size="50.0" fill="#FEFFFE" transform="matrix(1.00, 0.00, -0.00, -1.00, 693.3, 160.0)">e</text><text xml:space="preserve" font-family="HelveticaNeue-Light" font-size="50.0" fill="#FEFFFE" transform="matrix(1.00, 0.00, -0.00, -1.00, 719.2, 160.0)">r</text><text xml:space="preserve" font-family="HelveticaNeue-Light" font-size="50.0" fill="#FEFFFE" transform="matrix(1.00, 0.00, -0.00, -1.00, 735.0, 160.0)">a</text><text xml:space="preserve" font-family="HelveticaNeue-Light" font-size="50.0" fill="#FEFFFE" transform="matrix(1.00, 0.00, -0.00, -1.00, 761.0, 160.0)">l</text><text xml:space="preserve" font-family="HelveticaNeue-Light" font-size="50.0" fill="#FEFFFE" transform="matrix(1.00, 0.00, -0.00, -1.00, 770.2, 160.0)"> </text><text xml:space="preserve" font-family="HelveticaNeue-Light" font-size="50.0" fill="#FEFFFE" transform="matrix(1.00, 0.00, -0.00, -1.00, 784.1, 160.0)">e</text><text xml:space="preserve" font-family="HelveticaNeue-Light" font-size="50.0" fill="#FEFFFE" transform="matrix(1.00, 0.00, -0.00, -1.00, 810.1, 160.0)">x</text><text xml:space="preserve" font-family="HelveticaNeue-Light" font-size="50.0" fill="#FEFFFE" transform="matrix(1.00, 0.00, -0.00, -1.00, 834.1, 160.0)">a</text><text xml:space="preserve" font-family="HelveticaNeue-Light" font-size="50.0" fill="#FEFFFE" transform="matrix(1.00, 0.00, -0.00, -1.00, 860.1, 160.0)">m</text><text xml:space="preserve" font-family="HelveticaNeue-Light" font-size="50.0" fill="#FEFFFE" transform="matrix(1.00, 0.00, -0.00, -1.00, 901.7, 160.0)">p</text><text xml:space="preserve" font-family="HelveticaNeue-Light" font-size="50.0" fill="#FEFFFE" transform="matrix(1.00, 0.00, -0.00, -1.00, 930.4, 160.0)">l</text><text xml:space="preserve" font-family="HelveticaNeue-Light" font-size="50.0" fill="#FEFFFE" transform="matrix(1.00, 0.00, -0.00, -1.00, 939.7, 160.0)">e</text><text xml:space="preserve" font-family="HelveticaNeue-Light" font-size="50.0" fill="#FEFFFE" transform="matrix(1.00, 0.00, -0.00, -1.00, 965.6, 160.0)">s</text><text xml:space="preserve" font-family="HelveticaNeue-Light" font-size="50.0" fill="#FEFFFE" transform="matrix(1.00, 0.00, -0.00, -1.00, 989.7, 160.0)"> </text><text xml:space="preserve" font-family="HelveticaNeue-Light" font-size="50.0" fill="#FEFFFE" transform="matrix(1.00, 0.00, -0.00, -1.00, 1003.6, 160.0)">o</text><text xml:space="preserve" font-family="HelveticaNeue-Light" font-size="50.0" fill="#FEFFFE" transform="matrix(1.00, 0.00, -0.00, -1.00, 1031.3, 160.0)">n</text><text xml:space="preserve" font-family="HelveticaNeue-Light" font-size="50.0" fill="#FEFFFE" transform="matrix(1.00, 0.00, -0.00, -1.00, 1058.2, 160.0)"> </text><text xml:space="preserve" font-family="HelveticaNeue-Light" font-size="50.0" fill="#FEFFFE" transform="matrix(1.00, 0.00, -0.00, -1.00, 1072.1, 160.0)">h</text><text xml:space="preserve" font-family="HelveticaNeue-Light" font-size="50.0" fill="#FEFFFE" transform="matrix(1.00, 0.00, -0.00, -1.00, 1099.0, 160.0)">i</text><text xml:space="preserve" font-family="HelveticaNeue-Light" font-size="50.0" fill="#FEFFFE" transform="matrix(1.00, 0.00, -0.00, -1.00, 1108.2, 160.0)">s</text><text xml:space="preserve" font-family="HelveticaNeue-Light" font-size="50.0" fill="#FEFFFE" transform="matrix(1.00, 0.00, -0.00, -1.00, 1132.2, 160.0)"> </text><text xml:space="preserve" font-family="HelveticaNeue-Light" font-size="50.0" fill="#FEFFFE" transform="matrix(1.00, 0.00, -0.00, -1.00, 1146.2, 160.0)">w</text><text xml:space="preserve" font-family="HelveticaNeue-Light" font-size="50.0" fill="#FEFFFE" transform="matrix(1.00, 0.00, -0.00, -1.00, 1183.2, 160.0)">e</text><text xml:space="preserve" font-family="HelveticaNeue-Light" font-size="50.0" fill="#FEFFFE" transform="matrix(1.00, 0.00, -0.00, -1.00, 1209.2, 160.0)">b</text><text xml:space="preserve" font-family="HelveticaNeue-Light" font-size="50.0" fill="#FEFFFE" transform="matrix(1.00, 0.00, -0.00, -1.00, 1237.8, 160.0)">s</text><text xml:space="preserve" font-family="HelveticaNeue-Light" font-size="50.0" fill="#FEFFFE" transform="matrix(1.00, 0.00, -0.00, -1.00, 1261.9, 160.0)">i</text><text xml:space="preserve" font-family="HelveticaNeue-Light" font-size="50.0" fill="#FEFFFE" transform="matrix(1.00, 0.00, -0.00, -1.00, 1271.2, 160.0)">t</text><text xml:space="preserve" font-family="HelveticaNeue-Light" font-size="50.0" fill="#FEFFFE" transform="matrix(1.00, 0.00, -0.00, -1.00, 1286.0, 160.0)">e</text></g></svg>