<?xml version="1.0" encoding="UTF-8" standalone="no"?><svg xmlns="http://www.w3.org/2000/svg" xmlns:xlink="http://www.w3.org/1999/xlink" clip-rule="evenodd" stroke-miterlimit="4.00" viewBox="0 0 1920 1080"><desc>SVG generated by Keynote</desc><defs></defs><g transform="matrix(1.00, 0.00, -0.00, -1.00, 0.0, 1080.0)"><g><clipPath id="clip-907"><path d="M 0.0 1080.0 L 1920.0 1080.0 L 1920.0 0.0 L 0.0 0.0 Z M 0.0 1080.0 "></path></clipPath><g clip-path="url(#clip-907)"><image xlink:href="../../1D876F4A-8FAE-4533-855C-0B67E64EABCD/assets/4B0075050CC9D0F3DC006F0CDE78D676.jpeg" width="1365.00" height="767.00" transform="matrix(1.41, 0.00, -0.00, -1.41, 0.0, 1080.0)"></image></g></g><image xlink:href="../../FCA49A15-E512-4B4B-972E-6837D15D8EED/assets/2FAB0393F3B14F88875F42E4E0F02ADB.png" width="574.00" height="161.00" transform="matrix(1.00, 0.00, -0.00, -1.00, 471.0, 927.0)"></image><image xlink:href="../../FCA49A15-E512-4B4B-972E-6837D15D8EED/assets/72F218B0DE8AA3DDB040AFF20BEC0457.png" width="205.00" height="66.00" transform="matrix(1.42, 0.00, -0.00, -1.42, 122.0, 992.0)"></image><image xlink:href="../../FCA49A15-E512-4B4B-972E-6837D15D8EED/assets/878A19A313A3EC5A397E4E207674F443.png" width="250.00" height="45.00" transform="matrix(1.00, 0.00, -0.00, -1.00, 1530.0, 866.0)"></image><text xml:space="preserve" font-family="HelveticaNeue-Light" font-size="40.0" fill="#FEFFFE" transform="matrix(1.00, 0.00, -0.00, -1.00, 1535.0, 836.0)">A</text><text xml:space="preserve" font-family="HelveticaNeue-Light" font-size="40.0" fill="#FEFFFE" transform="matrix(1.00, 0.00, -0.00, -1.00, 1560.2, 836.0)">p</text><text xml:space="preserve" font-family="HelveticaNeue-Light" font-size="40.0" fill="#FEFFFE" transform="matrix(1.00, 0.00, -0.00, -1.00, 1583.2, 836.0)">r</text><text xml:space="preserve" font-family="HelveticaNeue-Light" font-size="40.0" fill="#FEFFFE" transform="matrix(1.00, 0.00, -0.00, -1.00, 1595.8, 836.0)">i</text><text xml:space="preserve" font-family="HelveticaNeue-Light" font-size="40.0" fill="#FEFFFE" transform="matrix(1.00, 0.00, -0.00, -1.00, 1603.2, 836.0)">l</text><text xml:space="preserve" font-family="HelveticaNeue-Light" font-size="40.0" fill="#FEFFFE" transform="matrix(1.00, 0.00, -0.00, -1.00, 1610.6, 836.0)"> </text><text xml:space="preserve" font-family="HelveticaNeue-Light" font-size="40.0" fill="#FEFFFE" transform="matrix(1.00, 0.00, -0.00, -1.00, 1621.7, 836.0)">1</text><text xml:space="preserve" font-family="HelveticaNeue-Light" font-size="40.0" fill="#FEFFFE" transform="matrix(1.00, 0.00, -0.00, -1.00, 1643.9, 836.0)">8</text><text xml:space="preserve" font-family="HelveticaNeue-Light" font-size="40.0" fill="#FEFFFE" transform="matrix(1.00, 0.00, -0.00, -1.00, 1666.2, 836.0)">,</text><text xml:space="preserve" font-family="HelveticaNeue-Light" font-size="40.0" fill="#FEFFFE" transform="matrix(1.00, 0.00, -0.00, -1.00, 1677.3, 836.0)"> </text><text xml:space="preserve" font-family="HelveticaNeue-Light" font-size="40.0" fill="#FEFFFE" transform="matrix(1.00, 0.00, -0.00, -1.00, 1688.4, 836.0)">2</text><text xml:space="preserve" font-family="HelveticaNeue-Light" font-size="40.0" fill="#FEFFFE" transform="matrix(1.00, 0.00, -0.00, -1.00, 1710.6, 836.0)">0</text><text xml:space="preserve" font-family="HelveticaNeue-Light" font-size="40.0" fill="#FEFFFE" transform="matrix(1.00, 0.00, -0.00, -1.00, 1732.9, 836.0)">1</text><text xml:space="preserve" font-family="HelveticaNeue-Light" font-size="40.0" fill="#FEFFFE" transform="matrix(1.00, 0.00, -0.00, -1.00, 1755.1, 836.0)">3</text><image xlink:href="../../FCA49A15-E512-4B4B-972E-6837D15D8EED/assets/90229DB3AB30353545EB9887088CE06B.png" width="482.00" height="540.00" transform="matrix(1.27, 0.00, -0.00, -1.27, 471.0, 702.0)"></image><image xlink:href="../../FCA49A15-E512-4B4B-972E-6837D15D8EED/assets/602DE104BD686FA231AB9AF4988C7B01.png" width="98.00" height="50.00" transform="matrix(1.79, 0.00, -0.00, -1.78, 101.0, 403.0)"></image><image xlink:href="../../FCA49A15-E512-4B4B-972E-6837D15D8EED/assets/49CC00F77448613CB0CB57705C968D0D.png" width="231.00" height="46.00" transform="matrix(1.00, 0.00, -0.00, -1.00, 1541.0, 374.0)"></image><text xml:space="preserve" font-family="HelveticaNeue-Light" font-size="40.0" fill="#FEFFFE" transform="matrix(1.00, 0.00, -0.00, -1.00, 1544.0, 343.0)">S</text><text xml:space="preserve" font-family="HelveticaNeue-Light" font-size="40.0" fill="#FEFFFE" transform="matrix(1.00, 0.00, -0.00, -1.00, 1569.2, 343.0)">e</text><text xml:space="preserve" font-family="HelveticaNeue-Light" font-size="40.0" fill="#FEFFFE" transform="matrix(1.00, 0.00, -0.00, -1.00, 1590.0, 343.0)">p</text><text xml:space="preserve" font-family="HelveticaNeue-Light" font-size="40.0" fill="#FEFFFE" transform="matrix(1.00, 0.00, -0.00, -1.00, 1612.9, 343.0)">t</text><text xml:space="preserve" font-family="HelveticaNeue-Light" font-size="40.0" fill="#FEFFFE" transform="matrix(1.00, 0.00, -0.00, -1.00, 1624.8, 343.0)"> </text><text xml:space="preserve" font-family="HelveticaNeue-Light" font-size="40.0" fill="#FEFFFE" transform="matrix(1.00, 0.00, -0.00, -1.00, 1635.9, 343.0)">7</text><text xml:space="preserve" font-family="HelveticaNeue-Light" font-size="40.0" fill="#FEFFFE" transform="matrix(1.00, 0.00, -0.00, -1.00, 1658.1, 343.0)">,</text><text xml:space="preserve" font-family="HelveticaNeue-Light" font-size="40.0" fill="#FEFFFE" transform="matrix(1.00, 0.00, -0.00, -1.00, 1669.2, 343.0)"> </text><text xml:space="preserve" font-family="HelveticaNeue-Light" font-size="40.0" fill="#FEFFFE" transform="matrix(1.00, 0.00, -0.00, -1.00, 1680.4, 343.0)">2</text><text xml:space="preserve" font-family="HelveticaNeue-Light" font-size="40.0" fill="#FEFFFE" transform="matrix(1.00, 0.00, -0.00, -1.00, 1702.6, 343.0)">0</text><text xml:space="preserve" font-family="HelveticaNeue-Light" font-size="40.0" fill="#FEFFFE" transform="matrix(1.00, 0.00, -0.00, -1.00, 1724.8, 343.0)">1</text><text xml:space="preserve" font-family="HelveticaNeue-Light" font-size="40.0" fill="#FEFFFE" transform="matrix(1.00, 0.00, -0.00, -1.00, 1747.1, 343.0)">6</text></g></svg>