<?xml version="1.0" encoding="UTF-8" standalone="no"?><svg xmlns="http://www.w3.org/2000/svg" xmlns:xlink="http://www.w3.org/1999/xlink" clip-rule="evenodd" stroke-miterlimit="4.00" viewBox="0 0 1920 1080"><desc>SVG generated by Keynote</desc><defs></defs><g transform="matrix(1.00, 0.00, -0.00, -1.00, 0.0, 1080.0)"><g><clipPath id="clip-806"><path d="M 0.0 1080.0 L 1920.0 1080.0 L 1920.0 0.0 L 0.0 0.0 Z M 0.0 1080.0 "></path></clipPath><g clip-path="url(#clip-806)"><image xlink:href="../../1D876F4A-8FAE-4533-855C-0B67E64EABCD/assets/4B0075050CC9D0F3DC006F0CDE78D676.jpeg" width="1365.00" height="767.00" transform="matrix(1.41, 0.00, -0.00, -1.41, 0.0, 1080.0)"></image></g></g><image xlink:href="B531F0E1A6B81162B0BEBAAEFBBAEDFC.png" width="1200.00" height="505.00" transform="matrix(1.54, 0.00, -0.00, -1.53, 39.0, 996.0)"></image><image xlink:href="5E6393F84308D5BC95B4AB5C3F9F37D9.png" width="301.00" height="31.00" transform="matrix(1.00, 0.00, -0.00, -1.00, 1274.0, 133.0)"></image><text xml:space="preserve" font-family="AvenirNext-Medium" font-size="24.0" fill="#FEFFFE" transform="matrix(1.00, 0.00, -0.00, -1.00, 1276.0, 113.0)">D</text><text xml:space="preserve" font-family="AvenirNext-Medium" font-size="24.0" fill="#FEFFFE" transform="matrix(1.00, 0.00, -0.00, -1.00, 1294.3, 113.0)">a</text><text xml:space="preserve" font-family="AvenirNext-Medium" font-size="24.0" fill="#FEFFFE" transform="matrix(1.00, 0.00, -0.00, -1.00, 1307.3, 113.0)">v</text><text xml:space="preserve" font-family="AvenirNext-Medium" font-size="24.0" fill="#FEFFFE" transform="matrix(1.00, 0.00, -0.00, -1.00, 1319.4, 113.0)">i</text><text xml:space="preserve" font-family="AvenirNext-Medium" font-size="24.0" fill="#FEFFFE" transform="matrix(1.00, 0.00, -0.00, -1.00, 1325.6, 113.0)">d</text><text xml:space="preserve" font-family="AvenirNext-Medium" font-size="24.0" fill="#FEFFFE" transform="matrix(1.00, 0.00, -0.00, -1.00, 1340.8, 113.0)"> </text><text xml:space="preserve" font-family="AvenirNext-Medium" font-size="24.0" fill="#FEFFFE" transform="matrix(1.00, 0.00, -0.00, -1.00, 1346.8, 113.0)">R</text><text xml:space="preserve" font-family="AvenirNext-Medium" font-size="24.0" fill="#FEFFFE" transform="matrix(1.00, 0.00, -0.00, -1.00, 1361.3, 113.0)">o</text><text xml:space="preserve" font-family="AvenirNext-Medium" font-size="24.0" fill="#FEFFFE" transform="matrix(1.00, 0.00, -0.00, -1.00, 1375.9, 113.0)">b</text><text xml:space="preserve" font-family="AvenirNext-Medium" font-size="24.0" fill="#FEFFFE" transform="matrix(1.00, 0.00, -0.00, -1.00, 1391.2, 113.0)">i</text><text xml:space="preserve" font-family="AvenirNext-Medium" font-size="24.0" fill="#FEFFFE" transform="matrix(1.00, 0.00, -0.00, -1.00, 1397.4, 113.0)">n</text><text xml:space="preserve" font-family="AvenirNext-Medium" font-size="24.0" fill="#FEFFFE" transform="matrix(1.00, 0.00, -0.00, -1.00, 1411.4, 113.0)">s</text><text xml:space="preserve" font-family="AvenirNext-Medium" font-size="24.0" fill="#FEFFFE" transform="matrix(1.00, 0.00, -0.00, -1.00, 1422.0, 113.0)">o</text><text xml:space="preserve" font-family="AvenirNext-Medium" font-size="24.0" fill="#FEFFFE" transform="matrix(1.00, 0.00, -0.00, -1.00, 1436.7, 113.0)">n</text><text xml:space="preserve" font-family="AvenirNext-Medium" font-size="24.0" fill="#FEFFFE" transform="matrix(1.00, 0.00, -0.00, -1.00, 1450.6, 113.0)">,</text><text xml:space="preserve" font-family="AvenirNext-Medium" font-size="24.0" fill="#FEFFFE" transform="matrix(1.00, 0.00, -0.00, -1.00, 1456.1, 113.0)"> </text><text xml:space="preserve" font-family="AvenirNext-Medium" font-size="24.0" fill="#FEFFFE" transform="matrix(1.00, 0.00, -0.00, -1.00, 1461.9, 113.0)">J</text><text xml:space="preserve" font-family="AvenirNext-Medium" font-size="24.0" fill="#FEFFFE" transform="matrix(1.00, 0.00, -0.00, -1.00, 1473.7, 113.0)">S</text><text xml:space="preserve" font-family="AvenirNext-Medium" font-size="24.0" fill="#FEFFFE" transform="matrix(1.00, 0.00, -0.00, -1.00, 1487.4, 113.0)">M</text><text xml:space="preserve" font-family="AvenirNext-Medium" font-size="24.0" fill="#FEFFFE" transform="matrix(1.00, 0.00, -0.00, -1.00, 1509.1, 113.0)"> </text><text xml:space="preserve" font-family="AvenirNext-Medium" font-size="24.0" fill="#FEFFFE" transform="matrix(1.00, 0.00, -0.00, -1.00, 1515.1, 113.0)">2</text><text xml:space="preserve" font-family="AvenirNext-Medium" font-size="24.0" fill="#FEFFFE" transform="matrix(1.00, 0.00, -0.00, -1.00, 1529.3, 113.0)">0</text><text xml:space="preserve" font-family="AvenirNext-Medium" font-size="24.0" fill="#FEFFFE" transform="matrix(1.00, 0.00, -0.00, -1.00, 1543.6, 113.0)">1</text><text xml:space="preserve" font-family="AvenirNext-Medium" font-size="24.0" fill="#FEFFFE" transform="matrix(1.00, 0.00, -0.00, -1.00, 1557.9, 113.0)">6</text></g></svg>