<?xml version="1.0" encoding="UTF-8" standalone="no"?><svg xmlns="http://www.w3.org/2000/svg" xmlns:xlink="http://www.w3.org/1999/xlink" clip-rule="evenodd" stroke-miterlimit="4.00" viewBox="0 0 1920 1080"><desc>SVG generated by Keynote</desc><defs></defs><g transform="matrix(1.00, 0.00, -0.00, -1.00, 0.0, 1080.0)"><g><clipPath id="clip-397"><path d="M 0.0 1080.0 L 1920.0 1080.0 L 1920.0 0.0 L 0.0 0.0 Z M 0.0 1080.0 "></path></clipPath><g clip-path="url(#clip-397)"><image xlink:href="../../1D876F4A-8FAE-4533-855C-0B67E64EABCD/assets/4B0075050CC9D0F3DC006F0CDE78D676.jpeg" width="1365.00" height="767.00" transform="matrix(1.41, 0.00, -0.00, -1.41, 0.0, 1080.0)"></image></g></g><image xlink:href="../../6AB52D13-21A5-449D-8DDF-CF462BC6FDAD/assets/44D597644944D5751A2E4690D4B368A3.png" width="1664.00" height="66.00" transform="matrix(1.00, 0.00, -0.00, -1.00, 115.0, 831.0)"></image><text xml:space="preserve" font-family="HelveticaNeue-Light" font-size="62.0" fill="#FEFFFE" transform="matrix(1.00, 0.00, -0.00, -1.00, 120.0, 785.0)">T</text><text xml:space="preserve" font-family="HelveticaNeue-Light" font-size="62.0" fill="#FEFFFE" transform="matrix(1.00, 0.00, -0.00, -1.00, 154.5, 785.0)">h</text><text xml:space="preserve" font-family="HelveticaNeue-Light" font-size="62.0" fill="#FEFFFE" transform="matrix(1.00, 0.00, -0.00, -1.00, 187.8, 785.0)">e</text><text xml:space="preserve" font-family="HelveticaNeue-Light" font-size="62.0" fill="#FEFFFE" transform="matrix(1.00, 0.00, -0.00, -1.00, 219.9, 785.0)"> </text><text xml:space="preserve" font-family="HelveticaNeue-Light" font-size="62.0" fill="#FEFFFE" transform="matrix(1.00, 0.00, -0.00, -1.00, 237.2, 785.0)">b</text><text xml:space="preserve" font-family="HelveticaNeue-Light" font-size="62.0" fill="#FEFFFE" transform="matrix(1.00, 0.00, -0.00, -1.00, 272.8, 785.0)">i</text><text xml:space="preserve" font-family="HelveticaNeue-Light" font-size="62.0" fill="#FEFFFE" transform="matrix(1.00, 0.00, -0.00, -1.00, 284.2, 785.0)">g</text><text xml:space="preserve" font-family="HelveticaNeue-Light" font-size="62.0" fill="#FEFFFE" transform="matrix(1.00, 0.00, -0.00, -1.00, 318.7, 785.0)">g</text><text xml:space="preserve" font-family="HelveticaNeue-Light" font-size="62.0" fill="#FEFFFE" transform="matrix(1.00, 0.00, -0.00, -1.00, 353.2, 785.0)">e</text><text xml:space="preserve" font-family="HelveticaNeue-Light" font-size="62.0" fill="#FEFFFE" transform="matrix(1.00, 0.00, -0.00, -1.00, 385.4, 785.0)">s</text><text xml:space="preserve" font-family="HelveticaNeue-Light" font-size="62.0" fill="#FEFFFE" transform="matrix(1.00, 0.00, -0.00, -1.00, 415.2, 785.0)">t</text><text xml:space="preserve" font-family="HelveticaNeue-Light" font-size="62.0" fill="#FEFFFE" transform="matrix(1.00, 0.00, -0.00, -1.00, 433.5, 785.0)"> </text><text xml:space="preserve" font-family="HelveticaNeue-Light" font-size="62.0" fill="#FEFFFE" transform="matrix(1.00, 0.00, -0.00, -1.00, 450.8, 785.0)">r</text><text xml:space="preserve" font-family="HelveticaNeue-Light" font-size="62.0" fill="#FEFFFE" transform="matrix(1.00, 0.00, -0.00, -1.00, 469.2, 785.0)">e</text><text xml:space="preserve" font-family="HelveticaNeue-Light" font-size="62.0" fill="#FEFFFE" transform="matrix(1.00, 0.00, -0.00, -1.00, 501.4, 785.0)">a</text><text xml:space="preserve" font-family="HelveticaNeue-Light" font-size="62.0" fill="#FEFFFE" transform="matrix(1.00, 0.00, -0.00, -1.00, 533.5, 785.0)">s</text><text xml:space="preserve" font-family="HelveticaNeue-Light" font-size="62.0" fill="#FEFFFE" transform="matrix(1.00, 0.00, -0.00, -1.00, 563.4, 785.0)">o</text><text xml:space="preserve" font-family="HelveticaNeue-Light" font-size="62.0" fill="#FEFFFE" transform="matrix(1.00, 0.00, -0.00, -1.00, 597.8, 785.0)">n</text><text xml:space="preserve" font-family="HelveticaNeue-Light" font-size="62.0" fill="#FEFFFE" transform="matrix(1.00, 0.00, -0.00, -1.00, 631.1, 785.0)"> </text><text xml:space="preserve" font-family="HelveticaNeue-Light" font-size="62.0" fill="#FEFFFE" transform="matrix(1.00, 0.00, -0.00, -1.00, 648.4, 785.0)">f</text><text xml:space="preserve" font-family="HelveticaNeue-Light" font-size="62.0" fill="#FEFFFE" transform="matrix(1.00, 0.00, -0.00, -1.00, 664.4, 785.0)">o</text><text xml:space="preserve" font-family="HelveticaNeue-Light" font-size="62.0" fill="#FEFFFE" transform="matrix(1.00, 0.00, -0.00, -1.00, 698.9, 785.0)">r</text><text xml:space="preserve" font-family="HelveticaNeue-Light" font-size="62.0" fill="#FEFFFE" transform="matrix(1.00, 0.00, -0.00, -1.00, 718.4, 785.0)"> </text><text xml:space="preserve" font-family="HelveticaNeue-Light" font-size="62.0" fill="#FEFFFE" transform="matrix(1.00, 0.00, -0.00, -1.00, 735.7, 785.0)">m</text><text xml:space="preserve" font-family="HelveticaNeue-Light" font-size="62.0" fill="#FEFFFE" transform="matrix(1.00, 0.00, -0.00, -1.00, 787.3, 785.0)">a</text><text xml:space="preserve" font-family="HelveticaNeue-Light" font-size="62.0" fill="#FEFFFE" transform="matrix(1.00, 0.00, -0.00, -1.00, 819.5, 785.0)">i</text><text xml:space="preserve" font-family="HelveticaNeue-Light" font-size="62.0" fill="#FEFFFE" transform="matrix(1.00, 0.00, -0.00, -1.00, 831.0, 785.0)">n</text><text xml:space="preserve" font-family="HelveticaNeue-Light" font-size="62.0" fill="#FEFFFE" transform="matrix(1.00, 0.00, -0.00, -1.00, 864.2, 785.0)">t</text><text xml:space="preserve" font-family="HelveticaNeue-Light" font-size="62.0" fill="#FEFFFE" transform="matrix(1.00, 0.00, -0.00, -1.00, 882.6, 785.0)">a</text><text xml:space="preserve" font-family="HelveticaNeue-Light" font-size="62.0" fill="#FEFFFE" transform="matrix(1.00, 0.00, -0.00, -1.00, 914.8, 785.0)">i</text><text xml:space="preserve" font-family="HelveticaNeue-Light" font-size="62.0" fill="#FEFFFE" transform="matrix(1.00, 0.00, -0.00, -1.00, 926.2, 785.0)">n</text><text xml:space="preserve" font-family="HelveticaNeue-Light" font-size="62.0" fill="#FEFFFE" transform="matrix(1.00, 0.00, -0.00, -1.00, 959.5, 785.0)">i</text><text xml:space="preserve" font-family="HelveticaNeue-Light" font-size="62.0" fill="#FEFFFE" transform="matrix(1.00, 0.00, -0.00, -1.00, 971.0, 785.0)">n</text><text xml:space="preserve" font-family="HelveticaNeue-Light" font-size="62.0" fill="#FEFFFE" transform="matrix(1.00, 0.00, -0.00, -1.00, 1004.3, 785.0)">g</text><text xml:space="preserve" font-family="HelveticaNeue-Light" font-size="62.0" fill="#FEFFFE" transform="matrix(1.00, 0.00, -0.00, -1.00, 1038.8, 785.0)"> </text><text xml:space="preserve" font-family="HelveticaNeue-Light" font-size="62.0" fill="#FEFFFE" transform="matrix(1.00, 0.00, -0.00, -1.00, 1056.0, 785.0)">g</text><text xml:space="preserve" font-family="HelveticaNeue-Light" font-size="62.0" fill="#FEFFFE" transform="matrix(1.00, 0.00, -0.00, -1.00, 1090.5, 785.0)">o</text><text xml:space="preserve" font-family="HelveticaNeue-Light" font-size="62.0" fill="#FEFFFE" transform="matrix(1.00, 0.00, -0.00, -1.00, 1125.0, 785.0)">o</text><text xml:space="preserve" font-family="HelveticaNeue-Light" font-size="62.0" fill="#FEFFFE" transform="matrix(1.00, 0.00, -0.00, -1.00, 1159.4, 785.0)">d</text><text xml:space="preserve" font-family="HelveticaNeue-Light" font-size="62.0" fill="#FEFFFE" transform="matrix(1.00, 0.00, -0.00, -1.00, 1195.0, 785.0)"> </text><text xml:space="preserve" font-family="HelveticaNeue-Light" font-size="62.0" fill="#FEFFFE" transform="matrix(1.00, 0.00, -0.00, -1.00, 1212.3, 785.0)">p</text><text xml:space="preserve" font-family="HelveticaNeue-Light" font-size="62.0" fill="#FEFFFE" transform="matrix(1.00, 0.00, -0.00, -1.00, 1247.8, 785.0)">r</text><text xml:space="preserve" font-family="HelveticaNeue-Light" font-size="62.0" fill="#FEFFFE" transform="matrix(1.00, 0.00, -0.00, -1.00, 1267.4, 785.0)">a</text><text xml:space="preserve" font-family="HelveticaNeue-Light" font-size="62.0" fill="#FEFFFE" transform="matrix(1.00, 0.00, -0.00, -1.00, 1299.5, 785.0)">c</text><text xml:space="preserve" font-family="HelveticaNeue-Light" font-size="62.0" fill="#FEFFFE" transform="matrix(1.00, 0.00, -0.00, -1.00, 1331.7, 785.0)">t</text><text xml:space="preserve" font-family="HelveticaNeue-Light" font-size="62.0" fill="#FEFFFE" transform="matrix(1.00, 0.00, -0.00, -1.00, 1350.1, 785.0)">i</text><text xml:space="preserve" font-family="HelveticaNeue-Light" font-size="62.0" fill="#FEFFFE" transform="matrix(1.00, 0.00, -0.00, -1.00, 1361.5, 785.0)">c</text><text xml:space="preserve" font-family="HelveticaNeue-Light" font-size="62.0" fill="#FEFFFE" transform="matrix(1.00, 0.00, -0.00, -1.00, 1393.7, 785.0)">e</text><text xml:space="preserve" font-family="HelveticaNeue-Light" font-size="62.0" fill="#FEFFFE" transform="matrix(1.00, 0.00, -0.00, -1.00, 1425.9, 785.0)">s</text><text xml:space="preserve" font-family="HelveticaNeue-Light" font-size="62.0" fill="#FEFFFE" transform="matrix(1.00, 0.00, -0.00, -1.00, 1455.7, 785.0)"> </text><text xml:space="preserve" font-family="HelveticaNeue-Light" font-size="62.0" fill="#FEFFFE" transform="matrix(1.00, 0.00, -0.00, -1.00, 1473.0, 785.0)">i</text><text xml:space="preserve" font-family="HelveticaNeue-Light" font-size="62.0" fill="#FEFFFE" transform="matrix(1.00, 0.00, -0.00, -1.00, 1484.4, 785.0)">s</text><text xml:space="preserve" font-family="HelveticaNeue-Light" font-size="62.0" fill="#FEFFFE" transform="matrix(1.00, 0.00, -0.00, -1.00, 1514.3, 785.0)"> </text><text xml:space="preserve" font-family="HelveticaNeue-Light" font-size="62.0" fill="#FEFFFE" transform="matrix(1.00, 0.00, -0.00, -1.00, 1531.5, 785.0)">y</text><text xml:space="preserve" font-family="HelveticaNeue-Light" font-size="62.0" fill="#FEFFFE" transform="matrix(1.00, 0.00, -0.00, -1.00, 1560.2, 785.0)">o</text><text xml:space="preserve" font-family="HelveticaNeue-Light" font-size="62.0" fill="#FEFFFE" transform="matrix(1.00, 0.00, -0.00, -1.00, 1594.7, 785.0)">u</text><text xml:space="preserve" font-family="HelveticaNeue-Light" font-size="62.0" fill="#FEFFFE" transform="matrix(1.00, 0.00, -0.00, -1.00, 1628.0, 785.0)">r</text><text xml:space="preserve" font-family="HelveticaNeue-Light" font-size="62.0" fill="#FEFFFE" transform="matrix(1.00, 0.00, -0.00, -1.00, 1647.5, 785.0)"> </text><text xml:space="preserve" font-family="HelveticaNeue-Light" font-size="62.0" fill="#FEFFFE" transform="matrix(1.00, 0.00, -0.00, -1.00, 1664.7, 785.0)">o</text><text xml:space="preserve" font-family="HelveticaNeue-Light" font-size="62.0" fill="#FEFFFE" transform="matrix(1.00, 0.00, -0.00, -1.00, 1699.2, 785.0)">w</text><text xml:space="preserve" font-family="HelveticaNeue-Light" font-size="62.0" fill="#FEFFFE" transform="matrix(1.00, 0.00, -0.00, -1.00, 1745.1, 785.0)">n</text><text xml:space="preserve" font-family="HelveticaNeue-Light" font-size="62.0" fill="#FEFFFE" transform="matrix(1.00, 0.00, -0.00, -1.00, 1778.4, 785.0)"> </text><image xlink:href="../../6AB52D13-21A5-449D-8DDF-CF462BC6FDAD/assets/66D53D8F712D6DA809327A69DC1D078B.png" width="1083.00" height="183.00" transform="matrix(1.00, 0.00, -0.00, -1.00, 425.0, 578.0)"></image><text xml:space="preserve" font-family="HelveticaNeue-Light" font-size="193.0" fill="#FF2600" transform="matrix(1.00, 0.00, -0.00, -1.00, 416.0, 439.0)">M</text><text xml:space="preserve" font-family="HelveticaNeue-Light" font-size="193.0" fill="#FF2600" transform="matrix(1.00, 0.00, -0.00, -1.00, 574.5, 439.0)">e</text><text xml:space="preserve" font-family="HelveticaNeue-Light" font-size="193.0" fill="#FF2600" transform="matrix(1.00, 0.00, -0.00, -1.00, 674.6, 439.0)">n</text><text xml:space="preserve" font-family="HelveticaNeue-Light" font-size="193.0" fill="#FF2600" transform="matrix(1.00, 0.00, -0.00, -1.00, 778.3, 439.0)">t</text><text xml:space="preserve" font-family="HelveticaNeue-Light" font-size="193.0" fill="#FF2600" transform="matrix(1.00, 0.00, -0.00, -1.00, 835.4, 439.0)">a</text><text xml:space="preserve" font-family="HelveticaNeue-Light" font-size="193.0" fill="#FF2600" transform="matrix(1.00, 0.00, -0.00, -1.00, 935.6, 439.0)">l</text><text xml:space="preserve" font-family="HelveticaNeue-Light" font-size="193.0" fill="#FF2600" transform="matrix(1.00, 0.00, -0.00, -1.00, 971.3, 439.0)"> </text><text xml:space="preserve" font-family="HelveticaNeue-Light" font-size="193.0" fill="#FF2600" transform="matrix(1.00, 0.00, -0.00, -1.00, 1024.9, 439.0)">s</text><text xml:space="preserve" font-family="HelveticaNeue-Light" font-size="193.0" fill="#FF2600" transform="matrix(1.00, 0.00, -0.00, -1.00, 1117.7, 439.0)">a</text><text xml:space="preserve" font-family="HelveticaNeue-Light" font-size="193.0" fill="#FF2600" transform="matrix(1.00, 0.00, -0.00, -1.00, 1217.9, 439.0)">n</text><text xml:space="preserve" font-family="HelveticaNeue-Light" font-size="193.0" fill="#FF2600" transform="matrix(1.00, 0.00, -0.00, -1.00, 1321.6, 439.0)">i</text><text xml:space="preserve" font-family="HelveticaNeue-Light" font-size="193.0" fill="#FF2600" transform="matrix(1.00, 0.00, -0.00, -1.00, 1357.3, 439.0)">t</text><text xml:space="preserve" font-family="HelveticaNeue-Light" font-size="193.0" fill="#FF2600" transform="matrix(1.00, 0.00, -0.00, -1.00, 1414.4, 439.0)">y</text></g></svg>