<?xml version="1.0" encoding="UTF-8" standalone="no"?><svg xmlns="http://www.w3.org/2000/svg" xmlns:xlink="http://www.w3.org/1999/xlink" clip-rule="evenodd" stroke-miterlimit="4.00" viewBox="0 0 540 52"><desc>SVG generated by Keynote</desc><defs></defs><g transform="matrix(1.00, 0.00, -0.00, -1.00, 0.0, 52.0)"><image xlink:href="F1C5E8947C7F233371EBE514FEA2514E.png" width="537.00" height="49.00" transform="matrix(1.00, 0.00, -0.00, -1.00, 2.0, 50.0)"></image><text xml:space="preserve" font-family="HelveticaNeue-Light" font-size="44.0" fill="#F5D327" transform="matrix(1.00, 0.00, -0.00, -1.00, 3.0, 17.0)">R</text><text xml:space="preserve" font-family="HelveticaNeue-Light" font-size="44.0" fill="#F5D327" transform="matrix(1.00, 0.00, -0.00, -1.00, 32.3, 17.0)"> </text><text xml:space="preserve" font-family="HelveticaNeue-Light" font-size="44.0" fill="#F5D327" transform="matrix(1.00, 0.00, -0.00, -1.00, 44.6, 17.0)">m</text><text xml:space="preserve" font-family="HelveticaNeue-Light" font-size="44.0" fill="#F5D327" transform="matrix(1.00, 0.00, -0.00, -1.00, 81.2, 17.0)">a</text><text xml:space="preserve" font-family="HelveticaNeue-Light" font-size="44.0" fill="#F5D327" transform="matrix(1.00, 0.00, -0.00, -1.00, 104.1, 17.0)">y</text><text xml:space="preserve" font-family="HelveticaNeue-Light" font-size="44.0" fill="#F5D327" transform="matrix(1.00, 0.00, -0.00, -1.00, 124.4, 17.0)"> </text><text xml:space="preserve" font-family="HelveticaNeue-Light" font-size="44.0" fill="#F5D327" transform="matrix(1.00, 0.00, -0.00, -1.00, 136.7, 17.0)">h</text><text xml:space="preserve" font-family="HelveticaNeue-Light" font-size="44.0" fill="#F5D327" transform="matrix(1.00, 0.00, -0.00, -1.00, 160.3, 17.0)">a</text><text xml:space="preserve" font-family="HelveticaNeue-Light" font-size="44.0" fill="#F5D327" transform="matrix(1.00, 0.00, -0.00, -1.00, 183.1, 17.0)">v</text><text xml:space="preserve" font-family="HelveticaNeue-Light" font-size="44.0" fill="#F5D327" transform="matrix(1.00, 0.00, -0.00, -1.00, 203.5, 17.0)">e</text><text xml:space="preserve" font-family="HelveticaNeue-Light" font-size="44.0" fill="#F5D327" transform="matrix(1.00, 0.00, -0.00, -1.00, 226.3, 17.0)"> </text><text xml:space="preserve" font-family="HelveticaNeue-Light" font-size="44.0" fill="#F5D327" transform="matrix(1.00, 0.00, -0.00, -1.00, 238.6, 17.0)">a</text><text xml:space="preserve" font-family="HelveticaNeue-Light" font-size="44.0" fill="#F5D327" transform="matrix(1.00, 0.00, -0.00, -1.00, 261.4, 17.0)"> </text><text xml:space="preserve" font-family="HelveticaNeue-Light" font-size="44.0" fill="#F5D327" transform="matrix(1.00, 0.00, -0.00, -1.00, 273.6, 17.0)">s</text><text xml:space="preserve" font-family="HelveticaNeue-Light" font-size="44.0" fill="#F5D327" transform="matrix(1.00, 0.00, -0.00, -1.00, 294.8, 17.0)">a</text><text xml:space="preserve" font-family="HelveticaNeue-Light" font-size="44.0" fill="#F5D327" transform="matrix(1.00, 0.00, -0.00, -1.00, 317.6, 17.0)">v</text><text xml:space="preserve" font-family="HelveticaNeue-Light" font-size="44.0" fill="#F5D327" transform="matrix(1.00, 0.00, -0.00, -1.00, 338.0, 17.0)">i</text><text xml:space="preserve" font-family="HelveticaNeue-Light" font-size="44.0" fill="#F5D327" transform="matrix(1.00, 0.00, -0.00, -1.00, 346.2, 17.0)">o</text><text xml:space="preserve" font-family="HelveticaNeue-Light" font-size="44.0" fill="#F5D327" transform="matrix(1.00, 0.00, -0.00, -1.00, 370.6, 17.0)">r</text><text xml:space="preserve" font-family="HelveticaNeue-Light" font-size="44.0" fill="#F5D327" transform="matrix(1.00, 0.00, -0.00, -1.00, 384.5, 17.0)"> </text><text xml:space="preserve" font-family="HelveticaNeue-Light" font-size="44.0" fill="#F5D327" transform="matrix(1.00, 0.00, -0.00, -1.00, 396.7, 17.0)">i</text><text xml:space="preserve" font-family="HelveticaNeue-Light" font-size="44.0" fill="#F5D327" transform="matrix(1.00, 0.00, -0.00, -1.00, 404.9, 17.0)">n</text><text xml:space="preserve" font-family="HelveticaNeue-Light" font-size="44.0" fill="#F5D327" transform="matrix(1.00, 0.00, -0.00, -1.00, 428.5, 17.0)"> </text><text xml:space="preserve" font-family="HelveticaNeue-Light" font-size="44.0" fill="#F5D327" transform="matrix(1.00, 0.00, -0.00, -1.00, 440.7, 17.0)">t</text><text xml:space="preserve" font-family="HelveticaNeue-Light" font-size="44.0" fill="#F5D327" transform="matrix(1.00, 0.00, -0.00, -1.00, 453.7, 17.0)">i</text><text xml:space="preserve" font-family="HelveticaNeue-Light" font-size="44.0" fill="#F5D327" transform="matrix(1.00, 0.00, -0.00, -1.00, 461.9, 17.0)">d</text><text xml:space="preserve" font-family="HelveticaNeue-Light" font-size="44.0" fill="#F5D327" transform="matrix(1.00, 0.00, -0.00, -1.00, 487.1, 17.0)">y</text><text xml:space="preserve" font-family="HelveticaNeue-Light" font-size="44.0" fill="#F5D327" transform="matrix(1.00, 0.00, -0.00, -1.00, 507.5, 17.0)">x</text><text xml:space="preserve" font-family="HelveticaNeue-Light" font-size="44.0" fill="#F5D327" transform="matrix(1.00, 0.00, -0.00, -1.00, 528.7, 17.0)">l</text></g></svg>