<?xml version="1.0" encoding="UTF-8" standalone="no"?><svg xmlns="http://www.w3.org/2000/svg" xmlns:xlink="http://www.w3.org/1999/xlink" clip-rule="evenodd" stroke-miterlimit="4.00" viewBox="0 0 1683 400"><desc>SVG generated by Keynote</desc><defs></defs><g transform="matrix(1.00, 0.00, -0.00, -1.00, 0.0, 400.0)"><image xlink:href="../../B7950A37-DAF9-4A80-ADA2-F624BABFE123/assets/4349BCE32DFA9F856F896341626A4972.png" width="15.00" height="16.00" transform="matrix(1.00, 0.00, -0.00, -1.00, 4.0, 381.0)"></image><g><clipPath id="clip-983"><path d="M 4.0 365.5 L 18.9 365.5 L 18.9 380.5 L 4.0 380.5 Z M 4.0 365.5 "></path></clipPath><g clip-path="url(#clip-983)"><g><g><clipPath id="clip-984"><path d="M 4.0 380.5 L 18.9 380.5 L 18.9 365.5 L 4.0 365.5 Z M 4.0 380.5 "></path></clipPath><g clip-path="url(#clip-984)"><g><clipPath id="clip-985"><path d="M 0.0 358.0 L 23.0 358.0 L 23.0 388.0 L 0.0 388.0 Z M 0.0 358.0 "></path></clipPath><g clip-path="url(#clip-985)"><path d="M 18.9 377.5 C 18.9 378.1 18.6 378.8 18.0 379.5 C 17.4 380.2 16.7 380.5 15.9 380.5 C 15.6 380.5 15.1 380.3 14.3 380.0 C 13.2 379.4 12.2 379.1 11.4 379.1 C 10.6 379.1 9.6 379.4 8.5 380.0 C 7.8 380.3 7.3 380.5 6.9 380.5 C 6.2 380.5 5.6 380.2 4.9 379.5 C 4.3 378.9 4.0 378.2 4.0 377.5 C 4.0 377.1 4.2 376.6 4.5 375.8 C 5.0 374.7 5.3 373.8 5.3 373.0 C 5.3 372.2 5.0 371.2 4.5 370.1 C 4.2 369.4 4.0 368.9 4.0 368.5 C 4.0 367.8 4.3 367.1 4.9 366.5 C 5.6 365.8 6.2 365.5 6.9 365.5 C 7.3 365.5 7.8 365.7 8.5 366.0 C 9.6 366.6 10.6 366.9 11.4 366.9 C 12.2 366.9 13.2 366.6 14.3 366.0 C 15.1 365.7 15.6 365.5 15.9 365.5 C 16.7 365.5 17.4 365.8 18.0 366.5 C 18.6 367.1 18.9 367.8 18.9 368.5 C 18.9 368.9 18.7 369.4 18.4 370.1 C 17.8 371.2 17.6 372.2 17.6 373.0 C 17.6 373.8 17.8 374.7 18.4 375.8 C 18.7 376.6 18.9 377.1 18.9 377.5 " fill="#FFFFFF"></path></g></g></g></g></g></g></g><image xlink:href="../../FFAD0FCB-FBE8-44CF-A7F3-BD6E5632C752/assets/E05E3A352DBA75BD13DBD248A414A54C.png" width="517.00" height="46.00" transform="matrix(1.00, 0.00, -0.00, -1.00, 50.0, 398.0)"></image><text xml:space="preserve" font-family="Helvetica" font-size="50.0" fill="#FEFFFE" transform="matrix(1.00, 0.00, -0.00, -1.00, 54.0, 361.0)">T</text><text xml:space="preserve" font-family="Helvetica" font-size="50.0" fill="#FEFFFE" transform="matrix(1.00, 0.00, -0.00, -1.00, 82.7, 361.0)">r</text><text xml:space="preserve" font-family="Helvetica" font-size="50.0" fill="#FEFFFE" transform="matrix(1.00, 0.00, -0.00, -1.00, 99.4, 361.0)">a</text><text xml:space="preserve" font-family="Helvetica" font-size="50.0" fill="#FEFFFE" transform="matrix(1.00, 0.00, -0.00, -1.00, 127.2, 361.0)">i</text><text xml:space="preserve" font-family="Helvetica" font-size="50.0" fill="#FEFFFE" transform="matrix(1.00, 0.00, -0.00, -1.00, 138.3, 361.0)">n</text><text xml:space="preserve" font-family="Helvetica" font-size="50.0" fill="#FEFFFE" transform="matrix(1.00, 0.00, -0.00, -1.00, 166.1, 361.0)"> </text><text xml:space="preserve" font-family="Helvetica" font-size="50.0" fill="#FEFFFE" transform="matrix(1.00, 0.00, -0.00, -1.00, 180.0, 361.0)">c</text><text xml:space="preserve" font-family="Helvetica" font-size="50.0" fill="#FEFFFE" transform="matrix(1.00, 0.00, -0.00, -1.00, 205.0, 361.0)">o</text><text xml:space="preserve" font-family="Helvetica" font-size="50.0" fill="#FEFFFE" transform="matrix(1.00, 0.00, -0.00, -1.00, 232.8, 361.0)">l</text><text xml:space="preserve" font-family="Helvetica" font-size="50.0" fill="#FEFFFE" transform="matrix(1.00, 0.00, -0.00, -1.00, 243.9, 361.0)">l</text><text xml:space="preserve" font-family="Helvetica" font-size="50.0" fill="#FEFFFE" transform="matrix(1.00, 0.00, -0.00, -1.00, 255.0, 361.0)">a</text><text xml:space="preserve" font-family="Helvetica" font-size="50.0" fill="#FEFFFE" transform="matrix(1.00, 0.00, -0.00, -1.00, 282.9, 361.0)">b</text><text xml:space="preserve" font-family="Helvetica" font-size="50.0" fill="#FEFFFE" transform="matrix(1.00, 0.00, -0.00, -1.00, 310.7, 361.0)">o</text><text xml:space="preserve" font-family="Helvetica" font-size="50.0" fill="#FEFFFE" transform="matrix(1.00, 0.00, -0.00, -1.00, 338.5, 361.0)">r</text><text xml:space="preserve" font-family="Helvetica" font-size="50.0" fill="#FEFFFE" transform="matrix(1.00, 0.00, -0.00, -1.00, 355.1, 361.0)">a</text><text xml:space="preserve" font-family="Helvetica" font-size="50.0" fill="#FEFFFE" transform="matrix(1.00, 0.00, -0.00, -1.00, 383.0, 361.0)">t</text><text xml:space="preserve" font-family="Helvetica" font-size="50.0" fill="#FEFFFE" transform="matrix(1.00, 0.00, -0.00, -1.00, 396.8, 361.0)">o</text><text xml:space="preserve" font-family="Helvetica" font-size="50.0" fill="#FEFFFE" transform="matrix(1.00, 0.00, -0.00, -1.00, 424.7, 361.0)">r</text><text xml:space="preserve" font-family="Helvetica" font-size="50.0" fill="#FEFFFE" transform="matrix(1.00, 0.00, -0.00, -1.00, 441.3, 361.0)">s</text><text xml:space="preserve" font-family="Helvetica" font-size="50.0" fill="#FEFFFE" transform="matrix(1.00, 0.00, -0.00, -1.00, 466.3, 361.0)"> </text><text xml:space="preserve" font-family="Helvetica" font-size="50.0" fill="#FEFFFE" transform="matrix(1.00, 0.00, -0.00, -1.00, 480.2, 361.0)">t</text><text xml:space="preserve" font-family="Helvetica" font-size="50.0" fill="#FEFFFE" transform="matrix(1.00, 0.00, -0.00, -1.00, 494.1, 361.0)">h</text><text xml:space="preserve" font-family="Helvetica" font-size="50.0" fill="#FEFFFE" transform="matrix(1.00, 0.00, -0.00, -1.00, 521.9, 361.0)">a</text><text xml:space="preserve" font-family="Helvetica" font-size="50.0" fill="#FEFFFE" transform="matrix(1.00, 0.00, -0.00, -1.00, 549.7, 361.0)">t</text><text xml:space="preserve" font-family="Helvetica" font-size="50.0" fill="#FEFFFE" transform="matrix(1.00, 0.00, -0.00, -1.00, 563.6, 361.0)"> </text><image xlink:href="../../FFAD0FCB-FBE8-44CF-A7F3-BD6E5632C752/assets/8ABDBC1DDC83B446E92D95F97163AA76.png" width="155.00" height="45.00" transform="matrix(1.00, 0.00, -0.00, -1.00, 575.0, 398.0)"></image><text xml:space="preserve" font-family="Helvetica-Bold" font-weight="bold" font-size="50.0" fill="#005392" transform="matrix(1.00, 0.00, -0.00, -1.00, 577.4, 361.0)">c</text><text xml:space="preserve" font-family="Helvetica-Bold" font-weight="bold" font-size="50.0" fill="#005392" transform="matrix(1.00, 0.00, -0.00, -1.00, 605.2, 361.0)">o</text><text xml:space="preserve" font-family="Helvetica-Bold" font-weight="bold" font-size="50.0" fill="#005392" transform="matrix(1.00, 0.00, -0.00, -1.00, 635.8, 361.0)">l</text><text xml:space="preserve" font-family="Helvetica-Bold" font-weight="bold" font-size="50.0" fill="#005392" transform="matrix(1.00, 0.00, -0.00, -1.00, 649.7, 361.0)">o</text><text xml:space="preserve" font-family="Helvetica-Bold" font-weight="bold" font-size="50.0" fill="#005392" transform="matrix(1.00, 0.00, -0.00, -1.00, 680.2, 361.0)">r</text><text xml:space="preserve" font-family="Helvetica-Bold" font-weight="bold" font-size="50.0" fill="#005392" transform="matrix(1.00, 0.00, -0.00, -1.00, 699.7, 361.0)">s</text><text xml:space="preserve" font-family="Helvetica-Bold" font-weight="bold" font-size="50.0" fill="#FEFFFE" transform="matrix(1.00, 0.00, -0.00, -1.00, 727.5, 361.0)"> </text><image xlink:href="../../FFAD0FCB-FBE8-44CF-A7F3-BD6E5632C752/assets/6173244D4A18C0975B78BF85A8EFF5D4.png" width="143.00" height="45.00" transform="matrix(1.00, 0.00, -0.00, -1.00, 738.0, 398.0)"></image><text xml:space="preserve" font-family="Helvetica-Bold" font-weight="bold" font-size="50.0" fill="#8DF900" transform="matrix(1.00, 0.00, -0.00, -1.00, 741.4, 361.0)">a</text><text xml:space="preserve" font-family="Helvetica-Bold" font-weight="bold" font-size="50.0" fill="#8DF900" transform="matrix(1.00, 0.00, -0.00, -1.00, 769.2, 361.0)">r</text><text xml:space="preserve" font-family="Helvetica-Bold" font-weight="bold" font-size="50.0" fill="#8DF900" transform="matrix(1.00, 0.00, -0.00, -1.00, 788.6, 361.0)">e</text><text xml:space="preserve" font-family="Helvetica-Bold" font-weight="bold" font-size="50.0" fill="#8DF900" transform="matrix(1.00, 0.00, -0.00, -1.00, 816.5, 361.0)">n</text><text xml:space="preserve" font-family="Helvetica-Bold" font-weight="bold" font-size="50.0" fill="#8DF900" transform="matrix(1.00, 0.00, -0.00, -1.00, 847.0, 361.0)">’</text><text xml:space="preserve" font-family="Helvetica-Bold" font-weight="bold" font-size="50.0" fill="#8DF900" transform="matrix(1.00, 0.00, -0.00, -1.00, 860.9, 361.0)">t</text><text xml:space="preserve" font-family="Helvetica-Bold" font-weight="bold" font-size="50.0" fill="#FEFFFE" transform="matrix(1.00, 0.00, -0.00, -1.00, 877.5, 361.0)"> </text><image xlink:href="../../FFAD0FCB-FBE8-44CF-A7F3-BD6E5632C752/assets/A517BFEFEC2CD393A4C6DD40757B0840.png" width="430.00" height="46.00" transform="matrix(1.00, 0.00, -0.00, -1.00, 890.0, 399.0)"></image><text xml:space="preserve" font-family="Helvetica-Bold" font-weight="bold" font-size="50.0" fill="#FF89D8" transform="matrix(1.00, 0.00, -0.00, -1.00, 891.4, 361.0)">m</text><text xml:space="preserve" font-family="Helvetica-Bold" font-weight="bold" font-size="50.0" fill="#FF89D8" transform="matrix(1.00, 0.00, -0.00, -1.00, 935.9, 361.0)">a</text><text xml:space="preserve" font-family="Helvetica-Bold" font-weight="bold" font-size="50.0" fill="#FF89D8" transform="matrix(1.00, 0.00, -0.00, -1.00, 963.7, 361.0)">c</text><text xml:space="preserve" font-family="Helvetica-Bold" font-weight="bold" font-size="50.0" fill="#FF89D8" transform="matrix(1.00, 0.00, -0.00, -1.00, 991.5, 361.0)">h</text><text xml:space="preserve" font-family="Helvetica-Bold" font-weight="bold" font-size="50.0" fill="#FF89D8" transform="matrix(1.00, 0.00, -0.00, -1.00, 1022.0, 361.0)">i</text><text xml:space="preserve" font-family="Helvetica-Bold" font-weight="bold" font-size="50.0" fill="#FF89D8" transform="matrix(1.00, 0.00, -0.00, -1.00, 1035.9, 361.0)">n</text><text xml:space="preserve" font-family="Helvetica-Bold" font-weight="bold" font-size="50.0" fill="#FF89D8" transform="matrix(1.00, 0.00, -0.00, -1.00, 1066.5, 361.0)">e</text><text xml:space="preserve" font-family="Helvetica-Bold" font-weight="bold" font-size="50.0" fill="#FF89D8" transform="matrix(1.00, 0.00, -0.00, -1.00, 1094.3, 361.0)">-</text><text xml:space="preserve" font-family="Helvetica-Bold" font-weight="bold" font-size="50.0" fill="#FF89D8" transform="matrix(1.00, 0.00, -0.00, -1.00, 1110.9, 361.0)">r</text><text xml:space="preserve" font-family="Helvetica-Bold" font-weight="bold" font-size="50.0" fill="#FF89D8" transform="matrix(1.00, 0.00, -0.00, -1.00, 1130.4, 361.0)">e</text><text xml:space="preserve" font-family="Helvetica-Bold" font-weight="bold" font-size="50.0" fill="#FF89D8" transform="matrix(1.00, 0.00, -0.00, -1.00, 1158.2, 361.0)">a</text><text xml:space="preserve" font-family="Helvetica-Bold" font-weight="bold" font-size="50.0" fill="#FF89D8" transform="matrix(1.00, 0.00, -0.00, -1.00, 1186.0, 361.0)">d</text><text xml:space="preserve" font-family="Helvetica-Bold" font-weight="bold" font-size="50.0" fill="#FF89D8" transform="matrix(1.00, 0.00, -0.00, -1.00, 1216.6, 361.0)">a</text><text xml:space="preserve" font-family="Helvetica-Bold" font-weight="bold" font-size="50.0" fill="#FF89D8" transform="matrix(1.00, 0.00, -0.00, -1.00, 1244.4, 361.0)">b</text><text xml:space="preserve" font-family="Helvetica-Bold" font-weight="bold" font-size="50.0" fill="#FF89D8" transform="matrix(1.00, 0.00, -0.00, -1.00, 1274.9, 361.0)">l</text><text xml:space="preserve" font-family="Helvetica-Bold" font-weight="bold" font-size="50.0" fill="#FF89D8" transform="matrix(1.00, 0.00, -0.00, -1.00, 1288.8, 361.0)">e</text><image xlink:href="../../B7950A37-DAF9-4A80-ADA2-F624BABFE123/assets/4349BCE32DFA9F856F896341626A4972.png" width="15.00" height="16.00" transform="matrix(1.00, 0.00, -0.00, -1.00, 4.0, 270.0)"></image><g><clipPath id="clip-986"><path d="M 4.0 254.5 L 18.9 254.5 L 18.9 269.5 L 4.0 269.5 Z M 4.0 254.5 "></path></clipPath><g clip-path="url(#clip-986)"><g><g><clipPath id="clip-987"><path d="M 4.0 269.5 L 18.9 269.5 L 18.9 254.5 L 4.0 254.5 Z M 4.0 269.5 "></path></clipPath><g clip-path="url(#clip-987)"><g><clipPath id="clip-988"><path d="M 0.0 247.0 L 23.0 247.0 L 23.0 277.0 L 0.0 277.0 Z M 0.0 247.0 "></path></clipPath><g clip-path="url(#clip-988)"><path d="M 18.9 266.5 C 18.9 267.1 18.6 267.8 18.0 268.5 C 17.4 269.2 16.7 269.5 15.9 269.5 C 15.6 269.5 15.1 269.3 14.3 269.0 C 13.2 268.4 12.2 268.1 11.4 268.1 C 10.6 268.1 9.6 268.4 8.5 269.0 C 7.8 269.3 7.3 269.5 6.9 269.5 C 6.2 269.5 5.6 269.2 4.9 268.5 C 4.3 267.9 4.0 267.2 4.0 266.5 C 4.0 266.1 4.2 265.6 4.5 264.8 C 5.0 263.7 5.3 262.8 5.3 262.0 C 5.3 261.2 5.0 260.2 4.5 259.1 C 4.2 258.4 4.0 257.9 4.0 257.5 C 4.0 256.8 4.3 256.1 4.9 255.5 C 5.6 254.8 6.2 254.5 6.9 254.5 C 7.3 254.5 7.8 254.7 8.5 255.0 C 9.6 255.6 10.6 255.9 11.4 255.9 C 12.2 255.9 13.2 255.6 14.3 255.0 C 15.1 254.7 15.6 254.5 15.9 254.5 C 16.7 254.5 17.4 254.8 18.0 255.5 C 18.6 256.1 18.9 256.8 18.9 257.5 C 18.9 257.9 18.7 258.4 18.4 259.1 C 17.8 260.2 17.6 261.2 17.6 262.0 C 17.6 262.8 17.8 263.7 18.4 264.8 C 18.7 265.6 18.9 266.1 18.9 266.5 " fill="#FFFFFF"></path></g></g></g></g></g></g></g><image xlink:href="../../FFAD0FCB-FBE8-44CF-A7F3-BD6E5632C752/assets/E97115787ADEACDD49EE9D1903AA6B32.png" width="1596.00" height="57.00" transform="matrix(1.00, 0.00, -0.00, -1.00, 54.0, 288.0)"></image><text xml:space="preserve" font-family="Helvetica" font-size="50.0" fill="#FEFFFE" transform="matrix(1.00, 0.00, -0.00, -1.00, 54.0, 250.0)">I</text><text xml:space="preserve" font-family="Helvetica" font-size="50.0" fill="#FEFFFE" transform="matrix(1.00, 0.00, -0.00, -1.00, 67.9, 250.0)">f</text><text xml:space="preserve" font-family="Helvetica" font-size="50.0" fill="#FEFFFE" transform="matrix(1.00, 0.00, -0.00, -1.00, 81.8, 250.0)"> </text><text xml:space="preserve" font-family="Helvetica" font-size="50.0" fill="#FEFFFE" transform="matrix(1.00, 0.00, -0.00, -1.00, 95.6, 250.0)">t</text><text xml:space="preserve" font-family="Helvetica" font-size="50.0" fill="#FEFFFE" transform="matrix(1.00, 0.00, -0.00, -1.00, 109.5, 250.0)">h</text><text xml:space="preserve" font-family="Helvetica" font-size="50.0" fill="#FEFFFE" transform="matrix(1.00, 0.00, -0.00, -1.00, 137.3, 250.0)">e</text><text xml:space="preserve" font-family="Helvetica" font-size="50.0" fill="#FEFFFE" transform="matrix(1.00, 0.00, -0.00, -1.00, 165.2, 250.0)">y</text><text xml:space="preserve" font-family="Helvetica" font-size="50.0" fill="#FEFFFE" transform="matrix(1.00, 0.00, -0.00, -1.00, 190.2, 250.0)"> </text><text xml:space="preserve" font-family="Helvetica" font-size="50.0" fill="#FEFFFE" transform="matrix(1.00, 0.00, -0.00, -1.00, 204.0, 250.0)">w</text><text xml:space="preserve" font-family="Helvetica" font-size="50.0" fill="#FEFFFE" transform="matrix(1.00, 0.00, -0.00, -1.00, 240.2, 250.0)">a</text><text xml:space="preserve" font-family="Helvetica" font-size="50.0" fill="#FEFFFE" transform="matrix(1.00, 0.00, -0.00, -1.00, 268.0, 250.0)">n</text><text xml:space="preserve" font-family="Helvetica" font-size="50.0" fill="#FEFFFE" transform="matrix(1.00, 0.00, -0.00, -1.00, 295.8, 250.0)">t</text><text xml:space="preserve" font-family="Helvetica" font-size="50.0" fill="#FEFFFE" transform="matrix(1.00, 0.00, -0.00, -1.00, 309.7, 250.0)"> </text><text xml:space="preserve" font-family="Helvetica" font-size="50.0" fill="#FEFFFE" transform="matrix(1.00, 0.00, -0.00, -1.00, 323.6, 250.0)">t</text><text xml:space="preserve" font-family="Helvetica" font-size="50.0" fill="#FEFFFE" transform="matrix(1.00, 0.00, -0.00, -1.00, 337.4, 250.0)">o</text><text xml:space="preserve" font-family="Helvetica" font-size="50.0" fill="#FEFFFE" transform="matrix(1.00, 0.00, -0.00, -1.00, 365.3, 250.0)"> </text><text xml:space="preserve" font-family="Helvetica" font-size="50.0" fill="#FEFFFE" transform="matrix(1.00, 0.00, -0.00, -1.00, 379.1, 250.0)">c</text><text xml:space="preserve" font-family="Helvetica" font-size="50.0" fill="#FEFFFE" transform="matrix(1.00, 0.00, -0.00, -1.00, 404.1, 250.0)">a</text><text xml:space="preserve" font-family="Helvetica" font-size="50.0" fill="#FEFFFE" transform="matrix(1.00, 0.00, -0.00, -1.00, 432.0, 250.0)">t</text><text xml:space="preserve" font-family="Helvetica" font-size="50.0" fill="#FEFFFE" transform="matrix(1.00, 0.00, -0.00, -1.00, 445.8, 250.0)">e</text><text xml:space="preserve" font-family="Helvetica" font-size="50.0" fill="#FEFFFE" transform="matrix(1.00, 0.00, -0.00, -1.00, 473.7, 250.0)">g</text><text xml:space="preserve" font-family="Helvetica" font-size="50.0" fill="#FEFFFE" transform="matrix(1.00, 0.00, -0.00, -1.00, 501.5, 250.0)">o</text><text xml:space="preserve" font-family="Helvetica" font-size="50.0" fill="#FEFFFE" transform="matrix(1.00, 0.00, -0.00, -1.00, 529.3, 250.0)">r</text><text xml:space="preserve" font-family="Helvetica" font-size="50.0" fill="#FEFFFE" transform="matrix(1.00, 0.00, -0.00, -1.00, 545.9, 250.0)">i</text><text xml:space="preserve" font-family="Helvetica" font-size="50.0" fill="#FEFFFE" transform="matrix(1.00, 0.00, -0.00, -1.00, 557.1, 250.0)">z</text><text xml:space="preserve" font-family="Helvetica" font-size="50.0" fill="#FEFFFE" transform="matrix(1.00, 0.00, -0.00, -1.00, 582.1, 250.0)">e</text><text xml:space="preserve" font-family="Helvetica" font-size="50.0" fill="#FEFFFE" transform="matrix(1.00, 0.00, -0.00, -1.00, 609.9, 250.0)"> </text><text xml:space="preserve" font-family="Helvetica" font-size="50.0" fill="#FEFFFE" transform="matrix(1.00, 0.00, -0.00, -1.00, 623.8, 250.0)">r</text><text xml:space="preserve" font-family="Helvetica" font-size="50.0" fill="#FEFFFE" transform="matrix(1.00, 0.00, -0.00, -1.00, 640.4, 250.0)">o</text><text xml:space="preserve" font-family="Helvetica" font-size="50.0" fill="#FEFFFE" transform="matrix(1.00, 0.00, -0.00, -1.00, 668.2, 250.0)">w</text><text xml:space="preserve" font-family="Helvetica" font-size="50.0" fill="#FEFFFE" transform="matrix(1.00, 0.00, -0.00, -1.00, 704.3, 250.0)">s</text><text xml:space="preserve" font-family="Helvetica" font-size="50.0" fill="#FEFFFE" transform="matrix(1.00, 0.00, -0.00, -1.00, 729.3, 250.0)">,</text><text xml:space="preserve" font-family="Helvetica" font-size="50.0" fill="#FEFFFE" transform="matrix(1.00, 0.00, -0.00, -1.00, 743.2, 250.0)"> </text><text xml:space="preserve" font-family="Helvetica" font-size="50.0" fill="#FEFFFE" transform="matrix(1.00, 0.00, -0.00, -1.00, 757.1, 250.0)">m</text><text xml:space="preserve" font-family="Helvetica" font-size="50.0" fill="#FEFFFE" transform="matrix(1.00, 0.00, -0.00, -1.00, 798.8, 250.0)">a</text><text xml:space="preserve" font-family="Helvetica" font-size="50.0" fill="#FEFFFE" transform="matrix(1.00, 0.00, -0.00, -1.00, 826.6, 250.0)">k</text><text xml:space="preserve" font-family="Helvetica" font-size="50.0" fill="#FEFFFE" transform="matrix(1.00, 0.00, -0.00, -1.00, 851.6, 250.0)">e</text><text xml:space="preserve" font-family="Helvetica" font-size="50.0" fill="#FEFFFE" transform="matrix(1.00, 0.00, -0.00, -1.00, 879.4, 250.0)"> </text><text xml:space="preserve" font-family="Helvetica" font-size="50.0" fill="#FEFFFE" transform="matrix(1.00, 0.00, -0.00, -1.00, 893.3, 250.0)">a</text><text xml:space="preserve" font-family="Helvetica" font-size="50.0" fill="#FEFFFE" transform="matrix(1.00, 0.00, -0.00, -1.00, 921.1, 250.0)"> </text><text xml:space="preserve" font-family="Helvetica" font-size="50.0" fill="#FEFFFE" transform="matrix(1.00, 0.00, -0.00, -1.00, 935.0, 250.0)">n</text><text xml:space="preserve" font-family="Helvetica" font-size="50.0" fill="#FEFFFE" transform="matrix(1.00, 0.00, -0.00, -1.00, 962.8, 250.0)">e</text><text xml:space="preserve" font-family="Helvetica" font-size="50.0" fill="#FEFFFE" transform="matrix(1.00, 0.00, -0.00, -1.00, 990.6, 250.0)">w</text><text xml:space="preserve" font-family="Helvetica" font-size="50.0" fill="#FEFFFE" transform="matrix(1.00, 0.00, -0.00, -1.00, 1026.7, 250.0)"> </text><text xml:space="preserve" font-family="Helvetica" font-size="50.0" fill="#FEFFFE" transform="matrix(1.00, 0.00, -0.00, -1.00, 1040.6, 250.0)">v</text><text xml:space="preserve" font-family="Helvetica" font-size="50.0" fill="#FEFFFE" transform="matrix(1.00, 0.00, -0.00, -1.00, 1065.6, 250.0)">a</text><text xml:space="preserve" font-family="Helvetica" font-size="50.0" fill="#FEFFFE" transform="matrix(1.00, 0.00, -0.00, -1.00, 1093.4, 250.0)">r</text><text xml:space="preserve" font-family="Helvetica" font-size="50.0" fill="#FEFFFE" transform="matrix(1.00, 0.00, -0.00, -1.00, 1110.1, 250.0)">i</text><text xml:space="preserve" font-family="Helvetica" font-size="50.0" fill="#FEFFFE" transform="matrix(1.00, 0.00, -0.00, -1.00, 1121.2, 250.0)">a</text><text xml:space="preserve" font-family="Helvetica" font-size="50.0" fill="#FEFFFE" transform="matrix(1.00, 0.00, -0.00, -1.00, 1149.0, 250.0)">b</text><text xml:space="preserve" font-family="Helvetica" font-size="50.0" fill="#FEFFFE" transform="matrix(1.00, 0.00, -0.00, -1.00, 1176.8, 250.0)">l</text><text xml:space="preserve" font-family="Helvetica" font-size="50.0" fill="#FEFFFE" transform="matrix(1.00, 0.00, -0.00, -1.00, 1188.0, 250.0)">e</text><text xml:space="preserve" font-family="Helvetica" font-size="50.0" fill="#FEFFFE" transform="matrix(1.00, 0.00, -0.00, -1.00, 1215.8, 250.0)">,</text><text xml:space="preserve" font-family="Helvetica" font-size="50.0" fill="#FEFFFE" transform="matrix(1.00, 0.00, -0.00, -1.00, 1229.7, 250.0)"> </text><text xml:space="preserve" font-family="Helvetica" font-size="50.0" fill="#FEFFFE" transform="matrix(1.00, 0.00, -0.00, -1.00, 1243.5, 250.0)">i</text><text xml:space="preserve" font-family="Helvetica" font-size="50.0" fill="#FEFFFE" transform="matrix(1.00, 0.00, -0.00, -1.00, 1254.7, 250.0)">n</text><text xml:space="preserve" font-family="Helvetica" font-size="50.0" fill="#FEFFFE" transform="matrix(1.00, 0.00, -0.00, -1.00, 1282.5, 250.0)">s</text><text xml:space="preserve" font-family="Helvetica" font-size="50.0" fill="#FEFFFE" transform="matrix(1.00, 0.00, -0.00, -1.00, 1307.5, 250.0)">t</text><text xml:space="preserve" font-family="Helvetica" font-size="50.0" fill="#FEFFFE" transform="matrix(1.00, 0.00, -0.00, -1.00, 1321.4, 250.0)">e</text><text xml:space="preserve" font-family="Helvetica" font-size="50.0" fill="#FEFFFE" transform="matrix(1.00, 0.00, -0.00, -1.00, 1349.2, 250.0)">a</text><text xml:space="preserve" font-family="Helvetica" font-size="50.0" fill="#FEFFFE" transform="matrix(1.00, 0.00, -0.00, -1.00, 1377.0, 250.0)">d</text><text xml:space="preserve" font-family="Helvetica" font-size="50.0" fill="#FEFFFE" transform="matrix(1.00, 0.00, -0.00, -1.00, 1404.8, 250.0)"> </text><text xml:space="preserve" font-family="Helvetica" font-size="50.0" fill="#FEFFFE" transform="matrix(1.00, 0.00, -0.00, -1.00, 1418.7, 250.0)">o</text><text xml:space="preserve" font-family="Helvetica" font-size="50.0" fill="#FEFFFE" transform="matrix(1.00, 0.00, -0.00, -1.00, 1446.5, 250.0)">f</text><text xml:space="preserve" font-family="Helvetica" font-size="50.0" fill="#FEFFFE" transform="matrix(1.00, 0.00, -0.00, -1.00, 1460.4, 250.0)"> </text><text xml:space="preserve" font-family="Helvetica" font-size="50.0" fill="#FEFFFE" transform="matrix(1.00, 0.00, -0.00, -1.00, 1474.3, 250.0)">c</text><text xml:space="preserve" font-family="Helvetica" font-size="50.0" fill="#FEFFFE" transform="matrix(1.00, 0.00, -0.00, -1.00, 1499.3, 250.0)">o</text><text xml:space="preserve" font-family="Helvetica" font-size="50.0" fill="#FEFFFE" transform="matrix(1.00, 0.00, -0.00, -1.00, 1527.1, 250.0)">l</text><text xml:space="preserve" font-family="Helvetica" font-size="50.0" fill="#FEFFFE" transform="matrix(1.00, 0.00, -0.00, -1.00, 1538.2, 250.0)">o</text><text xml:space="preserve" font-family="Helvetica" font-size="50.0" fill="#FEFFFE" transform="matrix(1.00, 0.00, -0.00, -1.00, 1566.0, 250.0)">r</text><text xml:space="preserve" font-family="Helvetica" font-size="50.0" fill="#FEFFFE" transform="matrix(1.00, 0.00, -0.00, -1.00, 1582.7, 250.0)">i</text><text xml:space="preserve" font-family="Helvetica" font-size="50.0" fill="#FEFFFE" transform="matrix(1.00, 0.00, -0.00, -1.00, 1593.8, 250.0)">n</text><text xml:space="preserve" font-family="Helvetica" font-size="50.0" fill="#FEFFFE" transform="matrix(1.00, 0.00, -0.00, -1.00, 1621.6, 250.0)">g</text><text xml:space="preserve" font-family="Helvetica" font-size="50.0" fill="#FEFFFE" transform="matrix(1.00, 0.00, -0.00, -1.00, 1649.4, 250.0)"> </text><image xlink:href="../../FFAD0FCB-FBE8-44CF-A7F3-BD6E5632C752/assets/3C5C2C9FEB80C1D8250A339CEC2E812B.png" width="116.00" height="45.00" transform="matrix(1.00, 0.00, -0.00, -1.00, 50.0, 227.0)"></image><text xml:space="preserve" font-family="Helvetica" font-size="50.0" fill="#FEFFFE" transform="matrix(1.00, 0.00, -0.00, -1.00, 54.0, 190.0)">t</text><text xml:space="preserve" font-family="Helvetica" font-size="50.0" fill="#FEFFFE" transform="matrix(1.00, 0.00, -0.00, -1.00, 67.9, 190.0)">h</text><text xml:space="preserve" font-family="Helvetica" font-size="50.0" fill="#FEFFFE" transform="matrix(1.00, 0.00, -0.00, -1.00, 95.7, 190.0)">e</text><text xml:space="preserve" font-family="Helvetica" font-size="50.0" fill="#FEFFFE" transform="matrix(1.00, 0.00, -0.00, -1.00, 123.5, 190.0)">m</text><image xlink:href="../../B7950A37-DAF9-4A80-ADA2-F624BABFE123/assets/4349BCE32DFA9F856F896341626A4972.png" width="15.00" height="16.00" transform="matrix(1.00, 0.00, -0.00, -1.00, 4.0, 99.0)"></image><g><clipPath id="clip-989"><path d="M 4.0 83.5 L 18.9 83.5 L 18.9 98.5 L 4.0 98.5 Z M 4.0 83.5 "></path></clipPath><g clip-path="url(#clip-989)"><g><g><clipPath id="clip-990"><path d="M 4.0 98.5 L 18.9 98.5 L 18.9 83.5 L 4.0 83.5 Z M 4.0 98.5 "></path></clipPath><g clip-path="url(#clip-990)"><g><clipPath id="clip-991"><path d="M 0.0 76.0 L 23.0 76.0 L 23.0 106.0 L 0.0 106.0 Z M 0.0 76.0 "></path></clipPath><g clip-path="url(#clip-991)"><path d="M 18.9 95.5 C 18.9 96.1 18.6 96.8 18.0 97.5 C 17.4 98.2 16.7 98.5 15.9 98.5 C 15.6 98.5 15.1 98.3 14.3 98.0 C 13.2 97.4 12.2 97.1 11.4 97.1 C 10.6 97.1 9.6 97.4 8.5 98.0 C 7.8 98.3 7.3 98.5 6.9 98.5 C 6.2 98.5 5.6 98.2 4.9 97.5 C 4.3 96.9 4.0 96.2 4.0 95.5 C 4.0 95.1 4.2 94.6 4.5 93.8 C 5.0 92.7 5.3 91.8 5.3 91.0 C 5.3 90.2 5.0 89.2 4.5 88.1 C 4.2 87.4 4.0 86.9 4.0 86.5 C 4.0 85.8 4.3 85.1 4.9 84.5 C 5.6 83.8 6.2 83.5 6.9 83.5 C 7.3 83.5 7.8 83.7 8.5 84.0 C 9.6 84.6 10.6 84.9 11.4 84.9 C 12.2 84.9 13.2 84.6 14.3 84.0 C 15.1 83.7 15.6 83.5 15.9 83.5 C 16.7 83.5 17.4 83.8 18.0 84.5 C 18.6 85.1 18.9 85.8 18.9 86.5 C 18.9 86.9 18.7 87.4 18.4 88.1 C 17.8 89.2 17.6 90.2 17.6 91.0 C 17.6 91.8 17.8 92.7 18.4 93.8 C 18.7 94.6 18.9 95.1 18.9 95.5 " fill="#FFFFFF"></path></g></g></g></g></g></g></g><image xlink:href="../../FFAD0FCB-FBE8-44CF-A7F3-BD6E5632C752/assets/53BC61E624261FB37F6FC58532D1F050.png" width="1630.00" height="56.00" transform="matrix(1.00, 0.00, -0.00, -1.00, 50.0, 117.0)"></image><text xml:space="preserve" font-family="Helvetica" font-size="50.0" fill="#FEFFFE" transform="matrix(1.00, 0.00, -0.00, -1.00, 54.0, 79.0)">A</text><text xml:space="preserve" font-family="Helvetica" font-size="50.0" fill="#FEFFFE" transform="matrix(1.00, 0.00, -0.00, -1.00, 84.6, 79.0)"> </text><text xml:space="preserve" font-family="Helvetica" font-size="50.0" fill="#FEFFFE" transform="matrix(1.00, 0.00, -0.00, -1.00, 98.5, 79.0)">“</text><text xml:space="preserve" font-family="Helvetica" font-size="50.0" fill="#FEFFFE" transform="matrix(1.00, 0.00, -0.00, -1.00, 115.1, 79.0)">J</text><text xml:space="preserve" font-family="Helvetica" font-size="50.0" fill="#FEFFFE" transform="matrix(1.00, 0.00, -0.00, -1.00, 140.1, 79.0)">a</text><text xml:space="preserve" font-family="Helvetica" font-size="50.0" fill="#FEFFFE" transform="matrix(1.00, 0.00, -0.00, -1.00, 168.0, 79.0)">c</text><text xml:space="preserve" font-family="Helvetica" font-size="50.0" fill="#FEFFFE" transform="matrix(1.00, 0.00, -0.00, -1.00, 193.0, 79.0)">k</text><text xml:space="preserve" font-family="Helvetica" font-size="50.0" fill="#FEFFFE" transform="matrix(1.00, 0.00, -0.00, -1.00, 218.0, 79.0)">s</text><text xml:space="preserve" font-family="Helvetica" font-size="50.0" fill="#FEFFFE" transform="matrix(1.00, 0.00, -0.00, -1.00, 243.0, 79.0)">o</text><text xml:space="preserve" font-family="Helvetica" font-size="50.0" fill="#FEFFFE" transform="matrix(1.00, 0.00, -0.00, -1.00, 270.8, 79.0)">n</text><text xml:space="preserve" font-family="Helvetica" font-size="50.0" fill="#FEFFFE" transform="matrix(1.00, 0.00, -0.00, -1.00, 298.6, 79.0)"> </text><text xml:space="preserve" font-family="Helvetica" font-size="50.0" fill="#FEFFFE" transform="matrix(1.00, 0.00, -0.00, -1.00, 312.5, 79.0)">P</text><text xml:space="preserve" font-family="Helvetica" font-size="50.0" fill="#FEFFFE" transform="matrix(1.00, 0.00, -0.00, -1.00, 345.8, 79.0)">o</text><text xml:space="preserve" font-family="Helvetica" font-size="50.0" fill="#FEFFFE" transform="matrix(1.00, 0.00, -0.00, -1.00, 373.6, 79.0)">l</text><text xml:space="preserve" font-family="Helvetica" font-size="50.0" fill="#FEFFFE" transform="matrix(1.00, 0.00, -0.00, -1.00, 384.8, 79.0)">l</text><text xml:space="preserve" font-family="Helvetica" font-size="50.0" fill="#FEFFFE" transform="matrix(1.00, 0.00, -0.00, -1.00, 395.9, 79.0)">o</text><text xml:space="preserve" font-family="Helvetica" font-size="50.0" fill="#FEFFFE" transform="matrix(1.00, 0.00, -0.00, -1.00, 423.7, 79.0)">c</text><text xml:space="preserve" font-family="Helvetica" font-size="50.0" fill="#FEFFFE" transform="matrix(1.00, 0.00, -0.00, -1.00, 448.7, 79.0)">k</text><text xml:space="preserve" font-family="Helvetica" font-size="50.0" fill="#FEFFFE" transform="matrix(1.00, 0.00, -0.00, -1.00, 473.7, 79.0)">”</text><text xml:space="preserve" font-family="Helvetica" font-size="50.0" fill="#FEFFFE" transform="matrix(1.00, 0.00, -0.00, -1.00, 490.4, 79.0)"> </text><text xml:space="preserve" font-family="Helvetica" font-size="50.0" fill="#FEFFFE" transform="matrix(1.00, 0.00, -0.00, -1.00, 504.2, 79.0)">s</text><text xml:space="preserve" font-family="Helvetica" font-size="50.0" fill="#FEFFFE" transform="matrix(1.00, 0.00, -0.00, -1.00, 529.2, 79.0)">p</text><text xml:space="preserve" font-family="Helvetica" font-size="50.0" fill="#FEFFFE" transform="matrix(1.00, 0.00, -0.00, -1.00, 557.1, 79.0)">r</text><text xml:space="preserve" font-family="Helvetica" font-size="50.0" fill="#FEFFFE" transform="matrix(1.00, 0.00, -0.00, -1.00, 573.7, 79.0)">e</text><text xml:space="preserve" font-family="Helvetica" font-size="50.0" fill="#FEFFFE" transform="matrix(1.00, 0.00, -0.00, -1.00, 601.5, 79.0)">a</text><text xml:space="preserve" font-family="Helvetica" font-size="50.0" fill="#FEFFFE" transform="matrix(1.00, 0.00, -0.00, -1.00, 629.3, 79.0)">d</text><text xml:space="preserve" font-family="Helvetica" font-size="50.0" fill="#FEFFFE" transform="matrix(1.00, 0.00, -0.00, -1.00, 657.2, 79.0)">s</text><text xml:space="preserve" font-family="Helvetica" font-size="50.0" fill="#FEFFFE" transform="matrix(1.00, 0.00, -0.00, -1.00, 682.2, 79.0)">h</text><text xml:space="preserve" font-family="Helvetica" font-size="50.0" fill="#FEFFFE" transform="matrix(1.00, 0.00, -0.00, -1.00, 710.0, 79.0)">e</text><text xml:space="preserve" font-family="Helvetica" font-size="50.0" fill="#FEFFFE" transform="matrix(1.00, 0.00, -0.00, -1.00, 737.8, 79.0)">e</text><text xml:space="preserve" font-family="Helvetica" font-size="50.0" fill="#FEFFFE" transform="matrix(1.00, 0.00, -0.00, -1.00, 765.6, 79.0)">t</text><text xml:space="preserve" font-family="Helvetica" font-size="50.0" fill="#FEFFFE" transform="matrix(1.00, 0.00, -0.00, -1.00, 779.5, 79.0)"> </text><text xml:space="preserve" font-family="Helvetica" font-size="50.0" fill="#FEFFFE" transform="matrix(1.00, 0.00, -0.00, -1.00, 793.4, 79.0)">w</text><text xml:space="preserve" font-family="Helvetica" font-size="50.0" fill="#FEFFFE" transform="matrix(1.00, 0.00, -0.00, -1.00, 829.5, 79.0)">i</text><text xml:space="preserve" font-family="Helvetica" font-size="50.0" fill="#FEFFFE" transform="matrix(1.00, 0.00, -0.00, -1.00, 840.6, 79.0)">l</text><text xml:space="preserve" font-family="Helvetica" font-size="50.0" fill="#FEFFFE" transform="matrix(1.00, 0.00, -0.00, -1.00, 851.7, 79.0)">l</text><text xml:space="preserve" font-family="Helvetica" font-size="50.0" fill="#FEFFFE" transform="matrix(1.00, 0.00, -0.00, -1.00, 862.8, 79.0)"> </text><text xml:space="preserve" font-family="Helvetica" font-size="50.0" fill="#FEFFFE" transform="matrix(1.00, 0.00, -0.00, -1.00, 876.7, 79.0)">o</text><text xml:space="preserve" font-family="Helvetica" font-size="50.0" fill="#FEFFFE" transform="matrix(1.00, 0.00, -0.00, -1.00, 904.5, 79.0)">n</text><text xml:space="preserve" font-family="Helvetica" font-size="50.0" fill="#FEFFFE" transform="matrix(1.00, 0.00, -0.00, -1.00, 932.4, 79.0)">l</text><text xml:space="preserve" font-family="Helvetica" font-size="50.0" fill="#FEFFFE" transform="matrix(1.00, 0.00, -0.00, -1.00, 943.5, 79.0)">y</text><text xml:space="preserve" font-family="Helvetica" font-size="50.0" fill="#FEFFFE" transform="matrix(1.00, 0.00, -0.00, -1.00, 968.5, 79.0)"> </text><text xml:space="preserve" font-family="Helvetica" font-size="50.0" fill="#FEFFFE" transform="matrix(1.00, 0.00, -0.00, -1.00, 982.4, 79.0)">c</text><text xml:space="preserve" font-family="Helvetica" font-size="50.0" fill="#FEFFFE" transform="matrix(1.00, 0.00, -0.00, -1.00, 1007.4, 79.0)">r</text><text xml:space="preserve" font-family="Helvetica" font-size="50.0" fill="#FEFFFE" transform="matrix(1.00, 0.00, -0.00, -1.00, 1024.0, 79.0)">e</text><text xml:space="preserve" font-family="Helvetica" font-size="50.0" fill="#FEFFFE" transform="matrix(1.00, 0.00, -0.00, -1.00, 1051.8, 79.0)">a</text><text xml:space="preserve" font-family="Helvetica" font-size="50.0" fill="#FEFFFE" transform="matrix(1.00, 0.00, -0.00, -1.00, 1079.6, 79.0)">t</text><text xml:space="preserve" font-family="Helvetica" font-size="50.0" fill="#FEFFFE" transform="matrix(1.00, 0.00, -0.00, -1.00, 1093.5, 79.0)">e</text><text xml:space="preserve" font-family="Helvetica" font-size="50.0" fill="#FEFFFE" transform="matrix(1.00, 0.00, -0.00, -1.00, 1121.3, 79.0)"> </text><text xml:space="preserve" font-family="Helvetica" font-size="50.0" fill="#FEFFFE" transform="matrix(1.00, 0.00, -0.00, -1.00, 1135.2, 79.0)">u</text><text xml:space="preserve" font-family="Helvetica" font-size="50.0" fill="#FEFFFE" transform="matrix(1.00, 0.00, -0.00, -1.00, 1163.0, 79.0)">n</text><text xml:space="preserve" font-family="Helvetica" font-size="50.0" fill="#FEFFFE" transform="matrix(1.00, 0.00, -0.00, -1.00, 1190.9, 79.0)">n</text><text xml:space="preserve" font-family="Helvetica" font-size="50.0" fill="#FEFFFE" transform="matrix(1.00, 0.00, -0.00, -1.00, 1218.7, 79.0)">e</text><text xml:space="preserve" font-family="Helvetica" font-size="50.0" fill="#FEFFFE" transform="matrix(1.00, 0.00, -0.00, -1.00, 1246.5, 79.0)">c</text><text xml:space="preserve" font-family="Helvetica" font-size="50.0" fill="#FEFFFE" transform="matrix(1.00, 0.00, -0.00, -1.00, 1271.5, 79.0)">e</text><text xml:space="preserve" font-family="Helvetica" font-size="50.0" fill="#FEFFFE" transform="matrix(1.00, 0.00, -0.00, -1.00, 1299.3, 79.0)">s</text><text xml:space="preserve" font-family="Helvetica" font-size="50.0" fill="#FEFFFE" transform="matrix(1.00, 0.00, -0.00, -1.00, 1324.3, 79.0)">s</text><text xml:space="preserve" font-family="Helvetica" font-size="50.0" fill="#FEFFFE" transform="matrix(1.00, 0.00, -0.00, -1.00, 1349.3, 79.0)">a</text><text xml:space="preserve" font-family="Helvetica" font-size="50.0" fill="#FEFFFE" transform="matrix(1.00, 0.00, -0.00, -1.00, 1377.1, 79.0)">r</text><text xml:space="preserve" font-family="Helvetica" font-size="50.0" fill="#FEFFFE" transform="matrix(1.00, 0.00, -0.00, -1.00, 1393.8, 79.0)">y</text><text xml:space="preserve" font-family="Helvetica" font-size="50.0" fill="#FEFFFE" transform="matrix(1.00, 0.00, -0.00, -1.00, 1418.8, 79.0)"> </text><text xml:space="preserve" font-family="Helvetica" font-size="50.0" fill="#FEFFFE" transform="matrix(1.00, 0.00, -0.00, -1.00, 1432.7, 79.0)">h</text><text xml:space="preserve" font-family="Helvetica" font-size="50.0" fill="#FEFFFE" transform="matrix(1.00, 0.00, -0.00, -1.00, 1460.5, 79.0)">e</text><text xml:space="preserve" font-family="Helvetica" font-size="50.0" fill="#FEFFFE" transform="matrix(1.00, 0.00, -0.00, -1.00, 1488.3, 79.0)">a</text><text xml:space="preserve" font-family="Helvetica" font-size="50.0" fill="#FEFFFE" transform="matrix(1.00, 0.00, -0.00, -1.00, 1516.1, 79.0)">d</text><text xml:space="preserve" font-family="Helvetica" font-size="50.0" fill="#FEFFFE" transform="matrix(1.00, 0.00, -0.00, -1.00, 1543.9, 79.0)">a</text><text xml:space="preserve" font-family="Helvetica" font-size="50.0" fill="#FEFFFE" transform="matrix(1.00, 0.00, -0.00, -1.00, 1571.8, 79.0)">c</text><text xml:space="preserve" font-family="Helvetica" font-size="50.0" fill="#FEFFFE" transform="matrix(1.00, 0.00, -0.00, -1.00, 1596.8, 79.0)">h</text><text xml:space="preserve" font-family="Helvetica" font-size="50.0" fill="#FEFFFE" transform="matrix(1.00, 0.00, -0.00, -1.00, 1624.6, 79.0)">e</text><text xml:space="preserve" font-family="Helvetica" font-size="50.0" fill="#FEFFFE" transform="matrix(1.00, 0.00, -0.00, -1.00, 1652.4, 79.0)">s</text><text xml:space="preserve" font-family="Helvetica" font-size="50.0" fill="#FEFFFE" transform="matrix(1.00, 0.00, -0.00, -1.00, 1677.4, 79.0)"> </text><image xlink:href="../../FFAD0FCB-FBE8-44CF-A7F3-BD6E5632C752/assets/93E9FF4A725F6B8A4A23479EF01FB673.png" width="1231.00" height="57.00" transform="matrix(1.00, 0.00, -0.00, -1.00, 53.0, 57.0)"></image><text xml:space="preserve" font-family="Helvetica" font-size="50.0" fill="#FEFFFE" transform="matrix(1.00, 0.00, -0.00, -1.00, 54.0, 19.0)">(</text><text xml:space="preserve" font-family="Helvetica" font-size="50.0" fill="#FEFFFE" transform="matrix(1.00, 0.00, -0.00, -1.00, 70.7, 19.0)">o</text><text xml:space="preserve" font-family="Helvetica" font-size="50.0" fill="#FEFFFE" transform="matrix(1.00, 0.00, -0.00, -1.00, 98.5, 19.0)">r</text><text xml:space="preserve" font-family="Helvetica" font-size="50.0" fill="#FEFFFE" transform="matrix(1.00, 0.00, -0.00, -1.00, 115.1, 19.0)"> </text><text xml:space="preserve" font-family="Helvetica" font-size="50.0" fill="#FEFFFE" transform="matrix(1.00, 0.00, -0.00, -1.00, 129.0, 19.0)">m</text><text xml:space="preserve" font-family="Helvetica" font-size="50.0" fill="#FEFFFE" transform="matrix(1.00, 0.00, -0.00, -1.00, 170.7, 19.0)">i</text><text xml:space="preserve" font-family="Helvetica" font-size="50.0" fill="#FEFFFE" transform="matrix(1.00, 0.00, -0.00, -1.00, 181.8, 19.0)">g</text><text xml:space="preserve" font-family="Helvetica" font-size="50.0" fill="#FEFFFE" transform="matrix(1.00, 0.00, -0.00, -1.00, 209.6, 19.0)">r</text><text xml:space="preserve" font-family="Helvetica" font-size="50.0" fill="#FEFFFE" transform="matrix(1.00, 0.00, -0.00, -1.00, 226.2, 19.0)">a</text><text xml:space="preserve" font-family="Helvetica" font-size="50.0" fill="#FEFFFE" transform="matrix(1.00, 0.00, -0.00, -1.00, 254.1, 19.0)">i</text><text xml:space="preserve" font-family="Helvetica" font-size="50.0" fill="#FEFFFE" transform="matrix(1.00, 0.00, -0.00, -1.00, 265.2, 19.0)">n</text><text xml:space="preserve" font-family="Helvetica" font-size="50.0" fill="#FEFFFE" transform="matrix(1.00, 0.00, -0.00, -1.00, 293.0, 19.0)">e</text><text xml:space="preserve" font-family="Helvetica" font-size="50.0" fill="#FEFFFE" transform="matrix(1.00, 0.00, -0.00, -1.00, 320.8, 19.0)">s</text><text xml:space="preserve" font-family="Helvetica" font-size="50.0" fill="#FEFFFE" transform="matrix(1.00, 0.00, -0.00, -1.00, 345.8, 19.0)">,</text><text xml:space="preserve" font-family="Helvetica" font-size="50.0" fill="#FEFFFE" transform="matrix(1.00, 0.00, -0.00, -1.00, 359.7, 19.0)"> </text><text xml:space="preserve" font-family="Helvetica" font-size="50.0" fill="#FEFFFE" transform="matrix(1.00, 0.00, -0.00, -1.00, 373.6, 19.0)">o</text><text xml:space="preserve" font-family="Helvetica" font-size="50.0" fill="#FEFFFE" transform="matrix(1.00, 0.00, -0.00, -1.00, 401.4, 19.0)">r</text><text xml:space="preserve" font-family="Helvetica" font-size="50.0" fill="#FEFFFE" transform="matrix(1.00, 0.00, -0.00, -1.00, 418.0, 19.0)"> </text><text xml:space="preserve" font-family="Helvetica" font-size="50.0" fill="#FEFFFE" transform="matrix(1.00, 0.00, -0.00, -1.00, 431.9, 19.0)">s</text><text xml:space="preserve" font-family="Helvetica" font-size="50.0" fill="#FEFFFE" transform="matrix(1.00, 0.00, -0.00, -1.00, 456.9, 19.0)">u</text><text xml:space="preserve" font-family="Helvetica" font-size="50.0" fill="#FEFFFE" transform="matrix(1.00, 0.00, -0.00, -1.00, 484.7, 19.0)">i</text><text xml:space="preserve" font-family="Helvetica" font-size="50.0" fill="#FEFFFE" transform="matrix(1.00, 0.00, -0.00, -1.00, 495.9, 19.0)">c</text><text xml:space="preserve" font-family="Helvetica" font-size="50.0" fill="#FEFFFE" transform="matrix(1.00, 0.00, -0.00, -1.00, 520.9, 19.0)">i</text><text xml:space="preserve" font-family="Helvetica" font-size="50.0" fill="#FEFFFE" transform="matrix(1.00, 0.00, -0.00, -1.00, 532.0, 19.0)">d</text><text xml:space="preserve" font-family="Helvetica" font-size="50.0" fill="#FEFFFE" transform="matrix(1.00, 0.00, -0.00, -1.00, 559.8, 19.0)">a</text><text xml:space="preserve" font-family="Helvetica" font-size="50.0" fill="#FEFFFE" transform="matrix(1.00, 0.00, -0.00, -1.00, 587.6, 19.0)">l</text><text xml:space="preserve" font-family="Helvetica" font-size="50.0" fill="#FEFFFE" transform="matrix(1.00, 0.00, -0.00, -1.00, 598.7, 19.0)"> </text><text xml:space="preserve" font-family="Helvetica" font-size="50.0" fill="#FEFFFE" transform="matrix(1.00, 0.00, -0.00, -1.00, 612.6, 19.0)">t</text><text xml:space="preserve" font-family="Helvetica" font-size="50.0" fill="#FEFFFE" transform="matrix(1.00, 0.00, -0.00, -1.00, 626.5, 19.0)">h</text><text xml:space="preserve" font-family="Helvetica" font-size="50.0" fill="#FEFFFE" transform="matrix(1.00, 0.00, -0.00, -1.00, 654.3, 19.0)">o</text><text xml:space="preserve" font-family="Helvetica" font-size="50.0" fill="#FEFFFE" transform="matrix(1.00, 0.00, -0.00, -1.00, 682.1, 19.0)">u</text><text xml:space="preserve" font-family="Helvetica" font-size="50.0" fill="#FEFFFE" transform="matrix(1.00, 0.00, -0.00, -1.00, 709.9, 19.0)">g</text><text xml:space="preserve" font-family="Helvetica" font-size="50.0" fill="#FEFFFE" transform="matrix(1.00, 0.00, -0.00, -1.00, 737.8, 19.0)">h</text><text xml:space="preserve" font-family="Helvetica" font-size="50.0" fill="#FEFFFE" transform="matrix(1.00, 0.00, -0.00, -1.00, 765.6, 19.0)">t</text><text xml:space="preserve" font-family="Helvetica" font-size="50.0" fill="#FEFFFE" transform="matrix(1.00, 0.00, -0.00, -1.00, 779.5, 19.0)">s</text><text xml:space="preserve" font-family="Helvetica" font-size="50.0" fill="#FEFFFE" transform="matrix(1.00, 0.00, -0.00, -1.00, 804.5, 19.0)">)</text><text xml:space="preserve" font-family="Helvetica" font-size="50.0" fill="#FEFFFE" transform="matrix(1.00, 0.00, -0.00, -1.00, 821.1, 19.0)"> </text><text xml:space="preserve" font-family="Helvetica" font-size="50.0" fill="#FEFFFE" transform="matrix(1.00, 0.00, -0.00, -1.00, 835.0, 19.0)">f</text><text xml:space="preserve" font-family="Helvetica" font-size="50.0" fill="#FEFFFE" transform="matrix(1.00, 0.00, -0.00, -1.00, 848.9, 19.0)">o</text><text xml:space="preserve" font-family="Helvetica" font-size="50.0" fill="#FEFFFE" transform="matrix(1.00, 0.00, -0.00, -1.00, 876.7, 19.0)">r</text><text xml:space="preserve" font-family="Helvetica" font-size="50.0" fill="#FEFFFE" transform="matrix(1.00, 0.00, -0.00, -1.00, 893.3, 19.0)"> </text><text xml:space="preserve" font-family="Helvetica" font-size="50.0" fill="#FEFFFE" transform="matrix(1.00, 0.00, -0.00, -1.00, 907.2, 19.0)">y</text><text xml:space="preserve" font-family="Helvetica" font-size="50.0" fill="#FEFFFE" transform="matrix(1.00, 0.00, -0.00, -1.00, 932.2, 19.0)">o</text><text xml:space="preserve" font-family="Helvetica" font-size="50.0" fill="#FEFFFE" transform="matrix(1.00, 0.00, -0.00, -1.00, 960.0, 19.0)">u</text><text xml:space="preserve" font-family="Helvetica" font-size="50.0" fill="#FEFFFE" transform="matrix(1.00, 0.00, -0.00, -1.00, 987.9, 19.0)">.</text><text xml:space="preserve" font-family="Helvetica" font-size="50.0" fill="#FEFFFE" transform="matrix(1.00, 0.00, -0.00, -1.00, 1001.7, 19.0)"> </text><text xml:space="preserve" font-family="Helvetica" font-size="50.0" fill="#FEFFFE" transform="matrix(1.00, 0.00, -0.00, -1.00, 1015.6, 19.0)">J</text><text xml:space="preserve" font-family="Helvetica" font-size="50.0" fill="#FEFFFE" transform="matrix(1.00, 0.00, -0.00, -1.00, 1040.6, 19.0)">u</text><text xml:space="preserve" font-family="Helvetica" font-size="50.0" fill="#FEFFFE" transform="matrix(1.00, 0.00, -0.00, -1.00, 1068.4, 19.0)">s</text><text xml:space="preserve" font-family="Helvetica" font-size="50.0" fill="#FEFFFE" transform="matrix(1.00, 0.00, -0.00, -1.00, 1093.4, 19.0)">t</text><text xml:space="preserve" font-family="Helvetica" font-size="50.0" fill="#FEFFFE" transform="matrix(1.00, 0.00, -0.00, -1.00, 1107.3, 19.0)"> </text><text xml:space="preserve" font-family="Helvetica" font-size="50.0" fill="#FEFFFE" transform="matrix(1.00, 0.00, -0.00, -1.00, 1121.2, 19.0)">s</text><text xml:space="preserve" font-family="Helvetica" font-size="50.0" fill="#FEFFFE" transform="matrix(1.00, 0.00, -0.00, -1.00, 1146.2, 19.0)">a</text><text xml:space="preserve" font-family="Helvetica" font-size="50.0" fill="#FEFFFE" transform="matrix(1.00, 0.00, -0.00, -1.00, 1174.0, 19.0)">y</text><text xml:space="preserve" font-family="Helvetica" font-size="50.0" fill="#FEFFFE" transform="matrix(1.00, 0.00, -0.00, -1.00, 1199.0, 19.0)"> </text><text xml:space="preserve" font-family="Helvetica" font-size="50.0" fill="#FEFFFE" transform="matrix(1.00, 0.00, -0.00, -1.00, 1212.9, 19.0)">n</text><text xml:space="preserve" font-family="Helvetica" font-size="50.0" fill="#FEFFFE" transform="matrix(1.00, 0.00, -0.00, -1.00, 1240.7, 19.0)">o</text><text xml:space="preserve" font-family="Helvetica" font-size="50.0" fill="#FEFFFE" transform="matrix(1.00, 0.00, -0.00, -1.00, 1268.5, 19.0)">!</text></g></svg>