<?xml version="1.0" encoding="UTF-8" standalone="no"?><svg xmlns="http://www.w3.org/2000/svg" xmlns:xlink="http://www.w3.org/1999/xlink" clip-rule="evenodd" stroke-miterlimit="4.00" viewBox="0 0 1920 1080"><desc>SVG generated by Keynote</desc><defs></defs><g transform="matrix(1.00, 0.00, -0.00, -1.00, 0.0, 1080.0)"><g><clipPath id="clip-904"><path d="M 0.0 1080.0 L 1920.0 1080.0 L 1920.0 0.0 L 0.0 0.0 Z M 0.0 1080.0 "></path></clipPath><g clip-path="url(#clip-904)"><image xlink:href="../../1D876F4A-8FAE-4533-855C-0B67E64EABCD/assets/4B0075050CC9D0F3DC006F0CDE78D676.jpeg" width="1365.00" height="767.00" transform="matrix(1.41, 0.00, -0.00, -1.41, 0.0, 1080.0)"></image></g></g><image xlink:href="48B6E7968D6AF2F8A845C98D1506E0DF.png" width="582.00" height="74.00" transform="matrix(1.00, 0.00, -0.00, -1.00, 113.0, 996.0)"></image><image xlink:href="684CBB263F723BDA3F54F35E022EEF96.png" width="785.00" height="109.00" transform="matrix(1.00, 0.00, -0.00, -1.00, 567.0, 906.0)"></image><image xlink:href="E7090CBBEE13D7A2F7FF0AA4DAC17F02.png" width="240.00" height="43.00" transform="matrix(1.00, 0.00, -0.00, -1.00, 1536.0, 866.0)"></image><text xml:space="preserve" font-family="HelveticaNeue-Light" font-size="40.0" fill="#FEFFFE" transform="matrix(1.00, 0.00, -0.00, -1.00, 1538.0, 836.0)">N</text><text xml:space="preserve" font-family="HelveticaNeue-Light" font-size="40.0" fill="#FEFFFE" transform="matrix(1.00, 0.00, -0.00, -1.00, 1566.2, 836.0)">o</text><text xml:space="preserve" font-family="HelveticaNeue-Light" font-size="40.0" fill="#FEFFFE" transform="matrix(1.00, 0.00, -0.00, -1.00, 1588.4, 836.0)">v</text><text xml:space="preserve" font-family="HelveticaNeue-Light" font-size="40.0" fill="#FEFFFE" transform="matrix(1.00, 0.00, -0.00, -1.00, 1606.9, 836.0)"> </text><text xml:space="preserve" font-family="HelveticaNeue-Light" font-size="40.0" fill="#FEFFFE" transform="matrix(1.00, 0.00, -0.00, -1.00, 1618.0, 836.0)">2</text><text xml:space="preserve" font-family="HelveticaNeue-Light" font-size="40.0" fill="#FEFFFE" transform="matrix(1.00, 0.00, -0.00, -1.00, 1640.3, 836.0)">9</text><text xml:space="preserve" font-family="HelveticaNeue-Light" font-size="40.0" fill="#FEFFFE" transform="matrix(1.00, 0.00, -0.00, -1.00, 1662.5, 836.0)">,</text><text xml:space="preserve" font-family="HelveticaNeue-Light" font-size="40.0" fill="#FEFFFE" transform="matrix(1.00, 0.00, -0.00, -1.00, 1673.6, 836.0)"> </text><text xml:space="preserve" font-family="HelveticaNeue-Light" font-size="40.0" fill="#FEFFFE" transform="matrix(1.00, 0.00, -0.00, -1.00, 1684.8, 836.0)">2</text><text xml:space="preserve" font-family="HelveticaNeue-Light" font-size="40.0" fill="#FEFFFE" transform="matrix(1.00, 0.00, -0.00, -1.00, 1707.0, 836.0)">0</text><text xml:space="preserve" font-family="HelveticaNeue-Light" font-size="40.0" fill="#FEFFFE" transform="matrix(1.00, 0.00, -0.00, -1.00, 1729.2, 836.0)">1</text><text xml:space="preserve" font-family="HelveticaNeue-Light" font-size="40.0" fill="#FEFFFE" transform="matrix(1.00, 0.00, -0.00, -1.00, 1751.5, 836.0)">7</text><image xlink:href="EA87898E579124875B321670F0D96B70.png" width="133.00" height="84.00" transform="matrix(1.00, 0.00, -0.00, -1.00, 118.0, 770.0)"></image><image xlink:href="1B37390D41EA45D9576821E28D42242D.png" width="915.00" height="176.00" transform="matrix(1.00, 0.00, -0.00, -1.00, 294.0, 725.0)"></image><image xlink:href="1B23210DB9D581F14AD99295FF770A0A.png" width="241.00" height="45.00" transform="matrix(1.00, 0.00, -0.00, -1.00, 1535.0, 652.0)"></image><text xml:space="preserve" font-family="HelveticaNeue-Light" font-size="40.0" fill="#FEFFFE" transform="matrix(1.00, 0.00, -0.00, -1.00, 1539.0, 622.0)">J</text><text xml:space="preserve" font-family="HelveticaNeue-Light" font-size="40.0" fill="#FEFFFE" transform="matrix(1.00, 0.00, -0.00, -1.00, 1559.0, 622.0)">u</text><text xml:space="preserve" font-family="HelveticaNeue-Light" font-size="40.0" fill="#FEFFFE" transform="matrix(1.00, 0.00, -0.00, -1.00, 1580.5, 622.0)">l</text><text xml:space="preserve" font-family="HelveticaNeue-Light" font-size="40.0" fill="#FEFFFE" transform="matrix(1.00, 0.00, -0.00, -1.00, 1587.9, 622.0)">y</text><text xml:space="preserve" font-family="HelveticaNeue-Light" font-size="40.0" fill="#FEFFFE" transform="matrix(1.00, 0.00, -0.00, -1.00, 1606.4, 622.0)"> </text><text xml:space="preserve" font-family="HelveticaNeue-Light" font-size="40.0" fill="#FEFFFE" transform="matrix(1.00, 0.00, -0.00, -1.00, 1617.5, 622.0)">2</text><text xml:space="preserve" font-family="HelveticaNeue-Light" font-size="40.0" fill="#FEFFFE" transform="matrix(1.00, 0.00, -0.00, -1.00, 1639.8, 622.0)">8</text><text xml:space="preserve" font-family="HelveticaNeue-Light" font-size="40.0" fill="#FEFFFE" transform="matrix(1.00, 0.00, -0.00, -1.00, 1662.0, 622.0)">,</text><text xml:space="preserve" font-family="HelveticaNeue-Light" font-size="40.0" fill="#FEFFFE" transform="matrix(1.00, 0.00, -0.00, -1.00, 1673.1, 622.0)"> </text><text xml:space="preserve" font-family="HelveticaNeue-Light" font-size="40.0" fill="#FEFFFE" transform="matrix(1.00, 0.00, -0.00, -1.00, 1684.2, 622.0)">2</text><text xml:space="preserve" font-family="HelveticaNeue-Light" font-size="40.0" fill="#FEFFFE" transform="matrix(1.00, 0.00, -0.00, -1.00, 1706.5, 622.0)">0</text><text xml:space="preserve" font-family="HelveticaNeue-Light" font-size="40.0" fill="#FEFFFE" transform="matrix(1.00, 0.00, -0.00, -1.00, 1728.7, 622.0)">1</text><text xml:space="preserve" font-family="HelveticaNeue-Light" font-size="40.0" fill="#FEFFFE" transform="matrix(1.00, 0.00, -0.00, -1.00, 1751.0, 622.0)">7</text><image xlink:href="780DA90D90C16FB40ED5BFCD9C4841A2.png" width="700.00" height="122.00" transform="matrix(1.41, 0.00, -0.00, -1.41, 335.0, 353.0)"></image><image xlink:href="33740854BAEEADF3DBC4FCFB3603EA1C.png" width="141.00" height="53.00" transform="matrix(1.45, 0.00, -0.00, -1.45, 83.0, 392.0)"></image><image xlink:href="CCEAC977C0E7B6E914E7BD05424574F6.png" width="244.00" height="46.00" transform="matrix(1.00, 0.00, -0.00, -1.00, 1533.0, 214.0)"></image><text xml:space="preserve" font-family="HelveticaNeue-Light" font-size="40.0" fill="#FEFFFE" transform="matrix(1.00, 0.00, -0.00, -1.00, 1538.0, 184.0)">A</text><text xml:space="preserve" font-family="HelveticaNeue-Light" font-size="40.0" fill="#FEFFFE" transform="matrix(1.00, 0.00, -0.00, -1.00, 1563.2, 184.0)">u</text><text xml:space="preserve" font-family="HelveticaNeue-Light" font-size="40.0" fill="#FEFFFE" transform="matrix(1.00, 0.00, -0.00, -1.00, 1584.7, 184.0)">g</text><text xml:space="preserve" font-family="HelveticaNeue-Light" font-size="40.0" fill="#FEFFFE" transform="matrix(1.00, 0.00, -0.00, -1.00, 1606.9, 184.0)"> </text><text xml:space="preserve" font-family="HelveticaNeue-Light" font-size="40.0" fill="#FEFFFE" transform="matrix(1.00, 0.00, -0.00, -1.00, 1618.0, 184.0)">2</text><text xml:space="preserve" font-family="HelveticaNeue-Light" font-size="40.0" fill="#FEFFFE" transform="matrix(1.00, 0.00, -0.00, -1.00, 1640.3, 184.0)">9</text><text xml:space="preserve" font-family="HelveticaNeue-Light" font-size="40.0" fill="#FEFFFE" transform="matrix(1.00, 0.00, -0.00, -1.00, 1662.5, 184.0)">,</text><text xml:space="preserve" font-family="HelveticaNeue-Light" font-size="40.0" fill="#FEFFFE" transform="matrix(1.00, 0.00, -0.00, -1.00, 1673.6, 184.0)"> </text><text xml:space="preserve" font-family="HelveticaNeue-Light" font-size="40.0" fill="#FEFFFE" transform="matrix(1.00, 0.00, -0.00, -1.00, 1684.8, 184.0)">2</text><text xml:space="preserve" font-family="HelveticaNeue-Light" font-size="40.0" fill="#FEFFFE" transform="matrix(1.00, 0.00, -0.00, -1.00, 1707.0, 184.0)">0</text><text xml:space="preserve" font-family="HelveticaNeue-Light" font-size="40.0" fill="#FEFFFE" transform="matrix(1.00, 0.00, -0.00, -1.00, 1729.2, 184.0)">1</text><text xml:space="preserve" font-family="HelveticaNeue-Light" font-size="40.0" fill="#FEFFFE" transform="matrix(1.00, 0.00, -0.00, -1.00, 1751.5, 184.0)">6</text></g></svg>