<?xml version="1.0" encoding="UTF-8" standalone="no"?><svg xmlns="http://www.w3.org/2000/svg" xmlns:xlink="http://www.w3.org/1999/xlink" clip-rule="evenodd" stroke-miterlimit="4.00" viewBox="0 0 1920 1080"><desc>SVG generated by Keynote</desc><defs></defs><g transform="matrix(1.00, 0.00, -0.00, -1.00, 0.0, 1080.0)"><g><clipPath id="clip-206"><path d="M 0.0 1080.0 L 1920.0 1080.0 L 1920.0 0.0 L 0.0 0.0 Z M 0.0 1080.0 "></path></clipPath><g clip-path="url(#clip-206)"><image xlink:href="../../1D876F4A-8FAE-4533-855C-0B67E64EABCD/assets/4B0075050CC9D0F3DC006F0CDE78D676.jpeg" width="1365.00" height="767.00" transform="matrix(1.41, 0.00, -0.00, -1.41, 0.0, 1080.0)"></image></g></g><image xlink:href="../../2C21C783-D521-468A-A97D-288E8D4A35C2/assets/0E896B6775BDFB5AEF2C2AD68C0C5E48.png" width="451.00" height="100.00" transform="matrix(1.00, 0.00, -0.00, -1.00, 119.0, 953.0)"></image><text xml:space="preserve" font-family="HelveticaNeue-Light" font-size="100.0" fill="#FEFFFE" transform="matrix(1.00, 0.00, -0.00, -1.00, 120.0, 879.0)">O</text><text xml:space="preserve" font-family="HelveticaNeue-Light" font-size="100.0" fill="#FEFFFE" transform="matrix(1.00, 0.00, -0.00, -1.00, 194.1, 879.0)">b</text><text xml:space="preserve" font-family="HelveticaNeue-Light" font-size="100.0" fill="#FEFFFE" transform="matrix(1.00, 0.00, -0.00, -1.00, 251.5, 879.0)">j</text><text xml:space="preserve" font-family="HelveticaNeue-Light" font-size="100.0" fill="#FEFFFE" transform="matrix(1.00, 0.00, -0.00, -1.00, 270.0, 879.0)">e</text><text xml:space="preserve" font-family="HelveticaNeue-Light" font-size="100.0" fill="#FEFFFE" transform="matrix(1.00, 0.00, -0.00, -1.00, 321.9, 879.0)">c</text><text xml:space="preserve" font-family="HelveticaNeue-Light" font-size="100.0" fill="#FEFFFE" transform="matrix(1.00, 0.00, -0.00, -1.00, 373.8, 879.0)">t</text><text xml:space="preserve" font-family="HelveticaNeue-Light" font-size="100.0" fill="#FEFFFE" transform="matrix(1.00, 0.00, -0.00, -1.00, 403.4, 879.0)">i</text><text xml:space="preserve" font-family="HelveticaNeue-Light" font-size="100.0" fill="#FEFFFE" transform="matrix(1.00, 0.00, -0.00, -1.00, 421.9, 879.0)">v</text><text xml:space="preserve" font-family="HelveticaNeue-Light" font-size="100.0" fill="#FEFFFE" transform="matrix(1.00, 0.00, -0.00, -1.00, 468.2, 879.0)">e</text><text xml:space="preserve" font-family="HelveticaNeue-Light" font-size="100.0" fill="#FEFFFE" transform="matrix(1.00, 0.00, -0.00, -1.00, 520.1, 879.0)">s</text><image xlink:href="../../2C21C783-D521-468A-A97D-288E8D4A35C2/assets/167025E7271E327D092A79EB5F3AA650.png" width="16.00" height="16.00" transform="matrix(1.00, 0.00, -0.00, -1.00, 120.0, 799.0)"></image><g><clipPath id="clip-207"><path d="M 120.0 783.6 L 135.3 783.6 L 135.3 799.0 L 120.0 799.0 Z M 120.0 783.6 "></path></clipPath><g clip-path="url(#clip-207)"><g><g><clipPath id="clip-208"><path d="M 120.0 799.0 L 135.3 799.0 L 135.3 783.6 L 120.0 783.6 Z M 120.0 799.0 "></path></clipPath><g clip-path="url(#clip-208)"><g><clipPath id="clip-209"><path d="M 116.0 776.0 L 140.0 776.0 L 140.0 806.0 L 116.0 806.0 Z M 116.0 776.0 "></path></clipPath><g clip-path="url(#clip-209)"><path d="M 135.3 795.9 C 135.3 796.6 135.0 797.3 134.4 798.0 C 133.7 798.6 133.0 799.0 132.2 799.0 C 131.9 799.0 131.4 798.8 130.6 798.5 C 129.4 797.9 128.4 797.6 127.6 797.6 C 126.7 797.6 125.7 797.9 124.6 798.5 C 123.9 798.8 123.4 799.0 123.0 799.0 C 122.3 799.0 121.6 798.7 121.0 798.0 C 120.3 797.3 120.0 796.6 120.0 795.9 C 120.0 795.6 120.2 795.0 120.5 794.2 C 121.1 793.1 121.3 792.1 121.3 791.3 C 121.3 790.5 121.1 789.5 120.5 788.3 C 120.2 787.6 120.0 787.0 120.0 786.7 C 120.0 786.0 120.3 785.3 121.0 784.6 C 121.6 783.9 122.3 783.6 123.0 783.6 C 123.4 783.6 123.9 783.8 124.6 784.1 C 125.7 784.7 126.7 785.0 127.6 785.0 C 128.4 785.0 129.4 784.7 130.6 784.1 C 131.4 783.8 131.9 783.6 132.2 783.6 C 133.0 783.6 133.7 783.9 134.4 784.6 C 135.0 785.3 135.3 786.0 135.3 786.7 C 135.3 787.0 135.1 787.6 134.8 788.3 C 134.2 789.5 133.9 790.5 133.9 791.3 C 133.9 792.1 134.2 793.1 134.8 794.2 C 135.1 795.0 135.3 795.6 135.3 795.9 " fill="#FFFFFF"></path></g></g></g></g></g></g></g><image xlink:href="../../2C21C783-D521-468A-A97D-288E8D4A35C2/assets/91C26C838F47AFED1F0C9403530E66B1.png" width="179.00" height="41.00" transform="matrix(1.00, 0.00, -0.00, -1.00, 163.0, 810.0)"></image><text xml:space="preserve" font-family="HelveticaNeue-Light" font-size="43.5" fill="#FEFFFE" transform="matrix(1.00, 0.00, -0.00, -1.00, 164.0, 777.0)">M</text><text xml:space="preserve" font-family="HelveticaNeue-Light" font-size="43.5" fill="#FEFFFE" transform="matrix(1.00, 0.00, -0.00, -1.00, 199.7, 777.0)">a</text><text xml:space="preserve" font-family="HelveticaNeue-Light" font-size="43.5" fill="#FEFFFE" transform="matrix(1.00, 0.00, -0.00, -1.00, 222.3, 777.0)">x</text><text xml:space="preserve" font-family="HelveticaNeue-Light" font-size="43.5" fill="#FEFFFE" transform="matrix(1.00, 0.00, -0.00, -1.00, 243.2, 777.0)">i</text><text xml:space="preserve" font-family="HelveticaNeue-Light" font-size="43.5" fill="#FEFFFE" transform="matrix(1.00, 0.00, -0.00, -1.00, 251.3, 777.0)">m</text><text xml:space="preserve" font-family="HelveticaNeue-Light" font-size="43.5" fill="#FEFFFE" transform="matrix(1.00, 0.00, -0.00, -1.00, 287.5, 777.0)">i</text><text xml:space="preserve" font-family="HelveticaNeue-Light" font-size="43.5" fill="#FEFFFE" transform="matrix(1.00, 0.00, -0.00, -1.00, 295.5, 777.0)">z</text><text xml:space="preserve" font-family="HelveticaNeue-Light" font-size="43.5" fill="#FEFFFE" transform="matrix(1.00, 0.00, -0.00, -1.00, 315.7, 777.0)">e</text><text xml:space="preserve" font-family="HelveticaNeue-Light" font-size="43.5" fill="#FEFFFE" transform="matrix(1.00, 0.00, -0.00, -1.00, 338.3, 777.0)"> </text><image xlink:href="../../2C21C783-D521-468A-A97D-288E8D4A35C2/assets/73E60578BA9E37A853FF5912009FFA8E.png" width="16.00" height="16.00" transform="matrix(1.00, 0.00, -0.00, -1.00, 170.0, 703.0)"></image><g><clipPath id="clip-210"><path d="M 170.0 687.2 L 185.3 687.2 L 185.3 702.6 L 170.0 702.6 Z M 170.0 687.2 "></path></clipPath><g clip-path="url(#clip-210)"><g><g><clipPath id="clip-211"><path d="M 170.0 702.6 L 185.3 702.6 L 185.3 687.2 L 170.0 687.2 Z M 170.0 702.6 "></path></clipPath><g clip-path="url(#clip-211)"><g><clipPath id="clip-212"><path d="M 166.0 680.0 L 190.0 680.0 L 190.0 710.0 L 166.0 710.0 Z M 166.0 680.0 "></path></clipPath><g clip-path="url(#clip-212)"><path d="M 185.3 699.5 C 185.3 700.2 185.0 700.9 184.4 701.6 C 183.7 702.3 183.0 702.6 182.2 702.6 C 181.9 702.6 181.4 702.4 180.6 702.1 C 179.4 701.5 178.4 701.2 177.6 701.2 C 176.7 701.2 175.7 701.5 174.6 702.1 C 173.9 702.4 173.4 702.6 173.0 702.6 C 172.3 702.6 171.6 702.3 171.0 701.6 C 170.3 701.0 170.0 700.3 170.0 699.5 C 170.0 699.2 170.2 698.6 170.5 697.8 C 171.1 696.7 171.3 695.7 171.3 694.9 C 171.3 694.1 171.1 693.1 170.5 691.9 C 170.2 691.2 170.0 690.7 170.0 690.3 C 170.0 689.6 170.3 688.9 171.0 688.2 C 171.6 687.6 172.3 687.2 173.0 687.2 C 173.4 687.2 173.9 687.4 174.6 687.8 C 175.7 688.3 176.7 688.6 177.6 688.6 C 178.4 688.6 179.4 688.3 180.6 687.8 C 181.4 687.4 181.9 687.2 182.2 687.2 C 183.0 687.2 183.7 687.6 184.4 688.2 C 185.0 688.9 185.3 689.6 185.3 690.3 C 185.3 690.7 185.1 691.2 184.8 691.9 C 184.2 693.1 183.9 694.1 183.9 694.9 C 183.9 695.7 184.2 696.7 184.8 697.8 C 185.1 698.6 185.3 699.2 185.3 699.5 " fill="#FFFFFF"></path></g></g></g></g></g></g></g><image xlink:href="../../2C21C783-D521-468A-A97D-288E8D4A35C2/assets/C01C4DC12BB0B2305700962F8F2E38A1.png" width="546.00" height="49.00" transform="matrix(1.00, 0.00, -0.00, -1.00, 209.0, 714.0)"></image><text xml:space="preserve" font-family="HelveticaNeue-Light" font-size="43.5" fill="#FEFFFE" transform="matrix(1.00, 0.00, -0.00, -1.00, 214.0, 681.0)">T</text><text xml:space="preserve" font-family="HelveticaNeue-Light" font-size="43.5" fill="#FEFFFE" transform="matrix(1.00, 0.00, -0.00, -1.00, 239.2, 681.0)">i</text><text xml:space="preserve" font-family="HelveticaNeue-Light" font-size="43.5" fill="#FEFFFE" transform="matrix(1.00, 0.00, -0.00, -1.00, 247.3, 681.0)">m</text><text xml:space="preserve" font-family="HelveticaNeue-Light" font-size="43.5" fill="#FEFFFE" transform="matrix(1.00, 0.00, -0.00, -1.00, 283.5, 681.0)">e</text><text xml:space="preserve" font-family="HelveticaNeue-Light" font-size="43.5" fill="#FEFFFE" transform="matrix(1.00, 0.00, -0.00, -1.00, 306.1, 681.0)"> </text><text xml:space="preserve" font-family="HelveticaNeue-Light" font-size="43.5" fill="#FEFFFE" transform="matrix(1.00, 0.00, -0.00, -1.00, 318.2, 681.0)">t</text><text xml:space="preserve" font-family="HelveticaNeue-Light" font-size="43.5" fill="#FEFFFE" transform="matrix(1.00, 0.00, -0.00, -1.00, 331.1, 681.0)">o</text><text xml:space="preserve" font-family="HelveticaNeue-Light" font-size="43.5" fill="#FEFFFE" transform="matrix(1.00, 0.00, -0.00, -1.00, 355.2, 681.0)"> </text><text xml:space="preserve" font-family="HelveticaNeue-Light" font-size="43.5" fill="#FEFFFE" transform="matrix(1.00, 0.00, -0.00, -1.00, 367.3, 681.0)">t</text><text xml:space="preserve" font-family="HelveticaNeue-Light" font-size="43.5" fill="#FEFFFE" transform="matrix(1.00, 0.00, -0.00, -1.00, 380.2, 681.0)">h</text><text xml:space="preserve" font-family="HelveticaNeue-Light" font-size="43.5" fill="#FEFFFE" transform="matrix(1.00, 0.00, -0.00, -1.00, 403.6, 681.0)">i</text><text xml:space="preserve" font-family="HelveticaNeue-Light" font-size="43.5" fill="#FEFFFE" transform="matrix(1.00, 0.00, -0.00, -1.00, 411.6, 681.0)">n</text><text xml:space="preserve" font-family="HelveticaNeue-Light" font-size="43.5" fill="#FEFFFE" transform="matrix(1.00, 0.00, -0.00, -1.00, 435.0, 681.0)">k</text><text xml:space="preserve" font-family="HelveticaNeue-Light" font-size="43.5" fill="#FEFFFE" transform="matrix(1.00, 0.00, -0.00, -1.00, 456.7, 681.0)"> </text><text xml:space="preserve" font-family="HelveticaNeue-Light" font-size="43.5" fill="#FEFFFE" transform="matrix(1.00, 0.00, -0.00, -1.00, 468.8, 681.0)">a</text><text xml:space="preserve" font-family="HelveticaNeue-Light" font-size="43.5" fill="#FEFFFE" transform="matrix(1.00, 0.00, -0.00, -1.00, 491.4, 681.0)">b</text><text xml:space="preserve" font-family="HelveticaNeue-Light" font-size="43.5" fill="#FEFFFE" transform="matrix(1.00, 0.00, -0.00, -1.00, 516.4, 681.0)">o</text><text xml:space="preserve" font-family="HelveticaNeue-Light" font-size="43.5" fill="#FEFFFE" transform="matrix(1.00, 0.00, -0.00, -1.00, 540.6, 681.0)">u</text><text xml:space="preserve" font-family="HelveticaNeue-Light" font-size="43.5" fill="#FEFFFE" transform="matrix(1.00, 0.00, -0.00, -1.00, 563.9, 681.0)">t</text><text xml:space="preserve" font-family="HelveticaNeue-Light" font-size="43.5" fill="#FEFFFE" transform="matrix(1.00, 0.00, -0.00, -1.00, 576.8, 681.0)"> </text><text xml:space="preserve" font-family="HelveticaNeue-Light" font-size="43.5" fill="#FEFFFE" transform="matrix(1.00, 0.00, -0.00, -1.00, 588.9, 681.0)">a</text><text xml:space="preserve" font-family="HelveticaNeue-Light" font-size="43.5" fill="#FEFFFE" transform="matrix(1.00, 0.00, -0.00, -1.00, 611.5, 681.0)"> </text><text xml:space="preserve" font-family="HelveticaNeue-Light" font-size="43.5" fill="#FEFFFE" transform="matrix(1.00, 0.00, -0.00, -1.00, 623.6, 681.0)">p</text><text xml:space="preserve" font-family="HelveticaNeue-Light" font-size="43.5" fill="#FEFFFE" transform="matrix(1.00, 0.00, -0.00, -1.00, 648.5, 681.0)">r</text><text xml:space="preserve" font-family="HelveticaNeue-Light" font-size="43.5" fill="#FEFFFE" transform="matrix(1.00, 0.00, -0.00, -1.00, 661.4, 681.0)">o</text><text xml:space="preserve" font-family="HelveticaNeue-Light" font-size="43.5" fill="#FEFFFE" transform="matrix(1.00, 0.00, -0.00, -1.00, 685.6, 681.0)">j</text><text xml:space="preserve" font-family="HelveticaNeue-Light" font-size="43.5" fill="#FEFFFE" transform="matrix(1.00, 0.00, -0.00, -1.00, 693.7, 681.0)">e</text><text xml:space="preserve" font-family="HelveticaNeue-Light" font-size="43.5" fill="#FEFFFE" transform="matrix(1.00, 0.00, -0.00, -1.00, 716.3, 681.0)">c</text><text xml:space="preserve" font-family="HelveticaNeue-Light" font-size="43.5" fill="#FEFFFE" transform="matrix(1.00, 0.00, -0.00, -1.00, 738.8, 681.0)">t</text><text xml:space="preserve" font-family="HelveticaNeue-Light" font-size="43.5" fill="#FEFFFE" transform="matrix(1.00, 0.00, -0.00, -1.00, 751.7, 681.0)"> </text><image xlink:href="../../2C21C783-D521-468A-A97D-288E8D4A35C2/assets/C838E8DCD05EADC657F302E6075DE927.png" width="16.00" height="17.00" transform="matrix(1.00, 0.00, -0.00, -1.00, 170.0, 607.0)"></image><g><clipPath id="clip-213"><path d="M 170.0 590.9 L 185.3 590.9 L 185.3 606.3 L 170.0 606.3 Z M 170.0 590.9 "></path></clipPath><g clip-path="url(#clip-213)"><g><g><clipPath id="clip-214"><path d="M 170.0 606.3 L 185.3 606.3 L 185.3 590.9 L 170.0 590.9 Z M 170.0 606.3 "></path></clipPath><g clip-path="url(#clip-214)"><g><clipPath id="clip-215"><path d="M 166.0 583.0 L 190.0 583.0 L 190.0 614.0 L 166.0 614.0 Z M 166.0 583.0 "></path></clipPath><g clip-path="url(#clip-215)"><path d="M 185.3 603.2 C 185.3 603.8 185.0 604.5 184.4 605.2 C 183.7 605.9 183.0 606.3 182.2 606.3 C 181.9 606.3 181.4 606.1 180.6 605.7 C 179.4 605.1 178.4 604.9 177.6 604.9 C 176.7 604.9 175.7 605.1 174.6 605.7 C 173.9 606.1 173.4 606.3 173.0 606.3 C 172.3 606.3 171.6 605.9 171.0 605.3 C 170.3 604.6 170.0 603.9 170.0 603.2 C 170.0 602.8 170.2 602.2 170.5 601.5 C 171.1 600.3 171.3 599.4 171.3 598.6 C 171.3 597.7 171.1 596.7 170.5 595.6 C 170.2 594.8 170.0 594.3 170.0 593.9 C 170.0 593.2 170.3 592.5 171.0 591.9 C 171.6 591.2 172.3 590.9 173.0 590.9 C 173.4 590.9 173.9 591.0 174.6 591.4 C 175.7 592.0 176.7 592.2 177.6 592.2 C 178.4 592.2 179.4 592.0 180.6 591.4 C 181.4 591.0 181.9 590.9 182.2 590.9 C 183.0 590.9 183.7 591.2 184.4 591.9 C 185.0 592.5 185.3 593.2 185.3 593.9 C 185.3 594.3 185.1 594.8 184.8 595.6 C 184.2 596.7 183.9 597.7 183.9 598.6 C 183.9 599.4 184.2 600.3 184.8 601.5 C 185.1 602.2 185.3 602.8 185.3 603.2 " fill="#FFFFFF"></path></g></g></g></g></g></g></g><image xlink:href="../../2C21C783-D521-468A-A97D-288E8D4A35C2/assets/2701FEC1F3B5BB12BDB3E9F45C640457.png" width="467.00" height="49.00" transform="matrix(1.00, 0.00, -0.00, -1.00, 213.0, 617.0)"></image><text xml:space="preserve" font-family="HelveticaNeue-Light" font-size="43.5" fill="#FEFFFE" transform="matrix(1.00, 0.00, -0.00, -1.00, 214.0, 584.0)">R</text><text xml:space="preserve" font-family="HelveticaNeue-Light" font-size="43.5" fill="#FEFFFE" transform="matrix(1.00, 0.00, -0.00, -1.00, 243.0, 584.0)">e</text><text xml:space="preserve" font-family="HelveticaNeue-Light" font-size="43.5" fill="#FEFFFE" transform="matrix(1.00, 0.00, -0.00, -1.00, 265.6, 584.0)">l</text><text xml:space="preserve" font-family="HelveticaNeue-Light" font-size="43.5" fill="#FEFFFE" transform="matrix(1.00, 0.00, -0.00, -1.00, 273.6, 584.0)">i</text><text xml:space="preserve" font-family="HelveticaNeue-Light" font-size="43.5" fill="#FEFFFE" transform="matrix(1.00, 0.00, -0.00, -1.00, 281.7, 584.0)">a</text><text xml:space="preserve" font-family="HelveticaNeue-Light" font-size="43.5" fill="#FEFFFE" transform="matrix(1.00, 0.00, -0.00, -1.00, 304.3, 584.0)">b</text><text xml:space="preserve" font-family="HelveticaNeue-Light" font-size="43.5" fill="#FEFFFE" transform="matrix(1.00, 0.00, -0.00, -1.00, 329.2, 584.0)">i</text><text xml:space="preserve" font-family="HelveticaNeue-Light" font-size="43.5" fill="#FEFFFE" transform="matrix(1.00, 0.00, -0.00, -1.00, 337.3, 584.0)">l</text><text xml:space="preserve" font-family="HelveticaNeue-Light" font-size="43.5" fill="#FEFFFE" transform="matrix(1.00, 0.00, -0.00, -1.00, 345.3, 584.0)">i</text><text xml:space="preserve" font-family="HelveticaNeue-Light" font-size="43.5" fill="#FEFFFE" transform="matrix(1.00, 0.00, -0.00, -1.00, 353.4, 584.0)">t</text><text xml:space="preserve" font-family="HelveticaNeue-Light" font-size="43.5" fill="#FEFFFE" transform="matrix(1.00, 0.00, -0.00, -1.00, 366.2, 584.0)">y</text><text xml:space="preserve" font-family="HelveticaNeue-Light" font-size="43.5" fill="#FEFFFE" transform="matrix(1.00, 0.00, -0.00, -1.00, 386.4, 584.0)">/</text><text xml:space="preserve" font-family="HelveticaNeue-Light" font-size="43.5" fill="#FEFFFE" transform="matrix(1.00, 0.00, -0.00, -1.00, 400.9, 584.0)">R</text><text xml:space="preserve" font-family="HelveticaNeue-Light" font-size="43.5" fill="#FEFFFE" transform="matrix(1.00, 0.00, -0.00, -1.00, 429.9, 584.0)">e</text><text xml:space="preserve" font-family="HelveticaNeue-Light" font-size="43.5" fill="#FEFFFE" transform="matrix(1.00, 0.00, -0.00, -1.00, 452.5, 584.0)">p</text><text xml:space="preserve" font-family="HelveticaNeue-Light" font-size="43.5" fill="#FEFFFE" transform="matrix(1.00, 0.00, -0.00, -1.00, 477.4, 584.0)">r</text><text xml:space="preserve" font-family="HelveticaNeue-Light" font-size="43.5" fill="#FEFFFE" transform="matrix(1.00, 0.00, -0.00, -1.00, 490.4, 584.0)">o</text><text xml:space="preserve" font-family="HelveticaNeue-Light" font-size="43.5" fill="#FEFFFE" transform="matrix(1.00, 0.00, -0.00, -1.00, 514.5, 584.0)">d</text><text xml:space="preserve" font-family="HelveticaNeue-Light" font-size="43.5" fill="#FEFFFE" transform="matrix(1.00, 0.00, -0.00, -1.00, 539.5, 584.0)">u</text><text xml:space="preserve" font-family="HelveticaNeue-Light" font-size="43.5" fill="#FEFFFE" transform="matrix(1.00, 0.00, -0.00, -1.00, 562.9, 584.0)">c</text><text xml:space="preserve" font-family="HelveticaNeue-Light" font-size="43.5" fill="#FEFFFE" transform="matrix(1.00, 0.00, -0.00, -1.00, 585.4, 584.0)">i</text><text xml:space="preserve" font-family="HelveticaNeue-Light" font-size="43.5" fill="#FEFFFE" transform="matrix(1.00, 0.00, -0.00, -1.00, 593.5, 584.0)">b</text><text xml:space="preserve" font-family="HelveticaNeue-Light" font-size="43.5" fill="#FEFFFE" transform="matrix(1.00, 0.00, -0.00, -1.00, 618.5, 584.0)">i</text><text xml:space="preserve" font-family="HelveticaNeue-Light" font-size="43.5" fill="#FEFFFE" transform="matrix(1.00, 0.00, -0.00, -1.00, 626.5, 584.0)">l</text><text xml:space="preserve" font-family="HelveticaNeue-Light" font-size="43.5" fill="#FEFFFE" transform="matrix(1.00, 0.00, -0.00, -1.00, 634.6, 584.0)">i</text><text xml:space="preserve" font-family="HelveticaNeue-Light" font-size="43.5" fill="#FEFFFE" transform="matrix(1.00, 0.00, -0.00, -1.00, 642.6, 584.0)">t</text><text xml:space="preserve" font-family="HelveticaNeue-Light" font-size="43.5" fill="#FEFFFE" transform="matrix(1.00, 0.00, -0.00, -1.00, 655.5, 584.0)">y</text><text xml:space="preserve" font-family="HelveticaNeue-Light" font-size="43.5" fill="#FEFFFE" transform="matrix(1.00, 0.00, -0.00, -1.00, 675.6, 584.0)"> </text><image xlink:href="../../2C21C783-D521-468A-A97D-288E8D4A35C2/assets/59352EE73DE75FC2998DD967A153865F.png" width="16.00" height="16.00" transform="matrix(1.00, 0.00, -0.00, -1.00, 120.0, 510.0)"></image><g><clipPath id="clip-216"><path d="M 120.0 494.5 L 135.3 494.5 L 135.3 509.9 L 120.0 509.9 Z M 120.0 494.5 "></path></clipPath><g clip-path="url(#clip-216)"><g><g><clipPath id="clip-217"><path d="M 120.0 509.9 L 135.3 509.9 L 135.3 494.5 L 120.0 494.5 Z M 120.0 509.9 "></path></clipPath><g clip-path="url(#clip-217)"><g><clipPath id="clip-218"><path d="M 116.0 487.0 L 140.0 487.0 L 140.0 517.0 L 116.0 517.0 Z M 116.0 487.0 "></path></clipPath><g clip-path="url(#clip-218)"><path d="M 135.3 506.8 C 135.3 507.5 135.0 508.1 134.4 508.8 C 133.7 509.5 133.0 509.9 132.2 509.9 C 131.9 509.9 131.4 509.7 130.6 509.3 C 129.4 508.8 128.4 508.5 127.6 508.5 C 126.7 508.5 125.7 508.8 124.6 509.3 C 123.9 509.7 123.4 509.9 123.0 509.9 C 122.3 509.9 121.6 509.5 121.0 508.9 C 120.3 508.2 120.0 507.5 120.0 506.8 C 120.0 506.4 120.2 505.9 120.5 505.1 C 121.1 504.0 121.3 503.0 121.3 502.2 C 121.3 501.4 121.1 500.4 120.5 499.2 C 120.2 498.5 120.0 497.9 120.0 497.6 C 120.0 496.8 120.3 496.2 121.0 495.5 C 121.6 494.8 122.3 494.5 123.0 494.5 C 123.4 494.5 123.9 494.7 124.6 495.0 C 125.7 495.6 126.7 495.9 127.6 495.9 C 128.4 495.9 129.4 495.6 130.6 495.0 C 131.4 494.7 131.9 494.5 132.2 494.5 C 133.0 494.5 133.7 494.8 134.4 495.5 C 135.0 496.2 135.3 496.8 135.3 497.6 C 135.3 497.9 135.1 498.5 134.8 499.2 C 134.2 500.4 133.9 501.4 133.9 502.2 C 133.9 503.0 134.2 504.0 134.8 505.1 C 135.1 505.9 135.3 506.4 135.3 506.8 " fill="#FFFFFF"></path></g></g></g></g></g></g></g><image xlink:href="../../2C21C783-D521-468A-A97D-288E8D4A35C2/assets/A9FC4600B0F7590907B9280D4A97DEC3.png" width="167.00" height="41.00" transform="matrix(1.00, 0.00, -0.00, -1.00, 163.0, 521.0)"></image><text xml:space="preserve" font-family="HelveticaNeue-Light" font-size="43.5" fill="#FEFFFE" transform="matrix(1.00, 0.00, -0.00, -1.00, 164.0, 488.0)">M</text><text xml:space="preserve" font-family="HelveticaNeue-Light" font-size="43.5" fill="#FEFFFE" transform="matrix(1.00, 0.00, -0.00, -1.00, 199.7, 488.0)">i</text><text xml:space="preserve" font-family="HelveticaNeue-Light" font-size="43.5" fill="#FEFFFE" transform="matrix(1.00, 0.00, -0.00, -1.00, 207.8, 488.0)">n</text><text xml:space="preserve" font-family="HelveticaNeue-Light" font-size="43.5" fill="#FEFFFE" transform="matrix(1.00, 0.00, -0.00, -1.00, 231.1, 488.0)">i</text><text xml:space="preserve" font-family="HelveticaNeue-Light" font-size="43.5" fill="#FEFFFE" transform="matrix(1.00, 0.00, -0.00, -1.00, 239.2, 488.0)">m</text><text xml:space="preserve" font-family="HelveticaNeue-Light" font-size="43.5" fill="#FEFFFE" transform="matrix(1.00, 0.00, -0.00, -1.00, 275.4, 488.0)">i</text><text xml:space="preserve" font-family="HelveticaNeue-Light" font-size="43.5" fill="#FEFFFE" transform="matrix(1.00, 0.00, -0.00, -1.00, 283.5, 488.0)">z</text><text xml:space="preserve" font-family="HelveticaNeue-Light" font-size="43.5" fill="#FEFFFE" transform="matrix(1.00, 0.00, -0.00, -1.00, 303.6, 488.0)">e</text><text xml:space="preserve" font-family="HelveticaNeue-Light" font-size="43.5" fill="#FEFFFE" transform="matrix(1.00, 0.00, -0.00, -1.00, 326.2, 488.0)"> </text><image xlink:href="../../2C21C783-D521-468A-A97D-288E8D4A35C2/assets/7F2F6B3B5C9B119BE130ABD3D52B21B3.png" width="16.00" height="16.00" transform="matrix(1.00, 0.00, -0.00, -1.00, 170.0, 414.0)"></image><g><clipPath id="clip-219"><path d="M 170.0 398.1 L 185.3 398.1 L 185.3 413.5 L 170.0 413.5 Z M 170.0 398.1 "></path></clipPath><g clip-path="url(#clip-219)"><g><g><clipPath id="clip-220"><path d="M 170.0 413.5 L 185.3 413.5 L 185.3 398.1 L 170.0 398.1 Z M 170.0 413.5 "></path></clipPath><g clip-path="url(#clip-220)"><g><clipPath id="clip-221"><path d="M 166.0 391.0 L 190.0 391.0 L 190.0 421.0 L 166.0 421.0 Z M 166.0 391.0 "></path></clipPath><g clip-path="url(#clip-221)"><path d="M 185.3 410.4 C 185.3 411.1 185.0 411.8 184.4 412.5 C 183.7 413.2 183.0 413.5 182.2 413.5 C 181.9 413.5 181.4 413.3 180.6 413.0 C 179.4 412.4 178.4 412.1 177.6 412.1 C 176.7 412.1 175.7 412.4 174.6 413.0 C 173.9 413.3 173.4 413.5 173.0 413.5 C 172.3 413.5 171.6 413.2 171.0 412.5 C 170.3 411.8 170.0 411.2 170.0 410.4 C 170.0 410.1 170.2 409.5 170.5 408.7 C 171.1 407.6 171.3 406.6 171.3 405.8 C 171.3 405.0 171.1 404.0 170.5 402.8 C 170.2 402.1 170.0 401.6 170.0 401.2 C 170.0 400.5 170.3 399.8 171.0 399.1 C 171.6 398.4 172.3 398.1 173.0 398.1 C 173.4 398.1 173.9 398.3 174.6 398.7 C 175.7 399.2 176.7 399.5 177.6 399.5 C 178.4 399.5 179.4 399.2 180.6 398.7 C 181.4 398.3 181.9 398.1 182.2 398.1 C 183.0 398.1 183.7 398.4 184.4 399.1 C 185.0 399.8 185.3 400.5 185.3 401.2 C 185.3 401.6 185.1 402.1 184.8 402.8 C 184.2 404.0 183.9 405.0 183.9 405.8 C 183.9 406.6 184.2 407.6 184.8 408.7 C 185.1 409.5 185.3 410.1 185.3 410.4 " fill="#FFFFFF"></path></g></g></g></g></g></g></g><image xlink:href="../../2C21C783-D521-468A-A97D-288E8D4A35C2/assets/33CC6FB09C1887EC962022CFBB394EA1.png" width="212.00" height="41.00" transform="matrix(1.00, 0.00, -0.00, -1.00, 213.0, 424.0)"></image><text xml:space="preserve" font-family="HelveticaNeue-Light" font-size="43.5" fill="#FEFFFE" transform="matrix(1.00, 0.00, -0.00, -1.00, 214.0, 391.0)">D</text><text xml:space="preserve" font-family="HelveticaNeue-Light" font-size="43.5" fill="#FEFFFE" transform="matrix(1.00, 0.00, -0.00, -1.00, 243.8, 391.0)">a</text><text xml:space="preserve" font-family="HelveticaNeue-Light" font-size="43.5" fill="#FEFFFE" transform="matrix(1.00, 0.00, -0.00, -1.00, 266.4, 391.0)">t</text><text xml:space="preserve" font-family="HelveticaNeue-Light" font-size="43.5" fill="#FEFFFE" transform="matrix(1.00, 0.00, -0.00, -1.00, 279.2, 391.0)">a</text><text xml:space="preserve" font-family="HelveticaNeue-Light" font-size="43.5" fill="#FEFFFE" transform="matrix(1.00, 0.00, -0.00, -1.00, 301.8, 391.0)"> </text><text xml:space="preserve" font-family="HelveticaNeue-Light" font-size="43.5" fill="#FEFFFE" transform="matrix(1.00, 0.00, -0.00, -1.00, 313.9, 391.0)">e</text><text xml:space="preserve" font-family="HelveticaNeue-Light" font-size="43.5" fill="#FEFFFE" transform="matrix(1.00, 0.00, -0.00, -1.00, 336.5, 391.0)">r</text><text xml:space="preserve" font-family="HelveticaNeue-Light" font-size="43.5" fill="#FEFFFE" transform="matrix(1.00, 0.00, -0.00, -1.00, 350.2, 391.0)">r</text><text xml:space="preserve" font-family="HelveticaNeue-Light" font-size="43.5" fill="#FEFFFE" transform="matrix(1.00, 0.00, -0.00, -1.00, 363.1, 391.0)">o</text><text xml:space="preserve" font-family="HelveticaNeue-Light" font-size="43.5" fill="#FEFFFE" transform="matrix(1.00, 0.00, -0.00, -1.00, 387.3, 391.0)">r</text><text xml:space="preserve" font-family="HelveticaNeue-Light" font-size="43.5" fill="#FEFFFE" transform="matrix(1.00, 0.00, -0.00, -1.00, 401.0, 391.0)">s</text><text xml:space="preserve" font-family="HelveticaNeue-Light" font-size="43.5" fill="#FEFFFE" transform="matrix(1.00, 0.00, -0.00, -1.00, 421.9, 391.0)"> </text><image xlink:href="../../2C21C783-D521-468A-A97D-288E8D4A35C2/assets/2FC47450754DC58DCBFA202582E6D502.png" width="16.00" height="17.00" transform="matrix(1.00, 0.00, -0.00, -1.00, 170.0, 318.0)"></image><g><clipPath id="clip-222"><path d="M 170.0 301.7 L 185.3 301.7 L 185.3 317.1 L 170.0 317.1 Z M 170.0 301.7 "></path></clipPath><g clip-path="url(#clip-222)"><g><g><clipPath id="clip-223"><path d="M 170.0 317.1 L 185.3 317.1 L 185.3 301.7 L 170.0 301.7 Z M 170.0 317.1 "></path></clipPath><g clip-path="url(#clip-223)"><g><clipPath id="clip-224"><path d="M 166.0 294.0 L 190.0 294.0 L 190.0 325.0 L 166.0 325.0 Z M 166.0 294.0 "></path></clipPath><g clip-path="url(#clip-224)"><path d="M 185.3 314.1 C 185.3 314.7 185.0 315.4 184.4 316.1 C 183.7 316.8 183.0 317.1 182.2 317.1 C 181.9 317.1 181.4 317.0 180.6 316.6 C 179.4 316.0 178.4 315.8 177.6 315.8 C 176.7 315.8 175.7 316.0 174.6 316.6 C 173.9 317.0 173.4 317.1 173.0 317.1 C 172.3 317.1 171.6 316.8 171.0 316.1 C 170.3 315.5 170.0 314.8 170.0 314.1 C 170.0 313.7 170.2 313.1 170.5 312.4 C 171.1 311.2 171.3 310.3 171.3 309.4 C 171.3 308.6 171.1 307.6 170.5 306.4 C 170.2 305.7 170.0 305.2 170.0 304.8 C 170.0 304.1 170.3 303.4 171.0 302.7 C 171.6 302.1 172.3 301.7 173.0 301.7 C 173.4 301.7 173.9 301.9 174.6 302.3 C 175.7 302.8 176.7 303.1 177.6 303.1 C 178.4 303.1 179.4 302.8 180.6 302.3 C 181.4 301.9 181.9 301.7 182.2 301.7 C 183.0 301.7 183.7 302.1 184.4 302.7 C 185.0 303.4 185.3 304.1 185.3 304.8 C 185.3 305.2 185.1 305.7 184.8 306.4 C 184.2 307.6 183.9 308.6 183.9 309.4 C 183.9 310.3 184.2 311.2 184.8 312.4 C 185.1 313.1 185.3 313.7 185.3 314.1 " fill="#FFFFFF"></path></g></g></g></g></g></g></g><image xlink:href="../../2C21C783-D521-468A-A97D-288E8D4A35C2/assets/F3878CC776532D8DB9875E642F7902B6.png" width="508.00" height="49.00" transform="matrix(1.00, 0.00, -0.00, -1.00, 213.0, 328.0)"></image><text xml:space="preserve" font-family="HelveticaNeue-Light" font-size="43.5" fill="#FEFFFE" transform="matrix(1.00, 0.00, -0.00, -1.00, 214.0, 295.0)">P</text><text xml:space="preserve" font-family="HelveticaNeue-Light" font-size="43.5" fill="#FEFFFE" transform="matrix(1.00, 0.00, -0.00, -1.00, 241.4, 295.0)">r</text><text xml:space="preserve" font-family="HelveticaNeue-Light" font-size="43.5" fill="#FEFFFE" transform="matrix(1.00, 0.00, -0.00, -1.00, 254.3, 295.0)">o</text><text xml:space="preserve" font-family="HelveticaNeue-Light" font-size="43.5" fill="#FEFFFE" transform="matrix(1.00, 0.00, -0.00, -1.00, 278.5, 295.0)">g</text><text xml:space="preserve" font-family="HelveticaNeue-Light" font-size="43.5" fill="#FEFFFE" transform="matrix(1.00, 0.00, -0.00, -1.00, 302.7, 295.0)">r</text><text xml:space="preserve" font-family="HelveticaNeue-Light" font-size="43.5" fill="#FEFFFE" transform="matrix(1.00, 0.00, -0.00, -1.00, 316.4, 295.0)">a</text><text xml:space="preserve" font-family="HelveticaNeue-Light" font-size="43.5" fill="#FEFFFE" transform="matrix(1.00, 0.00, -0.00, -1.00, 339.0, 295.0)">m</text><text xml:space="preserve" font-family="HelveticaNeue-Light" font-size="43.5" fill="#FEFFFE" transform="matrix(1.00, 0.00, -0.00, -1.00, 375.2, 295.0)">m</text><text xml:space="preserve" font-family="HelveticaNeue-Light" font-size="43.5" fill="#FEFFFE" transform="matrix(1.00, 0.00, -0.00, -1.00, 411.4, 295.0)">e</text><text xml:space="preserve" font-family="HelveticaNeue-Light" font-size="43.5" fill="#FEFFFE" transform="matrix(1.00, 0.00, -0.00, -1.00, 434.0, 295.0)">r</text><text xml:space="preserve" font-family="HelveticaNeue-Light" font-size="43.5" fill="#FEFFFE" transform="matrix(1.00, 0.00, -0.00, -1.00, 447.7, 295.0)">/</text><text xml:space="preserve" font-family="HelveticaNeue-Light" font-size="43.5" fill="#FEFFFE" transform="matrix(1.00, 0.00, -0.00, -1.00, 462.2, 295.0)">A</text><text xml:space="preserve" font-family="HelveticaNeue-Light" font-size="43.5" fill="#FEFFFE" transform="matrix(1.00, 0.00, -0.00, -1.00, 489.6, 295.0)">n</text><text xml:space="preserve" font-family="HelveticaNeue-Light" font-size="43.5" fill="#FEFFFE" transform="matrix(1.00, 0.00, -0.00, -1.00, 513.0, 295.0)">a</text><text xml:space="preserve" font-family="HelveticaNeue-Light" font-size="43.5" fill="#FEFFFE" transform="matrix(1.00, 0.00, -0.00, -1.00, 535.6, 295.0)">l</text><text xml:space="preserve" font-family="HelveticaNeue-Light" font-size="43.5" fill="#FEFFFE" transform="matrix(1.00, 0.00, -0.00, -1.00, 543.6, 295.0)">y</text><text xml:space="preserve" font-family="HelveticaNeue-Light" font-size="43.5" fill="#FEFFFE" transform="matrix(1.00, 0.00, -0.00, -1.00, 563.7, 295.0)">s</text><text xml:space="preserve" font-family="HelveticaNeue-Light" font-size="43.5" fill="#FEFFFE" transform="matrix(1.00, 0.00, -0.00, -1.00, 584.7, 295.0)">t</text><text xml:space="preserve" font-family="HelveticaNeue-Light" font-size="43.5" fill="#FEFFFE" transform="matrix(1.00, 0.00, -0.00, -1.00, 597.5, 295.0)"> </text><text xml:space="preserve" font-family="HelveticaNeue-Light" font-size="43.5" fill="#FEFFFE" transform="matrix(1.00, 0.00, -0.00, -1.00, 609.6, 295.0)">e</text><text xml:space="preserve" font-family="HelveticaNeue-Light" font-size="43.5" fill="#FEFFFE" transform="matrix(1.00, 0.00, -0.00, -1.00, 632.2, 295.0)">r</text><text xml:space="preserve" font-family="HelveticaNeue-Light" font-size="43.5" fill="#FEFFFE" transform="matrix(1.00, 0.00, -0.00, -1.00, 645.9, 295.0)">r</text><text xml:space="preserve" font-family="HelveticaNeue-Light" font-size="43.5" fill="#FEFFFE" transform="matrix(1.00, 0.00, -0.00, -1.00, 658.8, 295.0)">o</text><text xml:space="preserve" font-family="HelveticaNeue-Light" font-size="43.5" fill="#FEFFFE" transform="matrix(1.00, 0.00, -0.00, -1.00, 683.0, 295.0)">r</text><text xml:space="preserve" font-family="HelveticaNeue-Light" font-size="43.5" fill="#FEFFFE" transform="matrix(1.00, 0.00, -0.00, -1.00, 696.7, 295.0)">s</text><text xml:space="preserve" font-family="HelveticaNeue-Light" font-size="43.5" fill="#FEFFFE" transform="matrix(1.00, 0.00, -0.00, -1.00, 717.6, 295.0)"> </text><image xlink:href="../../2C21C783-D521-468A-A97D-288E8D4A35C2/assets/42EFC9A572BBCC79C4958D91D7C3A50C.png" width="16.00" height="16.00" transform="matrix(1.00, 0.00, -0.00, -1.00, 170.0, 221.0)"></image><g><clipPath id="clip-225"><path d="M 170.0 205.4 L 185.3 205.4 L 185.3 220.8 L 170.0 220.8 Z M 170.0 205.4 "></path></clipPath><g clip-path="url(#clip-225)"><g><g><clipPath id="clip-226"><path d="M 170.0 220.8 L 185.3 220.8 L 185.3 205.4 L 170.0 205.4 Z M 170.0 220.8 "></path></clipPath><g clip-path="url(#clip-226)"><g><clipPath id="clip-227"><path d="M 166.0 198.0 L 190.0 198.0 L 190.0 228.0 L 166.0 228.0 Z M 166.0 198.0 "></path></clipPath><g clip-path="url(#clip-227)"><path d="M 185.3 217.7 C 185.3 218.4 185.0 219.0 184.4 219.7 C 183.7 220.4 183.0 220.8 182.2 220.8 C 181.9 220.8 181.4 220.6 180.6 220.2 C 179.4 219.7 178.4 219.4 177.6 219.4 C 176.7 219.4 175.7 219.7 174.6 220.2 C 173.9 220.6 173.4 220.8 173.0 220.8 C 172.3 220.8 171.6 220.4 171.0 219.8 C 170.3 219.1 170.0 218.4 170.0 217.7 C 170.0 217.3 170.2 216.8 170.5 216.0 C 171.1 214.9 171.3 213.9 171.3 213.1 C 171.3 212.3 171.1 211.3 170.5 210.1 C 170.2 209.4 170.0 208.8 170.0 208.5 C 170.0 207.7 170.3 207.0 171.0 206.4 C 171.6 205.7 172.3 205.4 173.0 205.4 C 173.4 205.4 173.9 205.6 174.6 205.9 C 175.7 206.5 176.7 206.8 177.6 206.8 C 178.4 206.8 179.4 206.5 180.6 205.9 C 181.4 205.6 181.9 205.4 182.2 205.4 C 183.0 205.4 183.7 205.7 184.4 206.4 C 185.0 207.0 185.3 207.7 185.3 208.5 C 185.3 208.8 185.1 209.4 184.8 210.1 C 184.2 211.3 183.9 212.3 183.9 213.1 C 183.9 213.9 184.2 214.9 184.8 216.0 C 185.1 216.8 185.3 217.3 185.3 217.7 " fill="#FFFFFF"></path></g></g></g></g></g></g></g><image xlink:href="../../2C21C783-D521-468A-A97D-288E8D4A35C2/assets/7087EA66D084B8A5B6251B30EFC308E3.png" width="349.00" height="49.00" transform="matrix(1.00, 0.00, -0.00, -1.00, 213.0, 232.0)"></image><text xml:space="preserve" font-family="HelveticaNeue-Light" font-size="43.5" fill="#FEFFFE" transform="matrix(1.00, 0.00, -0.00, -1.00, 214.0, 199.0)">P</text><text xml:space="preserve" font-family="HelveticaNeue-Light" font-size="43.5" fill="#FEFFFE" transform="matrix(1.00, 0.00, -0.00, -1.00, 241.4, 199.0)">r</text><text xml:space="preserve" font-family="HelveticaNeue-Light" font-size="43.5" fill="#FEFFFE" transform="matrix(1.00, 0.00, -0.00, -1.00, 254.3, 199.0)">o</text><text xml:space="preserve" font-family="HelveticaNeue-Light" font-size="43.5" fill="#FEFFFE" transform="matrix(1.00, 0.00, -0.00, -1.00, 278.5, 199.0)">g</text><text xml:space="preserve" font-family="HelveticaNeue-Light" font-size="43.5" fill="#FEFFFE" transform="matrix(1.00, 0.00, -0.00, -1.00, 302.7, 199.0)">r</text><text xml:space="preserve" font-family="HelveticaNeue-Light" font-size="43.5" fill="#FEFFFE" transform="matrix(1.00, 0.00, -0.00, -1.00, 316.4, 199.0)">a</text><text xml:space="preserve" font-family="HelveticaNeue-Light" font-size="43.5" fill="#FEFFFE" transform="matrix(1.00, 0.00, -0.00, -1.00, 339.0, 199.0)">m</text><text xml:space="preserve" font-family="HelveticaNeue-Light" font-size="43.5" fill="#FEFFFE" transform="matrix(1.00, 0.00, -0.00, -1.00, 375.2, 199.0)">m</text><text xml:space="preserve" font-family="HelveticaNeue-Light" font-size="43.5" fill="#FEFFFE" transform="matrix(1.00, 0.00, -0.00, -1.00, 411.4, 199.0)">i</text><text xml:space="preserve" font-family="HelveticaNeue-Light" font-size="43.5" fill="#FEFFFE" transform="matrix(1.00, 0.00, -0.00, -1.00, 419.5, 199.0)">n</text><text xml:space="preserve" font-family="HelveticaNeue-Light" font-size="43.5" fill="#FEFFFE" transform="matrix(1.00, 0.00, -0.00, -1.00, 442.9, 199.0)">g</text><text xml:space="preserve" font-family="HelveticaNeue-Light" font-size="43.5" fill="#FEFFFE" transform="matrix(1.00, 0.00, -0.00, -1.00, 467.0, 199.0)"> </text><text xml:space="preserve" font-family="HelveticaNeue-Light" font-size="43.5" fill="#FEFFFE" transform="matrix(1.00, 0.00, -0.00, -1.00, 479.1, 199.0)">t</text><text xml:space="preserve" font-family="HelveticaNeue-Light" font-size="43.5" fill="#FEFFFE" transform="matrix(1.00, 0.00, -0.00, -1.00, 492.0, 199.0)">i</text><text xml:space="preserve" font-family="HelveticaNeue-Light" font-size="43.5" fill="#FEFFFE" transform="matrix(1.00, 0.00, -0.00, -1.00, 500.1, 199.0)">m</text><text xml:space="preserve" font-family="HelveticaNeue-Light" font-size="43.5" fill="#FEFFFE" transform="matrix(1.00, 0.00, -0.00, -1.00, 536.3, 199.0)">e</text><text xml:space="preserve" font-family="HelveticaNeue-Light" font-size="43.5" fill="#FEFFFE" transform="matrix(1.00, 0.00, -0.00, -1.00, 558.9, 199.0)"> </text><image xlink:href="../../2C21C783-D521-468A-A97D-288E8D4A35C2/assets/18E5B7B35E522652E60472046776DBC2.png" width="16.00" height="16.00" transform="matrix(1.00, 0.00, -0.00, -1.00, 170.0, 125.0)"></image><g><clipPath id="clip-228"><path d="M 170.0 109.0 L 185.3 109.0 L 185.3 124.4 L 170.0 124.4 Z M 170.0 109.0 "></path></clipPath><g clip-path="url(#clip-228)"><g><g><clipPath id="clip-229"><path d="M 170.0 124.4 L 185.3 124.4 L 185.3 109.0 L 170.0 109.0 Z M 170.0 124.4 "></path></clipPath><g clip-path="url(#clip-229)"><g><clipPath id="clip-230"><path d="M 166.0 102.0 L 190.0 102.0 L 190.0 132.0 L 166.0 132.0 Z M 166.0 102.0 "></path></clipPath><g clip-path="url(#clip-230)"><path d="M 185.3 121.3 C 185.3 122.0 185.0 122.7 184.4 123.4 C 183.7 124.1 183.0 124.4 182.2 124.4 C 181.9 124.4 181.4 124.2 180.6 123.9 C 179.4 123.3 178.4 123.0 177.6 123.0 C 176.7 123.0 175.7 123.3 174.6 123.9 C 173.9 124.2 173.4 124.4 173.0 124.4 C 172.3 124.4 171.6 124.1 171.0 123.4 C 170.3 122.7 170.0 122.0 170.0 121.3 C 170.0 121.0 170.2 120.4 170.5 119.6 C 171.1 118.5 171.3 117.5 171.3 116.7 C 171.3 115.9 171.1 114.9 170.5 113.7 C 170.2 113.0 170.0 112.4 170.0 112.1 C 170.0 111.4 170.3 110.7 171.0 110.0 C 171.6 109.3 172.3 109.0 173.0 109.0 C 173.4 109.0 173.9 109.2 174.6 109.5 C 175.7 110.1 176.7 110.4 177.6 110.4 C 178.4 110.4 179.4 110.1 180.6 109.5 C 181.4 109.2 181.9 109.0 182.2 109.0 C 183.0 109.0 183.7 109.3 184.4 110.0 C 185.0 110.7 185.3 111.4 185.3 112.1 C 185.3 112.4 185.1 113.0 184.8 113.7 C 184.2 114.9 183.9 115.9 183.9 116.7 C 183.9 117.5 184.2 118.5 184.8 119.6 C 185.1 120.4 185.3 121.0 185.3 121.3 " fill="#FFFFFF"></path></g></g></g></g></g></g></g><image xlink:href="../../2C21C783-D521-468A-A97D-288E8D4A35C2/assets/9A35DA460B9CFBE5586CB5D3F27C146F.png" width="654.00" height="49.00" transform="matrix(1.00, 0.00, -0.00, -1.00, 213.0, 135.0)"></image><text xml:space="preserve" font-family="HelveticaNeue-Light" font-size="43.5" fill="#FEFFFE" transform="matrix(1.00, 0.00, -0.00, -1.00, 214.0, 102.0)">R</text><text xml:space="preserve" font-family="HelveticaNeue-Light" font-size="43.5" fill="#FEFFFE" transform="matrix(1.00, 0.00, -0.00, -1.00, 243.0, 102.0)">e</text><text xml:space="preserve" font-family="HelveticaNeue-Light" font-size="43.5" fill="#FEFFFE" transform="matrix(1.00, 0.00, -0.00, -1.00, 265.6, 102.0)">-</text><text xml:space="preserve" font-family="HelveticaNeue-Light" font-size="43.5" fill="#FEFFFE" transform="matrix(1.00, 0.00, -0.00, -1.00, 281.7, 102.0)">o</text><text xml:space="preserve" font-family="HelveticaNeue-Light" font-size="43.5" fill="#FEFFFE" transform="matrix(1.00, 0.00, -0.00, -1.00, 305.9, 102.0)">r</text><text xml:space="preserve" font-family="HelveticaNeue-Light" font-size="43.5" fill="#FEFFFE" transform="matrix(1.00, 0.00, -0.00, -1.00, 319.6, 102.0)">i</text><text xml:space="preserve" font-family="HelveticaNeue-Light" font-size="43.5" fill="#FEFFFE" transform="matrix(1.00, 0.00, -0.00, -1.00, 327.6, 102.0)">e</text><text xml:space="preserve" font-family="HelveticaNeue-Light" font-size="43.5" fill="#FEFFFE" transform="matrix(1.00, 0.00, -0.00, -1.00, 350.2, 102.0)">n</text><text xml:space="preserve" font-family="HelveticaNeue-Light" font-size="43.5" fill="#FEFFFE" transform="matrix(1.00, 0.00, -0.00, -1.00, 373.6, 102.0)">t</text><text xml:space="preserve" font-family="HelveticaNeue-Light" font-size="43.5" fill="#FEFFFE" transform="matrix(1.00, 0.00, -0.00, -1.00, 386.4, 102.0)">a</text><text xml:space="preserve" font-family="HelveticaNeue-Light" font-size="43.5" fill="#FEFFFE" transform="matrix(1.00, 0.00, -0.00, -1.00, 409.0, 102.0)">t</text><text xml:space="preserve" font-family="HelveticaNeue-Light" font-size="43.5" fill="#FEFFFE" transform="matrix(1.00, 0.00, -0.00, -1.00, 421.9, 102.0)">i</text><text xml:space="preserve" font-family="HelveticaNeue-Light" font-size="43.5" fill="#FEFFFE" transform="matrix(1.00, 0.00, -0.00, -1.00, 429.9, 102.0)">o</text><text xml:space="preserve" font-family="HelveticaNeue-Light" font-size="43.5" fill="#FEFFFE" transform="matrix(1.00, 0.00, -0.00, -1.00, 454.1, 102.0)">n</text><text xml:space="preserve" font-family="HelveticaNeue-Light" font-size="43.5" fill="#FEFFFE" transform="matrix(1.00, 0.00, -0.00, -1.00, 477.5, 102.0)"> </text><text xml:space="preserve" font-family="HelveticaNeue-Light" font-size="43.5" fill="#FEFFFE" transform="matrix(1.00, 0.00, -0.00, -1.00, 489.6, 102.0)">t</text><text xml:space="preserve" font-family="HelveticaNeue-Light" font-size="43.5" fill="#FEFFFE" transform="matrix(1.00, 0.00, -0.00, -1.00, 502.4, 102.0)">i</text><text xml:space="preserve" font-family="HelveticaNeue-Light" font-size="43.5" fill="#FEFFFE" transform="matrix(1.00, 0.00, -0.00, -1.00, 510.5, 102.0)">m</text><text xml:space="preserve" font-family="HelveticaNeue-Light" font-size="43.5" fill="#FEFFFE" transform="matrix(1.00, 0.00, -0.00, -1.00, 546.7, 102.0)">e</text><text xml:space="preserve" font-family="HelveticaNeue-Light" font-size="43.5" fill="#FEFFFE" transform="matrix(1.00, 0.00, -0.00, -1.00, 569.3, 102.0)"> </text><text xml:space="preserve" font-family="HelveticaNeue-Light" font-size="43.5" fill="#FEFFFE" transform="matrix(1.00, 0.00, -0.00, -1.00, 581.4, 102.0)">w</text><text xml:space="preserve" font-family="HelveticaNeue-Light" font-size="43.5" fill="#FEFFFE" transform="matrix(1.00, 0.00, -0.00, -1.00, 613.6, 102.0)">h</text><text xml:space="preserve" font-family="HelveticaNeue-Light" font-size="43.5" fill="#FEFFFE" transform="matrix(1.00, 0.00, -0.00, -1.00, 637.0, 102.0)">i</text><text xml:space="preserve" font-family="HelveticaNeue-Light" font-size="43.5" fill="#FEFFFE" transform="matrix(1.00, 0.00, -0.00, -1.00, 645.0, 102.0)">l</text><text xml:space="preserve" font-family="HelveticaNeue-Light" font-size="43.5" fill="#FEFFFE" transform="matrix(1.00, 0.00, -0.00, -1.00, 653.1, 102.0)">e</text><text xml:space="preserve" font-family="HelveticaNeue-Light" font-size="43.5" fill="#FEFFFE" transform="matrix(1.00, 0.00, -0.00, -1.00, 675.7, 102.0)"> </text><text xml:space="preserve" font-family="HelveticaNeue-Light" font-size="43.5" fill="#FEFFFE" transform="matrix(1.00, 0.00, -0.00, -1.00, 687.8, 102.0)">r</text><text xml:space="preserve" font-family="HelveticaNeue-Light" font-size="43.5" fill="#FEFFFE" transform="matrix(1.00, 0.00, -0.00, -1.00, 700.7, 102.0)">e</text><text xml:space="preserve" font-family="HelveticaNeue-Light" font-size="43.5" fill="#FEFFFE" transform="matrix(1.00, 0.00, -0.00, -1.00, 723.3, 102.0)">-</text><text xml:space="preserve" font-family="HelveticaNeue-Light" font-size="43.5" fill="#FEFFFE" transform="matrix(1.00, 0.00, -0.00, -1.00, 739.3, 102.0)">v</text><text xml:space="preserve" font-family="HelveticaNeue-Light" font-size="43.5" fill="#FEFFFE" transform="matrix(1.00, 0.00, -0.00, -1.00, 759.5, 102.0)">i</text><text xml:space="preserve" font-family="HelveticaNeue-Light" font-size="43.5" fill="#FEFFFE" transform="matrix(1.00, 0.00, -0.00, -1.00, 767.5, 102.0)">s</text><text xml:space="preserve" font-family="HelveticaNeue-Light" font-size="43.5" fill="#FEFFFE" transform="matrix(1.00, 0.00, -0.00, -1.00, 788.5, 102.0)">i</text><text xml:space="preserve" font-family="HelveticaNeue-Light" font-size="43.5" fill="#FEFFFE" transform="matrix(1.00, 0.00, -0.00, -1.00, 796.5, 102.0)">t</text><text xml:space="preserve" font-family="HelveticaNeue-Light" font-size="43.5" fill="#FEFFFE" transform="matrix(1.00, 0.00, -0.00, -1.00, 809.4, 102.0)">i</text><text xml:space="preserve" font-family="HelveticaNeue-Light" font-size="43.5" fill="#FEFFFE" transform="matrix(1.00, 0.00, -0.00, -1.00, 817.4, 102.0)">n</text><text xml:space="preserve" font-family="HelveticaNeue-Light" font-size="43.5" fill="#FEFFFE" transform="matrix(1.00, 0.00, -0.00, -1.00, 840.8, 102.0)">g</text></g></svg>